<svg width="470" height="526" viewBox="0 0 470 526" fill="none" xmlns="http://www.w3.org/2000/svg">
<rect x="0.5" y="0.5" width="469" height="525" rx="15.5" fill="#F4F6F9" stroke="#D1D1D1"/>
<path d="M287.381 216.333H182.619C178.412 216.333 175 219.745 175 223.952V302.048C175 306.255 178.412 309.666 182.619 309.666H287.381C291.588 309.666 295 306.255 295 302.047V223.952C295 219.745 291.589 216.333 287.381 216.333ZM287.381 223.952V279.364L272.365 265.712C270.109 263.661 266.638 263.743 264.482 265.901L249.285 281.095L219.322 245.305C217.057 242.6 212.908 242.573 210.61 245.246L182.619 277.775V223.952H287.381ZM255 243.952C255 238.166 259.689 233.476 265.476 233.476C271.263 233.476 275.952 238.166 275.952 243.952C275.952 249.739 271.263 254.428 265.476 254.428C259.689 254.429 255 249.739 255 243.952Z" fill="#CCCCCC"/>
</svg>
