<svg width="103" height="172" viewBox="0 0 103 172" fill="none" xmlns="http://www.w3.org/2000/svg">
<path d="M47.9067 130.833L52.6603 133.484C52.6603 133.484 58.3803 134.489 67.91 123.755C77.4396 113.021 101.618 89.9573 102.421 84.4413C103.225 78.9254 100.011 75.8135 96.1 76.319C92.1892 76.819 42.3271 106.91 42.3271 106.91L47.9067 130.833Z" fill="#D59870"/>
<path d="M86.7724 35.8031C86.7724 35.8031 95.5154 29.3884 98.7126 33.4944C101.522 37.1062 98.9149 40.4147 96.1054 42.7233C93.296 45.0319 88.5817 47.9359 86.0757 47.436C83.5641 46.9361 82.3616 39.016 86.7724 35.8031Z" fill="#E8BB95"/>
<path d="M47.0975 107.713H85.1824C88.9414 107.713 91.9925 104.663 91.9925 100.905V7.22354C91.9925 3.23543 88.756 0 84.7666 0H45.395C41.0965 0 37.6128 3.48258 37.6128 7.77401V98.2312C37.6128 103.472 41.8607 107.713 47.0975 107.713Z" fill="#464646"/>
<path d="M89.784 100.484C89.784 103.202 87.5814 105.41 84.8563 105.41H44.7486C42.029 105.41 39.8208 103.208 39.8208 100.484V7.72339H89.784V100.484Z" fill="#FCFCFA"/>
<g clip-path="url(#clip0)">
<path d="M76.3559 47.1076C76.3559 46.8032 76.172 46.5288 75.8904 46.4131L65.2851 42.0563C65.1022 41.9812 64.8972 41.9812 64.7144 42.0563L54.1091 46.4131C53.8275 46.5288 53.6436 46.8032 53.6436 47.1076V60.8924C53.6436 61.1968 53.8274 61.4712 54.1091 61.5869L64.7144 65.9437C64.8953 66.018 65.0986 66.0196 65.2841 65.9436C65.2932 65.9406 64.8917 66.1053 75.8904 61.5869C76.1721 61.4712 76.3559 61.1968 76.3559 60.8924V47.1076ZM64.9997 50.7158L61.0921 49.1105L69.537 45.4265L73.706 47.1392L64.9997 50.7158ZM55.1453 48.291L58.5167 49.676V53.5835C58.5167 53.9981 58.8529 54.3343 59.2675 54.3343C59.6822 54.3343 60.0184 53.9981 60.0184 53.5835V50.2929L64.2489 52.0308V64.1289L55.1453 60.3891V48.291ZM64.9997 43.5626L67.6027 44.6319L59.1578 48.3159L56.2935 47.1392L64.9997 43.5626ZM65.7506 52.0308L74.8542 48.291V60.3891L65.7506 64.1289V52.0308Z" fill="#264796"/>
</g>
<path d="M44.7486 2.40967H84.8619C87.5814 2.40967 89.7896 4.61156 89.7896 7.33583V7.72902H39.8208V7.33583C39.8208 4.61156 42.029 2.40967 44.7486 2.40967Z" fill="#264796"/>
<path d="M84.3843 5.8194H86.1542C86.5532 5.8194 86.8734 5.49923 86.8734 5.10042V4.8308C86.8734 4.43199 86.5532 4.11182 86.1542 4.11182H84.3843C83.9853 4.11182 83.665 4.43199 83.665 4.8308V5.10042C83.665 5.49361 83.9853 5.8194 84.3843 5.8194Z" fill="#FCFCFA"/>
<path d="M80.1699 5.8194H81.9399C82.3388 5.8194 82.6591 5.49923 82.6591 5.10042V4.8308C82.6591 4.43199 82.3388 4.11182 81.9399 4.11182H80.1699C79.771 4.11182 79.4507 4.43199 79.4507 4.8308V5.10042C79.4507 5.49361 79.771 5.8194 80.1699 5.8194Z" fill="#FCFCFA"/>
<path d="M44.9565 5.8194H46.7265C47.1254 5.8194 47.4457 5.49923 47.4457 5.10042V4.8308C47.4457 4.43199 47.1254 4.11182 46.7265 4.11182H44.9565C44.5576 4.11182 44.2373 4.43199 44.2373 4.8308V5.10042C44.2373 5.49361 44.5576 5.8194 44.9565 5.8194Z" fill="#FCFCFA"/>
<path d="M57.2787 6.52144H72.5284C74.9108 6.52144 76.8437 4.58917 76.8437 2.20754V1.4043H52.9634V2.20754C52.9634 4.58917 54.8963 6.52144 57.2787 6.52144Z" fill="#464646"/>
<path d="M62.4875 3.51071H72.3375C72.6634 3.51071 72.9274 3.24671 72.9274 2.92092V2.69624C72.9274 2.37045 72.6634 2.10645 72.3375 2.10645H62.4875C62.1616 2.10645 61.8975 2.37045 61.8975 2.69624V2.92092C61.8919 3.24671 62.156 3.51071 62.4875 3.51071Z" fill="#262626"/>
<path d="M57.481 2.85908C57.481 3.60615 58.0878 4.21279 58.8351 4.21279C59.5824 4.21279 60.1893 3.60615 60.1893 2.85908C60.1893 2.11201 59.5824 1.50537 58.8351 1.50537C58.0878 1.50537 57.481 2.11201 57.481 2.85908Z" fill="#262626"/>
<path d="M58.082 2.85913C58.082 3.27479 58.4192 3.61182 58.835 3.61182C59.2508 3.61182 59.5879 3.27479 59.5879 2.85913C59.5879 2.44347 59.2508 2.10645 58.835 2.10645C58.4192 2.10645 58.082 2.44347 58.082 2.85913Z" fill="#313131"/>
<path d="M55.2725 2.85913C55.2725 3.27479 55.6096 3.61182 56.0254 3.61182C56.4412 3.61182 56.7783 3.27479 56.7783 2.85913C56.7783 2.44347 56.4412 2.10645 56.0254 2.10645C55.6096 2.10645 55.2725 2.44347 55.2725 2.85913Z" fill="#313131"/>
<path d="M48.6988 131.231C48.6988 131.231 52.7107 116.689 47.7942 107.46C42.8776 98.2311 37.86 97.2312 38.3657 88.2046C38.8657 79.178 42.681 77.3749 42.7821 67.1406C42.8832 56.912 37.7644 51.5982 34.056 52.1993C32.949 53.2047 23.8183 86.5026 22.2169 94.9282C20.6099 103.354 22.6159 118.194 22.6159 118.194L48.6988 131.231Z" fill="#E8BB95"/>
<path d="M32.9999 54.8447C32.9999 54.8447 36.7646 56.2153 36.36 59.4226C35.9611 62.63 34.4552 66.6462 34.4552 66.6462L29.7578 65.6576C29.7578 65.652 31.7469 56.9848 32.9999 54.8447Z" fill="#EFCFB8"/>
<path d="M93.2957 89.8617C93.2957 89.8617 97.8077 88.4574 100.522 85.6489C103.23 82.8404 104.135 78.4253 101.123 76.3189C98.1111 74.2126 93.897 76.4201 91.1887 78.3242C88.4803 80.2284 84.9685 83.5369 86.0698 86.9464C87.1768 90.3616 91.1887 90.8615 93.2957 89.8617Z" fill="#E8BB95"/>
<path d="M92.391 88.3899L88.3735 82.9413C88.3735 82.9413 92.0483 80.1328 94.1666 81.7561C96.2906 83.3851 96.0152 86.4857 92.391 88.3899Z" fill="#EFCFB8"/>
<path d="M92.5767 76.7796C92.5767 76.7796 96.9875 74.5834 99.3081 71.2412C101.629 67.8991 101.82 63.2088 98.3754 61.5462C94.9254 59.8779 90.9585 62.8493 88.4918 65.2646C86.0194 67.6744 82.9571 71.6681 84.6653 74.9934C86.3622 78.3131 90.5764 78.1614 92.5767 76.7796Z" fill="#E8BB95"/>
<path d="M91.4025 75.4149L86.3623 70.4775C86.3623 70.4775 89.6718 66.978 92.1273 68.2981C94.5771 69.6181 94.8131 72.8479 91.4025 75.4149Z" fill="#EFCFB8"/>
<path d="M91.5878 61.1753C91.5878 61.1753 94.3972 60.7765 97.0044 57.7657C98.662 55.8503 99.915 53.8563 98.6114 51.4465C97.3078 49.0368 93.1948 45.9306 90.5876 47.0315C87.9805 48.1325 84.7665 54.2551 85.9745 57.6646C87.177 61.0798 90.2842 61.4786 91.5878 61.1753Z" fill="#E8BB95"/>
<path d="M92.2397 59.7485L87.0815 55.1313C87.0815 55.1313 90.1776 51.5532 92.6386 52.7384C95.0997 53.9236 95.4706 57.086 92.2397 59.7485Z" fill="#EFCFB8"/>
<path d="M60.3864 137L18.4526 115.335L13.2383 124.76L54.2675 146.925L60.3864 137Z" fill="#E8E8E8"/>
<path d="M59.4873 148.33L8.82167 120.75L0 134.995V171.629L46.7436 172L59.4873 148.33Z" fill="#F99746"/>
<defs>
<clipPath id="clip0">
<rect width="24" height="24" fill="white" transform="translate(52.9995 42)"/>
</clipPath>
</defs>
</svg>
