<svg width="103" height="172" viewBox="0 0 103 172" fill="none" xmlns="http://www.w3.org/2000/svg">
<g clip-path="url(#clip0)">
<path d="M47.9067 130.833L52.6603 133.484C52.6603 133.484 58.3803 134.489 67.91 123.755C77.4396 113.021 101.618 89.9572 102.421 84.4413C103.225 78.9253 100.011 75.8135 96.1 76.319C92.1892 76.8189 42.3271 106.91 42.3271 106.91L47.9067 130.833Z" fill="#D59870"/>
<path d="M86.7729 35.8031C86.7729 35.8031 95.5159 29.3884 98.7131 33.4944C101.523 37.1062 98.9154 40.4147 96.1059 42.7233C93.2965 45.0319 88.5822 47.9359 86.0762 47.436C83.5645 46.9361 82.3621 39.016 86.7729 35.8031Z" fill="#E8BB95"/>
<path d="M47.098 107.713H85.1829C88.9419 107.713 91.993 104.663 91.993 100.905V7.22354C91.993 3.23543 88.7565 0 84.7671 0H45.3955C41.097 0 37.6133 3.48258 37.6133 7.77401V98.2312C37.6133 103.472 41.8612 107.713 47.098 107.713Z" fill="#464646"/>
<path d="M89.7845 100.484C89.7845 103.202 87.5819 105.41 84.8567 105.41H44.7491C42.0295 105.41 39.8213 103.208 39.8213 100.484V7.72345H89.7845V100.484Z" fill="#FCFCFA"/>
<path d="M44.7491 2.4097H84.8624C87.5819 2.4097 89.7901 4.61159 89.7901 7.33586V7.72905H39.8213V7.33586C39.8213 4.61159 42.0295 2.4097 44.7491 2.4097Z" fill="#264796"/>
<path d="M84.3843 5.81934H86.1542C86.5532 5.81934 86.8734 5.49917 86.8734 5.10036V4.83074C86.8734 4.43193 86.5532 4.11176 86.1542 4.11176H84.3843C83.9853 4.11176 83.665 4.43193 83.665 4.83074V5.10036C83.665 5.49355 83.9853 5.81934 84.3843 5.81934Z" fill="#FCFCFA"/>
<path d="M80.1704 5.81934H81.9404C82.3393 5.81934 82.6596 5.49917 82.6596 5.10036V4.83074C82.6596 4.43193 82.3393 4.11176 81.9404 4.11176H80.1704C79.7714 4.11176 79.4512 4.43193 79.4512 4.83074V5.10036C79.4512 5.49355 79.7714 5.81934 80.1704 5.81934Z" fill="#FCFCFA"/>
<path d="M44.9575 5.81934H46.7275C47.1264 5.81934 47.4467 5.49917 47.4467 5.10036V4.83074C47.4467 4.43193 47.1264 4.11176 46.7275 4.11176H44.9575C44.5586 4.11176 44.2383 4.43193 44.2383 4.83074V5.10036C44.2383 5.49355 44.5586 5.81934 44.9575 5.81934Z" fill="#FCFCFA"/>
<path d="M44.8397 17.7532L84.7676 17.7532V12.9394L44.8397 12.9394V17.7532Z" fill="#264796"/>
<path d="M44.8397 77.5232H84.7676V21.6615L44.8397 21.6615L44.8397 77.5232Z" fill="#E8E8E8"/>
<path d="M44.8389 51.6999L51.8063 54.5421L65.3816 21.6654H71.9107L57.4701 56.8619L84.7668 68.0118V73.1402L67.4156 65.8492L62.4316 77.5271H56.0598L61.9484 63.5519L44.8389 56.362V51.6999Z" fill="#FCFCFA"/>
<path d="M48.5586 99.1861H81.0414C83.0979 99.1861 84.7611 97.5178 84.7611 95.4676V94.0858C84.7611 92.0299 83.0923 90.3673 81.0414 90.3673H48.5586C46.5021 90.3673 44.8389 92.0356 44.8389 94.0858V95.4676C44.8389 97.5234 46.5077 99.1861 48.5586 99.1861Z" fill="#264796"/>
<path d="M55.1719 42.7234C55.1719 37.0165 59.7962 32.3936 65.505 32.3936C71.2138 32.3936 75.8382 37.0165 75.8382 42.7234C75.8382 43.7513 75.6865 44.7455 75.4055 45.6836C75.4055 45.6836 74.6357 50.2446 66.0051 60.9788C58.5825 54.2552 55.1719 46.3352 55.1719 42.7234Z" fill="#264796"/>
<path d="M59.9873 42.2741C59.9873 45.459 62.5046 48.0428 65.6062 48.0428C68.7078 48.0428 71.2251 45.459 71.2251 42.2741C71.2251 39.0892 68.7078 36.5054 65.6062 36.5054C62.5046 36.5054 59.9873 39.0892 59.9873 42.2741Z" fill="#F3F4FF"/>
<path d="M45.4406 82.0367H84.166V80.3292H45.4406V82.0367Z" fill="#C1E3F7"/>
<path d="M45.4406 87.0553H84.166V85.3477H45.4406V87.0553Z" fill="#C1E3F7"/>
<path d="M57.2792 6.52141H72.5289C74.9113 6.52141 76.8442 4.58914 76.8442 2.20751V1.40427H52.9639V2.20751C52.9639 4.58914 54.8968 6.52141 57.2792 6.52141Z" fill="#464646"/>
<path d="M62.4875 3.51065H72.3375C72.6634 3.51065 72.9274 3.24665 72.9274 2.92086V2.69618C72.9274 2.37039 72.6634 2.10638 72.3375 2.10638H62.4875C62.1616 2.10638 61.8975 2.37039 61.8975 2.69618V2.92086C61.8919 3.24665 62.156 3.51065 62.4875 3.51065Z" fill="#262626"/>
<path d="M57.4814 2.85902C57.4814 3.60609 58.0883 4.21273 58.8356 4.21273C59.5829 4.21273 60.1898 3.60609 60.1898 2.85902C60.1898 2.11195 59.5829 1.50531 58.8356 1.50531C58.0883 1.50531 57.4814 2.11195 57.4814 2.85902Z" fill="#262626"/>
<path d="M58.083 2.85907C58.083 3.27473 58.4201 3.61176 58.8359 3.61176C59.2517 3.61176 59.5889 3.27473 59.5889 2.85907C59.5889 2.44341 59.2517 2.10638 58.8359 2.10638C58.4201 2.10638 58.083 2.44341 58.083 2.85907Z" fill="#313131"/>
<path d="M55.2734 2.85907C55.2734 3.27473 55.6106 3.61176 56.0264 3.61176C56.4422 3.61176 56.7793 3.27473 56.7793 2.85907C56.7793 2.44341 56.4422 2.10638 56.0264 2.10638C55.6106 2.10638 55.2734 2.44341 55.2734 2.85907Z" fill="#313131"/>
<path d="M48.6993 131.231C48.6993 131.231 52.7112 116.689 47.7946 107.46C42.8781 98.2312 37.8604 97.2313 38.3661 88.2047C38.8662 79.1781 42.6815 77.375 42.7826 67.1408C42.8837 56.9121 37.7649 51.5984 34.0564 52.1994C32.9495 53.2048 23.8188 86.5028 22.2174 94.9284C20.6104 103.354 22.6164 118.194 22.6164 118.194L48.6993 131.231Z" fill="#E8BB95"/>
<path d="M32.9999 54.8449C32.9999 54.8449 36.7646 56.2155 36.36 59.4228C35.9611 62.6302 34.4552 66.6464 34.4552 66.6464L29.7578 65.6578C29.7578 65.6521 31.7469 56.985 32.9999 54.8449Z" fill="#EFCFB8"/>
<path d="M93.2967 89.8617C93.2967 89.8617 97.8087 88.4574 100.523 85.6489C103.231 82.8404 104.136 78.4254 101.124 76.319C98.1121 74.2126 93.8979 76.4201 91.1896 78.3243C88.4813 80.2284 84.9695 83.5369 86.0708 86.9464C87.1777 90.3616 91.1896 90.8615 93.2967 89.8617Z" fill="#E8BB95"/>
<path d="M92.3915 88.39L88.374 82.9414C88.374 82.9414 92.0488 80.1329 94.1671 81.7562C96.2911 83.3852 96.0157 86.4858 92.3915 88.39Z" fill="#EFCFB8"/>
<path d="M92.5777 76.7796C92.5777 76.7796 96.9885 74.5833 99.3091 71.2412C101.63 67.899 101.821 63.2088 98.3764 61.5461C94.9264 59.8778 90.9594 62.8493 88.4927 65.2646C86.0204 67.6743 82.9581 71.6681 84.6663 74.9934C86.3632 78.313 90.5773 78.1614 92.5777 76.7796Z" fill="#E8BB95"/>
<path d="M91.4034 75.4147L86.3633 70.4773C86.3633 70.4773 89.6728 66.9779 92.1283 68.2979C94.5781 69.6179 94.8141 72.8477 91.4034 75.4147Z" fill="#EFCFB8"/>
<path d="M91.5883 61.1753C91.5883 61.1753 94.3977 60.7765 97.0049 57.7658C98.6625 55.8504 99.9155 53.8563 98.6119 51.4466C97.3083 49.0369 93.1953 45.9306 90.5881 47.0316C87.981 48.1325 84.7669 54.2551 85.975 57.6647C87.1775 61.0799 90.2847 61.4787 91.5883 61.1753Z" fill="#E8BB95"/>
<path d="M92.2402 59.7485L87.082 55.1313C87.082 55.1313 90.178 51.5532 92.6391 52.7384C95.1002 53.9236 95.4711 57.086 92.2402 59.7485Z" fill="#EFCFB8"/>
<path d="M60.3864 137L18.4526 115.335L13.2383 124.76L54.2675 146.925L60.3864 137Z" fill="#E8E8E8"/>
<path d="M59.4873 148.33L8.82167 120.75L0 134.995V171.629L46.7436 172L59.4873 148.33Z" fill="#F99746"/>
</g>
<defs>
<clipPath id="clip0">
<rect width="103" height="172" fill="white"/>
</clipPath>
</defs>
</svg>
