<svg width="337" height="343" viewBox="0 0 337 343" fill="none" xmlns="http://www.w3.org/2000/svg">
<g clip-path="url(#clip0)">
<path d="M253.038 308.138C253.038 314.434 251.159 320.589 247.637 325.824C244.115 331.059 239.11 335.139 233.253 337.548C227.397 339.957 220.953 340.588 214.736 339.359C208.519 338.131 202.808 335.099 198.325 330.647C193.843 326.196 190.791 320.524 189.554 314.349C188.317 308.174 188.952 301.773 191.378 295.957C193.804 290.14 197.912 285.168 203.182 281.67C208.453 278.173 214.649 276.306 220.988 276.306C229.488 276.306 237.64 279.659 243.651 285.629C249.662 291.599 253.038 299.696 253.038 308.138Z" fill="#F7F8FC"/>
<path d="M149.984 332.132C163.322 318.884 163.322 297.405 149.984 284.157C136.645 270.909 115.02 270.909 101.681 284.157C88.3429 297.405 88.3429 318.884 101.681 332.132C115.02 345.38 136.645 345.38 149.984 332.132Z" fill="#F7F8FC"/>
<path d="M52.6918 284.129C72.6988 284.129 88.9178 268.02 88.9178 248.148C88.9178 228.277 72.6988 212.168 52.6918 212.168C32.6847 212.168 16.4658 228.277 16.4658 248.148C16.4658 268.02 32.6847 284.129 52.6918 284.129Z" fill="#F7F8FC"/>
<path d="M75.1053 162.561C78.8004 142.123 65.1142 122.579 44.5362 118.909C23.9583 115.239 4.28106 128.832 0.585913 149.271C-3.10923 169.709 10.577 189.253 31.1549 192.923C51.7329 196.593 71.4101 183 75.1053 162.561Z" fill="#F7F8FC"/>
<path d="M84.1985 114.04C105.799 114.04 123.31 96.6473 123.31 75.1929C123.31 53.7384 105.799 36.3462 84.1985 36.3462C62.5976 36.3462 45.0867 53.7384 45.0867 75.1929C45.0867 96.6473 62.5976 114.04 84.1985 114.04Z" fill="#F7F8FC"/>
<path d="M189.75 82.3668C211.48 73.3475 221.734 48.5398 212.653 26.9573C203.572 5.37481 178.595 -4.80967 156.865 4.20963C135.135 13.2289 124.881 38.0366 133.962 59.6191C143.043 81.2016 168.02 91.3861 189.75 82.3668Z" fill="#F7F8FC"/>
<path d="M321.829 254.437C325.743 237.903 315.421 221.349 298.774 217.461C282.127 213.574 265.459 223.827 261.546 240.36C257.632 256.894 267.954 273.449 284.601 277.336C301.248 281.223 317.916 270.971 321.829 254.437Z" fill="#F7F8FC"/>
<path d="M318.557 181.479C333.37 175.843 340.779 159.346 335.105 144.633C329.43 129.92 312.821 122.562 298.008 128.198C283.194 133.834 275.786 150.33 281.46 165.043C287.135 179.756 303.743 187.115 318.557 181.479Z" fill="#F7F8FC"/>
<path d="M286.404 78.3027C288.721 64.0918 279.001 50.7058 264.693 48.4041C250.385 46.1025 236.908 55.7568 234.59 69.9676C232.273 84.1785 241.993 97.5646 256.301 99.8663C270.609 102.168 284.086 92.5136 286.404 78.3027Z" fill="#F7F8FC"/>
<g clip-path="url(#clip1)">
<path d="M213.107 114.001H161.539C160.244 114.001 159.195 115.167 159.195 116.604V145.236H133.411C132.116 145.236 131.067 146.401 131.067 147.839V236.336C131.067 237.774 132.116 238.939 133.411 238.939H213.107C214.402 238.939 215.451 237.774 215.451 236.336V116.604C215.451 115.167 214.402 114.001 213.107 114.001Z" fill="#F7F8FC"/>
<path d="M156.332 193H159.748V189.668H161.638V186.518H159.748V181.268H156.332V186.518H151.25L157.704 172.84H153.854L147.4 186.518V189.668H156.332V193ZM172.097 193.42C173.534 193.42 174.794 193.117 175.877 192.51C176.969 191.894 177.818 191.04 178.425 189.948C179.041 188.856 179.349 187.596 179.349 186.168V179.672C179.349 178.235 179.041 176.975 178.425 175.892C177.818 174.8 176.969 173.951 175.877 173.344C174.794 172.728 173.534 172.42 172.097 172.42C170.66 172.42 169.395 172.728 168.303 173.344C167.22 173.951 166.371 174.8 165.755 175.892C165.148 176.975 164.845 178.235 164.845 179.672V186.168C164.845 187.596 165.148 188.856 165.755 189.948C166.371 191.04 167.22 191.894 168.303 192.51C169.395 193.117 170.66 193.42 172.097 193.42ZM172.097 190.214C171.388 190.214 170.744 190.046 170.165 189.71C169.596 189.365 169.138 188.907 168.793 188.338C168.457 187.759 168.289 187.115 168.289 186.406V179.42C168.289 178.701 168.457 178.057 168.793 177.488C169.138 176.909 169.596 176.452 170.165 176.116C170.744 175.771 171.388 175.598 172.097 175.598C172.806 175.598 173.446 175.771 174.015 176.116C174.594 176.452 175.051 176.909 175.387 177.488C175.732 178.057 175.905 178.701 175.905 179.42V186.406C175.905 187.115 175.732 187.759 175.387 188.338C175.051 188.907 174.594 189.365 174.015 189.71C173.446 190.046 172.806 190.214 172.097 190.214ZM191.497 193H194.913V189.668H196.803V186.518H194.913V181.268H191.497V186.518H186.415L192.869 172.84H189.019L182.565 186.518V189.668H191.497V193Z" fill="#1540A9"/>
<path d="M162.434 114.199C161.559 113.795 160.55 114.017 159.879 114.761L131.751 145.996C130.835 147.011 130.833 148.659 131.747 149.677C132.188 150.167 132.787 150.443 133.411 150.441H161.539C162.833 150.441 163.883 149.276 163.883 147.838V116.604C163.883 115.551 163.311 114.601 162.434 114.199Z" fill="#DAE5FF"/>
</g>
<g clip-path="url(#clip2)">
<path d="M143.322 236.81L140.26 241.684L163.321 255.99L166.383 251.117L143.322 236.81Z" fill="#0C389F" fill-opacity="0.5"/>
<path d="M172.367 258.173L172.332 258.229C171.368 259.769 169.642 260.429 168.484 259.709L155.145 251.576L158.65 245.722L172.013 254.09C173.176 254.807 173.333 256.636 172.367 258.173Z" fill="#264796" fill-opacity="0.5"/>
<path opacity="0.12" d="M147.161 245.838L148.002 246.446L155.616 244.483L149.272 240.461L147.161 245.838Z" fill="#272525"/>
<path d="M146.713 246.523C153.51 239.769 153.51 228.82 146.713 222.067C139.916 215.314 128.896 215.314 122.1 222.067C115.303 228.82 115.303 239.769 122.1 246.523C128.896 253.276 139.916 253.276 146.713 246.523Z" fill="#264796" fill-opacity="0.5"/>
<path d="M134.406 249.171C142.675 249.171 149.378 242.511 149.378 234.295C149.378 226.079 142.675 219.419 134.406 219.419C126.137 219.419 119.434 226.079 119.434 234.295C119.434 242.511 126.137 249.171 134.406 249.171Z" fill="white"/>
<g opacity="0.22">
<path opacity="0.22" d="M123.617 233.696C123.541 228.95 126.646 224.66 131.251 223.344C135.845 222.03 140.852 224.043 143.269 228.141C143.95 229.296 145.801 228.331 145.121 227.175C142.338 222.459 136.821 220.017 131.444 221.154C126.143 222.272 122.23 226.802 121.597 232.092C121.538 232.604 121.515 233.12 121.527 233.635C121.547 234.97 123.637 235.04 123.618 233.696H123.617Z" fill="white"/>
</g>
<path opacity="0.31" d="M145.688 232.705C146.449 232.692 147.055 232.069 147.043 231.313C147.03 230.557 146.403 229.955 145.642 229.967C144.881 229.98 144.275 230.603 144.287 231.359C144.3 232.115 144.927 232.717 145.688 232.705Z" fill="white"/>
<path d="M155.322 251.383L158.657 245.81C158.712 245.718 158.731 245.609 158.71 245.503C158.688 245.398 158.628 245.304 158.541 245.24L158.483 245.197C158.434 245.161 158.377 245.135 158.317 245.122C158.257 245.109 158.195 245.108 158.135 245.121C158.074 245.133 158.018 245.158 157.968 245.194C157.918 245.229 157.876 245.275 157.845 245.328L154.558 250.938C154.529 250.988 154.51 251.043 154.503 251.1C154.496 251.157 154.5 251.216 154.515 251.271C154.531 251.327 154.557 251.379 154.593 251.424C154.629 251.469 154.674 251.507 154.724 251.535L154.732 251.54C154.831 251.595 154.949 251.61 155.059 251.581C155.169 251.552 155.264 251.481 155.322 251.383Z" fill="#DADADA"/>
<path d="M149.012 234.401C149.002 237.981 147.689 241.437 145.315 244.131C142.969 246.787 139.703 248.499 136.191 248.993C132.599 249.499 128.891 248.594 125.891 246.594C122.968 244.647 120.835 241.642 119.9 238.278C118.93 234.792 119.332 230.989 120.966 227.764C122.565 224.637 125.226 222.174 128.478 220.812C131.848 219.409 135.674 219.324 139.121 220.51C142.439 221.652 145.258 224.026 147.024 227.03C148.336 229.263 149.002 231.823 149.012 234.401C149.012 234.912 149.81 234.912 149.808 234.401C149.793 230.826 148.55 227.363 146.284 224.586C144.073 221.869 140.905 219.968 137.474 219.232C133.915 218.468 130.152 219.001 126.928 220.669C123.834 222.276 121.332 224.957 119.917 228.125C118.439 231.435 118.196 235.215 119.189 238.696C120.151 242.06 122.3 245.002 125.145 247.041C128.069 249.137 131.723 250.119 135.311 249.874C138.869 249.63 142.251 248.135 144.861 245.731C148.012 242.826 149.793 238.664 149.808 234.401C149.81 233.891 149.013 233.891 149.012 234.401Z" fill="#D8D8D8"/>
</g>
</g>
<defs>
<clipPath id="clip0">
<rect width="337" height="341.122" fill="white" transform="translate(0 0.938965)"/>
</clipPath>
<clipPath id="clip1">
<rect width="112.514" height="124.939" fill="white" transform="translate(117 114)"/>
</clipPath>
<clipPath id="clip2">
<rect width="56" height="43" fill="white" transform="translate(117 217)"/>
</clipPath>
</defs>
</svg>
