<svg width="36" height="30" viewBox="0 0 36 30" fill="none" xmlns="http://www.w3.org/2000/svg">
<path fill-rule="evenodd" clip-rule="evenodd" d="M32.7273 3.33333C34.5347 3.33333 36 4.82572 36 6.66667V26.6667C36 28.5076 34.5347 30 32.7273 30H3.27273C1.46525 30 0 28.5076 0 26.6667V3.33333C0 1.49238 1.46525 0 3.27273 0H13.0909C14.9236 0 16.0903 0.792419 17.262 2.29809C17.2944 2.33972 17.3733 2.4433 17.4607 2.55805L17.4609 2.55833C17.5844 2.72042 17.7248 2.90469 17.775 2.96803C17.8257 3.03209 17.8685 3.08507 17.9038 3.12886C18.0477 3.30714 18.0686 3.33297 18.0029 3.33333H32.7273ZM32.7273 26.6668V6.66683L17.9913 6.66681C16.8161 6.6604 16.0506 6.10001 15.2277 5.06107C15.1532 4.96693 14.972 4.72908 14.8405 4.55639L14.8405 4.55637C14.7717 4.46602 14.7164 4.39352 14.6972 4.36876C14.0842 3.58111 13.7197 3.3335 13.0909 3.3335H3.27274V26.6668H32.7273ZM22.9091 16.6665C22.9091 19.4279 20.7112 21.6665 18 21.6665C15.2888 21.6665 13.0909 19.4279 13.0909 16.6665C13.0909 13.9051 15.2888 11.6665 18 11.6665C20.7112 11.6665 22.9091 13.9051 22.9091 16.6665ZM9.81818 16.6668C9.81818 21.2692 13.4813 25.0002 18 25.0002C22.5187 25.0002 26.1818 21.2692 26.1818 16.6668C26.1818 12.0645 22.5187 8.3335 18 8.3335C13.4813 8.3335 9.81818 12.0645 9.81818 16.6668ZM27.8182 10.0002C27.8182 10.9206 28.5508 11.6668 29.4546 11.6668C30.3583 11.6668 31.0909 10.9206 31.0909 10.0002C31.0909 9.07969 30.3583 8.3335 29.4546 8.3335C28.5508 8.3335 27.8182 9.07969 27.8182 10.0002Z" fill="#7A7B7D"/>
</svg>
