<svg width="24" height="24" viewBox="0 0 24 24" fill="none" xmlns="http://www.w3.org/2000/svg">
<path d="M18.751 11.2511H12.7524V5.24895C12.7524 4.83404 12.4149 4.5 12.0035 4.5C11.5886 4.5 11.251 4.83755 11.251 5.24895V11.2511H5.24894C4.83755 11.2511 4.5 11.5886 4.5 12C4.5 12.4149 4.83755 12.7489 5.24894 12.7489H11.251V18.7511C11.251 19.166 11.5886 19.5 12 19.5C12.4149 19.5 12.7489 19.1624 12.7489 18.7511V12.7525H18.751C19.1659 12.7525 19.5 12.4149 19.5 12.0035C19.5035 11.5886 19.1659 11.2511 18.751 11.2511Z" fill="#264796"/>
</svg>
