<svg width="32" height="32" viewBox="0 0 32 32" fill="none" xmlns="http://www.w3.org/2000/svg">
<path d="M1.6 14.4H14.4V1.6C14.4 1.17565 14.5686 0.768687 14.8686 0.468629C15.1687 0.168571 15.5757 0 16 0C16.4243 0 16.8313 0.168571 17.1314 0.468629C17.4314 0.768687 17.6 1.17565 17.6 1.6V14.4H30.4C30.8243 14.4 31.2313 14.5686 31.5314 14.8686C31.8314 15.1687 32 15.5757 32 16C32 16.4243 31.8314 16.8313 31.5314 17.1314C31.2313 17.4314 30.8243 17.6 30.4 17.6H17.6V30.4C17.6 30.8243 17.4314 31.2313 17.1314 31.5314C16.8313 31.8314 16.4243 32 16 32C15.5757 32 15.1687 31.8314 14.8686 31.5314C14.5686 31.2313 14.4 30.8243 14.4 30.4V17.6H1.6C1.17565 17.6 0.768687 17.4314 0.468629 17.1314C0.168571 16.8313 0 16.4243 0 16C0 15.5757 0.168571 15.1687 0.468629 14.8686C0.768687 14.5686 1.17565 14.4 1.6 14.4V14.4Z" fill="#EFF1F7"/>
</svg>
