<svg width="32" height="32" viewBox="0 0 32 32" fill="none" xmlns="http://www.w3.org/2000/svg">
<circle cx="16" cy="16" r="16" fill="#D9D9D9"/>
<path d="M11.1403 24.7907L6.36629 27.3947C6.08614 27.5475 5.83436 27.7353 5.6001 27.9399C8.38349 30.2868 11.9766 31.7027 15.9023 31.7027C19.799 31.7027 23.3692 30.3079 26.1447 27.9931C25.8887 27.7769 25.611 27.5825 25.303 27.4291L20.1909 24.8734C19.5304 24.5431 19.1132 23.8681 19.1132 23.1297V21.1239C19.2569 20.9603 19.4211 20.7502 19.5968 20.5021C20.2935 19.5179 20.8206 18.4353 21.1859 17.2996C21.8416 17.0974 22.3246 16.4918 22.3246 15.7721V13.6311C22.3246 13.1602 22.1151 12.7393 21.7897 12.4447V9.34975C21.7897 9.34975 22.4255 4.53345 15.9029 4.53345C9.38032 4.53345 10.0161 9.34975 10.0161 9.34975V12.4447C9.69006 12.7393 9.48115 13.1602 9.48115 13.6311V15.7721C9.48115 16.336 9.77761 16.8323 10.2214 17.1191C10.7563 19.4479 12.1571 21.1239 12.1571 21.1239V23.0802C12.1565 23.7926 11.7664 24.4489 11.1403 24.7907Z" fill="white"/>
</svg>
