<svg width="24" height="24" viewBox="0 0 24 24" fill="none" xmlns="http://www.w3.org/2000/svg">
<g clip-path="url(#clip0)">
<path d="M23.6172 18.5334L14.4438 2.64461C13.9337 1.76111 13.02 1.23358 11.9997 1.23358C10.9795 1.23358 10.0658 1.76111 9.55573 2.64461L0.382361 18.5334C-0.127779 19.417 -0.127779 20.4719 0.382361 21.3555C0.8925 22.239 1.80609 22.7665 2.82637 22.7665H21.1731C22.1933 22.7665 23.107 22.239 23.6172 21.3555C24.1273 20.4719 24.1273 19.417 23.6172 18.5334ZM22.3995 20.6525C22.1435 21.0958 21.685 21.3605 21.1731 21.3605H2.82637C2.3144 21.3605 1.85597 21.0958 1.60003 20.6525C1.34409 20.2092 1.34409 19.6798 1.60003 19.2365L10.7735 3.34769C11.0294 2.90434 11.4879 2.63969 11.9998 2.63969C12.5117 2.63969 12.9701 2.90434 13.2261 3.34769L22.3995 19.2365C22.6554 19.6798 22.6554 20.2092 22.3995 20.6525Z" fill="#F4B130"/>
<path d="M12.7029 8.25049H11.2969V15.2809H12.7029V8.25049Z" fill="#F4B130"/>
<path d="M11.9999 16.687C11.483 16.687 11.0625 17.1075 11.0625 17.6244C11.0625 18.1413 11.483 18.5618 11.9999 18.5618C12.5168 18.5618 12.9373 18.1413 12.9373 17.6244C12.9373 17.1075 12.5168 16.687 11.9999 16.687Z" fill="#F4B130"/>
</g>
<defs>
<clipPath id="clip0">
<rect width="24" height="24" fill="white"/>
</clipPath>
</defs>
</svg>
