<svg width="24" height="24" viewBox="0 0 24 24" fill="none" xmlns="http://www.w3.org/2000/svg">
<path d="M12 3.29032C16.7831 3.29032 20.7097 7.16431 20.7097 12C20.7097 16.8101 16.8141 20.7097 12 20.7097C7.19177 20.7097 3.29032 16.816 3.29032 12C3.29032 7.19343 7.18556 3.29032 12 3.29032ZM12 2C6.47754 2 2 6.47915 2 12C2 17.5241 6.47754 22 12 22C17.5225 22 22 17.5241 22 12C22 6.47915 17.5225 2 12 2ZM11.5367 6.83871H12.4633C12.7384 6.83871 12.9582 7.06782 12.9467 7.34274L12.6645 14.1169C12.6537 14.3761 12.4404 14.5806 12.181 14.5806H11.819C11.5596 14.5806 11.3463 14.3761 11.3355 14.1169L11.0532 7.34274C11.0418 7.06782 11.2616 6.83871 11.5367 6.83871ZM12 15.3871C11.3765 15.3871 10.871 15.8926 10.871 16.5161C10.871 17.1397 11.3765 17.6452 12 17.6452C12.6235 17.6452 13.129 17.1397 13.129 16.5161C13.129 15.8926 12.6235 15.3871 12 15.3871Z" fill="#CC493C"/>
</svg>
