<svg width="16" height="16" viewBox="0 0 16 16" fill="none" xmlns="http://www.w3.org/2000/svg">
<path d="M9.41446 8.00019L13.6879 3.72672L14.5692 2.84544C14.6992 2.71544 14.6992 2.50418 14.5692 2.37418L13.6263 1.43123C13.4963 1.30123 13.285 1.30123 13.155 1.43123L8.00025 6.58598L2.8455 1.43082C2.7155 1.30081 2.50424 1.30081 2.37424 1.43082L1.43088 2.37376C1.30087 2.50377 1.30087 2.71502 1.43088 2.84503L6.58604 8.00019L1.43088 13.1549C1.30087 13.2849 1.30087 13.4962 1.43088 13.6262L2.37382 14.5691C2.50383 14.6991 2.71508 14.6991 2.84509 14.5691L8.00025 9.4144L12.2737 13.6879L13.155 14.5691C13.285 14.6991 13.4963 14.6991 13.6263 14.5691L14.5692 13.6262C14.6992 13.4962 14.6992 13.2849 14.5692 13.1549L9.41446 8.00019Z" fill="#CC493C"/>
</svg>
