<svg width="135" height="40" viewBox="0 0 135 40" fill="none" xmlns="http://www.w3.org/2000/svg">
<g clip-path="url(#clip0)">
<path d="M124.249 7.92927e-06H10.7566C10.3429 7.92927e-06 9.9342 7.92932e-06 9.5216 0.00200792C9.17621 0.00400792 8.83358 0.0098179 8.48488 0.0147079C7.72733 0.0226097 6.97157 0.0816839 6.22416 0.191417C5.4778 0.30354 4.75482 0.514922 4.07967 0.818415C3.40534 1.12448 2.7892 1.52217 2.25358 1.99707C1.71514 2.47064 1.26632 3.01801 0.924356 3.61816C0.581453 4.2171 0.343683 4.85893 0.219258 5.52147C0.0936495 6.18317 0.0260586 6.85251 0.0170916 7.52346C0.00662229 7.83006 0.00551669 8.13768 0 8.44432V31.5585C0.00551669 31.869 0.00662229 32.1698 0.0170916 32.4804C0.0260614 33.1513 0.0936522 33.8206 0.219258 34.4823C0.343339 35.1452 0.581124 35.7874 0.924356 36.3866C1.26616 36.9848 1.71505 37.53 2.25358 38.0009C2.78717 38.4779 3.40371 38.8759 4.07967 39.1796C4.75481 39.4839 5.47772 39.6965 6.22416 39.8104C6.9717 39.9192 7.72738 39.9783 8.48488 39.9872C8.83358 39.994 9.17621 39.9979 9.5216 39.9979C9.93419 39.9999 10.343 39.9999 10.7566 39.9999H124.249C124.655 39.9999 125.067 39.9999 125.472 39.9979C125.816 39.9979 126.169 39.994 126.512 39.9872C127.268 39.9788 128.023 39.9197 128.769 39.8104C129.518 39.6957 130.243 39.4831 130.921 39.1796C131.597 38.8757 132.213 38.4777 132.746 38.0009C133.283 37.5281 133.733 36.9833 134.079 36.3866C134.42 35.787 134.655 35.1448 134.777 34.4823C134.903 33.8205 134.973 33.1514 134.987 32.4804C134.991 32.1698 134.991 31.869 134.991 31.5585C135 31.1952 135 30.8339 135 30.4647V9.53611C135 9.1699 135 8.80662 134.991 8.44432C134.991 8.13768 134.991 7.83006 134.987 7.52342C134.973 6.85241 134.903 6.18322 134.777 5.52143C134.655 4.85927 134.419 4.2175 134.079 3.61812C133.383 2.4152 132.278 1.43603 130.921 0.818325C130.243 0.515574 129.518 0.304247 128.769 0.191327C128.023 0.0811105 127.269 0.0220156 126.512 0.0145679C126.169 0.0096879 125.816 0.00382792 125.472 0.00187792C125.067 -0.00012207 124.655 -0.00012207 124.249 -0.00012207V7.92927e-06Z" fill="white"/>
<path d="M8.52606 38.4873L8.53023 38.4873C8.86843 38.4941 9.20043 38.4979 9.54028 38.4979L124.236 38.4999H124.237L125.458 38.4979H125.459C125.791 38.4979 126.134 38.4941 126.461 38.4874L126.466 38.4873C127.15 38.48 127.832 38.4276 128.507 38.3306C129.117 38.2392 129.707 38.0677 130.257 37.8224C130.797 37.5809 131.286 37.2656 131.707 36.8902L131.711 36.8866C132.133 36.5182 132.484 36.0958 132.752 35.6359C133.023 35.1623 133.207 34.6572 133.302 34.138L133.303 34.1348C133.413 33.5536 133.474 32.9662 133.487 32.3774C133.487 32.3769 133.487 32.3763 133.487 32.3758L133.987 32.3864C133.991 32.0819 133.991 31.7859 133.991 31.4629L8.52606 38.4873ZM8.52606 38.4873C7.84217 38.4794 7.15995 38.4271 6.48502 38.3306C5.87908 38.2385 5.29333 38.0676 4.74707 37.8243C4.20881 37.5843 3.72045 37.2708 3.29982 36.8972L3.29985 36.8972L3.29493 36.8929C2.8687 36.5242 2.51654 36.0988 2.25047 35.635L2.24999 35.6341C1.97895 35.1637 1.79254 34.6616 1.69575 34.1453L1.69566 34.1449C1.58491 33.5571 1.52503 32.963 1.51646 32.3676L1.51656 32.3676L1.51622 32.3578C1.51283 32.2585 1.50877 32.0368 1.50551 31.8346L1.50152 31.5728L1.50037 31.4912L1.50006 31.4688L1.5 31.4643M8.52606 38.4873L1.5 31.4643M1.5 31.4643V8.523L1.50006 8.51893L1.50039 8.49689L1.5016 8.41656L1.50574 8.15912C1.50908 7.96077 1.51316 7.7431 1.5163 7.64705L1.51639 7.64705L1.51652 7.63761C1.52472 7.04324 1.58425 6.45016 1.69465 5.86342L1.69472 5.86303C1.79176 5.34498 1.97843 4.84112 2.24976 4.36893L2.25027 4.36804C2.51564 3.90404 2.86617 3.478 3.29015 3.10764L3.29016 3.10765L3.29213 3.10591C3.71668 2.73111 4.20745 2.41539 4.74739 2.17163C5.29193 1.92942 5.87607 1.75997 6.48027 1.66969C7.1575 1.5722 7.84219 1.51947 8.52855 1.51198L8.52905 1.51197L9.5438 1.49988H125.451H125.454L126.477 1.51246L126.478 1.51247C127.158 1.51958 127.836 1.57182 128.507 1.66871C129.118 1.76017 129.708 1.93087 130.26 2.17445C131.341 2.66589 132.21 3.43733 132.754 4.3709C133.021 4.83947 133.205 5.33882 133.3 5.85199L133.3 5.85308C133.412 6.44534 133.475 7.04381 133.488 7.64378C133.488 7.64444 133.488 7.64511 133.488 7.64577L133.988 7.63508M1.5 31.4643L133.991 8.51935C133.991 8.21861 133.991 7.91641 133.988 7.63508M133.988 7.63508C133.974 7.00678 133.909 6.38019 133.792 5.7603L133.988 7.63508Z" fill="white" stroke="white"/>
<path d="M24.9967 19.8893C25.0078 19.0214 25.2384 18.1703 25.6669 17.4154C26.0953 16.6605 26.7078 16.0262 27.4472 15.5716C26.9775 14.9007 26.3578 14.3486 25.6373 13.9591C24.9168 13.5696 24.1155 13.3535 23.2969 13.3279C21.5506 13.1446 19.8577 14.3728 18.9679 14.3728C18.0608 14.3728 16.6907 13.3461 15.2154 13.3764C14.2611 13.4072 13.3311 13.6847 12.5159 14.1819C11.7008 14.679 11.0283 15.3788 10.564 16.2131C8.55291 19.6951 10.053 24.8125 11.9795 27.6271C12.9434 29.0053 14.0699 30.5448 15.5439 30.4903C16.9863 30.4304 17.525 29.5705 19.2661 29.5705C20.991 29.5705 21.4965 30.4903 23.0004 30.4555C24.5481 30.4304 25.5233 29.0712 26.4534 27.6799C27.1459 26.6979 27.6788 25.6125 28.0324 24.464C27.1332 24.0837 26.3658 23.4471 25.826 22.6336C25.2861 21.8201 24.9977 20.8657 24.9967 19.8893Z" fill="black"/>
<path d="M22.1561 11.4768C23 10.4637 23.4158 9.1616 23.3151 7.84692C22.0258 7.98234 20.8349 8.59854 19.9795 9.57274C19.5614 10.0487 19.2411 10.6023 19.037 11.2021C18.8329 11.8019 18.7491 12.436 18.7902 13.0682C19.4351 13.0749 20.0731 12.9351 20.6561 12.6594C21.2391 12.3838 21.752 11.9794 22.1561 11.4768Z" fill="black"/>
<path d="M42.3018 27.1396H37.5684L36.4316 30.4961H34.4268L38.9102 18.0781H40.9932L45.4766 30.4961H43.4375L42.3018 27.1396ZM38.0586 25.5908H41.8106L39.961 20.1435H39.9092L38.0586 25.5908Z" fill="black"/>
<path d="M55.1592 25.9697C55.1592 28.7832 53.6533 30.5908 51.3809 30.5908C50.8052 30.6209 50.2327 30.4883 49.7289 30.2082C49.2251 29.928 48.8104 29.5117 48.5323 29.0068H48.4893V33.4912H46.6309V21.4423H48.4297V22.9482H48.4639C48.7548 22.4457 49.1766 22.0316 49.6842 21.7497C50.1918 21.4679 50.7664 21.3289 51.3467 21.3476C53.6446 21.3476 55.1592 23.164 55.1592 25.9697ZM53.249 25.9697C53.249 24.1367 52.3018 22.9316 50.8565 22.9316C49.4365 22.9316 48.4815 24.1621 48.4815 25.9697C48.4815 27.7939 49.4365 29.0156 50.8565 29.0156C52.3018 29.0156 53.249 27.8193 53.249 25.9697H53.249Z" fill="black"/>
<path d="M65.1245 25.9697C65.1245 28.7832 63.6182 30.5908 61.3457 30.5908C60.7701 30.6209 60.1976 30.4883 59.6938 30.2082C59.19 29.928 58.7753 29.5117 58.4971 29.0068H58.4541V33.4912H56.5957V21.4423H58.3945V22.9482H58.4287C58.7197 22.4457 59.1414 22.0316 59.649 21.7497C60.1567 21.4679 60.7312 21.3289 61.3115 21.3476C63.6094 21.3476 65.1245 23.164 65.1245 25.9697ZM63.2139 25.9697C63.2139 24.1367 62.2666 22.9316 60.8213 22.9316C59.4014 22.9316 58.4463 24.1621 58.4463 25.9697C58.4463 27.7939 59.4014 29.0156 60.8213 29.0156C62.2666 29.0156 63.2139 27.8193 63.2139 25.9697Z" fill="black"/>
<path d="M71.7095 27.0361C71.8472 28.2676 73.0435 29.0761 74.6783 29.0761C76.2447 29.0761 77.3716 28.2675 77.3716 27.1572C77.3716 26.1933 76.6919 25.6162 75.0826 25.2207L73.4732 24.833C71.1929 24.2822 70.1343 23.2158 70.1343 21.4853C70.1343 19.3427 72.0015 17.871 74.6519 17.871C77.2769 17.871 79.0757 19.3427 79.1363 21.4853H77.2603C77.148 20.246 76.1236 19.498 74.6265 19.498C73.1294 19.498 72.105 20.2548 72.105 21.3564C72.105 22.2343 72.7593 22.7509 74.3599 23.1464L75.7281 23.4823C78.2759 24.0849 79.3335 25.1083 79.3335 26.9247C79.3335 29.248 77.4839 30.703 74.5405 30.703C71.7866 30.703 69.9272 29.2821 69.8071 27.036L71.7095 27.0361Z" fill="black"/>
<path d="M83.3462 19.2998V21.4424H85.0679V22.9141H83.3462V27.9053C83.3462 28.6807 83.6909 29.042 84.4477 29.042C84.6521 29.0384 84.8562 29.0241 85.0591 28.999V30.4619C84.7188 30.5255 84.3729 30.5543 84.0268 30.5478C82.1938 30.5478 81.479 29.8593 81.479 28.1035V22.9141H80.1626V21.4424H81.479V19.2998H83.3462Z" fill="black"/>
<path d="M86.064 25.9697C86.064 23.1211 87.7417 21.3311 90.3579 21.3311C92.9829 21.3311 94.6528 23.1211 94.6528 25.9697C94.6528 28.8262 92.9917 30.6084 90.3579 30.6084C87.7251 30.6084 86.064 28.8262 86.064 25.9697ZM92.7593 25.9697C92.7593 24.0156 91.8638 22.8623 90.3579 22.8623C88.852 22.8623 87.9565 24.0244 87.9565 25.9697C87.9565 27.9316 88.852 29.0762 90.3579 29.0762C91.8638 29.0762 92.7593 27.9316 92.7593 25.9697H92.7593Z" fill="black"/>
<path d="M96.1851 21.4424H97.9575V22.9834H98.0005C98.1205 22.5021 98.4024 22.0768 98.799 21.7789C99.1956 21.481 99.6826 21.3287 100.178 21.3476C100.392 21.3469 100.606 21.3702 100.815 21.417V23.1553C100.545 23.0726 100.263 23.0347 99.98 23.043C99.71 23.032 99.4409 23.0796 99.191 23.1825C98.9412 23.2854 98.7166 23.4411 98.5326 23.639C98.3486 23.8369 98.2096 24.0723 98.1252 24.3289C98.0408 24.5856 98.0129 24.8575 98.0435 25.126V30.4961H96.1851L96.1851 21.4424Z" fill="black"/>
<path d="M109.383 27.8369C109.133 29.4805 107.533 30.6084 105.485 30.6084C102.851 30.6084 101.216 28.8437 101.216 26.0127C101.216 23.1729 102.86 21.3311 105.407 21.3311C107.912 21.3311 109.487 23.0518 109.487 25.7969V26.4336H103.092V26.5459C103.063 26.8791 103.104 27.2148 103.215 27.5306C103.325 27.8464 103.501 28.1352 103.731 28.3778C103.962 28.6203 104.241 28.8111 104.551 28.9374C104.86 29.0637 105.194 29.1226 105.528 29.1103C105.967 29.1515 106.408 29.0498 106.784 28.8203C107.161 28.5909 107.454 28.246 107.619 27.8369L109.383 27.8369ZM103.101 25.1348H107.627C107.644 24.8352 107.599 24.5354 107.494 24.2541C107.389 23.9729 107.228 23.7164 107.019 23.5006C106.811 23.2849 106.56 23.1145 106.282 23.0003C106.005 22.8861 105.707 22.8305 105.407 22.8369C105.104 22.8351 104.804 22.8933 104.524 23.008C104.244 23.1227 103.989 23.2918 103.775 23.5054C103.561 23.7191 103.391 23.973 103.275 24.2527C103.159 24.5323 103.1 24.8321 103.101 25.1348V25.1348Z" fill="black"/>
<path d="M36.7383 11.2535H37.5361C37.6735 11.2706 37.8129 11.259 37.9455 11.2196C38.0782 11.1801 38.2013 11.1136 38.307 11.0243C38.4127 10.9349 38.4987 10.8246 38.5596 10.7004C38.6206 10.5761 38.6552 10.4406 38.6611 10.3023C38.6611 9.75199 38.2471 9.39652 37.5449 9.39652C37.4042 9.37686 37.261 9.38559 37.1237 9.4222C36.9864 9.45881 36.8579 9.52255 36.7456 9.60967C36.6334 9.69678 36.5397 9.8055 36.4702 9.92941C36.4007 10.0533 36.3567 10.1899 36.3408 10.3311H35.4648C35.4799 10.0748 35.5476 9.82434 35.6636 9.59533C35.7797 9.36632 35.9417 9.16365 36.1394 8.99995C36.3372 8.83624 36.5666 8.71501 36.8133 8.64378C37.0599 8.57256 37.3186 8.55289 37.5732 8.58597C38.748 8.58597 39.5752 9.24368 39.5752 10.1905C39.578 10.5076 39.4719 10.8162 39.2746 11.0645C39.0773 11.3129 38.8008 11.4861 38.4912 11.5552V11.6255C38.8582 11.6418 39.2038 11.8027 39.4525 12.0731C39.7012 12.3435 39.8328 12.7013 39.8184 13.0684C39.7912 13.3323 39.7116 13.5881 39.5843 13.8208C39.457 14.0536 39.2845 14.2586 39.077 14.4238C38.8694 14.589 38.631 14.7111 38.3756 14.783C38.1202 14.8549 37.8531 14.875 37.5898 14.8423C37.326 14.8783 37.0577 14.8608 36.8008 14.7908C36.5439 14.7209 36.3037 14.5999 36.0946 14.4351C35.8854 14.2704 35.7116 14.0652 35.5834 13.8318C35.4553 13.5984 35.3754 13.3416 35.3486 13.0767H36.2383C36.292 13.6475 36.8164 14.0157 37.5898 14.0157C38.3633 14.0157 38.8682 13.6021 38.8682 13.0191C38.8682 12.4278 38.3926 12.0636 37.5615 12.0636H36.7383V11.2535Z" fill="black"/>
<path d="M40.8291 13.4244C40.8291 12.6138 41.4336 12.1465 42.5039 12.0801L43.7236 12.0098V11.6212C43.7236 11.1456 43.4102 10.877 42.8018 10.877C42.3057 10.877 41.9629 11.0591 41.8633 11.3775H41.0029C41.0937 10.6041 41.8223 10.108 42.8438 10.108C43.9727 10.108 44.6094 10.67 44.6094 11.6212V14.6978H43.7529V14.065H43.6826C43.5399 14.292 43.3395 14.477 43.1019 14.6013C42.8643 14.7255 42.5979 14.7844 42.3301 14.772C42.141 14.7917 41.95 14.7715 41.7692 14.7128C41.5885 14.6541 41.422 14.5582 41.2806 14.4312C41.1392 14.3042 41.0259 14.149 40.9482 13.9756C40.8704 13.8022 40.8298 13.6144 40.8291 13.4244ZM43.7236 13.0396V12.6631L42.624 12.7335C42.0039 12.775 41.7226 12.9859 41.7226 13.3829C41.7226 13.7881 42.0742 14.024 42.5576 14.024C42.6993 14.0383 42.8423 14.024 42.9784 13.9819C43.1144 13.9398 43.2405 13.8708 43.3493 13.779C43.4581 13.6871 43.5473 13.5744 43.6116 13.4473C43.6759 13.3203 43.714 13.1816 43.7236 13.0396Z" fill="black"/>
<path d="M46.9678 10.9429V14.6978H46.0791V10.1948H49.044V10.9428L46.9678 10.9429Z" fill="black"/>
<path d="M54.4297 12.4444C54.4297 13.875 53.7061 14.772 52.5693 14.772C52.2903 14.7911 52.0116 14.73 51.7661 14.596C51.5206 14.462 51.3185 14.2606 51.1836 14.0156H51.1133V16.1948H50.2246V10.1948H51.0801V10.939H51.1465C51.2838 10.6855 51.4886 10.4748 51.7381 10.3303C51.9877 10.1858 52.2723 10.1131 52.5606 10.1202C53.7061 10.1201 54.4297 11.0132 54.4297 12.4444ZM53.5156 12.4444C53.5156 11.4932 53.0654 10.9185 52.3125 10.9185C51.5645 10.9185 51.0967 11.5054 51.0967 12.4483C51.0967 13.3867 51.5645 13.9741 52.3086 13.9741C53.0654 13.9741 53.5156 13.3994 53.5156 12.4444Z" fill="black"/>
<path d="M55.6133 16.3106V15.5454C55.7095 15.5576 55.8064 15.5632 55.9033 15.562C56.0927 15.576 56.2805 15.5197 56.4308 15.4037C56.5811 15.2877 56.6833 15.1203 56.7178 14.9336L56.7842 14.7144L55.1543 10.1948H56.1221L57.251 13.7715H57.3213L58.4463 10.1948H59.3887L57.71 14.8838C57.3252 15.9795 56.8995 16.3311 55.9815 16.3311C55.9073 16.3311 55.6963 16.3228 55.6133 16.3106Z" fill="black"/>
<path d="M60.0811 13.42H60.9658C61.0527 13.817 61.4248 14.024 61.9453 14.024C62.5371 14.024 62.9004 13.7632 62.9004 13.358C62.9004 12.9239 62.5742 12.7169 61.9453 12.7169H61.2715V12.0264H61.9336C62.4707 12.0264 62.7441 11.8199 62.7441 11.4434C62.7441 11.1129 62.4795 10.8604 61.9336 10.8604C61.4365 10.8604 61.0732 11.0714 61.0156 11.4268H60.1592C60.2232 11.0184 60.445 10.6514 60.7768 10.4047C61.1086 10.1581 61.524 10.0515 61.9336 10.108C63.0039 10.108 63.6162 10.5919 63.6162 11.3526C63.6212 11.5645 63.5533 11.7716 63.4239 11.9394C63.2945 12.1072 63.1114 12.2255 62.9053 12.2745V12.3448C63.1507 12.3765 63.376 12.4971 63.5384 12.6839C63.7007 12.8706 63.7889 13.1105 63.7861 13.358C63.7861 14.214 63.0576 14.7803 61.9453 14.7803C60.9619 14.7803 60.1631 14.3296 60.0811 13.42Z" fill="black"/>
<path d="M65.0659 14.6978V10.1948H65.9468V13.292H66.0171L68.0923 10.1948H68.9731V14.6978H68.0923V11.584H68.0259L65.9468 14.6978L65.0659 14.6978Z" fill="black"/>
<path d="M73.8256 10.9429H72.4076V14.6978H71.518V10.9429H70.1V10.1949H73.8256V10.9429Z" fill="black"/>
<path d="M78.6128 13.482C78.4917 13.8935 78.2299 14.2494 77.8731 14.4875C77.5163 14.7256 77.0872 14.8308 76.6607 14.7847C76.364 14.7925 76.0692 14.7357 75.7967 14.6182C75.5242 14.5006 75.2805 14.3252 75.0826 14.1041C74.8847 13.8829 74.7373 13.6214 74.6506 13.3376C74.5639 13.0537 74.54 12.7544 74.5806 12.4605C74.5411 12.1656 74.5654 11.8656 74.6519 11.581C74.7384 11.2963 74.885 11.0335 75.0819 10.8105C75.2788 10.5874 75.5213 10.4092 75.793 10.288C76.0647 10.1668 76.3593 10.1054 76.6568 10.1079C77.9097 10.1079 78.6665 10.9639 78.6665 12.3779V12.688H75.4869V12.7378C75.4728 12.9031 75.4934 13.0695 75.5475 13.2263C75.6016 13.3831 75.6878 13.5269 75.8008 13.6484C75.9137 13.7699 76.0508 13.8664 76.2033 13.9318C76.3558 13.9971 76.5202 14.0298 76.6861 14.0278C76.8985 14.0532 77.1137 14.0149 77.3043 13.9177C77.4949 13.8205 77.6522 13.6688 77.7564 13.4819L78.6128 13.482ZM75.4868 12.0308H77.7603C77.7715 11.8797 77.751 11.728 77.7001 11.5853C77.6492 11.4427 77.5691 11.3122 77.4648 11.2024C77.3605 11.0925 77.2344 11.0057 77.0946 10.9475C76.9547 10.8893 76.8043 10.8609 76.6529 10.8643C76.4991 10.8622 76.3465 10.8909 76.2041 10.9488C76.0616 11.0067 75.9322 11.0926 75.8235 11.2013C75.7148 11.3101 75.629 11.4395 75.5712 11.582C75.5134 11.7244 75.4847 11.877 75.4869 12.0308H75.4868Z" fill="black"/>
<path d="M82.3804 10.1948H84.4106C85.2915 10.1948 85.8081 10.6411 85.8081 11.3398C85.8095 11.5615 85.7347 11.777 85.5962 11.9501C85.4577 12.1233 85.264 12.2436 85.0474 12.291V12.3613C85.3103 12.3779 85.5569 12.4949 85.7361 12.6881C85.9153 12.8813 86.0134 13.1359 86.0103 13.3994C86.0103 14.185 85.4194 14.6977 84.4312 14.6977H82.3804V10.1948ZM83.2612 10.877V12.043H84.1421C84.6792 12.043 84.936 11.8364 84.936 11.4556C84.936 11.1045 84.7124 10.8769 84.2407 10.8769L83.2612 10.877ZM83.2612 12.6963V14.0156H84.315C84.8404 14.0156 85.1216 13.7837 85.1216 13.3579C85.1216 12.9072 84.8033 12.6963 84.2036 12.6963L83.2612 12.6963Z" fill="black"/>
</g>
<defs>
<clipPath id="clip0">
<rect width="135" height="40" fill="white"/>
</clipPath>
</defs>
</svg>
