<svg width="135" height="40" viewBox="0 0 135 40" fill="none" xmlns="http://www.w3.org/2000/svg">
<g clip-path="url(#clip0)">
<path d="M124.249 0.00013H10.7566C10.3429 0.00013 9.9342 0.00013 9.5216 0.00212999C9.17621 0.00412999 8.83358 0.00993997 8.48488 0.01483C7.72733 0.0227317 6.97157 0.081806 6.22416 0.191539C5.4778 0.303662 4.75482 0.515044 4.07967 0.818537C3.40534 1.1246 2.7892 1.52229 2.25358 1.99719C1.71514 2.47076 1.26632 3.01814 0.924356 3.61828C0.581453 4.21723 0.343683 4.85905 0.219258 5.52159C0.0936495 6.1833 0.0260586 6.85263 0.0170916 7.52359C0.00662229 7.83018 0.00551669 8.1378 0 8.44444V31.5586C0.00551669 31.8691 0.00662229 32.1699 0.0170916 32.4805C0.0260614 33.1514 0.0936522 33.8207 0.219258 34.4824C0.343339 35.1453 0.581124 35.7875 0.924356 36.3867C1.26616 36.9849 1.71505 37.5301 2.25358 38.001C2.78717 38.478 3.40371 38.876 4.07967 39.1797C4.75481 39.484 5.47772 39.6967 6.22416 39.8105C6.9717 39.9194 7.72738 39.9785 8.48488 39.9873C8.83358 39.9941 9.17621 39.998 9.5216 39.998C9.93419 40 10.343 40 10.7566 40H124.249C124.655 40 125.067 40 125.472 39.998C125.816 39.998 126.169 39.9941 126.512 39.9873C127.268 39.9789 128.023 39.9198 128.769 39.8105C129.518 39.6959 130.243 39.4833 130.921 39.1797C131.597 38.8758 132.213 38.4779 132.746 38.001C133.283 37.5282 133.733 36.9835 134.079 36.3867C134.42 35.7871 134.655 35.145 134.777 34.4824C134.903 33.8207 134.973 33.1515 134.987 32.4805C134.991 32.1699 134.991 31.8691 134.991 31.5586C135 31.1953 135 30.834 135 30.4648V9.53623C135 9.17002 135 8.80674 134.991 8.44444C134.991 8.1378 134.991 7.83018 134.987 7.52355C134.973 6.85253 134.903 6.18335 134.777 5.52155C134.655 4.8594 134.419 4.21762 134.079 3.61824C133.383 2.41532 132.278 1.43615 130.921 0.818447C130.243 0.515696 129.518 0.304369 128.769 0.191449C128.023 0.0812325 127.269 0.0221377 126.512 0.01469C126.169 0.00980997 125.816 0.00394999 125.472 0.00199999C125.067 0 124.655 0 124.249 0V0.00013Z" fill="black"/>
<path d="M8.52606 38.4874L8.53023 38.4875C8.86843 38.4942 9.20043 38.498 9.54028 38.498L124.236 38.5H124.237L125.458 38.498H125.459C125.791 38.498 126.134 38.4942 126.461 38.4875L126.466 38.4874C127.15 38.4801 127.832 38.4277 128.507 38.3307C129.117 38.2394 129.707 38.0678 130.257 37.8225C130.797 37.5811 131.286 37.2658 131.707 36.8903L131.711 36.8867C132.133 36.5184 132.484 36.0959 132.752 35.636C133.023 35.1625 133.207 34.6573 133.302 34.1382L133.303 34.1349C133.413 33.5537 133.474 32.9664 133.487 32.3775C133.487 32.377 133.487 32.3765 133.487 32.3759L133.987 32.3866C133.991 32.082 133.991 31.786 133.991 31.463L8.52606 38.4874ZM8.52606 38.4874C7.84217 38.4796 7.15995 38.4272 6.48502 38.3307C5.87908 38.2386 5.29333 38.0677 4.74707 37.8244C4.20881 37.5844 3.72045 37.2709 3.29982 36.8973L3.29985 36.8973L3.29493 36.893C2.8687 36.5243 2.51654 36.0989 2.25047 35.6351L2.24999 35.6342C1.97895 35.1639 1.79254 34.6617 1.69575 34.1454L1.69566 34.145C1.58491 33.5573 1.52503 32.9631 1.51646 32.3677L1.51656 32.3677L1.51622 32.3579C1.51283 32.2586 1.50877 32.0369 1.50551 31.8348L1.50152 31.5729L1.50037 31.4913L1.50006 31.4689L1.5 31.4645M8.52606 38.4874L1.5 31.4645M1.5 31.4645V8.52313L1.50006 8.51906L1.50039 8.49701L1.5016 8.41668L1.50574 8.15924C1.50908 7.9609 1.51316 7.74322 1.5163 7.64717L1.51639 7.64717L1.51652 7.63773C1.52472 7.04336 1.58425 6.45028 1.69465 5.86355L1.69472 5.86315C1.79176 5.34511 1.97843 4.84124 2.24976 4.36905L2.25027 4.36817C2.51564 3.90416 2.86617 3.47812 3.29015 3.10776L3.29016 3.10777L3.29213 3.10603C3.71668 2.73124 4.20745 2.41552 4.74739 2.17175C5.29193 1.92955 5.87607 1.76009 6.48027 1.66982C7.1575 1.57232 7.84219 1.51959 8.52855 1.5121L8.52905 1.51209L9.5438 1.5H125.451H125.454L126.477 1.51258L126.478 1.51259C127.158 1.5197 127.836 1.57194 128.507 1.66883C129.118 1.7603 129.708 1.93099 130.26 2.17458C131.341 2.66601 132.21 3.43746 132.754 4.37102C133.021 4.83959 133.205 5.33894 133.3 5.85211L133.3 5.85321C133.412 6.44547 133.475 7.04393 133.488 7.6439C133.488 7.64456 133.488 7.64523 133.488 7.64589L133.988 7.6352M1.5 31.4645L133.991 8.51947C133.991 8.21873 133.991 7.91653 133.988 7.6352M133.988 7.6352C133.974 7.0069 133.909 6.38031 133.792 5.76042L133.988 7.6352Z" fill="black" stroke="black"/>
<path d="M24.997 19.8897C25.0082 19.0217 25.2388 18.1707 25.6672 17.4158C26.0957 16.6609 26.7081 16.0266 27.4476 15.572C26.9779 14.9011 26.3581 14.349 25.6377 13.9595C24.9172 13.57 24.1158 13.3538 23.2972 13.3282C21.551 13.1449 19.8581 14.3731 18.9682 14.3731C18.0612 14.3731 16.6911 13.3464 15.2158 13.3768C14.2615 13.4076 13.3314 13.6851 12.5163 14.1822C11.7011 14.6794 11.0287 15.3792 10.5644 16.2135C8.55327 19.6955 10.0534 24.8129 11.9799 27.6275C12.9438 29.0057 14.0703 30.5452 15.5443 30.4906C16.9867 30.4308 17.5254 29.5709 19.2665 29.5709C20.9914 29.5709 21.4968 30.4906 23.0007 30.4559C24.5485 30.4308 25.5237 29.0716 26.4537 27.6803C27.1463 26.6982 27.6792 25.6129 28.0327 24.4644C27.1335 24.0841 26.3662 23.4475 25.8263 22.634C25.2865 21.8204 24.9981 20.866 24.997 19.8897Z" fill="white"/>
<path d="M22.1563 11.4771C23.0003 10.464 23.416 9.16184 23.3153 7.84717C22.026 7.98258 20.8351 8.59878 19.9798 9.57299C19.5616 10.0489 19.2413 10.6026 19.0372 11.2024C18.8332 11.8022 18.7493 12.4363 18.7905 13.0685C19.4353 13.0751 20.0733 12.9353 20.6563 12.6597C21.2394 12.384 21.7522 11.9797 22.1563 11.4771Z" fill="white"/>
<path d="M42.3018 27.1397H37.5684L36.4316 30.4961H34.4268L38.9102 18.0781H40.9932L45.4766 30.4961H43.4375L42.3018 27.1397ZM38.0586 25.5908H41.8106L39.961 20.1436H39.9092L38.0586 25.5908Z" fill="white"/>
<path d="M55.1592 25.9699C55.1592 28.7834 53.6533 30.591 51.3809 30.591C50.8052 30.6211 50.2327 30.4885 49.7289 30.2084C49.2251 29.9283 48.8104 29.5119 48.5323 29.007H48.4893V33.4914H46.6309V21.4426H48.4297V22.9485H48.4639C48.7548 22.446 49.1766 22.0318 49.6842 21.7499C50.1918 21.4681 50.7664 21.3291 51.3467 21.3479C53.6446 21.3479 55.1592 23.1643 55.1592 25.9699ZM53.249 25.9699C53.249 24.1369 52.3018 22.9319 50.8565 22.9319C49.4365 22.9319 48.4815 24.1623 48.4815 25.9699C48.4815 27.7942 49.4365 29.0158 50.8565 29.0158C52.3018 29.0158 53.249 27.8196 53.249 25.9699H53.249Z" fill="white"/>
<path d="M65.1245 25.9699C65.1245 28.7834 63.6182 30.591 61.3457 30.591C60.7701 30.6211 60.1976 30.4885 59.6938 30.2084C59.19 29.9283 58.7753 29.5119 58.4971 29.007H58.4541V33.4914H56.5957V21.4426H58.3945V22.9485H58.4287C58.7197 22.446 59.1414 22.0318 59.649 21.7499C60.1567 21.4681 60.7312 21.3291 61.3115 21.3479C63.6094 21.3479 65.1245 23.1643 65.1245 25.9699ZM63.2139 25.9699C63.2139 24.1369 62.2666 22.9319 60.8213 22.9319C59.4014 22.9319 58.4463 24.1623 58.4463 25.9699C58.4463 27.7942 59.4014 29.0158 60.8213 29.0158C62.2666 29.0158 63.2139 27.8196 63.2139 25.9699Z" fill="white"/>
<path d="M71.709 27.0362C71.8467 28.2676 73.043 29.0762 74.6778 29.0762C76.2442 29.0762 77.3711 28.2676 77.3711 27.1572C77.3711 26.1934 76.6915 25.6162 75.0821 25.2207L73.4727 24.833C71.1924 24.2822 70.1338 23.2158 70.1338 21.4854C70.1338 19.3428 72.001 17.8711 74.6514 17.8711C77.2764 17.8711 79.0753 19.3428 79.1358 21.4854H77.2598C77.1475 20.2461 76.1231 19.4981 74.626 19.4981C73.1289 19.4981 72.1045 20.2549 72.1045 21.3565C72.1045 22.2344 72.7588 22.751 74.3594 23.1465L75.7276 23.4824C78.2754 24.0849 79.333 25.1084 79.333 26.9248C79.333 29.248 77.4834 30.7031 74.54 30.7031C71.7861 30.7031 69.9268 29.2822 69.8066 27.0361L71.709 27.0362Z" fill="white"/>
<path d="M83.3457 19.2998V21.4424H85.0674V22.9141H83.3457V27.9053C83.3457 28.6807 83.6904 29.042 84.4473 29.042C84.6516 29.0384 84.8557 29.0241 85.0586 28.999V30.4619C84.7183 30.5255 84.3725 30.5543 84.0264 30.5478C82.1934 30.5478 81.4785 29.8593 81.4785 28.1035V22.9141H80.1621V21.4424H81.4785V19.2998H83.3457Z" fill="white"/>
<path d="M86.0645 25.9697C86.0645 23.1211 87.7422 21.3311 90.3584 21.3311C92.9834 21.3311 94.6533 23.1211 94.6533 25.9697C94.6533 28.8262 92.9922 30.6084 90.3584 30.6084C87.7256 30.6084 86.0645 28.8262 86.0645 25.9697ZM92.7598 25.9697C92.7598 24.0156 91.8643 22.8623 90.3584 22.8623C88.8525 22.8623 87.957 24.0244 87.957 25.9697C87.957 27.9316 88.8525 29.0762 90.3584 29.0762C91.8643 29.0762 92.7598 27.9316 92.7598 25.9697H92.7598Z" fill="white"/>
<path d="M96.1846 21.4425H97.957V22.9835H98C98.12 22.5022 98.4019 22.0769 98.7985 21.779C99.1951 21.4811 99.6821 21.3288 100.178 21.3478C100.392 21.347 100.606 21.3703 100.814 21.4171V23.1554C100.544 23.0728 100.262 23.0348 99.9795 23.0431C99.7095 23.0321 99.4404 23.0797 99.1905 23.1826C98.9407 23.2855 98.7161 23.4412 98.5321 23.6391C98.3481 23.837 98.2091 24.0724 98.1247 24.3291C98.0403 24.5857 98.0124 24.8576 98.043 25.1261V30.4962H96.1846L96.1846 21.4425Z" fill="white"/>
<path d="M109.384 27.8369C109.134 29.4805 107.533 30.6084 105.485 30.6084C102.852 30.6084 101.217 28.8437 101.217 26.0127C101.217 23.1729 102.86 21.3311 105.407 21.3311C107.912 21.3311 109.487 23.0518 109.487 25.7969V26.4336H103.093V26.5459C103.063 26.8791 103.105 27.2148 103.215 27.5306C103.325 27.8464 103.501 28.1352 103.732 28.3778C103.962 28.6203 104.241 28.8111 104.551 28.9374C104.861 29.0637 105.194 29.1226 105.528 29.1103C105.967 29.1515 106.408 29.0498 106.785 28.8203C107.162 28.5909 107.454 28.246 107.619 27.8369L109.384 27.8369ZM103.102 25.1348H107.628C107.645 24.8352 107.599 24.5354 107.495 24.2541C107.39 23.9729 107.228 23.7164 107.02 23.5006C106.811 23.2849 106.56 23.1145 106.283 23.0003C106.005 22.8861 105.707 22.8305 105.407 22.8369C105.105 22.8351 104.805 22.8933 104.525 23.008C104.245 23.1227 103.99 23.2918 103.776 23.5054C103.561 23.7191 103.391 23.973 103.276 24.2527C103.16 24.5323 103.101 24.8321 103.102 25.1348V25.1348Z" fill="white"/>
<path d="M36.7383 11.2534H37.5361C37.6735 11.2705 37.8129 11.259 37.9455 11.2195C38.0782 11.1801 38.2013 11.1136 38.307 11.0242C38.4127 10.9349 38.4987 10.8246 38.5596 10.7003C38.6206 10.576 38.6552 10.4405 38.6611 10.3022C38.6611 9.75193 38.2471 9.39646 37.5449 9.39646C37.4042 9.3768 37.261 9.38553 37.1237 9.42214C36.9864 9.45875 36.8579 9.52249 36.7456 9.60961C36.6334 9.69672 36.5397 9.80544 36.4702 9.92935C36.4007 10.0533 36.3567 10.1898 36.3408 10.331H35.4648C35.4799 10.0747 35.5476 9.82428 35.6636 9.59527C35.7797 9.36626 35.9417 9.16359 36.1394 8.99989C36.3372 8.83618 36.5666 8.71494 36.8133 8.64372C37.0599 8.5725 37.3186 8.55282 37.5732 8.58591C38.748 8.58591 39.5752 9.24362 39.5752 10.1904C39.578 10.5076 39.4719 10.8161 39.2746 11.0645C39.0773 11.3129 38.8008 11.486 38.4912 11.5551V11.6255C38.8582 11.6417 39.2038 11.8027 39.4525 12.073C39.7012 12.3434 39.8328 12.7013 39.8184 13.0683C39.7912 13.3322 39.7116 13.588 39.5843 13.8208C39.457 14.0535 39.2845 14.2585 39.077 14.4237C38.8694 14.5889 38.631 14.7111 38.3756 14.7829C38.1202 14.8548 37.8531 14.875 37.5898 14.8423C37.326 14.8782 37.0577 14.8607 36.8008 14.7907C36.5439 14.7208 36.3037 14.5998 36.0946 14.4351C35.8854 14.2703 35.7116 14.0651 35.5834 13.8317C35.4553 13.5983 35.3754 13.3415 35.3486 13.0766H36.2383C36.292 13.6474 36.8164 14.0156 37.5898 14.0156C38.3633 14.0156 38.8682 13.6021 38.8682 13.0191C38.8682 12.4277 38.3926 12.0635 37.5615 12.0635H36.7383V11.2534Z" fill="white"/>
<path d="M40.8291 13.4243C40.8291 12.6138 41.4336 12.1465 42.5039 12.0801L43.7236 12.0098V11.6211C43.7236 11.1455 43.4102 10.877 42.8018 10.877C42.3057 10.877 41.9629 11.0591 41.8633 11.3774H41.0029C41.0937 10.604 41.8223 10.1079 42.8438 10.1079C43.9727 10.1079 44.6094 10.6699 44.6094 11.6211V14.6978H43.7529V14.0649H43.6826C43.5399 14.2919 43.3395 14.477 43.1019 14.6012C42.8643 14.7254 42.5979 14.7843 42.3301 14.7719C42.141 14.7916 41.95 14.7714 41.7692 14.7127C41.5885 14.654 41.422 14.5581 41.2806 14.4311C41.1392 14.3042 41.0259 14.149 40.9482 13.9756C40.8704 13.8021 40.8298 13.6144 40.8291 13.4243ZM43.7236 13.0395V12.6631L42.624 12.7334C42.0039 12.7749 41.7226 12.9858 41.7226 13.3828C41.7226 13.7881 42.0742 14.0239 42.5576 14.0239C42.6993 14.0383 42.8423 14.024 42.9784 13.9819C43.1144 13.9398 43.2405 13.8708 43.3493 13.7789C43.4581 13.6871 43.5473 13.5743 43.6116 13.4473C43.6759 13.3202 43.714 13.1816 43.7236 13.0395Z" fill="white"/>
<path d="M46.9678 10.9429V14.6978H46.0791V10.1948H49.044V10.9428L46.9678 10.9429Z" fill="white"/>
<path d="M54.4297 12.4443C54.4297 13.875 53.7061 14.7719 52.5693 14.7719C52.2903 14.791 52.0116 14.7299 51.7661 14.5959C51.5206 14.4619 51.3185 14.2606 51.1836 14.0156H51.1133V16.1948H50.2246V10.1948H51.0801V10.939H51.1465C51.2838 10.6854 51.4886 10.4747 51.7381 10.3302C51.9877 10.1857 52.2723 10.113 52.5606 10.1201C53.7061 10.1201 54.4297 11.0131 54.4297 12.4443ZM53.5156 12.4443C53.5156 11.4931 53.0654 10.9184 52.3125 10.9184C51.5645 10.9184 51.0967 11.5053 51.0967 12.4482C51.0967 13.3867 51.5645 13.9741 52.3086 13.9741C53.0654 13.9741 53.5156 13.3994 53.5156 12.4443Z" fill="white"/>
<path d="M55.6133 16.3106V15.5454C55.7095 15.5576 55.8064 15.5632 55.9033 15.562C56.0927 15.576 56.2805 15.5197 56.4308 15.4037C56.5811 15.2877 56.6833 15.1203 56.7178 14.9336L56.7842 14.7144L55.1543 10.1948H56.1221L57.251 13.7715H57.3213L58.4463 10.1948H59.3887L57.71 14.8838C57.3252 15.9795 56.8995 16.3311 55.9815 16.3311C55.9073 16.3311 55.6963 16.3228 55.6133 16.3106Z" fill="white"/>
<path d="M60.0811 13.42H60.9658C61.0527 13.817 61.4248 14.024 61.9453 14.024C62.5371 14.024 62.9004 13.7633 62.9004 13.358C62.9004 12.9239 62.5742 12.7169 61.9453 12.7169H61.2715V12.0265H61.9336C62.4707 12.0265 62.7441 11.8199 62.7441 11.4435C62.7441 11.1129 62.4795 10.8605 61.9336 10.8605C61.4365 10.8605 61.0732 11.0714 61.0156 11.4269H60.1592C60.2232 11.0184 60.445 10.6514 60.7768 10.4048C61.1086 10.1581 61.524 10.0516 61.9336 10.108C63.0039 10.108 63.6162 10.5919 63.6162 11.3527C63.6212 11.5645 63.5533 11.7717 63.4239 11.9395C63.2945 12.1073 63.1114 12.2256 62.9053 12.2746V12.3449C63.1507 12.3765 63.376 12.4972 63.5384 12.6839C63.7007 12.8707 63.7889 13.1106 63.7861 13.358C63.7861 14.214 63.0576 14.7804 61.9453 14.7804C60.9619 14.7804 60.1631 14.3297 60.0811 13.42Z" fill="white"/>
<path d="M65.0654 14.6978V10.1948H65.9463V13.292H66.0166L68.0918 10.1948H68.9727V14.6978H68.0918V11.584H68.0254L65.9463 14.6978L65.0654 14.6978Z" fill="white"/>
<path d="M73.8253 10.9428H72.4073V14.6977H71.5176V10.9428H70.0996V10.1948H73.8253V10.9428Z" fill="white"/>
<path d="M78.613 13.482C78.4919 13.8935 78.23 14.2494 77.8732 14.4875C77.5164 14.7257 77.0873 14.8309 76.6608 14.7847C76.3641 14.7926 76.0693 14.7358 75.7968 14.6182C75.5243 14.5007 75.2807 14.3253 75.0827 14.1041C74.8848 13.883 74.7374 13.6214 74.6507 13.3376C74.564 13.0538 74.5402 12.7545 74.5807 12.4605C74.5412 12.1656 74.5655 11.8657 74.652 11.581C74.7385 11.2964 74.8851 11.0336 75.082 10.8105C75.2789 10.5874 75.5214 10.4093 75.7931 10.2881C76.0648 10.1669 76.3594 10.1054 76.6569 10.108C77.9098 10.108 78.6667 10.964 78.6667 12.378V12.6881H75.487V12.7379C75.4729 12.9032 75.4936 13.0696 75.5476 13.2264C75.6017 13.3832 75.688 13.527 75.8009 13.6485C75.9138 13.77 76.0509 13.8665 76.2034 13.9318C76.3559 13.9972 76.5203 14.0299 76.6862 14.0279C76.8986 14.0533 77.1138 14.0149 77.3044 13.9177C77.495 13.8205 77.6524 13.6689 77.7565 13.482L78.613 13.482ZM75.487 12.0308H77.7604C77.7716 11.8798 77.7511 11.7281 77.7002 11.5854C77.6494 11.4427 77.5692 11.3123 77.4649 11.2024C77.3606 11.0926 77.2345 11.0058 77.0947 10.9475C76.9549 10.8893 76.8044 10.861 76.653 10.8643C76.4992 10.8623 76.3466 10.891 76.2042 10.9489C76.0617 11.0068 75.9324 11.0926 75.8237 11.2014C75.715 11.3101 75.6292 11.4396 75.5713 11.582C75.5135 11.7245 75.4848 11.8771 75.487 12.0308H75.487Z" fill="white"/>
<path d="M82.3799 10.1948H84.4102C85.291 10.1948 85.8076 10.6411 85.8076 11.3398C85.809 11.5615 85.7342 11.777 85.5957 11.9501C85.4572 12.1233 85.2635 12.2436 85.0469 12.291V12.3613C85.3099 12.3779 85.5564 12.4949 85.7356 12.6881C85.9148 12.8813 86.0129 13.1359 86.0098 13.3994C86.0098 14.185 85.4189 14.6977 84.4307 14.6977H82.3799V10.1948ZM83.2607 10.877V12.043H84.1416C84.6787 12.043 84.9356 11.8364 84.9356 11.4556C84.9356 11.1045 84.7119 10.8769 84.2402 10.8769L83.2607 10.877ZM83.2607 12.6963V14.0156H84.3145C84.8399 14.0156 85.1211 13.7837 85.1211 13.3579C85.1211 12.9072 84.8028 12.6963 84.2031 12.6963L83.2607 12.6963Z" fill="white"/>
</g>
<defs>
<clipPath id="clip0">
<rect width="135" height="40" fill="white"/>
</clipPath>
</defs>
</svg>
