<svg width="134" height="42" viewBox="0 0 134 42" fill="none" xmlns="http://www.w3.org/2000/svg">
<path d="M129.812 42H4.1875C1.88437 42 0 40.11 0 37.8V4.2C0 1.89 1.88437 0 4.1875 0H129.812C132.116 0 134 1.89 134 4.2V37.8C134 40.11 132.116 42 129.812 42Z" fill="white"/>
<path d="M28.2652 20.7897C28.2652 17.5347 30.987 15.9597 31.0917 15.8547C29.5214 13.6497 27.2183 13.3347 26.3808 13.2297C24.3917 13.0197 22.4027 14.3847 21.4605 14.3847C20.4136 14.3847 18.8433 13.2297 17.1683 13.2297C14.9699 13.2297 12.9808 14.4897 11.8292 16.4847C9.52611 20.4747 11.2011 26.3547 13.3995 29.6097C14.5511 31.1847 15.8074 32.9697 17.4824 32.8647C19.1574 32.7597 19.7855 31.8147 21.7745 31.8147C23.7636 31.8147 24.287 32.8647 26.0667 32.8647C27.8464 32.8647 28.998 31.2897 30.0449 29.7147C31.3011 27.9297 31.8245 26.1447 31.8245 26.0397C31.7199 25.9347 28.2652 24.6747 28.2652 20.7897Z" fill="black"/>
<path d="M25.0199 11.1297C25.8574 9.97469 26.4855 8.50469 26.3808 6.92969C25.1245 7.03469 23.4496 7.76969 22.6121 8.92469C21.7746 9.86969 21.0417 11.4447 21.2511 12.9147C22.612 13.0197 24.0777 12.1797 25.0199 11.1297Z" fill="black"/>
<path d="M52.1339 32.6547H49.8308L48.5745 28.6647H44.1777L43.0261 32.6547H40.8277L45.2246 19.1097H47.9464L52.1339 32.6547ZM48.1558 26.9847L47.0042 23.4147C46.8995 23.0997 46.6902 22.1547 46.2714 20.8947C46.1667 21.4197 45.9574 22.3647 45.6433 23.4147L44.4917 26.9847H48.1558Z" fill="black"/>
<path d="M63.3355 27.7197C63.3355 29.3997 62.9167 30.6597 61.9746 31.7097C61.1371 32.5497 60.1949 32.9697 58.9386 32.9697C57.6824 32.9697 56.7402 32.5497 56.2167 31.6047V36.7497H54.0183V26.2497C54.0183 25.1997 54.0183 24.1497 53.9136 22.9947H55.798L55.9027 24.5697C56.6355 23.4147 57.6824 22.7847 59.148 22.7847C60.2995 22.7847 61.2417 23.2047 61.9746 24.1497C62.9167 24.9897 63.3355 26.1447 63.3355 27.7197ZM61.137 27.7197C61.137 26.7747 60.9277 25.9347 60.5089 25.4097C60.0902 24.7797 59.462 24.4647 58.6245 24.4647C58.1011 24.4647 57.5777 24.6747 57.1589 24.9897C56.7402 25.3047 56.4261 25.8297 56.3214 26.3547C56.2167 26.6697 56.2167 26.8797 56.2167 26.9847V28.6647C56.2167 29.3997 56.4261 29.9247 56.8449 30.4497C57.2636 30.9747 57.8917 31.1847 58.5199 31.1847C59.3574 31.1847 59.9855 30.8697 60.4042 30.2397C60.9277 29.6097 61.137 28.7697 61.137 27.7197Z" fill="black"/>
<path d="M74.5371 27.7197C74.5371 29.3997 74.1183 30.6597 73.1761 31.7097C72.3386 32.5497 71.3964 32.9697 70.1402 32.9697C68.8839 32.9697 67.9417 32.5497 67.4183 31.6047V36.7497H65.2199V26.2497C65.2199 25.1997 65.2199 24.1497 65.1152 22.9947H66.9995L67.1042 24.5697C67.8371 23.4147 68.8839 22.7847 70.3496 22.7847C71.5011 22.7847 72.4433 23.2047 73.1761 24.1497C74.1183 24.9897 74.5371 26.1447 74.5371 27.7197ZM72.3386 27.7197C72.3386 26.7747 72.1292 25.9347 71.7105 25.4097C71.2917 24.7797 70.6636 24.4647 69.8261 24.4647C69.3027 24.4647 68.7792 24.6747 68.3605 24.9897C67.9417 25.3047 67.6277 25.8297 67.523 26.3547C67.4183 26.6697 67.4183 26.8797 67.4183 26.9847V28.6647C67.4183 29.3997 67.6277 29.9247 68.0464 30.4497C68.4652 30.9747 69.0933 31.1847 69.7214 31.1847C70.5589 31.1847 71.187 30.8697 71.6058 30.2397C72.1292 29.6097 72.3386 28.7697 72.3386 27.7197Z" fill="black"/>
<path d="M87.0996 28.8747C87.0996 30.0297 86.6808 30.9747 85.948 31.7097C85.1105 32.5497 83.8542 32.8647 82.2839 32.8647C80.8183 32.8647 79.6667 32.5497 78.8292 32.0247L79.3527 30.2397C80.2949 30.7647 81.3417 31.0797 82.4933 31.0797C83.3308 31.0797 83.9589 30.8697 84.3777 30.5547C84.7964 30.1347 85.0058 29.7147 85.0058 29.0847C85.0058 28.5597 84.7964 28.0347 84.4824 27.7197C84.0636 27.2997 83.4355 26.9847 82.598 26.6697C80.1902 25.8297 79.0386 24.4647 79.0386 22.7847C79.0386 21.6297 79.4574 20.7897 80.2949 20.0547C81.1324 19.3197 82.1792 19.0047 83.6449 19.0047C84.9011 19.0047 85.8433 19.2147 86.6808 19.6347L86.1574 21.4197C85.4246 20.9997 84.5871 20.7897 83.5402 20.7897C82.8074 20.7897 82.1792 20.9997 81.7605 21.3147C81.4464 21.6297 81.2371 22.0497 81.2371 22.5747C81.2371 23.0997 81.4464 23.5197 81.8652 23.9397C82.1792 24.2547 82.9121 24.5697 83.8542 24.9897C85.0058 25.4097 85.8433 26.0397 86.4714 26.6697C86.7855 27.1947 87.0996 27.9297 87.0996 28.8747Z" fill="black"/>
<path d="M94.2183 24.5697H91.8105V29.2947C91.8105 30.4497 92.2292 31.0797 93.0667 31.0797C93.4855 31.0797 93.7996 31.0797 94.0089 30.9747L94.1136 32.6547C93.6949 32.8647 93.1714 32.8647 92.4386 32.8647C91.6011 32.8647 90.8683 32.6547 90.4496 32.1297C89.9261 31.6047 89.7167 30.7647 89.7167 29.5047V24.5697H88.2511V22.8897H89.7167V21.1047L91.8105 20.4747V22.8897H94.2183V24.5697Z" fill="black"/>
<path d="M105.001 27.7197C105.001 29.1897 104.582 30.4497 103.745 31.3947C102.803 32.3397 101.651 32.8647 100.185 32.8647C98.7199 32.8647 97.5683 32.3397 96.7308 31.3947C95.8933 30.4497 95.4745 29.2947 95.4745 27.8247C95.4745 26.3547 95.8933 25.0947 96.8355 24.1497C97.673 23.2047 98.9293 22.6797 100.395 22.6797C101.86 22.6797 103.012 23.2047 103.85 24.1497C104.582 25.0947 105.001 26.2497 105.001 27.7197ZM102.698 27.8247C102.698 26.8797 102.489 26.1447 102.07 25.5147C101.651 24.7797 100.918 24.3597 100.081 24.3597C99.2433 24.3597 98.5105 24.7797 98.0917 25.5147C97.673 26.1447 97.4636 26.9847 97.4636 27.8247C97.4636 28.7697 97.673 29.5047 98.0917 30.1347C98.5105 30.8697 99.2433 31.2897 100.081 31.2897C100.918 31.2897 101.546 30.8697 102.07 30.1347C102.489 29.5047 102.698 28.6647 102.698 27.8247Z" fill="black"/>
<path d="M112.015 24.7797C111.806 24.7797 111.596 24.6747 111.282 24.6747C110.55 24.6747 109.921 24.9897 109.503 25.5147C109.189 26.0397 108.979 26.6697 108.979 27.4047V32.5497H106.781V25.8297C106.781 24.6747 106.781 23.7297 106.676 22.7847H108.56L108.665 24.6747H108.77C108.979 24.0447 109.398 23.5197 109.817 23.0997C110.34 22.7847 110.864 22.5747 111.387 22.5747C111.596 22.5747 111.806 22.5747 111.91 22.5747V24.7797H112.015Z" fill="black"/>
<path d="M121.646 27.2997C121.646 27.7197 121.646 28.0347 121.542 28.2447H115.051C115.051 29.1897 115.365 29.9247 115.993 30.4497C116.517 30.8697 117.25 31.1847 118.087 31.1847C119.029 31.1847 119.971 31.0797 120.704 30.7647L121.018 32.2347C120.076 32.6547 119.029 32.8647 117.773 32.8647C116.307 32.8647 115.051 32.4447 114.214 31.4997C113.376 30.6597 112.957 29.3997 112.957 27.9297C112.957 26.4597 113.376 25.1997 114.109 24.2547C114.946 23.2047 116.098 22.6797 117.564 22.6797C118.925 22.6797 120.076 23.2047 120.704 24.2547C121.437 25.0947 121.646 26.1447 121.646 27.2997ZM119.657 26.7747C119.657 26.1447 119.553 25.6197 119.239 25.0947C118.82 24.4647 118.296 24.1497 117.564 24.1497C116.831 24.1497 116.307 24.4647 115.889 24.9897C115.575 25.4097 115.365 26.0397 115.26 26.6697H119.657V26.7747Z" fill="black"/>
<path d="M47.5277 10.8147C47.5277 11.9697 47.2136 12.9147 46.4808 13.5447C45.8527 14.0697 44.9105 14.3847 43.6542 14.3847C43.0261 14.3847 42.5027 14.3847 42.0839 14.2797V7.76969C42.6074 7.66469 43.2355 7.66469 43.9683 7.66469C45.1199 7.66469 45.9574 7.87469 46.5855 8.39969C47.1089 8.92469 47.5277 9.76469 47.5277 10.8147ZM46.3761 10.8147C46.3761 10.0797 46.1667 9.44969 45.748 9.02969C45.3292 8.60969 44.7011 8.39969 43.9683 8.39969C43.6542 8.39969 43.3402 8.39969 43.1308 8.50469V13.4397C43.2355 13.4397 43.5495 13.4397 43.8636 13.4397C44.7011 13.4397 45.3292 13.2297 45.748 12.8097C46.1667 12.3897 46.3761 11.6547 46.3761 10.8147Z" fill="black"/>
<path d="M53.3902 11.8647C53.3902 12.5997 53.1808 13.2297 52.762 13.6497C52.3433 14.1747 51.7152 14.3847 50.9824 14.3847C50.2496 14.3847 49.7261 14.1747 49.3074 13.6497C48.8886 13.2297 48.6792 12.5997 48.6792 11.8647C48.6792 11.1297 48.8886 10.4997 49.3074 10.0797C49.7261 9.55469 50.3542 9.34469 51.087 9.34469C51.8199 9.34469 52.3433 9.55469 52.762 10.0797C53.1808 10.4997 53.3902 11.1297 53.3902 11.8647ZM52.3433 11.8647C52.3433 11.4447 52.2386 11.0247 52.0292 10.7097C51.8199 10.2897 51.5058 10.1847 51.087 10.1847C50.6683 10.1847 50.3542 10.3947 50.1449 10.7097C49.9355 11.0247 49.8308 11.4447 49.8308 11.8647C49.8308 12.2847 49.9355 12.7047 50.1449 13.0197C50.3542 13.4397 50.6683 13.5447 51.087 13.5447C51.5058 13.5447 51.8199 13.3347 52.0292 12.9147C52.2386 12.7047 52.3433 12.2847 52.3433 11.8647Z" fill="black"/>
<path d="M61.4511 9.44969L59.9855 14.2797H59.0433L58.4152 12.1797C58.2058 11.6547 58.1011 11.1297 57.9964 10.6047C57.8917 11.1297 57.787 11.6547 57.5777 12.1797L56.9495 14.2797H56.0074L54.437 9.44969H55.4839L56.0074 11.7597C56.112 12.2847 56.2167 12.8097 56.3214 13.3347C56.4261 12.9147 56.5308 12.3897 56.7402 11.7597L57.3683 9.44969H58.2058L58.8339 11.6547C59.0433 12.1797 59.148 12.7047 59.2527 13.2297C59.3574 12.7047 59.462 12.1797 59.5667 11.6547L60.1949 9.44969H61.4511Z" fill="black"/>
<path d="M66.8949 14.2797H65.848V11.5497C65.848 10.7097 65.5339 10.2897 64.9058 10.2897C64.5917 10.2897 64.3824 10.3947 64.173 10.6047C63.9636 10.8147 63.8589 11.1297 63.8589 11.4447V14.2797H62.812V10.8147C62.812 10.3947 62.812 9.97469 62.812 9.44969H63.7542V10.1847C63.8589 9.97469 64.0683 9.76469 64.2777 9.55469C64.5917 9.34469 64.9058 9.23969 65.2199 9.23969C65.6386 9.23969 66.0574 9.34469 66.3714 9.65969C66.7902 9.97469 66.8949 10.4997 66.8949 11.2347V14.2797Z" fill="black"/>
<path d="M69.8261 14.2797H68.7792V7.24469H69.8261V14.2797Z" fill="black"/>
<path d="M76.1074 11.8647C76.1074 12.5997 75.898 13.2297 75.4792 13.6497C75.0605 14.1747 74.4324 14.3847 73.6995 14.3847C72.9667 14.3847 72.4433 14.1747 72.0245 13.6497C71.6058 13.2297 71.3964 12.5997 71.3964 11.8647C71.3964 11.1297 71.6058 10.4997 72.0245 10.0797C72.4433 9.65969 73.0714 9.34469 73.8042 9.34469C74.537 9.34469 75.0605 9.55469 75.4792 10.0797C75.898 10.4997 76.1074 11.1297 76.1074 11.8647ZM75.0605 11.8647C75.0605 11.4447 74.9558 11.0247 74.7464 10.7097C74.537 10.2897 74.223 10.1847 73.8042 10.1847C73.3855 10.1847 73.0714 10.3947 72.862 10.7097C72.6527 11.0247 72.548 11.4447 72.548 11.8647C72.548 12.2847 72.6527 12.7047 72.862 13.0197C73.0714 13.4397 73.3855 13.5447 73.8042 13.5447C74.223 13.5447 74.537 13.3347 74.7464 12.9147C74.9558 12.7047 75.0605 12.2847 75.0605 11.8647Z" fill="black"/>
<path d="M81.237 14.2797H80.2949L80.1902 13.7547C79.8761 14.1747 79.3527 14.3847 78.8292 14.3847C78.4105 14.3847 77.9917 14.2797 77.7824 13.9647C77.573 13.6497 77.3636 13.3347 77.3636 13.0197C77.3636 12.3897 77.573 11.9697 78.0964 11.6547C78.6199 11.3397 79.248 11.2347 80.1902 11.2347V11.1297C80.1902 10.4997 79.8761 10.1847 79.248 10.1847C78.7245 10.1847 78.4105 10.2897 77.9917 10.4997L77.7824 9.76469C78.2011 9.44969 78.7245 9.34469 79.4574 9.34469C80.7136 9.34469 81.3417 9.97469 81.3417 11.3397V13.1247C81.237 13.6497 81.237 13.9647 81.237 14.2797ZM80.1902 12.5997V11.8647C79.0386 11.8647 78.4105 12.1797 78.4105 12.8097C78.4105 13.0197 78.5152 13.2297 78.6199 13.3347C78.7245 13.4397 78.9339 13.5447 79.1433 13.5447C79.3527 13.5447 79.562 13.4397 79.7714 13.3347C79.9808 13.2297 80.0855 13.0197 80.1902 12.8097C80.1902 12.8097 80.1902 12.7047 80.1902 12.5997Z" fill="black"/>
<path d="M87.3089 14.2797H86.3667V13.5447C86.0527 14.1747 85.5292 14.3847 84.7964 14.3847C84.1683 14.3847 83.7495 14.1747 83.3308 13.7547C82.9121 13.3347 82.8074 12.7047 82.8074 11.9697C82.8074 11.2347 83.0167 10.6047 83.4355 10.0797C83.8542 9.65969 84.3777 9.44969 84.9011 9.44969C85.5292 9.44969 85.948 9.65969 86.2621 10.0797V7.34969H87.3089V13.0197C87.3089 13.4397 87.3089 13.8597 87.3089 14.2797ZM86.2621 12.2847V11.4447C86.2621 11.3397 86.2621 11.2347 86.2621 11.1297C86.1574 10.9197 86.0527 10.7097 85.8433 10.4997C85.6339 10.2897 85.4246 10.2897 85.1105 10.2897C84.6917 10.2897 84.3777 10.4997 84.1683 10.8147C83.9589 11.1297 83.8542 11.5497 83.8542 12.0747C83.8542 12.5997 83.9589 12.9147 84.1683 13.2297C84.3777 13.5447 84.6917 13.7547 85.1105 13.7547C85.4246 13.7547 85.7386 13.6497 85.948 13.3347C86.1574 12.9147 86.2621 12.5997 86.2621 12.2847Z" fill="black"/>
<path d="M96.4167 11.8647C96.4167 12.5997 96.2074 13.2297 95.7886 13.6497C95.3699 14.1747 94.7417 14.3847 94.0089 14.3847C93.2761 14.3847 92.7527 14.1747 92.3339 13.6497C91.9152 13.2297 91.7058 12.5997 91.7058 11.8647C91.7058 11.1297 91.9152 10.4997 92.3339 10.0797C92.7527 9.55469 93.3808 9.34469 94.1136 9.34469C94.8464 9.34469 95.3699 9.55469 95.7886 10.0797C96.2074 10.4997 96.4167 11.1297 96.4167 11.8647ZM95.2652 11.8647C95.2652 11.4447 95.1605 11.0247 94.9511 10.7097C94.7417 10.2897 94.4277 10.1847 94.0089 10.1847C93.5902 10.1847 93.2761 10.3947 93.0667 10.7097C92.8574 11.0247 92.7527 11.4447 92.7527 11.8647C92.7527 12.2847 92.8574 12.7047 93.0667 13.0197C93.2761 13.4397 93.5902 13.5447 94.0089 13.5447C94.4277 13.5447 94.7417 13.3347 94.9511 12.9147C95.1605 12.7047 95.2652 12.2847 95.2652 11.8647Z" fill="black"/>
<path d="M102.175 14.2797H101.128V11.5497C101.128 10.7097 100.814 10.2897 100.185 10.2897C99.8714 10.2897 99.662 10.3947 99.4527 10.6047C99.2433 10.8147 99.1386 11.1297 99.1386 11.4447V14.2797H98.0917V10.8147C98.0917 10.3947 98.0917 9.97469 98.0917 9.44969H99.0339V10.1847C99.1386 9.97469 99.348 9.76469 99.5574 9.55469C99.8714 9.34469 100.185 9.23969 100.5 9.23969C100.918 9.23969 101.337 9.34469 101.651 9.65969C102.07 9.97469 102.175 10.4997 102.175 11.2347V14.2797Z" fill="black"/>
<path d="M108.142 10.2897V12.5997C108.142 13.2297 108.351 13.4397 108.77 13.4397C108.979 13.4397 109.084 13.4397 109.293 13.4397V14.2797C109.084 14.3847 108.77 14.3847 108.456 14.3847C108.037 14.3847 107.723 14.2797 107.514 13.9647C107.304 13.7547 107.2 13.2297 107.2 12.7047V10.2897H106.467V9.44969H107.2V8.60969L108.246 8.29469V9.44969H109.398V10.2897H108.142Z" fill="black"/>
<path d="M114.946 14.2797H113.9V11.5497C113.9 10.7097 113.586 10.2897 112.957 10.2897C112.434 10.2897 112.12 10.4997 111.91 11.0247C111.91 11.1297 111.91 11.2347 111.91 11.4447V14.2797H110.864V7.24469H111.91V10.1847C112.225 9.65969 112.748 9.34469 113.376 9.34469C113.795 9.34469 114.214 9.44969 114.423 9.76469C114.737 10.0797 114.946 10.7097 114.946 11.3397V14.2797Z" fill="black"/>
<path d="M120.704 11.6547C120.704 11.8647 120.704 11.9697 120.704 12.1797H117.564C117.564 12.7047 117.773 13.0197 117.982 13.2297C118.296 13.4397 118.61 13.5447 119.029 13.5447C119.553 13.5447 119.971 13.4397 120.285 13.3347L120.495 14.0697C120.076 14.2797 119.553 14.3847 118.925 14.3847C118.192 14.3847 117.564 14.1747 117.145 13.7547C116.726 13.3347 116.517 12.7047 116.517 11.9697C116.517 11.2347 116.726 10.6047 117.145 10.1847C117.564 9.65969 118.087 9.44969 118.82 9.44969C119.553 9.44969 120.076 9.65969 120.39 10.1847C120.6 10.4997 120.704 11.0247 120.704 11.6547ZM119.762 11.3397C119.762 11.0247 119.657 10.7097 119.553 10.4997C119.343 10.1847 119.134 10.0797 118.715 10.0797C118.401 10.0797 118.087 10.1847 117.878 10.4997C117.668 10.7097 117.564 11.0247 117.564 11.3397H119.762Z" fill="black"/>
</svg>
