<svg width="32" height="32" viewBox="0 0 32 32" fill="none" xmlns="http://www.w3.org/2000/svg">
<rect x="0.5" y="0.5" width="31" height="31" rx="15.5" stroke="#BDBDBD"/>
<path fill-rule="evenodd" clip-rule="evenodd" d="M20.5 21.5C21.0523 21.5 21.5 21.0523 21.5 20.5C21.5 19.9477 21.0523 19.5 20.5 19.5C19.9477 19.5 19.5 19.9477 19.5 20.5C19.5 21.0523 19.9477 21.5 20.5 21.5Z" stroke="#BDBDBD" stroke-linecap="round" stroke-linejoin="round"/>
<path fill-rule="evenodd" clip-rule="evenodd" d="M11.5 21.5C12.0523 21.5 12.5 21.0523 12.5 20.5C12.5 19.9477 12.0523 19.5 11.5 19.5C10.9477 19.5 10.5 19.9477 10.5 20.5C10.5 21.0523 10.9477 21.5 11.5 21.5Z" stroke="#BDBDBD" stroke-linecap="round" stroke-linejoin="round"/>
<path d="M21.5 20.5H22.5C23.0523 20.5 23.5 20.0523 23.5 19.5V15.5C23.5 14.3954 22.6046 13.5 21.5 13.5H19" stroke="#BDBDBD" stroke-linecap="round" stroke-linejoin="round"/>
<path d="M19 20.5V11.5C19 10.9477 18.5523 10.5 18 10.5H9.5C8.94772 10.5 8.5 10.9477 8.5 11.5V19.5C8.5 20.0523 8.94772 20.5 9.5 20.5H10.5" stroke="#BDBDBD" stroke-linecap="round" stroke-linejoin="round"/>
<path d="M19.5 20.5H12.5" stroke="#BDBDBD" stroke-linecap="round" stroke-linejoin="round"/>
<path d="M23.5 16.5H22C21.4477 16.5 21 16.0523 21 15.5V13.5" stroke="#BDBDBD" stroke-linecap="round" stroke-linejoin="round"/>
<path d="M8.5 17.5H19" stroke="#BDBDBD" stroke-linecap="round" stroke-linejoin="round"/>
<path d="M11 17.5V13.5" stroke="#BDBDBD" stroke-linecap="round" stroke-linejoin="round"/>
<path d="M13.5 17.5V13.5" stroke="#BDBDBD" stroke-linecap="round" stroke-linejoin="round"/>
<path d="M16 17.5V13.5" stroke="#BDBDBD" stroke-linecap="round" stroke-linejoin="round"/>
</svg>
