<svg width="24" height="23" viewBox="0 0 24 23" fill="none" xmlns="http://www.w3.org/2000/svg">
<path d="M6 19.1249H15.921C16.6526 19.125 17.2776 18.5972 17.4 17.8759L20.037 2.37593C20.1599 1.65501 20.7847 1.12777 21.516 1.12793H22.5" stroke="#BDBDBD" stroke-width="1.5" stroke-linecap="round" stroke-linejoin="round"/>
<path d="M7.875 21.375C8.08211 21.375 8.25 21.5429 8.25 21.75C8.25 21.9571 8.08211 22.125 7.875 22.125C7.66789 22.125 7.5 21.9571 7.5 21.75C7.5 21.5429 7.66789 21.375 7.875 21.375" stroke="#BDBDBD" stroke-width="1.5" stroke-linecap="round" stroke-linejoin="round"/>
<path d="M15.375 21.375C15.5821 21.375 15.75 21.5429 15.75 21.75C15.75 21.9571 15.5821 22.125 15.375 22.125C15.1679 22.125 15 21.9571 15 21.75C15 21.5429 15.1679 21.375 15.375 21.375" stroke="#BDBDBD" stroke-width="1.5" stroke-linecap="round" stroke-linejoin="round"/>
<path d="M17.9534 14.6251H5.88242C4.5061 14.6249 3.30641 13.6883 2.97242 12.3531L1.52242 6.55309C1.46636 6.32896 1.51673 6.09149 1.65895 5.90941C1.80117 5.72733 2.01938 5.62097 2.25042 5.62109H19.4844" stroke="#BDBDBD" stroke-width="1.5" stroke-linecap="round" stroke-linejoin="round"/>
</svg>
