<svg width="20" height="20" viewBox="0 0 20 20" fill="none" xmlns="http://www.w3.org/2000/svg">
<path d="M3.78994 13.04C3.92235 13.0022 4.0645 13.0207 4.18287 13.0911C5.17834 13.6831 6.31542 14 7.50012 14C11.09 14 14.0001 11.0898 14.0001 7.5C14.0001 3.91015 11.09 1 7.50012 1C3.91027 1 1.00012 3.91015 1.00012 7.5C1.00012 8.6847 1.31707 9.82178 1.90907 10.8173C1.97946 10.9356 1.99791 11.0778 1.96008 11.2102L1.22814 13.772L3.78994 13.04ZM14.6788 5.32147C17.809 6.26957 20.0001 9.16829 20.0001 12.5C20.0001 13.7913 19.6729 15.0357 19.0598 16.1387L19.9809 19.3626C20.0887 19.7398 19.7399 20.0885 19.3628 19.9808L16.1388 19.0596C15.0359 19.6728 13.7914 20 12.5001 20C9.17162 20 6.27129 17.8126 5.32158 14.6786C4.81451 14.5249 4.32543 14.3176 3.8614 14.0596L0.637485 14.9808C0.260309 15.0885 -0.0884023 14.7398 0.0193623 14.3626L0.940481 11.1387C0.327341 10.0357 0.000124297 8.79129 0.000124297 7.5C0.000124297 3.35786 3.35799 0 7.50012 0C10.8846 0 13.7455 2.24179 14.6788 5.32147ZM14.9298 6.46886C14.9762 6.80595 15.0001 7.15018 15.0001 7.5C15.0001 11.6421 11.6423 15 7.50012 15C7.15241 15 6.8081 14.9763 6.46903 14.9296C7.44431 17.3526 9.81115 19 12.5001 19C13.6848 19 14.8219 18.6831 15.8174 18.0911C15.9357 18.0207 16.0779 18.0022 16.2103 18.04L18.7721 18.772L18.0402 16.2102C18.0023 16.0778 18.0208 15.9356 18.0912 15.8173C18.6832 14.8218 19.0001 13.6847 19.0001 12.5C19.0001 9.80865 17.3501 7.44299 14.9298 6.46886Z" fill="white"/>
</svg>
