<svg width="107" height="100" viewBox="0 0 107 100" fill="none" xmlns="http://www.w3.org/2000/svg">
<path d="M23.25 81.109H61.6939C64.5289 81.1093 66.9506 79.0642 67.425 76.2691L77.6434 16.2066C78.1195 13.4131 80.5407 11.37 83.3745 11.3706H87.1875" stroke="#264796" stroke-width="3.5" stroke-linecap="round" stroke-linejoin="round"/>
<path d="M30.5156 89.8281C31.3182 89.8281 31.9688 90.4787 31.9688 91.2812C31.9688 92.0838 31.3182 92.7344 30.5156 92.7344C29.7131 92.7344 29.0625 92.0838 29.0625 91.2812C29.0625 90.4787 29.7131 89.8281 30.5156 89.8281" stroke="#264796" stroke-width="3.5" stroke-linecap="round" stroke-linejoin="round"/>
<path d="M59.5781 89.8281C60.3807 89.8281 61.0313 90.4787 61.0313 91.2812C61.0313 92.0838 60.3807 92.7344 59.5781 92.7344C58.7756 92.7344 58.125 92.0838 58.125 91.2812C58.125 90.4787 58.7756 89.8281 59.5781 89.8281" stroke="#264796" stroke-width="3.5" stroke-linecap="round" stroke-linejoin="round"/>
<path d="M69.5676 63.6717H22.7924C17.4592 63.6712 12.8104 60.0416 11.5162 54.8677L5.89744 32.3927C5.68018 31.5242 5.87536 30.604 6.42648 29.8985C6.9776 29.1929 7.82315 28.7808 8.71844 28.7813H75.5002" stroke="#264796" stroke-width="3.5" stroke-linecap="round" stroke-linejoin="round"/>
<path d="M23.25 40.4219V49.1406" stroke="#264796" stroke-width="3.5" stroke-linecap="round" stroke-linejoin="round"/>
<path d="M40.6875 40.4219V49.1406" stroke="#264796" stroke-width="3.5" stroke-linecap="round" stroke-linejoin="round"/>
<path d="M58.125 40.4219V49.1406" stroke="#264796" stroke-width="3.5" stroke-linecap="round" stroke-linejoin="round"/>
<circle cx="87" cy="20.5884" r="20" fill="#0091FF"/>
<path d="M79.5 20.5884H94.5" stroke="white" stroke-width="1.5" stroke-linecap="round" stroke-linejoin="round"/>
<path d="M87 13.0884V28.0884" stroke="white" stroke-width="1.5" stroke-linecap="round" stroke-linejoin="round"/>
</svg>
