<svg width="23" height="20" viewBox="0 0 23 20" fill="none" xmlns="http://www.w3.org/2000/svg">
<path d="M1.52734 10.4188L10.5131 1.41541C10.782 1.14801 11.1461 0.99858 11.5251 1.00001C11.9042 1.00144 12.2671 1.15362 12.534 1.42304L21.5273 10.4188" stroke="#264796" stroke-width="1.5" stroke-linecap="round" stroke-linejoin="round"/>
<path d="M18.6705 7.56092V18.9994H4.38477V7.55615" stroke="#264796" stroke-width="1.5" stroke-linecap="round" stroke-linejoin="round"/>
<path d="M14.3842 18.9999V14.7094C14.3842 13.1296 13.105 11.849 11.5271 11.849C9.94911 11.849 8.66992 13.1296 8.66992 14.7094V18.9999" stroke="#264796" stroke-width="1.5" stroke-linecap="round" stroke-linejoin="round"/>
<path fill-rule="evenodd" clip-rule="evenodd" d="M11.5279 8.98904C12.5141 8.98904 13.3136 8.18865 13.3136 7.20133C13.3136 6.214 12.5141 5.41362 11.5279 5.41362C10.5417 5.41362 9.74219 6.214 9.74219 7.20133C9.74219 8.18865 10.5417 8.98904 11.5279 8.98904Z" stroke="#264796" stroke-width="1.5" stroke-linecap="round" stroke-linejoin="round"/>
</svg>
