<svg width="32" height="22" viewBox="0 0 32 22" fill="none" xmlns="http://www.w3.org/2000/svg">
<rect width="32" height="22" rx="2.64" fill="#104391"/>
<path d="M21.4495 9.98023C21.4495 12.1046 20.9495 13.6878 19.9505 14.7194C18.9499 15.7525 17.4077 16.2665 15.3267 16.2665C13.3822 16.2665 11.9083 15.7526 10.9013 14.7194C9.89571 13.6877 9.39258 12.1304 9.39258 10.0528C9.39258 7.72677 9.39258 5.40075 9.39258 3.07467C9.39258 2.91168 9.52992 2.77832 9.69778 2.77832H13.2234C13.3912 2.77832 13.5286 2.91168 13.5286 3.07467C13.5286 5.45123 13.5286 7.82783 13.5286 10.2044C13.5286 11.0536 13.6905 11.7079 14.0196 12.1683C14.3472 12.6266 14.8162 12.8565 15.4275 12.8565C16.0421 12.8565 16.5104 12.6417 16.8322 12.2093C17.154 11.7768 17.3134 11.1389 17.3134 10.296V8.96076H21.4495V9.98023Z" fill="white"/>
<path d="M21.1289 8.18173H17.6322H17.3125V7.87135V6.96153V3.08871C17.3125 2.91799 17.4563 2.77832 17.6322 2.77832H18.2033C18.2046 4.51704 19.6566 5.92625 21.4476 5.92625L21.4485 5.92623V6.96153V7.87135V8.18173H21.1289Z" fill="white"/>
<path d="M19.0176 2.77832C19.7218 2.77832 20.426 2.77832 21.1302 2.77832C21.306 2.77832 21.4498 2.91799 21.4498 3.08871C21.4498 3.77332 21.4498 4.45796 21.4498 5.14258C20.1066 5.14258 19.0176 4.08519 19.0176 2.78089L19.0176 2.77832Z" fill="#FE8700"/>
<path fill-rule="evenodd" clip-rule="evenodd" d="M14.9948 19.2877C14.8845 19.473 14.6913 19.6539 14.3533 19.6539C13.8934 19.6539 13.537 19.3413 13.537 18.8836C13.537 18.4258 13.8934 18.1133 14.3533 18.1133C14.6913 18.1133 14.8868 18.2919 14.9948 18.4772L14.7143 18.6112C14.6499 18.4906 14.512 18.3946 14.3533 18.3946C14.0751 18.3946 13.8727 18.6023 13.8727 18.8836C13.8727 19.1649 14.0751 19.3726 14.3533 19.3726C14.512 19.3726 14.6499 19.2788 14.7143 19.156L14.9948 19.2877ZM12.7927 19.626V19.3469H12.0522L12.7766 18.3912V18.1367H11.6245V18.4158H12.3489L11.6245 19.3692V19.626H12.7927ZM10.0847 19.6529C10.5515 19.6529 10.7768 19.4006 10.7768 19.0299V18.1368H10.4434V19.021C10.4434 19.2287 10.3215 19.3716 10.0847 19.3716C9.84782 19.3716 9.72365 19.2287 9.72365 19.021V18.1368H9.39258V19.0322C9.39258 19.3984 9.61793 19.6529 10.0847 19.6529ZM17.2061 19.626L16.6151 18.1367H16.2058L15.6125 19.626H15.9851L16.0816 19.3737H16.7393L16.8336 19.626H17.2061ZM16.1714 19.0957H16.6497L16.4106 18.4548L16.1714 19.0957ZM19.41 19.9992L18.8471 19.0588C19.0127 19.0209 19.1829 18.8802 19.1829 18.6168C19.1829 18.3399 18.9874 18.1367 18.6678 18.1367H17.9504V19.626H18.2769V19.0968H18.516L19.0352 19.9992H19.41ZM18.2769 18.8185H18.6195C18.7506 18.8185 18.8494 18.7426 18.8494 18.6176C18.8494 18.4925 18.7506 18.4166 18.6195 18.4166H18.2769V18.8185ZM20.6354 19.626C21.116 19.626 21.4494 19.3313 21.4494 18.8825C21.4494 18.4337 21.116 18.1367 20.6354 18.1367H20.0306V19.626H20.6354ZM20.3571 19.3476H20.6353C20.9388 19.3476 21.1159 19.1355 21.1159 18.8832C21.1159 18.6197 20.9503 18.4165 20.6353 18.4165H20.3571V19.3476Z" fill="white"/>
<path d="M22.2451 18.0067L22.2451 18.0102C22.2451 18.1634 22.1173 18.2875 21.9596 18.2875C21.8019 18.2875 21.6741 18.1634 21.6741 18.0102C21.6741 17.8571 21.8019 17.733 21.9596 17.733H22.2451V18.0067Z" fill="white"/>
</svg>
