<svg width="20" height="20" viewBox="0 0 20 20" fill="none" xmlns="http://www.w3.org/2000/svg">
<path fill-rule="evenodd" clip-rule="evenodd" d="M20.0007 9.29841C19.9994 8.03333 18.9741 7.00812 17.7091 7.00675H12.9424C12.8764 7.00672 12.8143 6.9754 12.775 6.92233C12.7357 6.86926 12.724 6.80072 12.7432 6.73758C13.1603 5.61235 13.2814 4.39887 13.0949 3.21341C12.5674 1.33341 11.3824 0.808411 10.5249 0.925078C9.59455 1.07812 8.92346 1.89956 8.95906 2.84175C8.95906 5.35758 6.71407 8.10758 4.74823 8.87508C4.65507 8.5146 4.33137 8.26166 3.95907 8.25841H0.834066C0.373828 8.25841 0.000732422 8.63151 0.000732422 9.09175V18.2584C0.000732422 18.7187 0.373828 19.0917 0.834066 19.0917H3.95907C4.4193 19.0917 4.7924 18.7187 4.7924 18.2584V17.9842C5.62459 18.1031 6.25428 18.2173 6.79497 18.3153L6.79506 18.3154L6.84407 18.3242C7.95025 18.5594 9.07817 18.677 10.2091 18.6751H15.6257C17.5057 18.6751 17.7091 17.5084 17.7091 17.0084C17.7092 16.7558 17.6632 16.5053 17.5732 16.2692C18.4097 15.7398 18.7581 14.6947 18.4066 13.7692C19.3108 13.1975 19.635 12.0337 19.1566 11.0767C19.6913 10.6412 20.0014 9.98804 20.0007 9.29841ZM3.12573 16.7984C3.12573 17.1436 2.84591 17.4234 2.50073 17.4234C2.15555 17.4234 1.87573 17.1436 1.87573 16.7984C1.87573 16.4532 2.15555 16.1734 2.50073 16.1734C2.84591 16.1734 3.12573 16.4532 3.12573 16.7984ZM17.7091 9.9234C18.0541 9.92295 18.3336 9.64339 18.3341 9.2984C18.3336 8.95342 18.0541 8.67386 17.7091 8.6734H11.4591C11.1792 8.67325 10.9181 8.5326 10.7639 8.29897C10.6098 8.06534 10.5832 7.76994 10.6932 7.51257C11.1307 6.48674 11.7349 4.5359 11.4899 3.66424C11.2524 2.80674 10.8882 2.55924 10.7524 2.57674C10.6916 2.59007 10.6257 2.68007 10.6257 2.84007C10.6257 6.1434 7.7049 9.85174 4.7924 10.6092V16.3009C5.76551 16.4304 6.49088 16.5639 7.09228 16.6746L7.1449 16.6842C8.152 16.8999 9.17914 17.008 10.2091 17.0067H15.6257C15.7632 17.0107 15.9007 16.9995 16.0357 16.9734C16.0185 16.7589 15.8409 16.5928 15.6257 16.5901C15.1655 16.5901 14.7924 16.217 14.7924 15.7567C14.7924 15.2965 15.1655 14.9234 15.6257 14.9234H16.4591C16.6892 14.9234 16.8757 14.7369 16.8757 14.5067C16.8757 14.2766 16.6892 14.0901 16.4591 14.0901C15.9988 14.0901 15.6257 13.717 15.6257 13.2567C15.6257 12.7965 15.9988 12.4234 16.4591 12.4234H17.2924C17.5225 12.4234 17.7091 12.2369 17.7091 12.0067C17.7091 11.7766 17.5225 11.5901 17.2924 11.5901C16.8322 11.5901 16.4591 11.217 16.4591 10.7567C16.4591 10.2965 16.8322 9.9234 17.2924 9.9234H17.7091Z" fill="#BDBDBD"/>
</svg>
