<svg width="93" height="93" viewBox="0 0 93 93" fill="none" xmlns="http://www.w3.org/2000/svg">
<path d="M73.9732 1.49658H18.8219C9.6441 1.49658 2.2041 8.93676 2.2041 18.1143V54.287C2.2041 63.4649 9.64428 70.9047 18.8219 70.9047H26.7368C27.1134 70.9047 27.4185 71.2101 27.4185 71.5864V89.4295C27.4185 91.5393 29.9991 92.5621 31.4442 91.0251L50.1654 71.1191C50.2944 70.9819 50.474 70.9044 50.6622 70.9044H73.973C83.151 70.9044 90.5908 63.4642 90.5908 54.2866V18.1145C90.5913 8.93658 83.1512 1.49658 73.9732 1.49658Z" fill="#EC5569"/>
<path d="M34.4105 64.703C34.4105 64.3064 34.115 63.9851 33.7504 63.9851H26.0879C17.203 63.9851 10.0002 56.1504 10.0002 46.4857V8.39437C10.0002 6.75906 10.2071 5.17643 10.5929 3.6748C5.58213 6.53673 2.20435 11.9311 2.20435 18.1147V54.2873C2.20435 63.4651 9.64453 70.9051 18.8221 70.9051H26.7371C27.1136 70.9051 27.4188 71.2104 27.4188 71.5868V89.4299C27.4188 91.5396 29.9994 92.5625 31.4445 91.0254L34.4098 87.8723V64.703H34.4105Z" fill="#E63950"/>
<path d="M65.0699 23.0633C60.8507 18.8441 54.0101 18.8441 49.791 23.0633L47.4077 25.4466C46.8395 26.0148 45.918 26.0148 45.3497 25.4466L43.0045 23.1014C38.7854 18.8823 31.9448 18.8823 27.7256 23.1014C23.5065 27.3206 23.5065 34.1612 27.7256 38.3803L45.3511 56.0058C45.9193 56.574 46.8408 56.574 47.4091 56.0058L65.0699 38.3422C69.289 34.123 69.289 27.2824 65.0699 23.0633Z" fill="#EC5569"/>
<path d="M65.0699 23.0633C60.8507 18.8441 54.0101 18.8441 49.791 23.0633L47.4077 25.4466C46.8395 26.0148 45.918 26.0148 45.3497 25.4466L43.0045 23.1014C38.7854 18.8823 31.9448 18.8823 27.7256 23.1014C23.5065 27.3206 23.5065 34.1612 27.7256 38.3803L45.3511 56.0058C45.9193 56.574 46.8408 56.574 47.4091 56.0058L65.0699 38.3422C69.289 34.123 69.289 27.2824 65.0699 23.0633Z" fill="#FFF5F5"/>
<path d="M33.3773 38.3801C29.1581 34.161 29.1581 27.3204 33.3773 23.1013C34.7612 21.7173 36.4279 20.7902 38.1909 20.3143C34.5792 19.3391 30.5609 20.266 27.7259 23.1013C23.5067 27.3204 23.5067 34.161 27.7259 38.3801L45.3514 56.0056C45.9195 56.5738 46.841 56.5738 47.4094 56.0056L49.2058 54.2089L33.3773 38.3801Z" fill="#DCE6EB"/>
<path d="M74.076 0H18.9244C15.0411 0 11.3435 1.21826 8.23123 3.52274C7.62437 3.97212 7.49686 4.82837 7.94606 5.43523C8.39544 6.04209 9.25169 6.16942 9.85855 5.72041C12.4963 3.76705 15.6313 2.73442 18.9244 2.73442H74.0758C82.485 2.73442 89.3263 9.57591 89.3263 17.985V54.1576C89.3263 62.5668 82.4848 69.4082 74.0758 69.4082H50.7651C50.2018 69.4082 49.6576 69.6436 49.2726 70.0535L30.5512 89.9595C30.1471 90.3889 29.6784 90.267 29.4959 90.1949C29.3132 90.1226 28.8883 89.8905 28.8883 89.3005V71.4574C28.8883 70.3276 27.9692 69.4085 26.8394 69.4085H18.9244C10.5152 69.4085 3.67369 62.567 3.67369 54.158V17.985C3.67369 14.8913 4.59443 11.9129 6.33654 9.37211C6.7634 8.74927 6.60482 7.89846 5.98216 7.47142C5.35968 7.04439 4.50833 7.20332 4.08147 7.8258C2.02603 10.824 0.939453 14.3369 0.939453 17.985V54.1576C0.939453 64.0745 9.00757 72.1426 18.9246 72.1426H26.1541V89.3005C26.1541 90.8259 27.0703 92.1748 28.4883 92.7368C28.9354 92.9139 29.3996 93 29.8585 93C30.8555 93 31.8274 92.5937 32.5431 91.833L51.0614 72.1428H74.076C83.9928 72.1428 92.0609 64.0746 92.0609 54.1578V17.985C92.0609 8.06811 83.993 0 74.076 0Z" fill="black"/>
<path d="M60.1233 41.3289C59.5893 41.8629 59.5893 42.7286 60.1235 43.2623C60.6575 43.7961 61.5232 43.7963 62.0569 43.2621L66.1389 39.1795C70.8841 34.4342 70.8841 26.7124 66.1387 21.9671C61.3935 17.2217 53.6718 17.2221 48.9262 21.9671L46.5433 24.3502C46.5369 24.3566 46.5171 24.3762 46.4808 24.3762C46.4445 24.3762 46.4251 24.3569 46.4187 24.3502L44.0735 22.0052C39.3282 17.2599 31.6066 17.2601 26.8613 22.0052C22.1159 26.7506 22.1159 34.4723 26.8613 39.2177L44.4868 56.8432C45.0197 57.3763 45.7286 57.6698 46.4825 57.6698C47.2363 57.6698 47.9452 57.3761 48.4781 56.843L58.1641 47.1554C58.6981 46.6213 58.6981 45.7556 58.1639 45.222C57.6299 44.6881 56.764 44.688 56.2306 45.2222L46.5446 54.9098C46.5382 54.9161 46.5186 54.9356 46.4825 54.9356C46.4459 54.9356 46.4265 54.9163 46.4201 54.9096L28.7946 37.2841C25.1153 33.6048 25.1153 27.6181 28.7946 23.9386C32.474 20.2591 38.4607 20.2595 42.14 23.9386L44.485 26.2836C45.0179 26.8169 45.7268 27.1104 46.4806 27.1104C47.2346 27.1104 47.9432 26.8169 48.4765 26.2838L50.8596 23.9007C54.5397 20.2215 60.5258 20.2217 64.2051 23.9007C67.8844 27.58 67.8844 33.5665 64.2051 37.2461L60.1233 41.3289Z" fill="black"/>
</svg>
