<svg width="12" height="18" viewBox="0 0 12 18" fill="none" xmlns="http://www.w3.org/2000/svg">
<path fill-rule="evenodd" clip-rule="evenodd" d="M6 1.47363C8.76142 1.47363 11 3.71221 11 6.47363C11 8.8383 7.33333 14.7276 6.28067 16.3736C6.21938 16.4693 6.1136 16.5271 6 16.5271C5.8864 16.5271 5.78062 16.4693 5.71933 16.3736C4.66667 14.7283 1 8.8383 1 6.47363C1 3.71221 3.23858 1.47363 6 1.47363Z" stroke="#fff" stroke-linecap="round" stroke-linejoin="round"/>
<path fill-rule="evenodd" clip-rule="evenodd" d="M6 8.47363C7.10457 8.47363 8 7.5782 8 6.47363C8 5.36906 7.10457 4.47363 6 4.47363C4.89543 4.47363 4 5.36906 4 6.47363C4 7.5782 4.89543 8.47363 6 8.47363Z" stroke="#fff" stroke-linecap="round" stroke-linejoin="round"/>
</svg>
