<svg width="16" height="16" viewBox="0 0 16 16" fill="none" xmlns="http://www.w3.org/2000/svg">
<path d="M0.5 9.5V15.5" stroke="#797979" stroke-linecap="round" stroke-linejoin="round"/>
<path d="M0.5 14.5H11.5C11.5 13.3954 10.6046 12.5 9.5 12.5H7C7 11.3954 6.10457 10.5 5 10.5H0.5" stroke="#797979" stroke-linecap="round" stroke-linejoin="round"/>
<path d="M4.5 12.5H7" stroke="#797979" stroke-linecap="round" stroke-linejoin="round"/>
<path d="M5.25 2C5.38807 2 5.5 2.11193 5.5 2.25C5.5 2.38807 5.38807 2.5 5.25 2.5C5.11193 2.5 5 2.38807 5 2.25C5 2.11193 5.11193 2 5.25 2" stroke="#797979" stroke-linecap="round" stroke-linejoin="round"/>
<path d="M13.75 6C13.8881 6 14 6.11193 14 6.25C14 6.38807 13.8881 6.5 13.75 6.5C13.6119 6.5 13.5 6.38807 13.5 6.25C13.5 6.11193 13.6119 6 13.75 6" stroke="#797979" stroke-linecap="round" stroke-linejoin="round"/>
<path fill-rule="evenodd" clip-rule="evenodd" d="M4.42334 0.5H14.5767C15.0898 0.505493 15.5022 0.92419 15.5 1.43733V7.06267C15.5022 7.57581 15.0898 7.99451 14.5767 8H4.42334C3.91022 7.99451 3.49778 7.57581 3.50001 7.06267V1.43733C3.49778 0.92419 3.91022 0.505493 4.42334 0.5Z" stroke="#797979" stroke-linecap="round" stroke-linejoin="round"/>
<path fill-rule="evenodd" clip-rule="evenodd" d="M9.5 5.5C10.3284 5.5 11 4.82843 11 4C11 3.17157 10.3284 2.5 9.5 2.5C8.67157 2.5 8 3.17157 8 4C8 4.82843 8.67157 5.5 9.5 5.5Z" stroke="#797979" stroke-linecap="round" stroke-linejoin="round"/>
</svg>
