<svg width="38" height="30" viewBox="0 0 38 30" fill="none" xmlns="http://www.w3.org/2000/svg">
<path fill-rule="evenodd" clip-rule="evenodd" d="M34.0003 3.33333C35.8413 3.33333 37.3337 4.82572 37.3337 6.66667V26.6667C37.3337 28.5076 35.8413 30 34.0003 30H4.00033C2.15938 30 0.666992 28.5076 0.666992 26.6667V3.33333C0.666992 1.49238 2.15938 0 4.00033 0H14.0003C15.867 0 17.0552 0.792419 18.2486 2.29809C18.2816 2.33975 18.3621 2.44344 18.4512 2.55828L18.4513 2.5584C18.5771 2.72047 18.72 2.9047 18.7711 2.96803C18.8228 3.03209 18.8664 3.08507 18.9024 3.12886C19.049 3.30714 19.0702 3.33297 19.0033 3.33333H34.0003ZM4.00033 26.6667H34.0003V6.66667L18.9914 6.66664C17.7945 6.66023 17.0148 6.09985 16.1767 5.0609C16.1008 4.96676 15.9162 4.7289 15.7823 4.55621L15.7822 4.55605C15.7121 4.46578 15.6559 4.39334 15.6363 4.3686C15.012 3.58095 14.6407 3.33333 14.0003 3.33333H4.00033V26.6667ZM24.0003 16.6667C24.0003 19.4281 21.7617 21.6667 19.0003 21.6667C16.2389 21.6667 14.0003 19.4281 14.0003 16.6667C14.0003 13.9052 16.2389 11.6667 19.0003 11.6667C21.7617 11.6667 24.0003 13.9052 24.0003 16.6667ZM10.667 16.6667C10.667 21.269 14.398 25 19.0003 25C23.6027 25 27.3337 21.269 27.3337 16.6667C27.3337 12.0643 23.6027 8.33333 19.0003 8.33333C14.398 8.33333 10.667 12.0643 10.667 16.6667ZM29.0003 10C29.0003 10.9205 29.7465 11.6667 30.667 11.6667C31.5875 11.6667 32.3337 10.9205 32.3337 10C32.3337 9.07953 31.5875 8.33333 30.667 8.33333C29.7465 8.33333 29.0003 9.07953 29.0003 10Z" fill="white"/>
</svg>
