<svg width="17" height="16" viewBox="0 0 17 16" fill="none" xmlns="http://www.w3.org/2000/svg">
<path fill-rule="evenodd" clip-rule="evenodd" d="M6.98245 7.84667V14.9973C6.98227 15.13 7.03489 15.2573 7.1287 15.3511C7.2225 15.4449 7.34978 15.4975 7.48245 15.4973H9.48245C9.75859 15.4973 9.98245 15.2735 9.98245 14.9973V7.84667C13.2793 7.17448 15.7254 4.3894 15.9664 1.03333C15.9755 0.895332 15.927 0.759744 15.8326 0.658726C15.7381 0.557708 15.6061 0.500258 15.4678 0.5H1.49978C1.36142 0.500061 1.22927 0.557451 1.13478 0.658516C1.04028 0.75958 0.99189 0.895282 1.00111 1.03333C1.24207 4.38851 3.68673 7.17322 6.98245 7.84667Z" stroke="black" stroke-linecap="round" stroke-linejoin="round"/>
</svg>
