<svg width="24" height="24" viewBox="0 0 24 24" fill="none" xmlns="http://www.w3.org/2000/svg">
<path d="M6 19.1251H15.921C16.6526 19.1251 17.2776 18.5974 17.4 17.8761L20.037 2.37605C20.1599 1.65514 20.7847 1.1279 21.516 1.12805H22.5" stroke="black" stroke-width="1.5" stroke-linecap="round" stroke-linejoin="round"/>
<path d="M7.875 21.375C8.08211 21.375 8.25 21.5429 8.25 21.75C8.25 21.9571 8.08211 22.125 7.875 22.125C7.66789 22.125 7.5 21.9571 7.5 21.75C7.5 21.5429 7.66789 21.375 7.875 21.375" stroke="black" stroke-width="1.5" stroke-linecap="round" stroke-linejoin="round"/>
<path d="M15.375 21.375C15.5821 21.375 15.75 21.5429 15.75 21.75C15.75 21.9571 15.5821 22.125 15.375 22.125C15.1679 22.125 15 21.9571 15 21.75C15 21.5429 15.1679 21.375 15.375 21.375" stroke="black" stroke-width="1.5" stroke-linecap="round" stroke-linejoin="round"/>
<path d="M17.9529 14.6251H5.88194C4.50561 14.6249 3.30593 13.6883 2.97194 12.3531L1.52194 6.55309C1.46587 6.32896 1.51624 6.09149 1.65846 5.90941C1.80069 5.72733 2.01889 5.62097 2.24994 5.62109H19.4839" stroke="black" stroke-width="1.5" stroke-linecap="round" stroke-linejoin="round"/>
<path d="M6 8.625V10.875" stroke="black" stroke-width="1.5" stroke-linecap="round" stroke-linejoin="round"/>
<path d="M10.5 8.625V10.875" stroke="black" stroke-width="1.5" stroke-linecap="round" stroke-linejoin="round"/>
<path d="M15 8.625V10.875" stroke="black" stroke-width="1.5" stroke-linecap="round" stroke-linejoin="round"/>
</svg>
