<svg width="24" height="24" viewBox="0 0 24 24" fill="none" xmlns="http://www.w3.org/2000/svg">
<path d="M12 24C10.7638 24 9.87938 23.0704 9.17086 22.3267C8.86936 21.9603 8.50903 21.6463 8.10553 21.397C7.61306 21.2744 7.10353 21.2352 6.59798 21.2814C5.53266 21.2814 4.33167 21.3217 3.48745 20.4825C2.64323 19.6433 2.69348 18.4423 2.71359 17.3769C2.76084 16.8714 2.72166 16.3619 2.598 15.8694C2.34877 15.4659 2.0347 15.1056 1.66838 14.8041C0.944719 14.1206 0 13.2362 0 12C0 10.7638 0.944719 9.87938 1.66833 9.17086C2.03466 8.86936 2.34872 8.50903 2.598 8.10553C2.72161 7.61306 2.7608 7.10353 2.71359 6.59798C2.71359 5.53767 2.67337 4.33167 3.51258 3.49247C4.35178 2.65327 5.55778 2.67337 6.62311 2.69348C7.12866 2.74073 7.63819 2.70202 8.13066 2.57789C8.53416 2.32866 8.89397 2.01459 9.19598 1.64827C9.87938 0.944719 10.7638 0 12 0C13.2362 0 14.1206 0.944719 14.8291 1.67334C15.1306 2.03967 15.491 2.35373 15.8945 2.60297C16.3869 2.72658 16.8965 2.76577 17.402 2.71856C18.4673 2.71856 19.6683 2.67834 20.5125 3.51755C21.3568 4.35675 21.3316 5.56275 21.3115 6.62306C21.2643 7.12861 21.3035 7.63814 21.4271 8.13061C21.6764 8.53411 21.9904 8.89444 22.3568 9.19594C23.0553 9.87937 24 10.7638 24 12C24 13.2362 23.0553 14.1206 22.3317 14.8291C21.9653 15.1306 21.6513 15.491 21.402 15.8945C21.2784 16.3869 21.2393 16.8965 21.2865 17.402C21.2865 18.4623 21.3267 19.6683 20.4875 20.5075C19.6483 21.3467 18.4423 21.3266 17.3769 21.3065C16.8714 21.2588 16.3619 21.298 15.8694 21.4221C15.4659 21.6713 15.1061 21.9854 14.8041 22.3517C14.1206 23.0553 13.2362 24 12 24ZM7.08544 19.201C7.7025 19.1729 8.31909 19.2668 8.8995 19.4774C9.58041 19.8211 10.1824 20.302 10.6683 20.8894C11.1055 21.3467 11.6734 21.9196 11.995 21.9196C12.3166 21.9196 12.8844 21.3467 13.3216 20.8894C13.8075 20.302 14.4095 19.8211 15.0904 19.4774C15.8356 19.2291 16.6246 19.1371 17.407 19.206C17.9899 19.206 18.7939 19.206 19.01 19.015C19.2261 18.8241 19.211 18.01 19.201 17.412C19.1321 16.6296 19.2241 15.8407 19.4723 15.0954C19.8161 14.4145 20.297 13.8125 20.8844 13.3266C21.3417 12.8894 21.9146 12.3216 21.9146 12C21.9146 11.6783 21.3417 11.1105 20.8844 10.6733C20.297 10.1874 19.8161 9.58542 19.4723 8.90452C19.2241 8.1593 19.1317 7.37034 19.201 6.58795C19.201 6.00502 19.201 5.20102 19.01 4.98492C18.819 4.76883 18.005 4.77891 17.407 4.79395C16.6246 4.86281 15.8361 4.77033 15.0904 4.52259C14.4095 4.17886 13.8075 3.69797 13.3216 3.11053C12.8844 2.65327 12.3165 2.08036 11.995 2.08036C11.6734 2.08036 11.1055 2.65322 10.6683 3.11053C10.1824 3.69797 9.58041 4.17886 8.8995 4.52259C8.15377 4.77033 7.36533 4.86281 6.58294 4.79395C6 4.79395 5.196 4.79395 4.97991 4.98492C4.76381 5.17589 4.77891 5.98997 4.78894 6.58795C4.8578 7.37034 4.76583 8.1593 4.51758 8.90452C4.17384 9.58542 3.69295 10.1874 3.10552 10.6733C2.64825 11.1105 2.07534 11.6784 2.07534 12C2.07534 12.3216 2.6482 12.8895 3.10552 13.3266C3.69295 13.8125 4.17384 14.4145 4.51758 15.0954C4.76583 15.8407 4.85827 16.6296 4.78894 17.412C4.78894 17.9949 4.78894 18.7989 4.97991 19.015C5.17088 19.2311 5.98495 19.216 6.58294 19.206L7.08544 19.201Z" fill="#0091FF"/>
<path d="M10.9945 15.5477C10.7588 15.5482 10.5301 15.4683 10.3462 15.3216L7.83368 13.3115C7.38696 12.9537 7.3151 12.301 7.6729 11.8542C8.0307 11.4075 8.68343 11.3357 9.1302 11.6935L10.9191 13.1256L14.7835 9.2613C15.1885 8.85626 15.8458 8.85626 16.2508 9.2613C16.6558 9.66635 16.6558 10.3236 16.2508 10.7286L11.7282 15.2512C11.5327 15.4432 11.2689 15.5497 10.9945 15.5477Z" fill="#0091FF" fill-opacity="0.5"/>
</svg>
