<svg width="32" height="32" viewBox="0 0 32 32" fill="none" xmlns="http://www.w3.org/2000/svg">
<rect y="3.05176e-05" width="32" height="32" rx="6" fill="#F7F8FC"/>
<path d="M12.75 16C12.75 16.9665 11.9665 17.75 11 17.75C10.0335 17.75 9.25 16.9665 9.25 16C9.25 15.0335 10.0335 14.25 11 14.25C11.9665 14.25 12.75 15.0335 12.75 16ZM17.75 16C17.75 16.9665 16.9665 17.75 16 17.75C15.0335 17.75 14.25 16.9665 14.25 16C14.25 15.0335 15.0335 14.25 16 14.25C16.9665 14.25 17.75 15.0335 17.75 16ZM21 17.75C21.9665 17.75 22.75 16.9665 22.75 16C22.75 15.0335 21.9665 14.25 21 14.25C20.0335 14.25 19.25 15.0335 19.25 16C19.25 16.9665 20.0335 17.75 21 17.75Z" fill="#9E9EA7"/>
</svg>
