<svg width="32" height="32" viewBox="0 0 32 32" fill="none" xmlns="http://www.w3.org/2000/svg">
<path fill-rule="evenodd" clip-rule="evenodd" d="M16.8249 8.78313C17.1288 8.46239 17.6351 8.4487 17.9559 8.75256L24.948 15.3766C25.0349 15.4479 25.1049 15.5367 25.1551 15.6354C25.1742 15.6728 25.1902 15.7114 25.2031 15.7508C25.2934 16.0243 25.2412 16.3457 24.993 16.5807L17.956 23.2474C17.6352 23.5513 17.1289 23.5376 16.825 23.2168C16.5212 22.8961 16.5349 22.3898 16.8556 22.0859L22.4352 16.8H6.66506C6.22323 16.8 5.86506 16.4418 5.86506 16C5.86506 15.5582 6.22323 15.2 6.66506 15.2H22.4351L16.8555 9.91409C16.5348 9.61022 16.5211 9.10388 16.8249 8.78313Z" fill="#264796"/>
</svg>
