<svg width="265" height="264" viewBox="0 0 265 264" fill="none" xmlns="http://www.w3.org/2000/svg">
<path d="M300.95 -1.23484L188.562 80.0158L170.12 93.3793C160.351 100.597 147.015 100.597 137.246 93.3793L118.804 80.0158L6.28149 -1.10142C12.5401 -9.85378 22.6499 -15.0337 33.4099 -14.9998H273.956C284.637 -14.9904 294.67 -9.87445 300.95 -1.23484Z" fill="#FFD54F"/>
<path d="M6.28139 -1.10132L118.804 80.0159L9.75615 189.063C3.49444 182.786 -0.0153993 174.277 0.000261261 165.41V18.4098C-0.0291806 11.4039 2.17019 4.57093 6.28139 -1.10132Z" fill="#FFC107"/>
<path d="M307.365 18.41V165.411C307.38 174.277 303.871 182.787 297.609 189.064L188.562 80.0167L300.95 -1.23462C305.123 4.46457 307.369 11.3458 307.365 18.41Z" fill="#FFC107"/>
<path d="M200.455 225.546C191.582 225.546 187.092 218.864 187.092 205.501C187.31 186.829 172.352 171.516 153.68 171.297C135.008 171.079 119.695 186.038 119.476 204.709C119.258 223.381 134.217 238.694 152.889 238.913C162.896 239.03 172.44 234.708 178.953 227.11C183.39 234.713 191.658 239.25 200.455 238.91C227.183 238.91 227.183 213.759 227.183 205.501C227.183 164.908 194.277 132 153.684 131.999C113.091 131.998 80.1836 164.905 80.1823 205.498C80.1817 246.091 113.088 278.999 153.681 279C172.752 279.001 191.078 271.587 204.785 258.328C207.439 255.745 207.495 251.5 204.912 248.847C202.329 246.193 198.084 246.137 195.431 248.719C171.526 271.776 133.456 271.088 110.399 247.183C87.3423 223.278 88.0301 185.208 111.935 162.152C135.84 139.095 173.91 139.783 196.967 163.688C207.794 174.913 213.836 189.906 213.819 205.501C213.819 220.481 210.452 225.546 200.455 225.546ZM153.683 225.546C142.612 225.546 133.637 216.571 133.637 205.501C133.637 194.43 142.612 185.455 153.683 185.455C164.754 185.455 173.728 194.43 173.728 205.501C173.728 216.571 164.754 225.546 153.683 225.546Z" fill="#ACC4FF"/>
<path d="M188.562 80.0157L170.12 93.3792C160.351 100.597 147.015 100.597 137.246 93.3792L118.804 80.0157L9.7562 189.063C16.0336 195.325 24.5429 198.835 33.4099 198.819H67.1527C70.7678 151.033 112.436 115.226 160.221 118.841C202.98 122.076 236.964 156.06 240.199 198.819H273.956C282.823 198.834 291.332 195.325 297.61 189.063L188.562 80.0157Z" fill="#FFA000"/>
</svg>
