<svg width="80" height="80" viewBox="0 0 80 80" fill="none" xmlns="http://www.w3.org/2000/svg">
<circle cx="40" cy="40" r="40" fill="#D9D9D9"/>
<path d="M27.8508 61.976L15.9157 68.4862C15.2153 68.8681 14.5859 69.3375 14.0002 69.8492C20.9587 75.7164 29.9414 79.256 39.7557 79.256C49.4976 79.256 58.4229 75.7692 65.3618 69.9821C64.7218 69.4417 64.0274 68.9557 63.2576 68.5723L50.4772 62.1828C48.8259 61.3572 47.7829 59.6696 47.7829 57.8236V52.8092C48.1421 52.4002 48.5527 51.8749 48.9919 51.2545C50.7338 48.7941 52.0516 46.0877 52.9648 43.2485C54.604 42.7428 55.8116 41.2289 55.8116 39.4296V34.0772C55.8116 32.8998 55.2878 31.8477 54.4742 31.1111V23.3738C54.4742 23.3738 56.0636 11.333 39.7572 11.333C23.4508 11.333 25.0402 23.3738 25.0402 23.3738V31.1111C24.2251 31.8477 23.7029 32.8998 23.7029 34.0772V39.4296C23.7029 40.8394 24.444 42.0802 25.5535 42.7972C26.8908 48.619 30.3927 52.8092 30.3927 52.8092V57.6998C30.3912 59.4809 29.4161 61.1217 27.8508 61.976Z" fill="white"/>
</svg>
