<svg width="602" height="449" viewBox="0 0 602 449" fill="none" xmlns="http://www.w3.org/2000/svg">
<path d="M602 394.582H0V394.883H602V394.582Z" fill="#EBEBEB"/>
<path d="M541.68 413.97H501.803V414.271H541.68V413.97Z" fill="#EBEBEB"/>
<path d="M398.789 417.248H388.326V417.549H398.789V417.248Z" fill="#EBEBEB"/>
<path d="M500.599 402.788H477.494V403.089H500.599V402.788Z" fill="#EBEBEB"/>
<path d="M115.163 404.812H63.1619V405.113H115.163V404.812Z" fill="#EBEBEB"/>
<path d="M133.511 404.812H125.89V405.113H133.511V404.812Z" fill="#EBEBEB"/>
<path d="M271.08 409.897H158.29V410.198H271.08V409.897Z" fill="#EBEBEB"/>
<path d="M285.348 340.838H52.8677C51.0464 340.835 49.3009 340.108 48.0142 338.818C46.7275 337.528 46.0049 335.78 46.0049 333.957V6.88063C46.0049 5.05786 46.7275 3.30957 48.0142 2.01954C49.3009 0.729522 51.0464 0.00319224 52.8677 0L285.348 0C287.171 0 288.92 0.724921 290.209 2.01529C291.499 3.30566 292.223 5.05577 292.223 6.88063V333.957C292.223 334.861 292.045 335.756 291.7 336.59C291.354 337.425 290.848 338.184 290.209 338.823C289.571 339.462 288.813 339.968 287.979 340.314C287.145 340.66 286.251 340.838 285.348 340.838V340.838ZM52.8677 0.301253C51.1263 0.304445 49.4573 0.999036 48.2271 2.23256C46.9968 3.46609 46.3059 5.13775 46.3059 6.88063V333.957C46.3059 335.7 46.9968 337.372 48.2271 338.605C49.4573 339.839 51.1263 340.534 52.8677 340.537H285.348C287.091 340.534 288.761 339.839 289.993 338.606C291.225 337.373 291.919 335.701 291.922 333.957V6.88063C291.919 5.13665 291.225 3.46501 289.993 2.23183C288.761 0.998644 287.091 0.304439 285.348 0.301253H52.8677Z" fill="#CC493C"/>
<path d="M545.785 340.838H313.293C311.47 340.835 309.724 340.109 308.435 338.819C307.147 337.53 306.421 335.781 306.418 333.957V6.88063C306.421 5.05675 307.147 3.30849 308.435 2.01881C309.724 0.72913 311.47 0.00318582 313.293 0L545.785 0C547.604 0.00637719 549.347 0.734112 550.631 2.02379C551.915 3.31347 552.636 5.05994 552.636 6.88063V333.957C552.636 335.778 551.915 337.525 550.631 338.814C549.347 340.104 547.604 340.832 545.785 340.838V340.838ZM313.293 0.301253C311.55 0.304439 309.88 0.998644 308.648 2.23183C307.416 3.46501 306.722 5.13665 306.719 6.88063V333.957C306.722 335.701 307.416 337.373 308.648 338.606C309.88 339.839 311.55 340.534 313.293 340.537H545.785C547.528 340.534 549.198 339.839 550.43 338.606C551.662 337.373 552.356 335.701 552.359 333.957V6.88063C552.356 5.13665 551.662 3.46501 550.43 2.23183C549.198 0.998644 547.528 0.304439 545.785 0.301253H313.293Z" fill="#CC493C"/>
<path d="M348.787 143.529L514.674 143.529V34.8007L348.787 34.8007V143.529Z" fill="#E6E6E6"/>
<path d="M343.718 143.529L512.302 143.529V34.8007L343.718 34.8007V143.529Z" fill="#F0F0F0"/>
<path d="M348.787 164.858L514.674 164.858V143.517L348.787 143.517V164.858Z" fill="#E6E6E6"/>
<path d="M335.302 164.858L503.886 164.858V143.517L335.302 143.517V164.858Z" fill="#F0F0F0"/>
<path d="M505.222 136.444V41.8982L350.809 41.8982V136.444H505.222Z" fill="#FAFAFA"/>
<path d="M470.403 136.432L450.681 41.8984H419.907L439.629 136.432H470.403Z" fill="white"/>
<path d="M501.948 129.37C502.082 129.37 502.21 129.317 502.305 129.222C502.4 129.127 502.453 128.998 502.453 128.864V46.5015C502.453 46.435 502.44 46.3692 502.415 46.3078C502.389 46.2464 502.352 46.1906 502.305 46.1436C502.258 46.0966 502.202 46.0593 502.141 46.0339C502.08 46.0085 502.014 45.9954 501.948 45.9954C501.881 45.9954 501.815 46.0085 501.754 46.0339C501.693 46.0593 501.637 46.0966 501.59 46.1436C501.543 46.1906 501.506 46.2464 501.48 46.3078C501.455 46.3692 501.442 46.435 501.442 46.5015V128.864C501.442 128.931 501.455 128.996 501.48 129.058C501.506 129.119 501.543 129.175 501.59 129.222C501.637 129.269 501.693 129.306 501.754 129.332C501.815 129.357 501.881 129.37 501.948 129.37V129.37Z" fill="#F0F0F0"/>
<path d="M433.019 136.432L413.297 41.8984H401.293L421.027 136.432H433.019Z" fill="white"/>
<path d="M351.712 136.444V41.8984H350.809V136.444H351.712Z" fill="#E6E6E6"/>
<path opacity="0.6" d="M342.056 52.5868H507.944L508.594 44.6458H342.707L342.056 52.5868Z" fill="#EBEBEB"/>
<path opacity="0.6" d="M342.056 65.601H507.944L508.594 57.6599H342.707L342.056 65.601Z" fill="#EBEBEB"/>
<path opacity="0.6" d="M342.056 78.615H507.944L508.594 70.686H342.707L342.056 78.615Z" fill="#EBEBEB"/>
<path opacity="0.6" d="M342.056 91.6412H507.944L508.594 83.7002H342.707L342.056 91.6412Z" fill="#EBEBEB"/>
<path opacity="0.6" d="M342.056 104.655H507.944L508.594 96.7144H342.707L342.056 104.655Z" fill="#EBEBEB"/>
<path opacity="0.6" d="M342.056 117.67H507.944L508.594 109.729H342.707L342.056 117.67Z" fill="#EBEBEB"/>
<path d="M490.859 315.509H456.075V322.377H490.859V315.509Z" fill="#E6E6E6"/>
<path d="M390.469 394.582H396.887V236.64H390.469V394.582Z" fill="#E6E6E6"/>
<path d="M368.219 322.365H456.063V315.497H368.219V322.365Z" fill="#F5F5F5"/>
<path d="M490.859 353.069H456.075V359.937H490.859V353.069Z" fill="#E6E6E6"/>
<path d="M368.219 359.925H456.063V353.057H368.219V359.925Z" fill="#F5F5F5"/>
<path d="M490.859 240.4H456.075V247.269H490.859V240.4Z" fill="#E6E6E6"/>
<path d="M368.219 247.257H456.063V240.388H368.219V247.257Z" fill="#F5F5F5"/>
<path d="M490.859 277.948H456.075V284.817H490.859V277.948Z" fill="#E6E6E6"/>
<path d="M368.219 284.817H456.063V277.948H368.219V284.817Z" fill="#F5F5F5"/>
<path d="M478.325 394.582H484.742V236.64H478.325V394.582Z" fill="#E6E6E6"/>
<path d="M449.646 394.582H456.063V236.64H449.646V394.582Z" fill="#F5F5F5"/>
<path d="M368.219 394.582H374.637V236.64H368.219V394.582Z" fill="#F5F5F5"/>
<path d="M78.7176 394.582H144.432L144.432 266.983H78.7176L78.7176 394.582Z" fill="#E6E6E6"/>
<path d="M96.2599 394.582H78.7056V376.964H114.657L96.2599 394.582Z" fill="#FAFAFA"/>
<path d="M257.873 394.582H323.587V266.983H257.873V394.582Z" fill="#E6E6E6"/>
<path d="M78.7176 388.521H273.2V266.983H78.7176L78.7176 388.521Z" fill="#FAFAFA"/>
<path d="M255.645 394.582H273.188V376.964H237.248L255.645 394.582Z" fill="#FAFAFA"/>
<path d="M92.3228 342.682H259.583V312.267H92.3228V342.682Z" fill="#F0F0F0"/>
<path d="M92.3228 379.603H259.583V349.189H92.3228V379.603Z" fill="#F0F0F0"/>
<path d="M227.797 315.46H124.12C122.658 315.46 121.255 314.879 120.221 313.844C119.187 312.809 118.606 311.405 118.606 309.941V309.568H233.299V309.941C233.299 311.403 232.72 312.805 231.688 313.84C230.657 314.874 229.257 315.457 227.797 315.46Z" fill="#FAFAFA"/>
<path d="M92.3228 305.772H259.583V275.358H92.3228V305.772Z" fill="#F0F0F0"/>
<path d="M227.797 278.599H124.12C122.658 278.599 121.255 278.018 120.221 276.983C119.187 275.948 118.606 274.544 118.606 273.08V272.707H233.299V273.08C233.299 274.542 232.72 275.944 231.688 276.978C230.657 278.013 229.257 278.596 227.797 278.599V278.599Z" fill="#FAFAFA"/>
<path d="M227.797 352.43H124.12C122.658 352.43 121.255 351.849 120.221 350.814C119.187 349.779 118.606 348.375 118.606 346.911V346.538H233.299V346.911C233.299 348.373 232.72 349.775 231.688 350.809C230.657 351.844 229.257 352.427 227.797 352.43V352.43Z" fill="#FAFAFA"/>
<path d="M89.1803 143.529L255.067 143.529V34.8007L89.1803 34.8007V143.529Z" fill="#E6E6E6"/>
<path d="M84.1235 143.529L252.708 143.529V34.8007L84.1235 34.8007V143.529Z" fill="#F0F0F0"/>
<path d="M89.1803 164.858L255.067 164.858V143.517L89.1803 143.517V164.858Z" fill="#E6E6E6"/>
<path d="M75.6835 164.858L244.268 164.858V143.517L75.6835 143.517V164.858Z" fill="#F0F0F0"/>
<path d="M245.616 136.444V41.8984L91.203 41.8984V136.444H245.616Z" fill="#FAFAFA"/>
<path d="M210.796 136.432L191.075 41.8984H160.301L180.022 136.432H210.796Z" fill="white"/>
<path d="M242.329 129.37C242.463 129.37 242.592 129.317 242.687 129.222C242.782 129.127 242.835 128.998 242.835 128.864V46.5015C242.835 46.435 242.822 46.3692 242.796 46.3078C242.771 46.2464 242.734 46.1906 242.687 46.1436C242.64 46.0966 242.584 46.0593 242.523 46.0339C242.461 46.0085 242.396 45.9954 242.329 45.9954C242.195 45.9954 242.066 46.0487 241.972 46.1436C241.877 46.2385 241.823 46.3672 241.823 46.5015V128.864C241.823 128.998 241.877 129.127 241.972 129.222C242.066 129.317 242.195 129.37 242.329 129.37Z" fill="#F0F0F0"/>
<path d="M173.412 136.432L153.691 41.8984H141.687L161.408 136.432H173.412Z" fill="white"/>
<path d="M92.106 136.444V41.8984H91.203V136.444H92.106Z" fill="#E6E6E6"/>
<path opacity="0.6" d="M82.438 52.5868H248.325L248.975 44.6458H83.0881L82.438 52.5868Z" fill="#EBEBEB"/>
<path opacity="0.6" d="M82.438 57.0574H248.325L248.975 49.1284H83.0881L82.438 57.0574Z" fill="#EBEBEB"/>
<path opacity="0.6" d="M82.438 61.5399H248.325L248.975 53.5989H83.0881L82.438 61.5399Z" fill="#EBEBEB"/>
<path opacity="0.6" d="M82.438 66.0105H248.325L248.975 58.0815H83.0881L82.438 66.0105Z" fill="#EBEBEB"/>
<path opacity="0.6" d="M82.438 70.4933H248.325L248.975 62.5522H83.0881L82.438 70.4933Z" fill="#EBEBEB"/>
<path opacity="0.6" d="M82.438 74.976H248.325L248.975 67.0349H83.0881L82.438 74.976Z" fill="#EBEBEB"/>
<path d="M115.608 263.066H121.339L121.339 199.092H115.608L115.608 263.066Z" fill="#F5F5F5"/>
<path d="M116.33 263.03H117.956L117.956 199.056H116.33L116.33 263.03Z" fill="#FAFAFA"/>
<path d="M118.63 263.03H119.268L119.268 199.056H118.63L118.63 263.03Z" fill="#FAFAFA"/>
<path d="M139.7 266.983H97.2712C97.2712 265.564 97.8345 264.203 98.837 263.199C99.8395 262.196 101.199 261.632 102.617 261.632H134.342C135.76 261.632 137.12 262.196 138.122 263.199C139.125 264.203 139.688 265.564 139.688 266.983H139.7Z" fill="#F0F0F0"/>
<path d="M108.167 238.822C108.604 238.818 109.022 238.644 109.33 238.335C109.639 238.026 109.814 237.608 109.817 237.171V195.212C109.817 194.774 109.643 194.354 109.334 194.045C109.024 193.735 108.605 193.561 108.167 193.561C107.95 193.56 107.734 193.601 107.532 193.684C107.331 193.766 107.148 193.887 106.993 194.041C106.839 194.194 106.716 194.377 106.633 194.578C106.549 194.779 106.506 194.994 106.506 195.212V237.159C106.506 237.6 106.681 238.023 106.993 238.335C107.304 238.646 107.727 238.822 108.167 238.822Z" fill="#F0F0F0"/>
<path d="M92.7922 214.312H144.143L138.231 178.402H98.7039L92.7922 214.312Z" fill="#E0E0E0"/>
<path d="M301 449C429.927 449 534.444 442.893 534.444 435.359C534.444 427.826 429.927 421.719 301 421.719C172.073 421.719 67.5564 427.826 67.5564 435.359C67.5564 442.893 172.073 449 301 449Z" fill="#F5F5F5"/>
<path d="M125.361 177.632L124.16 177.719L125.76 199.942L126.961 199.855L125.361 177.632Z" fill="#407BFF"/>
<path d="M127.777 211.328L126.576 211.414L127.178 219.78L128.379 219.693L127.777 211.328Z" fill="#407BFF"/>
<path d="M406.603 313.556H148.754C145.884 313.505 143.135 312.392 141.036 310.431C138.937 308.471 137.638 305.802 137.388 302.94L124.722 126.852C124.605 125.494 124.772 124.126 125.215 122.837C125.657 121.548 126.364 120.365 127.291 119.366C128.218 118.367 129.343 117.574 130.595 117.037C131.847 116.499 133.197 116.231 134.559 116.248H392.408C395.276 116.299 398.024 117.411 400.122 119.368C402.221 121.326 403.521 123.992 403.773 126.852L416.44 302.94C416.557 304.299 416.389 305.667 415.947 306.957C415.505 308.247 414.798 309.43 413.871 310.43C412.945 311.429 411.819 312.224 410.568 312.763C409.316 313.301 407.965 313.572 406.603 313.556V313.556Z" fill="#407BFF"/>
<path d="M407.59 313.556H149.741C146.871 313.505 144.122 312.392 142.023 310.431C139.924 308.471 138.625 305.803 138.376 302.94L125.71 126.852C125.592 125.494 125.76 124.126 126.202 122.837C126.644 121.548 127.352 120.365 128.278 119.366C129.205 118.367 130.331 117.574 131.582 117.037C132.834 116.499 134.184 116.231 135.546 116.248H393.395C396.263 116.299 399.011 117.411 401.11 119.368C403.208 121.326 404.508 123.992 404.761 126.852L417.427 302.94C417.546 304.299 417.38 305.668 416.938 306.959C416.497 308.25 415.79 309.433 414.863 310.434C413.936 311.434 412.81 312.229 411.557 312.767C410.305 313.304 408.953 313.574 407.59 313.556V313.556Z" fill="#407BFF"/>
<path opacity="0.5" d="M407.59 313.556H149.741C146.871 313.505 144.122 312.392 142.023 310.431C139.924 308.471 138.625 305.803 138.376 302.94L125.71 126.852C125.592 125.494 125.76 124.126 126.202 122.837C126.644 121.548 127.352 120.365 128.278 119.366C129.205 118.367 130.331 117.574 131.582 117.037C132.834 116.499 134.184 116.231 135.546 116.248H393.395C396.263 116.299 399.011 117.411 401.11 119.368C403.208 121.326 404.508 123.992 404.761 126.852L417.427 302.94C417.546 304.299 417.38 305.668 416.938 306.959C416.497 308.25 415.79 309.433 414.863 310.434C413.936 311.434 412.81 312.229 411.557 312.767C410.305 313.304 408.953 313.574 407.59 313.556V313.556Z" fill="#F7F8FC"/>
<path d="M393.78 121.55H135.932C135.643 121.55 135.354 121.55 135.065 121.55C128.479 122.092 129.827 132.13 136.473 132.13H394.756C401.414 132.13 401.317 122.092 394.647 121.55C394.358 121.55 394.069 121.55 393.78 121.55Z" fill="#264796"/>
<path d="M142.65 126.852C142.675 127.162 142.635 127.475 142.532 127.769C142.43 128.063 142.266 128.333 142.053 128.56C141.84 128.787 141.581 128.967 141.294 129.088C141.007 129.209 140.698 129.268 140.387 129.262C139.732 129.253 139.104 129.001 138.624 128.556C138.144 128.111 137.845 127.504 137.786 126.852C137.763 126.543 137.804 126.232 137.906 125.939C138.009 125.647 138.172 125.379 138.383 125.152C138.595 124.926 138.851 124.746 139.136 124.623C139.421 124.501 139.728 124.439 140.037 124.442C140.693 124.451 141.322 124.702 141.805 125.146C142.287 125.591 142.588 126.198 142.65 126.852V126.852Z" fill="#FAFAFA"/>
<path d="M150.921 126.852C150.947 127.162 150.907 127.475 150.804 127.769C150.701 128.063 150.538 128.333 150.324 128.56C150.111 128.787 149.852 128.967 149.565 129.088C149.278 129.209 148.969 129.268 148.658 129.262C148.003 129.253 147.376 129.001 146.895 128.556C146.415 128.111 146.117 127.504 146.057 126.852C146.034 126.543 146.075 126.232 146.178 125.939C146.28 125.647 146.443 125.379 146.654 125.152C146.866 124.926 147.122 124.746 147.407 124.623C147.692 124.501 147.999 124.439 148.309 124.442C148.964 124.451 149.594 124.702 150.076 125.146C150.558 125.591 150.859 126.198 150.921 126.852V126.852Z" fill="#FAFAFA"/>
<path d="M159.181 126.852C159.206 127.161 159.166 127.473 159.064 127.766C158.962 128.059 158.8 128.328 158.588 128.555C158.376 128.782 158.119 128.962 157.833 129.084C157.547 129.205 157.24 129.266 156.929 129.262C156.274 129.255 155.645 129.005 155.164 128.559C154.683 128.114 154.385 127.505 154.329 126.852C154.303 126.542 154.343 126.231 154.445 125.937C154.547 125.644 154.71 125.375 154.922 125.148C155.134 124.921 155.391 124.741 155.676 124.62C155.962 124.498 156.27 124.437 156.58 124.442C157.234 124.453 157.86 124.706 158.34 125.15C158.819 125.595 159.119 126.2 159.181 126.852Z" fill="#FAFAFA"/>
<path d="M400.751 295.975H154.112C153.072 295.958 152.075 295.556 151.315 294.846C150.554 294.136 150.084 293.169 149.994 292.131L139.58 147.325C139.533 146.828 139.593 146.327 139.755 145.855C139.917 145.383 140.177 144.951 140.519 144.587C140.861 144.224 141.276 143.937 141.736 143.746C142.197 143.556 142.693 143.465 143.192 143.481H389.891C390.932 143.495 391.93 143.897 392.691 144.608C393.453 145.318 393.922 146.287 394.009 147.325L404.436 292.131C404.479 292.634 404.415 293.14 404.247 293.615C404.079 294.091 403.812 294.525 403.463 294.889C403.115 295.253 402.692 295.538 402.225 295.725C401.757 295.913 401.255 295.998 400.751 295.975V295.975Z" fill="white"/>
<path d="M296.822 240.822L292.801 185.006L280.64 177.667H247.157L251.708 240.822H296.822Z" fill="white"/>
<path d="M296.822 241.4H251.708C251.56 241.401 251.417 241.345 251.307 241.245C251.198 241.144 251.13 241.006 251.118 240.858L246.579 177.715C246.574 177.634 246.585 177.553 246.612 177.476C246.639 177.4 246.681 177.329 246.736 177.269C246.789 177.212 246.855 177.166 246.927 177.134C247 177.103 247.078 177.088 247.157 177.089H280.64C280.747 177.087 280.851 177.116 280.941 177.173L293.102 184.5C293.184 184.546 293.254 184.612 293.304 184.692C293.355 184.772 293.385 184.863 293.391 184.957L297.388 240.774C297.395 240.855 297.385 240.937 297.358 241.014C297.331 241.091 297.288 241.161 297.231 241.22C297.123 241.329 296.976 241.394 296.822 241.4V241.4ZM252.274 240.195H296.184L292.235 185.307L280.532 178.258H247.783L252.274 240.195Z" fill="#407BFF"/>
<path d="M292.801 185.006L280.64 177.667L285.107 187.38L292.801 185.006Z" fill="#EBEBEB"/>
<path d="M285.107 187.982C284.995 187.982 284.884 187.949 284.79 187.887C284.696 187.825 284.622 187.736 284.578 187.633L280.111 177.993C280.053 177.879 280.034 177.749 280.057 177.624C280.081 177.499 280.145 177.385 280.239 177.3C280.334 177.214 280.454 177.163 280.581 177.153C280.708 177.143 280.835 177.176 280.941 177.245L293.102 184.572C293.2 184.631 293.279 184.717 293.33 184.819C293.382 184.921 293.403 185.036 293.391 185.15C293.373 185.26 293.325 185.363 293.253 185.448C293.181 185.533 293.087 185.597 292.981 185.632L285.276 188.042L285.107 187.982ZM281.965 179.161L285.42 186.681L291.44 184.837L281.965 179.161Z" fill="#407BFF"/>
<path d="M266.084 206.118C266.104 206.446 266.056 206.775 265.944 207.084C265.832 207.394 265.657 207.677 265.432 207.916C265.206 208.155 264.934 208.346 264.632 208.476C264.33 208.606 264.005 208.673 263.676 208.672C262.987 208.66 262.327 208.391 261.824 207.919C261.321 207.447 261.011 206.805 260.955 206.118C260.924 205.787 260.963 205.454 261.072 205.14C261.18 204.826 261.354 204.54 261.582 204.299C261.81 204.058 262.087 203.869 262.394 203.744C262.701 203.619 263.032 203.561 263.363 203.575C264.05 203.587 264.709 203.854 265.211 204.323C265.714 204.793 266.025 205.432 266.084 206.118Z" fill="#407BFF"/>
<path d="M282.579 206.117C282.61 206.448 282.57 206.782 282.462 207.096C282.354 207.411 282.18 207.698 281.952 207.94C281.724 208.182 281.448 208.372 281.141 208.498C280.833 208.625 280.503 208.684 280.171 208.672C279.48 208.66 278.819 208.392 278.314 207.92C277.809 207.448 277.497 206.806 277.438 206.117C277.409 205.788 277.45 205.455 277.559 205.142C277.668 204.829 277.842 204.543 278.069 204.303C278.297 204.063 278.573 203.873 278.879 203.748C279.186 203.622 279.515 203.563 279.846 203.575C280.536 203.582 281.199 203.846 281.704 204.316C282.21 204.787 282.522 205.429 282.579 206.117V206.117Z" fill="#407BFF"/>
<path d="M287.25 222.662C287.103 222.663 286.961 222.607 286.854 222.506C286.746 222.405 286.682 222.267 286.672 222.12C286.371 218.023 279.942 214.685 272.345 214.685C267.3 214.685 262.773 216.179 260.533 218.602C260.075 219.044 259.716 219.579 259.479 220.171C259.242 220.763 259.134 221.399 259.161 222.036C259.166 222.115 259.156 222.194 259.131 222.27C259.106 222.345 259.066 222.414 259.014 222.474C258.909 222.595 258.761 222.669 258.601 222.68C258.441 222.692 258.284 222.639 258.163 222.534C258.042 222.429 257.968 222.28 257.957 222.12C257.922 221.323 258.054 220.528 258.344 219.785C258.634 219.042 259.077 218.368 259.642 217.806C262.05 215.155 266.951 213.516 272.309 213.516C280.652 213.516 287.455 217.264 287.792 222.036C287.799 222.113 287.79 222.19 287.766 222.264C287.742 222.337 287.704 222.405 287.653 222.463C287.603 222.522 287.541 222.57 287.472 222.604C287.403 222.638 287.327 222.658 287.25 222.662V222.662Z" fill="#407BFF"/>
<path d="M256.657 200.948C256.583 200.949 256.511 200.936 256.442 200.91C256.374 200.883 256.312 200.842 256.259 200.791C256.205 200.738 256.163 200.674 256.134 200.603C256.104 200.533 256.089 200.458 256.089 200.382C256.089 200.305 256.104 200.23 256.134 200.16C256.163 200.09 256.205 200.026 256.259 199.972L258.824 197.212C258.877 197.157 258.94 197.113 259.011 197.083C259.081 197.053 259.157 197.037 259.233 197.037C259.31 197.037 259.385 197.053 259.456 197.083C259.526 197.113 259.59 197.157 259.643 197.212C259.696 197.266 259.739 197.33 259.768 197.4C259.798 197.471 259.813 197.546 259.813 197.622C259.813 197.698 259.798 197.774 259.768 197.844C259.739 197.914 259.696 197.978 259.643 198.032L257.078 200.791C257.022 200.845 256.956 200.886 256.884 200.913C256.811 200.94 256.734 200.952 256.657 200.948V200.948Z" fill="#407BFF"/>
<path d="M286.046 200.948C285.899 200.946 285.758 200.89 285.649 200.791L282.699 198.044C282.644 197.99 282.599 197.925 282.569 197.854C282.539 197.783 282.523 197.706 282.523 197.628C282.523 197.551 282.539 197.474 282.569 197.402C282.599 197.331 282.644 197.266 282.699 197.212C282.752 197.157 282.816 197.113 282.886 197.083C282.956 197.053 283.032 197.037 283.109 197.037C283.185 197.037 283.261 197.053 283.331 197.083C283.402 197.113 283.465 197.157 283.518 197.212L286.468 199.972C286.522 200.026 286.564 200.09 286.594 200.16C286.623 200.23 286.638 200.306 286.638 200.382C286.638 200.458 286.623 200.533 286.594 200.603C286.564 200.674 286.522 200.738 286.468 200.791C286.352 200.895 286.202 200.951 286.046 200.948V200.948Z" fill="#407BFF"/>
<path d="M243.521 253.294H246.242L250.167 258.511L249.794 253.294H252.539L253.213 262.729H250.432L246.531 257.547L246.904 262.729H244.159L243.521 253.294Z" fill="#407BFF"/>
<path d="M254.441 258.017C254.348 257.376 254.391 256.722 254.57 256.098C254.749 255.475 255.058 254.897 255.477 254.402C255.932 253.949 256.48 253.6 257.082 253.377C257.685 253.155 258.328 253.065 258.968 253.113C260.325 253.039 261.658 253.493 262.689 254.378C263.633 255.319 264.18 256.588 264.218 257.921C264.315 258.841 264.191 259.77 263.857 260.632C263.545 261.326 263.022 261.904 262.364 262.283C261.571 262.702 260.683 262.905 259.787 262.874C258.865 262.905 257.947 262.728 257.102 262.355C256.361 262.003 255.734 261.447 255.296 260.753C254.78 259.93 254.485 258.988 254.441 258.017V258.017ZM257.367 258.017C257.356 258.76 257.594 259.485 258.041 260.078C258.231 260.283 258.463 260.444 258.72 260.552C258.978 260.661 259.255 260.712 259.534 260.705C259.801 260.723 260.069 260.677 260.314 260.57C260.559 260.463 260.775 260.298 260.943 260.09C261.305 259.411 261.42 258.627 261.268 257.873C261.273 257.164 261.035 256.475 260.594 255.921C260.401 255.717 260.167 255.557 259.907 255.451C259.648 255.345 259.369 255.296 259.089 255.306C258.827 255.295 258.566 255.346 258.327 255.454C258.089 255.563 257.879 255.727 257.716 255.933C257.347 256.565 257.223 257.311 257.367 258.029V258.017Z" fill="#407BFF"/>
<path d="M269.876 253.294H274.211C274.925 253.271 275.637 253.39 276.306 253.643C276.835 253.865 277.305 254.208 277.678 254.643C278.058 255.086 278.348 255.597 278.533 256.15C278.728 256.743 278.85 257.358 278.894 257.981C278.987 258.769 278.926 259.567 278.714 260.331C278.548 260.86 278.254 261.34 277.859 261.729C277.529 262.078 277.114 262.336 276.655 262.476C276.095 262.635 275.516 262.72 274.933 262.729H270.611L269.876 253.294ZM272.947 255.463L273.32 260.62H274.03C274.469 260.652 274.909 260.586 275.319 260.427C275.582 260.264 275.778 260.012 275.872 259.716C276.01 259.181 276.042 258.625 275.969 258.078C275.989 257.339 275.765 256.615 275.331 256.017C275.105 255.817 274.842 255.665 274.557 255.57C274.271 255.474 273.969 255.438 273.669 255.463H272.947Z" fill="#407BFF"/>
<path d="M285.89 261.175H282.579L282.23 262.729H279.256L282.121 253.294H285.348L289.574 262.729H286.516L285.89 261.175ZM285.131 259.138L283.855 255.74L283.061 259.138H285.131Z" fill="#407BFF"/>
<path d="M288.201 253.294H297.063L297.231 255.619H294.258L294.763 262.729H291.85L291.344 255.619H288.37L288.201 253.294Z" fill="#407BFF"/>
<path d="M303.853 261.175H300.543L300.193 262.729H297.219L300.085 253.294H303.264L307.478 262.729H304.431L303.853 261.175ZM303.095 259.138L301.807 255.74L301.024 259.138H303.095Z" fill="#407BFF"/>
<path d="M419.847 200.767C419.847 200.767 413.442 208.708 412.49 211.613C411.539 214.517 413.442 212.733 413.442 212.733C413.442 212.733 410.841 235.195 412.502 241.4C414.164 247.606 435.114 248.221 441.073 244.823C447.033 241.425 455.883 176.342 450.705 171.57C445.528 166.798 423.808 167.087 419.847 200.767Z" fill="#263238"/>
<path d="M394.154 165.81L392.949 158.206C392.044 156.727 391.009 155.332 389.855 154.037C388.904 153.23 387.447 146.096 388.651 142.987C389.855 139.878 396.754 137.408 396.754 137.408L400.077 154.037L398.38 157.037L399.728 163.315L394.154 165.81Z" fill="#EBB376"/>
<path d="M434.102 144.228C426.252 145.313 412.551 183.692 407.783 183.126C406.182 182.933 399.295 157.302 399.295 157.302L392.239 161.942C392.239 161.942 398.055 193.368 403.906 195.959C413.081 200.032 432.236 167.822 432.236 167.822L434.102 144.228Z" fill="#264796"/>
<path d="M432.116 141.493C427.721 141.842 411.768 170.268 411.768 170.268L421.942 186.657L427.962 179.981L432.116 141.493Z" fill="#407BFF"/>
<path opacity="0.6" d="M432.116 141.493L430.069 160.508L427.962 179.981L421.942 186.657L419.413 182.572L411.768 170.268C411.768 170.268 427.721 141.842 432.116 141.493Z" fill="white"/>
<path opacity="0.2" d="M430.069 160.508L427.962 179.981L421.942 186.657L419.414 182.572C419.883 171.341 426.601 163.713 430.069 160.508Z" fill="black"/>
<path d="M473.172 436.275H485.092C485.287 436.278 485.476 436.346 485.629 436.468C485.781 436.59 485.889 436.76 485.935 436.95L487.861 445.699C487.902 445.884 487.905 446.075 487.871 446.262C487.837 446.448 487.767 446.626 487.664 446.785C487.561 446.945 487.427 447.082 487.271 447.189C487.115 447.296 486.939 447.371 486.753 447.41H486.428C482.575 447.349 479.77 447.108 474.918 447.108C471.944 447.108 462.938 447.422 458.82 447.422C454.703 447.422 454.173 443.349 455.859 442.975C463.42 441.324 469.103 439.035 471.511 436.866C471.97 436.466 472.564 436.255 473.172 436.275Z" fill="#263238"/>
<path d="M422.604 435.962H434.524C434.719 435.967 434.907 436.035 435.059 436.157C435.211 436.279 435.319 436.448 435.366 436.637L437.293 445.385C437.333 445.57 437.337 445.762 437.303 445.948C437.269 446.135 437.199 446.313 437.096 446.472C436.993 446.631 436.859 446.768 436.703 446.875C436.547 446.983 436.371 447.058 436.185 447.096C436.077 447.108 435.968 447.108 435.86 447.096C432.007 447.036 429.202 446.795 424.35 446.795C421.376 446.795 412.37 447.108 408.252 447.108C404.135 447.108 403.605 443.035 405.278 442.662C412.852 441.011 418.522 438.733 420.93 436.552C421.393 436.15 421.991 435.938 422.604 435.962Z" fill="#263238"/>
<path d="M479.433 215.155H427.42C422.472 242.22 408.312 351.719 419.437 437.046L436.811 438.95C436.811 438.95 434.09 307.845 449.658 265.971C451.44 288.372 453.571 312.219 455.413 324.908C459.952 356.13 470.162 437.516 470.162 437.516L487.776 437.998C487.776 437.998 483.924 359.058 482.226 328.342C480.312 295.048 479.505 222 479.433 215.155Z" fill="#263238"/>
<path opacity="0.2" d="M479.433 215.155H427.42C422.472 242.22 408.312 351.719 419.437 437.046L436.811 438.95C436.811 438.95 434.09 307.845 449.658 265.971C451.44 288.372 453.571 312.219 455.413 324.908C459.952 356.13 470.162 437.516 470.162 437.516L487.776 437.998C487.776 437.998 483.924 359.058 482.226 328.342C480.312 295.048 479.505 222 479.433 215.155Z" fill="white"/>
<path opacity="0.2" d="M449.586 265.971C447.03 273.313 445.084 280.854 443.77 288.516C442.314 268.574 448.141 247.426 448.141 247.426L449.586 265.971Z" fill="black"/>
<path d="M426.926 215.782H479.349V222.024L426.264 221.385L426.926 215.782Z" fill="#263238"/>
<path d="M462.492 212.974H460.626V224.06H462.492V212.974Z" fill="#263238"/>
<path d="M435.969 212.974H434.102V224.06H435.969V212.974Z" fill="#263238"/>
<path d="M450.814 214.685H441.122V221.674H450.814V214.685Z" fill="white"/>
<path opacity="0.2" d="M462.492 212.974H460.626V224.06H462.492V212.974Z" fill="white"/>
<path opacity="0.2" d="M435.969 212.974H434.102V224.06H435.969V212.974Z" fill="white"/>
<path d="M432.116 141.493C432.116 141.493 465.238 140.215 489.907 145.313C489.907 145.313 479.011 190.236 479.421 215.782H426.926C426.926 215.782 423.507 167.858 432.116 141.493Z" fill="#407BFF"/>
<path d="M470.571 142.842C465.816 147.168 454.173 145.566 454.173 145.566C454.173 145.566 446.889 143.565 448.418 141.3C452.704 140.589 454.775 138.589 455.642 136.022C456.106 134.436 456.254 132.773 456.075 131.13C456.003 130.226 455.871 129.298 455.714 128.394L470.162 117.718C468.224 124.767 465.948 137.733 470.571 142.842Z" fill="#EBB376"/>
<path opacity="0.2" d="M466.791 124.502C466.213 133.154 459.109 135.54 455.642 136.022C456.106 134.436 456.254 132.773 456.075 131.13L466.791 124.502Z" fill="black"/>
<path d="M445.733 95.3047C445.733 95.3047 441.711 108.307 448.008 114.476C454.305 120.646 458.014 95.871 458.014 95.871L445.733 95.3047Z" fill="#263238"/>
<path d="M466.923 128.153C465.116 130.125 462.711 131.448 460.079 131.919C457.446 132.389 454.732 131.98 452.355 130.756C449.248 129.233 446.838 126.583 445.612 123.345C445.444 122.911 445.299 122.441 445.167 121.971C442.915 113.319 443.963 98.9196 453.342 94.8707C455.413 93.9669 457.681 93.6085 459.93 93.8296C462.178 94.0507 464.333 94.8439 466.189 96.1337C468.045 97.4236 469.54 99.1672 470.533 101.199C471.526 103.23 471.982 105.482 471.86 107.74C471.486 117.417 471.727 123.116 466.923 128.153Z" fill="#EBB376"/>
<path d="M458.17 110.657C458.242 111.44 457.785 112.091 457.267 112.103C456.749 112.115 456.328 111.476 456.304 110.693C456.28 109.91 456.701 109.259 457.207 109.247C457.713 109.235 458.146 109.861 458.17 110.657Z" fill="#263238"/>
<path d="M448.069 110.861C448.141 111.645 447.671 112.295 447.166 112.307C446.66 112.32 446.226 111.681 446.202 110.898C446.178 110.114 446.6 109.464 447.105 109.452C447.611 109.44 448.057 110.09 448.069 110.861Z" fill="#263238"/>
<path d="M451.175 111.259C450.288 113.687 449.073 115.982 447.563 118.079C448.111 118.454 448.735 118.705 449.39 118.813C450.045 118.921 450.716 118.885 451.356 118.706L451.175 111.259Z" fill="#D58745"/>
<path d="M459.928 107.813C459.843 107.823 459.756 107.812 459.676 107.78C459.597 107.749 459.526 107.698 459.47 107.632C459.125 107.167 458.674 106.79 458.155 106.532C457.636 106.275 457.064 106.144 456.485 106.15C456.363 106.161 456.242 106.123 456.149 106.046C456.055 105.968 455.996 105.856 455.985 105.734C455.974 105.613 456.011 105.492 456.089 105.398C456.167 105.304 456.279 105.245 456.4 105.234V105.234C457.132 105.211 457.858 105.364 458.518 105.68C459.179 105.997 459.753 106.468 460.193 107.054C460.234 107.099 460.265 107.153 460.284 107.211C460.303 107.269 460.31 107.331 460.304 107.392C460.299 107.453 460.281 107.512 460.251 107.566C460.222 107.62 460.181 107.667 460.133 107.704V107.704L459.928 107.813Z" fill="#263238"/>
<path d="M444.445 107.933C444.359 107.962 444.266 107.962 444.18 107.933C444.07 107.883 443.984 107.792 443.939 107.68C443.894 107.568 443.894 107.443 443.939 107.331V107.331C444.23 106.656 444.68 106.061 445.25 105.597C445.821 105.134 446.494 104.815 447.214 104.668C447.334 104.65 447.455 104.681 447.552 104.753C447.649 104.826 447.714 104.933 447.732 105.053V105.053C447.749 105.173 447.718 105.295 447.646 105.392C447.574 105.489 447.466 105.553 447.346 105.571V105.571C446.781 105.708 446.256 105.974 445.811 106.348C445.366 106.722 445.013 107.195 444.782 107.728C444.743 107.784 444.693 107.831 444.635 107.866C444.577 107.901 444.512 107.924 444.445 107.933V107.933Z" fill="#263238"/>
<path d="M464.515 95.8228L463.877 100.016C464.589 100.38 465.138 100.998 465.415 101.749C465.691 102.499 465.675 103.326 465.37 104.065C463.889 107.62 465.767 113.235 468.464 115.525C468.464 115.525 468.585 113.97 469.885 114.32C471.185 114.669 470.608 122.755 467.947 126.599C471.342 123.087 473.765 118.752 474.978 114.018C477.217 106.21 476.989 100.438 475.46 97.3531L464.515 95.8228Z" fill="#263238"/>
<path d="M476.242 115.597C475.207 117.806 473.342 119.517 471.053 120.357C468.019 121.441 466.237 118.778 466.911 115.778C467.513 113.127 469.801 109.271 472.931 109.512C476.062 109.753 477.47 112.862 476.242 115.597Z" fill="#EBB376"/>
<path d="M453.21 123.61C453.21 123.61 454.799 119.441 458.712 119.561" stroke="#263238" stroke-width="0.5" stroke-linecap="round" stroke-linejoin="round"/>
<path d="M449.441 95.8228C451.247 99.4378 462.492 95.6059 465.587 97.9797C468.681 100.354 476.495 101.33 476.495 101.33C476.495 101.33 480.697 93.7381 471.872 89.641C456.304 82.411 437.919 88.436 443.541 99.7511C443.541 99.7511 442.542 95.0154 445.949 93.726C445.949 93.726 442.711 95.5336 445.805 99.7511L449.441 95.8228Z" fill="#263238"/>
<path d="M470.571 140.179L463.877 143.505L467.224 226.458L487.716 224.06L489.92 145.313L470.571 140.179Z" fill="#407BFF"/>
<path opacity="0.6" d="M489.92 145.325L489.366 165.316L488.944 180.114L487.716 224.06L467.224 226.458L463.877 143.517L470.571 140.179L489.92 145.325Z" fill="white"/>
<path d="M463.877 143.505L471.739 137.311L476.628 141.348L470.571 149.108L463.877 143.505Z" fill="#407BFF"/>
<path opacity="0.7" d="M463.877 143.505L471.739 137.311L476.628 141.348L470.571 149.108L463.877 143.505Z" fill="white"/>
<path d="M448.418 141.3C445.107 145.891 431.056 226.458 431.056 226.458L420.822 225.253C420.822 225.253 425.554 146.855 432.116 141.481L448.418 141.3Z" fill="#407BFF"/>
<path opacity="0.6" d="M448.418 141.3C445.107 145.891 431.056 226.458 431.056 226.458L420.822 225.253C420.822 225.253 425.554 146.855 432.116 141.481L448.418 141.3Z" fill="white"/>
<path d="M423.29 193.019C423.29 193.019 424.133 152.519 441.122 141.3H445.938C445.938 141.3 426.794 162.05 423.29 193.019Z" fill="#263238"/>
<path d="M450.814 137.311L443.903 141.3L443.542 145.855L449.586 141.589L450.814 137.311Z" fill="#407BFF"/>
<path opacity="0.7" d="M450.814 137.311L443.903 141.3L443.542 145.855L449.586 141.589L450.814 137.311Z" fill="white"/>
<path d="M489.92 204.057L485.104 208.684C485.104 208.684 481.311 210.745 480.757 212.299C479.457 215.914 483.225 225.374 484.056 226.482C485.26 228.037 495.59 226.482 495.59 226.482C495.59 226.482 493.098 216.421 491.653 213.854C491.116 212.87 490.43 211.976 489.619 211.203L494.158 206.937L489.92 204.057Z" fill="#EBB376"/>
<path opacity="0.2" d="M489.366 165.316L488.944 180.113C484.562 172.233 487.367 160.508 487.367 160.508C487.367 160.508 488.222 162.484 489.366 165.316Z" fill="black"/>
<path d="M492.267 151.603C499.407 152.193 519.068 178.414 518.334 184.138C517.6 189.862 492.725 210.793 492.725 210.793L486.512 205.298C486.512 205.298 506.691 185.524 506.98 183.307C507.269 181.089 489.366 161.99 489.366 161.99L492.267 151.603Z" fill="#264796"/>
<path d="M489.92 145.313C492.508 146.518 500.479 153.519 510.484 167.232L498.215 178.571L489.149 172.715C489.149 172.715 487.62 168.304 487.259 158.411C486.898 148.518 489.92 145.313 489.92 145.313Z" fill="#407BFF"/>
<path opacity="0.6" d="M489.92 145.313C492.508 146.518 500.479 153.519 510.484 167.232L498.215 178.571L489.149 172.715C489.149 172.715 487.62 168.304 487.259 158.411C486.898 148.518 489.92 145.313 489.92 145.313Z" fill="white"/>
</svg>
