<svg width="98" height="98" viewBox="0 0 98 98" fill="none" xmlns="http://www.w3.org/2000/svg">
<rect width="98" height="98" rx="49" fill="#F4F6F9"/>
<path d="M38.822 75H39.698V73.854C40.142 73.93 40.57 73.91 40.982 73.794C41.398 73.678 41.77 73.472 42.098 73.176C42.426 72.88 42.686 72.502 42.878 72.042C43.07 71.578 43.166 71.036 43.166 70.416C43.166 69.796 43.07 69.254 42.878 68.79C42.686 68.326 42.426 67.946 42.098 67.65C41.77 67.35 41.398 67.142 40.982 67.026C40.57 66.906 40.142 66.884 39.698 66.96V66.36H38.822V66.96C38.378 66.884 37.948 66.906 37.532 67.026C37.12 67.142 36.75 67.35 36.422 67.65C36.098 67.946 35.84 68.326 35.648 68.79C35.456 69.254 35.36 69.796 35.36 70.416C35.36 71.036 35.456 71.578 35.648 72.042C35.84 72.502 36.098 72.88 36.422 73.176C36.75 73.472 37.12 73.678 37.532 73.794C37.948 73.91 38.378 73.93 38.822 73.854V75ZM38.822 73.014C38.314 73.086 37.868 73.02 37.484 72.816C37.104 72.608 36.806 72.296 36.59 71.88C36.378 71.464 36.272 70.976 36.272 70.416C36.272 69.856 36.378 69.366 36.59 68.946C36.806 68.522 37.104 68.204 37.484 67.992C37.868 67.78 38.314 67.71 38.822 67.782V73.014ZM39.698 73.014V67.782C40.206 67.71 40.652 67.784 41.036 68.004C41.42 68.22 41.718 68.54 41.93 68.964C42.146 69.388 42.254 69.878 42.254 70.434C42.254 70.986 42.146 71.47 41.93 71.886C41.718 72.298 41.42 72.608 41.036 72.816C40.652 73.02 40.206 73.086 39.698 73.014ZM47.0773 75.18C47.7173 75.18 48.2653 75.036 48.7213 74.748C49.1813 74.46 49.5333 74.06 49.7773 73.548C50.0253 73.032 50.1493 72.434 50.1493 71.754C50.1493 71.086 50.0273 70.496 49.7833 69.984C49.5433 69.468 49.1933 69.066 48.7333 68.778C48.2773 68.486 47.7253 68.34 47.0773 68.34C46.4453 68.34 45.8993 68.484 45.4393 68.772C44.9833 69.056 44.6313 69.454 44.3833 69.966C44.1353 70.478 44.0113 71.074 44.0113 71.754C44.0113 72.422 44.1313 73.014 44.3713 73.53C44.6153 74.046 44.9653 74.45 45.4213 74.742C45.8813 75.034 46.4333 75.18 47.0773 75.18ZM47.0773 74.334C46.3773 74.334 45.8473 74.1 45.4873 73.632C45.1273 73.16 44.9473 72.534 44.9473 71.754C44.9473 70.998 45.1213 70.382 45.4693 69.906C45.8173 69.426 46.3533 69.186 47.0773 69.186C47.7933 69.186 48.3273 69.42 48.6793 69.888C49.0353 70.352 49.2133 70.974 49.2133 71.754C49.2133 72.518 49.0373 73.14 48.6853 73.62C48.3333 74.096 47.7973 74.334 47.0773 74.334ZM53.0668 75H53.9488V69.336H56.2468V68.52H50.7688V69.336H53.0668V75ZM59.9796 75.18C60.6196 75.18 61.1676 75.036 61.6236 74.748C62.0836 74.46 62.4356 74.06 62.6796 73.548C62.9276 73.032 63.0516 72.434 63.0516 71.754C63.0516 71.086 62.9296 70.496 62.6856 69.984C62.4456 69.468 62.0956 69.066 61.6356 68.778C61.1796 68.486 60.6276 68.34 59.9796 68.34C59.3476 68.34 58.8016 68.484 58.3416 68.772C57.8856 69.056 57.5336 69.454 57.2856 69.966C57.0376 70.478 56.9136 71.074 56.9136 71.754C56.9136 72.422 57.0336 73.014 57.2736 73.53C57.5176 74.046 57.8676 74.45 58.3236 74.742C58.7836 75.034 59.3356 75.18 59.9796 75.18ZM59.9796 74.334C59.2796 74.334 58.7496 74.1 58.3896 73.632C58.0296 73.16 57.8496 72.534 57.8496 71.754C57.8496 70.998 58.0236 70.382 58.3716 69.906C58.7196 69.426 59.2556 69.186 59.9796 69.186C60.6956 69.186 61.2296 69.42 61.5816 69.888C61.9376 70.352 62.1156 70.974 62.1156 71.754C62.1156 72.518 61.9396 73.14 61.5876 73.62C61.2356 74.096 60.6996 74.334 59.9796 74.334Z" fill="#C6C6C6"/>
<path d="M61.1515 33.3328H56.5251V32.8575C56.5251 30.7341 54.8018 29.0107 52.6784 29.0107H45.3208C43.1965 29.0107 41.474 30.7341 41.474 32.8575V33.3328H36.8468C34.7225 33.3328 33 35.0553 33 37.1796V51.1425C33 53.2659 34.7225 54.9893 36.8468 54.9893H61.1532C63.2775 54.9893 65 53.2659 65 51.1425V37.1796C64.9983 35.0544 63.2758 33.3328 61.1515 33.3328ZM48.9983 50.9989C44.9908 50.9989 41.7322 47.7402 41.7322 43.7328C41.7322 39.7261 44.9908 36.4666 48.9983 36.4666C53.0058 36.4666 56.2644 39.7253 56.2644 43.7328C56.2644 47.7402 53.0049 50.9989 48.9983 50.9989ZM52.8451 43.7328C52.8451 45.8519 51.1183 47.5795 48.9983 47.5795C46.8783 47.5795 45.1515 45.8519 45.1515 43.7328C45.1515 41.6128 46.8783 39.886 48.9983 39.886C51.1183 39.886 52.8451 41.6128 52.8451 43.7328Z" fill="#C6C6C6"/>
</svg>
