<svg width="86" height="78" viewBox="0 0 86 78" fill="none" xmlns="http://www.w3.org/2000/svg">
<path d="M85.0647 66.8051L48.9753 4.29672C46.3191 -0.304121 39.6821 -0.305801 37.0248 4.29672L0.935331 66.8051C-1.72093 71.4059 1.59612 77.1546 6.91066 77.1546H79.0893C84.402 77.1548 87.7219 71.4078 85.0647 66.8051ZM46.1615 60.6739C46.1615 62.4197 44.746 63.8352 43.0002 63.8352C41.2543 63.8352 39.8388 62.4197 39.8388 60.6739V58.7861C39.8388 57.0402 41.2543 55.6247 43.0002 55.6247C44.746 55.6247 46.1615 57.0402 46.1615 58.7861V60.6739ZM46.1615 48.3563C46.1615 50.1022 44.746 51.5177 43.0002 51.5177C41.2543 51.5177 39.8388 50.1022 39.8388 48.3563V30.2342C39.8388 28.4883 41.2543 27.0728 43.0002 27.0728C44.746 27.0728 46.1615 28.4883 46.1615 30.2342V48.3563Z" fill="#CC493C"/>
</svg>
