<svg width="454" height="448" viewBox="0 0 454 448" fill="none" xmlns="http://www.w3.org/2000/svg">
<path d="M391.584 367.748C364.487 396.32 328.527 417.26 285.388 425.718C186.056 445.19 51.8005 415.508 21.5558 306.057C3.12658 239.35 16.0307 161.326 53.885 103.52C95.492 39.9997 170.607 -2.88031 247.482 0.150087C322.698 3.10849 396.423 62.2813 427.583 128.096C466.878 211.091 449.423 306.774 391.584 367.748Z" fill="url(#paint0_linear)"/>
<g opacity="0.3">
<path opacity="0.3" d="M128.39 46.5499C128.207 46.6602 128.005 46.7335 127.794 46.7655C127.583 46.7976 127.368 46.7878 127.161 46.7367C126.954 46.6855 126.759 46.5941 126.587 46.4676C126.415 46.3411 126.27 46.1821 126.16 45.9995C125.258 44.5099 124.279 43.0363 123.248 41.6203C122.999 41.2774 122.895 40.8511 122.958 40.4325C123.02 40.014 123.243 39.6363 123.581 39.3803L123.606 39.3611C123.779 39.2355 123.974 39.1451 124.182 39.0951C124.389 39.0451 124.604 39.0365 124.815 39.0698C125.026 39.1031 125.228 39.1776 125.41 39.2891C125.592 39.4006 125.75 39.5468 125.875 39.7195C126.959 41.2091 127.991 42.7595 128.941 44.3291C129.148 44.6723 129.221 45.0799 129.146 45.4737C129.07 45.8674 128.852 46.2194 128.532 46.4619C128.488 46.4875 128.44 46.5195 128.39 46.5499ZM117.758 35.0747C116.544 33.8123 115.265 32.5915 113.954 31.4427C113.793 31.3021 113.662 31.1314 113.568 30.9402C113.474 30.749 113.418 30.5411 113.404 30.3285C113.39 30.1158 113.418 29.9024 113.487 29.7006C113.556 29.4988 113.663 29.3125 113.804 29.1523C114.088 28.8287 114.489 28.6312 114.919 28.6031C115.132 28.5892 115.345 28.6174 115.547 28.6859C115.749 28.7545 115.936 28.8621 116.096 29.0027C117.474 30.2107 118.818 31.4971 120.098 32.8235C120.246 32.9771 120.363 33.1584 120.441 33.3569C120.519 33.5555 120.557 33.7675 120.552 33.9808C120.548 34.194 120.502 34.4044 120.416 34.5998C120.331 34.7951 120.207 34.9718 120.054 35.1195C120.007 35.1637 119.959 35.2054 119.908 35.2443C119.591 35.4833 119.197 35.5981 118.801 35.5668C118.404 35.5356 118.034 35.3605 117.758 35.0747ZM107.156 26.2747C105.696 25.3147 104.176 24.4123 102.638 23.5835C102.272 23.372 102.003 23.0265 101.888 22.6202C101.773 22.2139 101.821 21.7788 102.021 21.4071C102.222 21.0355 102.559 20.7565 102.962 20.6293C103.365 20.5021 103.802 20.5368 104.18 20.7259C105.8 21.5979 107.399 22.5515 108.936 23.5595C109.115 23.6763 109.269 23.8272 109.389 24.0034C109.51 24.1797 109.594 24.378 109.638 24.5869C109.681 24.7957 109.683 25.0112 109.644 25.2209C109.604 25.4306 109.524 25.6305 109.407 25.8091C109.29 25.9877 109.139 26.1415 108.963 26.2618C108.786 26.3821 108.588 26.4665 108.379 26.5102C108.17 26.5539 107.954 26.556 107.744 26.5164C107.534 26.4768 107.335 26.3963 107.156 26.2795V26.2747ZM94.8504 20.0651C93.211 19.4571 91.5267 18.9147 89.8425 18.4491C89.4274 18.3345 89.0749 18.0598 88.8625 17.6855C88.6501 17.3112 88.5951 16.8679 88.7098 16.4531C88.8244 16.0383 89.0993 15.686 89.4738 15.4737C89.8484 15.2614 90.292 15.2065 90.707 15.3211C92.4793 15.8107 94.2533 16.3819 95.9792 17.0203C96.1935 17.0823 96.3928 17.1877 96.5646 17.3301C96.7364 17.4724 96.877 17.6486 96.9777 17.8476C97.0783 18.0466 97.1369 18.2642 97.1497 18.4869C97.1626 18.7095 97.1294 18.9324 97.0522 19.1417C96.9751 19.3509 96.8556 19.5421 96.7013 19.7032C96.547 19.8643 96.3612 19.9919 96.1554 20.0781C95.9496 20.1643 95.7282 20.2072 95.5051 20.2041C95.2819 20.201 95.0618 20.1521 94.8584 20.0603L94.8504 20.0651ZM81.4676 16.7499C79.7385 16.5227 77.9742 16.3643 76.2259 16.2843C75.8039 16.2528 75.4108 16.058 75.1302 15.7414C74.8496 15.4248 74.7037 15.0112 74.7235 14.5887C74.7434 14.1663 74.9273 13.7682 75.2363 13.4791C75.5453 13.1901 75.9549 13.033 76.378 13.0411C78.2176 13.1275 80.0731 13.2923 81.8919 13.5323C82.1033 13.5601 82.3071 13.6293 82.4918 13.7359C82.6764 13.8424 82.8383 13.9843 82.968 14.1534C83.0978 14.3225 83.193 14.5154 83.2482 14.7213C83.3034 14.9271 83.3174 15.1418 83.2896 15.3531C83.2617 15.5643 83.1925 15.7681 83.0858 15.9526C82.9792 16.1371 82.8372 16.2989 82.668 16.4286C82.4989 16.5583 82.3058 16.6534 82.0998 16.7085C81.8938 16.7637 81.679 16.7777 81.4676 16.7499ZM67.6845 16.4795C65.9458 16.6395 64.1911 16.8763 62.4716 17.1835C62.047 17.2592 61.6097 17.1633 61.2558 16.9168C60.902 16.6703 60.6606 16.2934 60.5848 15.8691C60.509 15.4447 60.605 15.0077 60.8517 14.6541C61.0983 14.3004 61.4754 14.0592 61.9001 13.9835C63.7092 13.6635 65.5568 13.4107 67.3867 13.2427C67.5994 13.2231 67.8138 13.2456 68.0178 13.3089C68.2217 13.3722 68.4112 13.475 68.5754 13.6115C68.7396 13.7479 68.8753 13.9154 68.9748 14.1043C69.0742 14.2931 69.1355 14.4997 69.155 14.7123C69.1746 14.9248 69.1521 15.1391 69.0887 15.3429C69.0254 15.5468 68.9226 15.7361 68.786 15.9002C68.6494 16.0643 68.4819 16.1999 68.2929 16.2993C68.1039 16.3987 67.8972 16.4599 67.6845 16.4795ZM16.9805 49.1195C16.7929 49.0175 16.6272 48.8795 16.4929 48.7135C16.3586 48.5474 16.2585 48.3565 16.1981 48.1518C16.1377 47.947 16.1183 47.7323 16.1411 47.52C16.1638 47.3078 16.2282 47.1021 16.3305 46.9147C17.2047 45.2987 18.1621 43.7003 19.1755 42.1627C19.4124 41.802 19.783 41.5501 20.2058 41.4625C20.6285 41.3749 21.0688 41.4587 21.4297 41.6955C21.7906 41.9323 22.0427 42.3026 22.1303 42.7251C22.218 43.1476 22.1342 43.5876 21.8972 43.9483C20.9366 45.4075 20.0256 46.9259 19.1947 48.4603C19.0852 48.6638 18.9328 48.8412 18.748 48.9803C18.4986 49.1721 18.1987 49.2873 17.8849 49.312C17.5712 49.3367 17.257 49.2698 16.9805 49.1195ZM54.1928 19.2619C52.5325 19.8043 50.8771 20.4251 49.2697 21.1083C49.0734 21.1916 48.8627 21.2354 48.6494 21.2374C48.4362 21.2393 48.2247 21.1992 48.027 21.1194C47.8292 21.0396 47.6492 20.9217 47.497 20.7724C47.3449 20.623 47.2237 20.4452 47.1403 20.2491C47.057 20.0529 47.0131 19.8423 47.0112 19.6292C47.0093 19.4161 47.0494 19.2047 47.1292 19.0071C47.209 18.8095 47.327 18.6296 47.4765 18.4775C47.6259 18.3255 47.8038 18.2044 48.0001 18.1211C49.6908 17.4027 51.4343 16.7483 53.1826 16.1771C53.5475 16.0588 53.9426 16.0735 54.2978 16.2184C54.653 16.3633 54.9455 16.6291 55.1234 16.9688C55.3013 17.3085 55.3532 17.7002 55.2699 18.0745C55.1866 18.4488 54.9735 18.7815 54.6683 19.0139C54.5251 19.123 54.3643 19.2069 54.1928 19.2619ZM24.7774 37.3083C24.4542 37.0237 24.2573 36.6224 24.23 36.1928C24.2027 35.7632 24.3472 35.3403 24.6317 35.0171C25.8469 33.6395 27.1373 32.2971 28.4742 31.0171C28.7887 30.7399 29.1983 30.595 29.6172 30.6129C30.0362 30.6308 30.432 30.81 30.7217 31.1129C31.0114 31.4159 31.1726 31.8192 31.1714 32.2382C31.1703 32.6573 31.0069 33.0597 30.7156 33.3611C29.454 34.5707 28.2276 35.8475 27.0733 37.1579C27.0008 37.2398 26.9203 37.3142 26.8331 37.3803C26.5348 37.6071 26.1671 37.7238 25.7924 37.7107C25.4178 37.6976 25.0592 37.5554 24.7774 37.3083ZM41.6633 24.9883C40.1679 25.8875 38.6918 26.8635 37.2765 27.8891C36.9303 28.1454 36.4963 28.2537 36.0701 28.1903C35.6439 28.1268 35.2604 27.8967 35.0039 27.5507C34.7474 27.2046 34.639 26.7709 34.7025 26.345C34.766 25.9191 34.9962 25.5358 35.3425 25.2795L35.3697 25.2603C36.8603 24.1803 38.4116 23.1531 39.987 22.2059C40.3431 21.9956 40.7659 21.9288 41.1695 22.0193C41.573 22.1097 41.9269 22.3505 42.1589 22.6926C42.391 23.0346 42.4839 23.4523 42.4185 23.8604C42.3532 24.2685 42.1347 24.6364 41.8074 24.8891C41.761 24.9275 41.7129 24.9595 41.6633 24.9899V24.9883Z" fill="#0A3BA0"/>
<path opacity="0.3" d="M14.2365 59.4542C14.5006 59.2546 14.6968 58.9787 14.7984 58.6638C15.0578 57.8638 15.338 57.0638 15.631 56.275C15.7134 56.0737 15.7544 55.8579 15.7517 55.6404C15.749 55.4229 15.7025 55.2082 15.6151 55.009C15.5277 54.8098 15.4011 54.6303 15.2428 54.481C15.0845 54.3317 14.8979 54.2157 14.6939 54.1399C14.4898 54.0642 14.2727 54.0302 14.0553 54.04C13.8379 54.0498 13.6246 54.1032 13.4283 54.197C13.2319 54.2908 13.0564 54.423 12.9123 54.586C12.7681 54.7489 12.6582 54.9391 12.5891 55.1454C12.2801 55.9758 11.9855 56.8206 11.7117 57.6574C11.6047 57.9862 11.6056 58.3405 11.7141 58.6688C11.8225 58.997 12.033 59.2822 12.3149 59.4826C12.5967 59.6831 12.9352 59.7884 13.2811 59.7833C13.6271 59.7782 13.9623 59.6629 14.2381 59.4542H14.2365Z" fill="#0A3BA0"/>
</g>
<g opacity="0.3">
<path opacity="0.3" d="M18.4983 108.754C18.8053 108.521 19.0193 108.186 19.102 107.809C19.1847 107.433 19.1308 107.039 18.9498 106.698C18.556 105.961 18.1701 105.201 17.8067 104.442C17.718 104.244 17.5905 104.066 17.4317 103.918C17.2729 103.77 17.086 103.656 16.8822 103.581C16.6783 103.506 16.4615 103.473 16.2447 103.484C16.0278 103.494 15.8153 103.548 15.6196 103.642C15.4239 103.736 15.2491 103.868 15.1054 104.031C14.9617 104.194 14.8521 104.383 14.783 104.589C14.7139 104.795 14.6867 105.012 14.7031 105.229C14.7195 105.445 14.7791 105.656 14.8784 105.849C15.2627 106.649 15.6677 107.449 16.0824 108.225C16.1827 108.413 16.319 108.579 16.4837 108.715C16.6483 108.85 16.8381 108.952 17.0421 109.014C17.246 109.076 17.4603 109.097 17.6725 109.077C17.8847 109.056 18.0908 108.994 18.279 108.894C18.3559 108.853 18.4293 108.807 18.4983 108.754Z" fill="#91B3FA"/>
<path opacity="0.3" d="M109.895 131.389C109.72 131.521 109.519 131.617 109.305 131.67C109.092 131.722 108.869 131.731 108.652 131.695C108.435 131.66 108.227 131.58 108.042 131.462C107.856 131.343 107.696 131.189 107.572 131.007C107.449 130.825 107.363 130.62 107.321 130.404C107.279 130.188 107.281 129.966 107.327 129.751C107.374 129.535 107.463 129.332 107.591 129.153C107.718 128.973 107.881 128.822 108.069 128.707C109.478 127.747 110.869 126.707 112.219 125.613C112.554 125.35 112.979 125.23 113.402 125.278C113.826 125.325 114.213 125.537 114.482 125.868C114.75 126.199 114.878 126.621 114.838 127.045C114.797 127.469 114.592 127.86 114.266 128.134C113.681 128.608 113.091 129.07 112.495 129.521C111.641 130.165 110.768 130.793 109.895 131.389ZM118.445 122.181C118.289 122.035 118.164 121.86 118.076 121.666C117.988 121.471 117.939 121.262 117.932 121.049C117.925 120.836 117.961 120.623 118.036 120.424C118.111 120.224 118.225 120.042 118.371 119.886C119.548 118.63 120.686 117.312 121.751 115.968C121.883 115.801 122.047 115.661 122.233 115.557C122.419 115.453 122.624 115.387 122.836 115.363C123.048 115.338 123.262 115.355 123.468 115.413C123.673 115.471 123.864 115.569 124.032 115.701C124.199 115.834 124.338 115.997 124.442 116.183C124.546 116.369 124.612 116.574 124.637 116.786C124.662 116.997 124.645 117.212 124.587 117.417C124.528 117.622 124.43 117.813 124.298 117.981C123.177 119.398 121.98 120.785 120.739 122.107C120.676 122.174 120.608 122.236 120.534 122.291C120.229 122.522 119.852 122.637 119.469 122.617C119.087 122.597 118.724 122.442 118.445 122.181ZM102.262 135.864C100.643 136.664 98.9702 137.416 97.2843 138.083C96.8839 138.241 96.4369 138.234 96.0416 138.064C95.6463 137.893 95.3352 137.572 95.1766 137.172C95.018 136.772 95.0249 136.325 95.1959 135.93C95.3669 135.535 95.6879 135.224 96.0883 135.065C97.6893 134.425 99.2775 133.723 100.813 132.958C101.175 132.775 101.593 132.735 101.984 132.844C102.374 132.954 102.71 133.206 102.924 133.55C103.138 133.895 103.215 134.307 103.141 134.705C103.066 135.104 102.844 135.46 102.52 135.704C102.439 135.765 102.352 135.818 102.262 135.864ZM127.077 111.257C126.894 111.15 126.733 111.006 126.604 110.836C126.476 110.666 126.382 110.473 126.328 110.266C126.275 110.06 126.263 109.845 126.292 109.634C126.322 109.423 126.393 109.22 126.501 109.037C127.374 107.555 128.192 106.019 128.935 104.472C129.027 104.28 129.156 104.107 129.315 103.965C129.474 103.823 129.659 103.713 129.86 103.643C130.061 103.572 130.274 103.541 130.487 103.553C130.7 103.565 130.909 103.618 131.101 103.71C131.293 103.802 131.465 103.931 131.608 104.09C131.75 104.249 131.86 104.434 131.93 104.635C132.001 104.836 132.032 105.049 132.02 105.262C132.009 105.474 131.955 105.683 131.863 105.875C131.08 107.505 130.219 109.123 129.301 110.675C129.193 110.859 129.05 111.019 128.88 111.148C128.71 111.276 128.516 111.37 128.31 111.423C128.103 111.477 127.888 111.489 127.677 111.459C127.466 111.429 127.263 111.358 127.079 111.249L127.077 111.257ZM88.8566 140.768C87.0955 141.198 85.3055 141.558 83.5156 141.84C83.1029 141.881 82.6899 141.764 82.3614 141.51C82.0329 141.257 81.8137 140.888 81.749 140.479C81.6843 140.069 81.7788 139.651 82.0133 139.309C82.2477 138.967 82.6042 138.727 83.0097 138.64C84.71 138.371 86.4182 138.03 88.0833 137.622C88.2947 137.557 88.5172 137.535 88.7372 137.559C88.9572 137.583 89.17 137.651 89.3625 137.76C89.5551 137.869 89.7234 138.016 89.857 138.192C89.9906 138.369 90.0868 138.57 90.1396 138.785C90.1924 139 90.2007 139.223 90.164 139.441C90.1273 139.659 90.0464 139.867 89.9262 140.053C89.8061 140.239 89.6492 140.398 89.4653 140.521C89.2813 140.644 89.0742 140.728 88.8566 140.768ZM74.702 142.616C72.8929 142.653 71.0597 142.616 69.2586 142.497C68.8378 142.458 68.4489 142.256 68.1744 141.935C67.8999 141.614 67.7614 141.199 67.7883 140.777C67.8152 140.356 68.0053 139.961 68.3183 139.677C68.6314 139.394 69.0428 139.243 69.4651 139.257C71.1798 139.366 72.9217 139.405 74.6412 139.371C74.8544 139.367 75.0663 139.405 75.2649 139.482C75.4635 139.56 75.6448 139.676 75.7985 139.823C75.9522 139.971 76.0754 140.148 76.1608 140.343C76.2463 140.538 76.2924 140.748 76.2966 140.961C76.3009 141.174 76.263 141.386 76.1853 141.585C76.1076 141.783 75.9916 141.964 75.8438 142.118C75.696 142.272 75.5194 142.395 75.3241 142.48C75.1287 142.565 74.9184 142.612 74.7052 142.616H74.702ZM60.4819 141.336C58.7063 140.977 56.926 140.536 55.1905 140.035C54.777 139.915 54.4281 139.635 54.2208 139.258C54.0135 138.88 53.9647 138.436 54.085 138.023C54.2054 137.61 54.4851 137.261 54.8627 137.054C55.2403 136.847 55.6847 136.798 56.0983 136.918C57.7473 137.398 59.438 137.813 61.1255 138.153C61.3406 138.189 61.5463 138.268 61.7304 138.384C61.9145 138.501 62.0732 138.654 62.1971 138.833C62.3209 139.013 62.4074 139.215 62.4513 139.428C62.4952 139.642 62.4957 139.862 62.4527 140.076C62.4097 140.289 62.3241 140.492 62.201 140.672C62.078 140.852 61.9199 141.005 61.7363 141.123C61.5527 141.24 61.3473 141.32 61.1324 141.356C60.9174 141.393 60.6973 141.386 60.4851 141.336H60.4819ZM46.8733 136.987C45.2194 136.249 43.5784 135.432 41.995 134.558C41.8083 134.455 41.6437 134.316 41.5107 134.15C41.3777 133.983 41.2788 133.792 41.2197 133.587C41.1606 133.382 41.1425 133.168 41.1663 132.956C41.1901 132.744 41.2555 132.539 41.3586 132.353C41.4617 132.166 41.6006 132.002 41.7673 131.869C41.9341 131.736 42.1254 131.637 42.3303 131.578C42.5352 131.519 42.7498 131.501 42.9618 131.524C43.1737 131.548 43.3789 131.613 43.5656 131.717C45.0689 132.547 46.6267 133.317 48.1989 134.024C48.3936 134.111 48.5692 134.235 48.7158 134.39C48.8624 134.545 48.977 134.727 49.0531 134.926C49.1292 135.125 49.1653 135.337 49.1594 135.55C49.1535 135.763 49.1057 135.973 49.0186 136.168C48.9316 136.362 48.8071 136.538 48.6521 136.684C48.4972 136.831 48.3149 136.945 48.1157 137.021C47.9165 137.097 47.7043 137.134 47.4911 137.128C47.2779 137.122 47.068 137.074 46.8733 136.987ZM34.5615 129.76C33.1206 128.678 31.6941 127.52 30.3413 126.317C30.1817 126.175 30.0516 126.003 29.9584 125.811C29.8653 125.619 29.8109 125.411 29.7983 125.198C29.7857 124.985 29.8153 124.771 29.8852 124.57C29.9552 124.368 30.0642 124.182 30.206 124.023C30.3478 123.863 30.5196 123.733 30.7117 123.64C30.9038 123.547 31.1124 123.493 31.3255 123.48C31.5386 123.468 31.7521 123.497 31.9538 123.567C32.1555 123.637 32.3414 123.746 32.501 123.888C33.7818 125.03 35.1347 126.128 36.5035 127.157C36.6804 127.282 36.8303 127.441 36.9446 127.625C37.0589 127.809 37.1352 128.014 37.1691 128.228C37.2029 128.442 37.1936 128.66 37.1417 128.871C37.0898 129.081 36.9963 129.279 36.8668 129.452C36.7373 129.626 36.5743 129.772 36.3875 129.882C36.2007 129.991 35.9938 130.063 35.779 130.091C35.5642 130.12 35.3458 130.105 35.1367 130.048C34.9276 129.992 34.7321 129.893 34.5615 129.76ZM24.1421 120C23.2744 118.99 22.4275 117.941 21.6254 116.881C21.334 116.497 21.049 116.113 20.7688 115.725C20.642 115.553 20.5507 115.358 20.5003 115.151C20.45 114.944 20.4415 114.729 20.4756 114.518C20.5096 114.308 20.5853 114.106 20.6984 113.925C20.8114 113.745 20.9595 113.588 21.1338 113.465C21.3066 113.34 21.5024 113.25 21.7099 113.201C21.9175 113.151 22.1328 113.143 22.3435 113.177C22.5542 113.211 22.7562 113.286 22.9379 113.397C23.1196 113.509 23.2775 113.656 23.4025 113.829C23.6682 114.197 23.9404 114.565 24.2158 114.928C24.9795 115.936 25.7832 116.933 26.6077 117.893C26.7466 118.054 26.8522 118.242 26.9186 118.444C26.985 118.647 27.0109 118.86 26.9947 119.073C26.9785 119.285 26.9205 119.492 26.8242 119.682C26.7279 119.873 26.595 120.042 26.4332 120.181L26.3547 120.245C26.0242 120.493 25.6111 120.606 25.1998 120.561C24.7886 120.515 24.4103 120.315 24.1421 120Z" fill="#91B3FA"/>
<path opacity="0.3" d="M134.588 98.4123C134.854 98.2105 135.052 97.9309 135.153 97.6123C135.42 96.7755 135.676 95.9163 135.912 95.0523C135.968 94.8468 135.984 94.6321 135.958 94.4206C135.931 94.2091 135.863 94.0048 135.758 93.8195C135.653 93.6341 135.512 93.4713 135.344 93.3404C135.175 93.2094 134.983 93.1129 134.777 93.0562C134.572 92.9996 134.357 92.984 134.145 93.0103C133.934 93.0367 133.729 93.1044 133.544 93.2097C133.358 93.3149 133.195 93.4557 133.064 93.6239C132.933 93.792 132.837 93.9844 132.78 94.1899C132.556 95.0043 132.314 95.8187 132.06 96.6139C131.954 96.9424 131.956 97.296 132.066 97.6233C132.175 97.9506 132.386 98.2344 132.668 98.4337C132.95 98.633 133.288 98.7373 133.633 98.7314C133.978 98.7255 134.313 98.6098 134.588 98.4011V98.4123Z" fill="#91B3FA"/>
</g>
<path d="M121.869 73.6589C121.875 73.5018 121.832 73.3465 121.746 73.2149C121.66 73.0832 121.535 72.9817 121.388 72.9245L112.765 69.5997C111.927 65.3093 110.395 61.1842 108.228 57.3869L112.57 49.2429C112.644 49.1038 112.673 48.9451 112.653 48.7887C112.632 48.6324 112.564 48.4863 112.456 48.3709L104.911 40.2605C104.803 40.1449 104.662 40.0657 104.507 40.0339C104.352 40.0021 104.191 40.0192 104.046 40.0829L95.6056 43.8205C91.9697 41.3795 87.9592 39.5485 83.7325 38.3997L81.0412 29.5677C80.9952 29.4164 80.9031 29.2832 80.7776 29.1868C80.6522 29.0904 80.4997 29.0356 80.3416 29.0301L69.2722 28.6397C69.1149 28.633 68.9594 28.6757 68.8276 28.7618C68.6959 28.8479 68.5943 28.9731 68.5373 29.1197L65.2104 37.7325C60.9183 38.5733 56.7919 40.107 52.9931 42.2733L44.8456 37.9341C44.7062 37.8597 44.547 37.8307 44.3903 37.8511C44.2336 37.8714 44.0871 37.9402 43.9714 38.0477L35.8559 45.5901C35.7402 45.6976 35.6611 45.8385 35.6295 45.9931C35.5979 46.1477 35.6155 46.3084 35.6798 46.4525L39.4197 54.8893C36.9798 58.5185 35.1492 62.5216 34.0003 66.7405L25.1579 69.4397C25.0066 69.4854 24.8734 69.5772 24.777 69.7023C24.6805 69.8274 24.6256 69.9795 24.62 70.1373L24.2181 81.2045C24.2118 81.3618 24.2547 81.5172 24.3408 81.6491C24.4268 81.781 24.5518 81.8828 24.6984 81.9405L33.3167 85.2653C34.1573 89.5561 35.6925 93.6812 37.862 97.4781L33.5248 105.613C33.4504 105.752 33.4213 105.911 33.4417 106.067C33.4621 106.224 33.5309 106.37 33.6385 106.486L41.184 114.597C41.292 114.712 41.4332 114.791 41.5882 114.823C41.7431 114.854 41.9041 114.837 42.0486 114.773L50.4891 111.04C54.1221 113.477 58.128 115.306 62.3494 116.456L65.0407 125.28C65.087 125.431 65.1792 125.564 65.3047 125.66C65.4301 125.756 65.5824 125.81 65.7404 125.816L76.8145 126.219C76.9717 126.225 77.1268 126.182 77.2585 126.096C77.3901 126.01 77.4918 125.885 77.5494 125.739L80.8763 117.12C85.1704 116.28 89.2986 114.745 93.0984 112.577L101.246 116.918C101.386 116.992 101.545 117.021 101.701 117C101.858 116.979 102.004 116.91 102.12 116.803L110.234 109.262C110.35 109.155 110.43 109.014 110.462 108.859C110.493 108.704 110.476 108.543 110.412 108.398L106.672 99.9677C109.111 96.3381 110.942 92.3351 112.091 88.1165L120.929 85.4253C121.08 85.3797 121.213 85.2879 121.31 85.1628C121.406 85.0377 121.461 84.8855 121.467 84.7277L121.869 73.6589Z" fill="#91B3FA"/>
<path d="M78.4018 87.1869C75.8754 88.5681 72.9114 88.9164 70.1332 88.1587C67.3551 87.401 64.9791 85.5962 63.5051 83.1238C62.031 80.6515 61.5736 77.7042 62.2291 74.9018C62.8846 72.0994 64.6019 69.6602 67.0199 68.0971C69.4379 66.534 72.3682 65.9688 75.1946 66.5203C78.021 67.0719 80.5233 68.6972 82.1753 71.0546C83.8273 73.4119 84.5003 76.3176 84.0527 79.1605C83.6052 82.0035 82.072 84.5623 79.7755 86.2989C79.34 86.6281 78.8809 86.9249 78.4018 87.1869ZM64.8413 75.0397C64.288 76.9356 64.4097 78.9645 65.1856 80.7808C65.9615 82.5971 67.3435 84.0883 69.0962 85.0004C70.849 85.9125 72.8639 86.1891 74.7978 85.7829C76.7317 85.3767 78.4648 84.313 79.7018 82.773C80.9389 81.233 81.6034 79.3119 81.582 77.3372C81.5607 75.3624 80.8548 73.4562 79.5847 71.9432C78.3147 70.4303 76.559 69.4042 74.6168 69.0399C72.6746 68.6756 70.666 68.9956 68.9335 69.9453C68.5622 70.1483 68.2063 70.3783 67.8688 70.6333C66.4107 71.7375 65.3487 73.2832 64.8413 75.0397Z" fill="#BDD0FB"/>
<path d="M89.3056 99.2538C90.0543 98.686 90.7736 98.0804 91.4606 97.4394C91.6741 97.2378 91.8875 97.032 92.101 96.8218C93.1415 95.7923 94.0977 94.681 94.9604 93.4986L94.9956 93.4506L95.0949 93.313L95.2854 93.0442C95.3637 92.9317 95.4044 92.7973 95.4018 92.6603C95.3992 92.5233 95.3535 92.3906 95.271 92.281C95.23 92.2263 95.1803 92.1787 95.1237 92.1402C94.9825 92.0417 94.8079 92.0032 94.6383 92.0332C94.4687 92.0632 94.3179 92.1592 94.2191 92.3002C91.9904 95.4922 89.0754 98.1453 85.6877 100.065C82.2999 101.986 78.5252 103.124 74.6402 103.397C70.7552 103.67 66.8582 103.072 63.2347 101.644C59.6113 100.217 56.3532 97.9984 53.6992 95.1498C53.0895 94.4946 52.5134 93.809 51.9733 93.0954C48.0897 87.9439 46.2541 81.5369 46.8209 75.1118C47.3877 68.6868 50.3168 62.6996 55.0424 58.3066C65.5835 48.513 82.1187 49.1162 91.9153 59.6442C92.5174 60.2914 93.0865 60.9685 93.6203 61.673C95.9277 64.7167 97.5359 68.2309 98.3305 71.9658C98.3697 72.131 98.4719 72.2742 98.6154 72.365C98.7589 72.4557 98.9322 72.4868 99.0983 72.4514C99.2644 72.4161 99.4101 72.3172 99.5042 72.1759C99.5982 72.0347 99.6333 71.8622 99.6017 71.6954C98.7671 67.7741 97.0786 64.0846 94.6562 60.889C94.0969 60.153 93.5008 59.4432 92.8679 58.7594C82.583 47.7066 65.2136 47.0794 54.157 57.3546C49.195 61.9673 46.1196 68.2542 45.5253 75.0007C44.9309 81.7472 46.8597 88.4745 50.939 93.8826C51.5067 94.6314 52.1115 95.3512 52.7514 96.0394C57.3669 101 63.6586 104.074 70.4103 104.667C77.162 105.261 83.8942 103.332 89.3056 99.2538Z" fill="#BDD0FB"/>
<g opacity="0.3">
<path opacity="0.3" d="M198.553 47.115C198.726 46.9842 198.852 46.8009 198.912 46.5926C198.972 46.3843 198.962 46.1623 198.885 45.9598C198.584 45.1598 198.254 44.3598 197.903 43.5902C197.852 43.4656 197.777 43.3525 197.681 43.2577C197.586 43.1628 197.472 43.0882 197.347 43.0383C197.222 42.9883 197.088 42.964 196.953 42.9669C196.818 42.9698 196.685 42.9997 196.563 43.0549C196.44 43.1102 196.329 43.1895 196.238 43.2884C196.146 43.3872 196.075 43.5034 196.03 43.6301C195.984 43.7568 195.965 43.8914 195.972 44.0258C195.98 44.1602 196.014 44.2918 196.074 44.4126C196.407 45.1518 196.714 45.9118 197.01 46.6718C197.105 46.9201 197.294 47.1208 197.537 47.23C197.779 47.3391 198.055 47.3478 198.304 47.2542C198.393 47.2201 198.477 47.1732 198.553 47.115Z" fill="#0A3BA0"/>
<path opacity="0.3" d="M195.081 40.2448C194.853 40.3828 194.58 40.4249 194.322 40.3619C194.064 40.2989 193.841 40.1359 193.702 39.9088C192.973 38.7103 192.183 37.5493 191.336 36.4304C191.157 36.1957 190.975 35.9621 190.792 35.7296C190.627 35.5214 190.551 35.2564 190.581 34.9926C190.611 34.7287 190.744 34.4875 190.952 34.3216C191.163 34.1646 191.426 34.0938 191.688 34.1235C191.95 34.1532 192.19 34.2812 192.361 34.4816C192.554 34.7248 192.743 34.9696 192.931 35.216C193.819 36.3887 194.647 37.6058 195.412 38.8624C195.541 39.0743 195.587 39.3263 195.54 39.5699C195.494 39.8134 195.359 40.0311 195.161 40.1808C195.138 40.2064 195.111 40.2256 195.081 40.2448ZM187.396 31.936C186.185 30.7417 184.902 29.6228 183.554 28.5856C183.449 28.5052 183.362 28.4051 183.296 28.291C183.231 28.1768 183.188 28.0509 183.171 27.9204C183.155 27.7899 183.164 27.6573 183.198 27.5303C183.232 27.4032 183.291 27.2842 183.372 27.18C183.452 27.0758 183.552 26.9884 183.667 26.9229C183.781 26.8573 183.907 26.8149 184.037 26.7981C184.168 26.7812 184.301 26.7902 184.428 26.8246C184.555 26.859 184.674 26.918 184.778 26.9984C186.19 28.085 187.532 29.2579 188.798 30.5104C188.986 30.6985 189.092 30.9534 189.092 31.2192C189.092 31.485 188.986 31.7399 188.798 31.928C188.765 31.9624 188.728 31.994 188.69 32.0224C188.499 32.1639 188.263 32.2329 188.026 32.2171C187.789 32.2012 187.565 32.1016 187.394 31.936H187.396ZM179.341 25.7344C177.876 24.8734 176.359 24.1034 174.799 23.4288C174.555 23.3227 174.363 23.124 174.266 22.8765C174.168 22.6289 174.173 22.3528 174.279 22.1088C174.385 21.8648 174.584 21.6729 174.832 21.5754C175.079 21.4779 175.356 21.4827 175.6 21.5888C177.234 22.2938 178.822 23.099 180.356 24C180.585 24.135 180.752 24.3554 180.819 24.6127C180.886 24.87 180.848 25.1433 180.713 25.3728C180.646 25.4854 180.558 25.5842 180.454 25.664C180.296 25.7846 180.106 25.8558 179.908 25.8683C179.709 25.8808 179.512 25.8342 179.34 25.7344H179.341ZM170.007 21.7008C168.378 21.2263 166.72 20.8523 165.044 20.5808C164.91 20.5644 164.781 20.5211 164.664 20.4536C164.547 20.386 164.445 20.2956 164.364 20.1877C164.282 20.0797 164.224 19.9565 164.192 19.8255C164.159 19.6944 164.154 19.5581 164.175 19.4249C164.197 19.2916 164.245 19.164 164.317 19.0498C164.389 18.9357 164.483 18.8372 164.595 18.7603C164.706 18.6834 164.831 18.6297 164.963 18.6025C165.096 18.5752 165.232 18.5749 165.365 18.6016C167.123 18.8884 168.862 19.2822 170.573 19.7808C170.708 19.8093 170.836 19.8654 170.949 19.9457C171.061 20.0259 171.156 20.1286 171.227 20.2472C171.298 20.3658 171.344 20.4979 171.361 20.635C171.379 20.7721 171.368 20.9114 171.329 21.0441C171.29 21.1768 171.225 21.3 171.136 21.4061C171.047 21.5121 170.937 21.5987 170.813 21.6603C170.69 21.722 170.554 21.7574 170.416 21.7644C170.278 21.7713 170.14 21.7497 170.011 21.7008H170.007ZM159.971 20.0672C158.273 20.0018 156.573 20.0397 154.88 20.1808C154.745 20.1969 154.609 20.1858 154.479 20.1481C154.349 20.1104 154.229 20.0469 154.124 19.9614C154.019 19.8758 153.933 19.77 153.87 19.6503C153.808 19.5307 153.77 19.3995 153.759 19.2648C153.748 19.1302 153.765 18.9947 153.807 18.8665C153.85 18.7384 153.919 18.6202 154.008 18.5191C154.098 18.418 154.207 18.3361 154.33 18.2782C154.452 18.2204 154.584 18.1878 154.719 18.1824C156.494 18.0352 158.276 17.9951 160.056 18.0624C160.319 18.0755 160.568 18.1921 160.746 18.3868C160.925 18.5816 161.019 18.8388 161.009 19.1027C160.999 19.3666 160.885 19.6159 160.692 19.7965C160.499 19.977 160.243 20.0743 159.979 20.0672H159.971ZM149.841 20.9168C148.18 21.2654 146.541 21.7164 144.936 22.2672C144.684 22.3535 144.408 22.3365 144.169 22.2197C143.93 22.103 143.748 21.8962 143.661 21.6448C143.575 21.3933 143.592 21.1179 143.709 20.8791C143.825 20.6402 144.032 20.4575 144.284 20.3712C145.968 19.7927 147.687 19.3198 149.43 18.9552C149.653 18.9089 149.885 18.9398 150.088 19.0427C150.291 19.1456 150.453 19.3145 150.547 19.5216C150.642 19.7286 150.663 19.9616 150.607 20.1823C150.552 20.403 150.423 20.5982 150.241 20.736C150.123 20.8256 149.985 20.8874 149.84 20.9168H149.841ZM140.235 24.216C138.709 24.9619 137.23 25.802 135.808 26.7312C135.585 26.8767 135.314 26.9278 135.053 26.8732C134.792 26.8186 134.564 26.6628 134.419 26.44C134.273 26.2172 134.222 25.9457 134.276 25.6853C134.331 25.4248 134.487 25.1967 134.71 25.0512C136.202 24.0783 137.753 23.1977 139.353 22.4144C139.577 22.3021 139.835 22.2779 140.076 22.3464C140.317 22.415 140.524 22.5713 140.655 22.7846C140.787 22.9979 140.833 23.2527 140.786 23.4987C140.739 23.7447 140.601 23.9641 140.4 24.1136C140.347 24.1535 140.29 24.1878 140.23 24.216H140.235ZM126.626 33.344C126.53 33.2546 126.452 33.1471 126.397 33.0275C126.342 32.908 126.311 32.7788 126.306 32.6472C126.301 32.5157 126.322 32.3845 126.367 32.2611C126.413 32.1377 126.483 32.0245 126.572 31.928C127.624 30.7933 128.735 29.7155 129.902 28.6992C130.078 28.5392 130.256 28.392 130.435 28.24C130.535 28.1502 130.653 28.0815 130.78 28.0378C130.907 27.9942 131.042 27.9765 131.176 27.9859C131.31 27.9953 131.441 28.0316 131.561 28.0925C131.681 28.1535 131.787 28.2379 131.874 28.3407C131.96 28.4436 132.025 28.5628 132.065 28.6913C132.105 28.8197 132.118 28.9548 132.104 29.0886C132.091 29.2223 132.05 29.3519 131.985 29.4697C131.921 29.5875 131.833 29.6911 131.727 29.7744C131.559 29.9152 131.393 30.0592 131.223 30.208C130.11 31.1785 129.048 32.2071 128.043 33.2896C128.004 33.3332 127.96 33.3728 127.912 33.408C127.724 33.5521 127.49 33.6248 127.253 33.613C127.016 33.6013 126.79 33.506 126.617 33.344H126.626Z" fill="#0A3BA0"/>
</g>
<g opacity="0.3">
<path opacity="0.3" d="M184.042 96.2067C182.63 97.2443 181.158 98.1969 179.633 99.0595C179.518 99.1243 179.392 99.1659 179.261 99.1819C179.13 99.1979 178.997 99.188 178.87 99.1527C178.743 99.1174 178.624 99.0574 178.52 98.9763C178.416 98.8951 178.33 98.7942 178.265 98.6795C178.2 98.5648 178.158 98.4384 178.142 98.3076C178.126 98.1768 178.136 98.0442 178.172 97.9172C178.207 97.7903 178.267 97.6715 178.348 97.5677C178.429 97.4639 178.53 97.3771 178.645 97.3123C180.1 96.4915 181.504 95.5831 182.849 94.5923C183.062 94.4506 183.322 94.3958 183.574 94.4391C183.826 94.4825 184.053 94.6206 184.206 94.8253C184.36 95.03 184.429 95.2857 184.4 95.5398C184.371 95.794 184.246 96.0275 184.05 96.1923L184.042 96.2067ZM186.66 92.7987C186.569 92.7029 186.499 92.5903 186.452 92.4673C186.406 92.3443 186.384 92.2133 186.388 92.0818C186.392 91.9503 186.422 91.8209 186.476 91.7009C186.53 91.581 186.607 91.4729 186.703 91.3827C187.92 90.2366 189.067 89.019 190.139 87.7363C190.313 87.549 190.553 87.4356 190.809 87.4193C191.065 87.403 191.317 87.4851 191.514 87.6488C191.711 87.8125 191.839 88.0453 191.869 88.2996C191.9 88.5538 191.833 88.8103 191.68 89.0163C190.557 90.361 189.353 91.6369 188.077 92.8371C188.051 92.8623 188.024 92.8858 187.995 92.9075C187.798 93.0574 187.553 93.1294 187.307 93.1096C187.06 93.0898 186.83 92.9797 186.66 92.8003V92.7987ZM174.91 101.357C173.291 102.024 171.634 102.593 169.947 103.061C169.693 103.125 169.424 103.086 169.198 102.955C168.972 102.823 168.806 102.608 168.736 102.356C168.666 102.104 168.697 101.834 168.823 101.605C168.949 101.376 169.16 101.205 169.41 101.128C171.022 100.682 172.605 100.139 174.151 99.5027C174.376 99.4111 174.627 99.4043 174.857 99.4836C175.087 99.5629 175.28 99.7229 175.401 99.9339C175.522 100.145 175.562 100.393 175.513 100.631C175.465 100.869 175.332 101.082 175.139 101.229C175.069 101.282 174.992 101.325 174.91 101.357ZM193.402 85.0883C193.291 85.0169 193.195 84.9244 193.121 84.8161C193.046 84.7079 192.993 84.5859 192.965 84.4572C192.938 84.3285 192.936 84.1956 192.959 84.0662C192.983 83.9367 193.032 83.8132 193.104 83.7027C194.009 82.2984 194.828 80.8402 195.557 79.3363C195.678 79.1066 195.884 78.9331 196.131 78.8521C196.378 78.7712 196.647 78.7893 196.881 78.9025C197.115 79.0157 197.296 79.2152 197.386 79.4591C197.476 79.703 197.467 79.9721 197.362 80.2099C196.598 81.787 195.739 83.3162 194.79 84.7891C194.726 84.888 194.645 84.9747 194.551 85.0451C194.387 85.1696 194.189 85.2406 193.983 85.2483C193.777 85.256 193.574 85.2002 193.402 85.0883ZM164.806 104.148C163.073 104.406 161.326 104.559 159.574 104.607C159.313 104.606 159.062 104.504 158.875 104.322C158.688 104.139 158.58 103.892 158.573 103.631C158.565 103.37 158.66 103.116 158.837 102.924C159.014 102.732 159.259 102.617 159.519 102.602C161.19 102.558 162.857 102.411 164.51 102.164C164.77 102.13 165.033 102.2 165.243 102.359C165.452 102.517 165.591 102.751 165.63 103.011C165.669 103.27 165.604 103.535 165.45 103.747C165.296 103.96 165.065 104.103 164.806 104.148ZM154.326 104.436C152.581 104.272 150.847 104.005 149.134 103.636C149.005 103.607 148.883 103.554 148.775 103.479C148.667 103.404 148.575 103.308 148.503 103.198C148.432 103.087 148.384 102.963 148.36 102.834C148.337 102.704 148.339 102.571 148.368 102.443C148.396 102.314 148.449 102.192 148.524 102.084C148.599 101.976 148.695 101.884 148.806 101.813C148.916 101.742 149.04 101.693 149.17 101.67C149.299 101.647 149.432 101.649 149.561 101.677C151.195 102.031 152.849 102.287 154.513 102.444C154.772 102.475 155.009 102.607 155.173 102.81C155.336 103.014 155.414 103.273 155.39 103.533C155.365 103.793 155.241 104.033 155.042 104.202C154.843 104.372 154.586 104.457 154.326 104.44V104.436ZM144.079 102.207C142.424 101.63 140.805 100.953 139.231 100.18C139 100.058 138.825 99.8509 138.743 99.6023C138.662 99.3537 138.681 99.0833 138.797 98.8486C138.912 98.6139 139.115 98.4335 139.361 98.3459C139.608 98.2583 139.879 98.2704 140.117 98.3795C141.614 99.1194 143.155 99.7675 144.731 100.32C144.976 100.412 145.176 100.597 145.287 100.834C145.398 101.071 145.412 101.342 145.326 101.589C145.24 101.837 145.061 102.04 144.826 102.157C144.592 102.274 144.321 102.295 144.071 102.215L144.079 102.207Z" fill="#91B3FA"/>
<path opacity="0.3" d="M199.037 75.7824C199.197 75.6609 199.316 75.4935 199.379 75.3024C199.656 74.4896 199.911 73.6656 200.135 72.8528C200.18 72.7231 200.199 72.5854 200.189 72.4483C200.179 72.3112 200.141 72.1776 200.077 72.0559C200.013 71.9341 199.925 71.8267 199.818 71.7403C199.711 71.654 199.587 71.5906 199.455 71.554C199.322 71.5174 199.183 71.5085 199.047 71.5277C198.911 71.5469 198.78 71.5939 198.663 71.6657C198.546 71.7375 198.444 71.8327 198.365 71.9452C198.287 72.0578 198.232 72.1853 198.204 72.32C197.991 73.096 197.749 73.8816 197.485 74.6576C197.416 74.8609 197.414 75.081 197.479 75.2856C197.544 75.4902 197.674 75.6684 197.848 75.7939C198.022 75.9194 198.232 75.9856 198.447 75.9826C198.662 75.9797 198.87 75.9078 199.041 75.7776L199.037 75.7824Z" fill="#91B3FA"/>
</g>
<path d="M190.819 58.5597C190.823 58.4546 190.794 58.3508 190.737 58.2626C190.68 58.1744 190.596 58.1061 190.499 58.0669L184.735 55.8429C184.172 52.9715 183.145 50.211 181.693 47.6701L184.596 42.2173C184.645 42.124 184.664 42.0177 184.651 41.913C184.637 41.8084 184.591 41.7106 184.519 41.6333L179.473 36.2061C179.401 36.1286 179.306 36.0756 179.203 36.0543C179.099 36.0331 178.991 36.0448 178.895 36.0877L173.246 38.5885C170.816 36.9574 168.135 35.7333 165.31 34.9645L163.509 29.0541C163.478 28.9532 163.416 28.8644 163.333 28.8002C163.249 28.7359 163.147 28.6994 163.041 28.6957L155.618 28.4269C155.513 28.4228 155.409 28.4514 155.321 28.5087C155.233 28.5661 155.165 28.6493 155.126 28.7469L152.899 34.5069C150.026 35.0694 147.265 36.0962 144.723 37.5469L139.27 34.6429C139.176 34.5935 139.07 34.5744 138.965 34.5882C138.86 34.602 138.763 34.6479 138.685 34.7197L133.255 39.7661C133.177 39.838 133.124 39.9324 133.103 40.0359C133.082 40.1395 133.093 40.2471 133.136 40.3437L135.639 45.9885C134.008 48.4178 132.785 51.0967 132.017 53.9197L126.103 55.7197C126.002 55.7507 125.913 55.8123 125.848 55.896C125.784 55.9797 125.747 56.0813 125.743 56.1869L125.474 63.5933C125.47 63.6982 125.499 63.8017 125.556 63.8896C125.613 63.9775 125.696 64.0456 125.794 64.0845L131.558 66.3101C132.12 69.1809 133.148 71.9409 134.599 74.4813L131.694 79.9309C131.644 80.0241 131.625 80.1305 131.639 80.2352C131.652 80.3399 131.698 80.4376 131.771 80.5149L136.82 85.9421C136.892 86.0196 136.986 86.0726 137.09 86.0938C137.194 86.1151 137.301 86.1034 137.398 86.0605L143.046 83.5597C145.477 85.1913 148.157 86.4154 150.983 87.1837L152.784 93.0941C152.815 93.1952 152.876 93.2842 152.96 93.3487C153.044 93.4132 153.146 93.45 153.251 93.4541L160.662 93.7229C160.767 93.7267 160.871 93.698 160.959 93.6407C161.047 93.5835 161.115 93.5004 161.154 93.4029L163.379 87.6429C166.252 87.0798 169.014 86.0531 171.557 84.6029L177.01 87.5069C177.104 87.5562 177.21 87.5753 177.315 87.5616C177.419 87.5478 177.517 87.5019 177.595 87.4301L183.025 82.3837C183.103 82.3118 183.156 82.2174 183.177 82.1139C183.198 82.0103 183.187 81.9027 183.144 81.8061L180.649 76.1597C182.281 73.7309 183.506 71.0526 184.276 68.2301L190.19 66.4285C190.291 66.3976 190.38 66.336 190.444 66.2522C190.508 66.1685 190.545 66.0668 190.548 65.9613L190.819 58.5597Z" fill="#91B3FA"/>
<path d="M161.797 67.7247C160.081 68.6612 158.07 68.8968 156.184 68.382C154.299 67.8671 152.686 66.6419 151.686 64.9638C150.686 63.2857 150.375 61.2853 150.82 59.3832C151.264 57.481 152.429 55.8251 154.07 54.7635C155.711 53.7019 157.699 53.3172 159.618 53.6903C161.536 54.0633 163.236 55.1651 164.358 56.7641C165.481 58.3631 165.94 60.3347 165.638 62.2647C165.337 64.1947 164.298 65.9327 162.741 67.1135C162.442 67.3405 162.126 67.5448 161.797 67.7247ZM153.254 63.7599C153.606 64.4023 154.082 64.969 154.653 65.4277C155.225 65.8863 155.881 66.2279 156.585 66.433C157.288 66.638 158.026 66.7025 158.754 66.6227C159.483 66.5429 160.189 66.3204 160.831 65.9679C161.474 65.6153 162.041 65.1397 162.499 64.5682C162.958 63.9967 163.3 63.3405 163.505 62.6371C163.71 61.9337 163.774 61.1968 163.694 60.4685C163.614 59.7403 163.391 59.0349 163.038 58.3927C162.686 57.7505 162.21 57.184 161.638 56.7256C161.066 56.2672 160.409 55.9258 159.705 55.721C159.002 55.5162 158.264 55.452 157.535 55.5319C156.807 55.6119 156.101 55.8345 155.458 56.1871C155.219 56.319 154.989 56.4676 154.77 56.6319C153.706 57.4421 152.967 58.607 152.689 59.9149C152.411 61.2228 152.611 62.5871 153.254 63.7599Z" fill="#BDD0FB"/>
<path d="M169.387 76.1231C169.893 75.7412 170.383 75.3295 170.858 74.8879C171.801 74.0138 172.652 73.0461 173.399 71.9999C173.431 71.9519 173.465 71.9055 173.498 71.8591C173.647 71.6409 173.704 71.3728 173.656 71.1131C173.608 70.8534 173.46 70.6229 173.244 70.4717C173.027 70.3205 172.759 70.2607 172.499 70.3054C172.239 70.3501 172.006 70.4956 171.852 70.7103C171.165 71.6955 170.373 72.6047 169.493 73.4223L169.347 73.5567C167.28 75.445 164.772 76.7851 162.053 77.4543C160.573 77.8156 159.052 77.9771 157.53 77.9343H157.493H157.378C155.16 77.8593 152.979 77.3457 150.961 76.4232C148.943 75.5007 147.129 74.1877 145.622 72.5599C145.226 72.1359 144.852 71.6921 144.501 71.2303C142.979 69.2127 141.93 66.8795 141.431 64.4027C140.932 61.926 140.996 59.369 141.617 56.9201C142.239 54.4712 143.402 52.1929 145.022 50.2532C146.642 48.3136 148.677 46.762 150.977 45.7129C153.276 44.6638 155.783 44.1439 158.31 44.1916C160.838 44.2393 163.322 44.8533 165.581 45.9885C167.839 47.1236 169.814 48.7508 171.36 50.7502C172.905 52.7496 173.982 55.0701 174.51 57.5407C174.54 57.685 174.603 57.8206 174.693 57.9375C174.83 58.12 175.026 58.2501 175.247 58.3062C175.469 58.3623 175.703 58.341 175.911 58.246C176.118 58.1509 176.287 57.9878 176.39 57.7835C176.492 57.5793 176.521 57.3463 176.473 57.1231C175.88 54.3623 174.674 51.7697 172.946 49.5362C171.217 47.3027 169.009 45.4851 166.484 44.2174C163.959 42.9496 161.182 42.2639 158.357 42.2109C155.532 42.1578 152.731 42.7386 150.161 43.9107C147.59 45.0827 145.315 46.816 143.504 48.9831C141.692 51.1501 140.39 53.6956 139.694 56.4321C138.997 59.1686 138.923 62.0265 139.478 64.7952C140.033 67.5639 141.202 70.173 142.9 72.4303C143.291 72.9471 143.709 73.4437 144.15 73.9183C147.34 77.3386 151.684 79.4568 156.345 79.8639C161.006 80.2711 165.652 78.9384 169.387 76.1231Z" fill="#BDD0FB"/>
<path d="M191.057 342.527L181.252 410.137H294.988L280.174 342.527H191.057Z" fill="#335DC1"/>
<path d="M3.51288e-07 126.048V327.282C-0.000143447 335.242 3.11098 342.887 8.67018 348.588C14.2294 354.289 21.7969 357.595 29.7596 357.8C103.305 359.696 360.538 364.291 430.549 363.259C436.34 363.172 441.873 360.854 445.996 356.789C450.119 352.724 452.513 347.226 452.678 341.44C454.027 294.691 456.221 182.274 448.107 130.08C447.281 124.754 444.619 119.883 440.58 116.311C436.542 112.738 431.381 110.688 425.991 110.515C364.368 108.546 91.6851 102.29 21.7065 103.861C15.9047 103.99 10.3842 106.385 6.32717 110.532C2.27012 114.679 -0.00103127 120.248 3.51288e-07 126.048Z" fill="#264796"/>
<path d="M12.6353 125.069V316.254C12.6352 320.899 14.4636 325.358 17.7256 328.667C20.9875 331.976 25.4212 333.87 30.0687 333.939L420.477 338.76C422.754 338.794 425.017 338.376 427.132 337.53C429.247 336.685 431.173 335.428 432.799 333.833C434.425 332.239 435.718 330.337 436.604 328.24C437.489 326.142 437.95 323.889 437.958 321.613L438.611 132.134C438.626 128.839 437.347 125.669 435.049 123.306C432.752 120.943 429.618 119.574 426.322 119.494L26.6153 111.432C24.7954 111.387 22.9851 111.707 21.2908 112.373C19.5966 113.038 18.0527 114.036 16.75 115.306C15.4473 116.577 14.4121 118.095 13.7055 119.772C12.9988 121.448 12.6349 123.249 12.6353 125.069Z" fill="#91B3FA"/>
<path d="M440.898 346.594H440.888L12.6259 339.302C12.5549 339.301 12.4848 339.286 12.4196 339.257C12.3544 339.229 12.2955 339.189 12.2461 339.138C12.1967 339.087 12.1579 339.026 12.1318 338.96C12.1058 338.894 12.0931 338.824 12.0943 338.753C12.0985 338.61 12.1584 338.474 12.2613 338.375C12.3642 338.275 12.5019 338.22 12.6451 338.22L440.915 345.513C441.059 345.514 441.196 345.572 441.296 345.675C441.397 345.777 441.453 345.915 441.452 346.058C441.45 346.202 441.392 346.339 441.29 346.439C441.187 346.54 441.049 346.596 440.906 346.594H440.898Z" fill="#91B3FA"/>
<path d="M230.99 355.502C230.002 355.502 229.035 355.209 228.213 354.66C227.391 354.111 226.751 353.331 226.372 352.419C225.994 351.506 225.895 350.501 226.088 349.532C226.281 348.563 226.757 347.673 227.456 346.975C228.155 346.276 229.046 345.8 230.015 345.608C230.985 345.415 231.99 345.514 232.903 345.892C233.816 346.27 234.597 346.91 235.146 347.732C235.696 348.553 235.989 349.519 235.989 350.507C235.987 351.831 235.46 353.101 234.523 354.038C233.586 354.974 232.316 355.501 230.99 355.502ZM230.99 346.595C230.216 346.595 229.459 346.824 228.816 347.254C228.172 347.684 227.67 348.295 227.374 349.01C227.078 349.725 227 350.511 227.151 351.27C227.302 352.029 227.675 352.726 228.222 353.273C228.77 353.82 229.467 354.193 230.227 354.344C230.986 354.495 231.773 354.417 232.488 354.121C233.204 353.825 233.815 353.324 234.245 352.68C234.675 352.037 234.905 351.281 234.905 350.507C234.904 349.47 234.491 348.475 233.757 347.742C233.023 347.009 232.028 346.596 230.99 346.595Z" fill="#91B3FA"/>
<path d="M319.486 428.115H153.025C148.504 428.115 145.108 424.897 145.981 421.441L148.117 412.999C148.757 410.46 151.554 408.596 154.873 408.494L315.347 403.489C318.815 403.38 321.885 405.22 322.641 407.859L326.484 421.299C327.494 424.8 324.082 428.115 319.486 428.115Z" fill="#264796"/>
<path d="M242.634 410.779C242.49 410.779 242.353 410.722 242.251 410.62C242.15 410.519 242.093 410.381 242.093 410.238C242.093 410.095 242.15 409.957 242.251 409.856C242.353 409.754 242.49 409.697 242.634 409.697L249.518 409.596C249.661 409.598 249.797 409.654 249.9 409.753C250.002 409.852 250.062 409.987 250.067 410.129C250.068 410.2 250.055 410.271 250.029 410.337C250.003 410.403 249.964 410.463 249.915 410.514C249.865 410.565 249.806 410.606 249.741 410.634C249.675 410.662 249.605 410.677 249.534 410.678L242.65 410.779H242.634Z" fill="#91B3FA"/>
<path d="M152.146 423.459C152.117 423.461 152.088 423.461 152.06 423.459C151.989 423.448 151.922 423.423 151.861 423.386C151.801 423.348 151.748 423.3 151.707 423.242C151.665 423.185 151.635 423.119 151.619 423.05C151.602 422.981 151.6 422.91 151.611 422.84L152.593 416.699C152.845 415.103 153.654 413.649 154.876 412.592C156.098 411.534 157.654 410.943 159.27 410.921L232.206 409.856H232.214C232.358 409.856 232.495 409.913 232.597 410.014C232.698 410.115 232.755 410.253 232.755 410.396C232.755 410.54 232.698 410.677 232.597 410.779C232.495 410.88 232.358 410.937 232.214 410.937L159.287 412C157.925 412.016 156.613 412.513 155.583 413.404C154.553 414.294 153.872 415.521 153.661 416.865L152.681 423.004C152.66 423.131 152.595 423.246 152.497 423.33C152.399 423.413 152.275 423.459 152.146 423.459Z" fill="#91B3FA"/>
<g opacity="0.53">
<path opacity="0.53" d="M239.644 138.432H229.375V319.433H239.644V138.432Z" fill="white"/>
<path opacity="0.53" d="M256.803 138.432H246.534V319.433H256.803V138.432Z" fill="white"/>
<path opacity="0.53" d="M273.961 138.432H263.692V319.433H273.961V138.432Z" fill="white"/>
<path opacity="0.53" d="M291.119 138.432H280.85V319.433H291.119V138.432Z" fill="white"/>
<path opacity="0.53" d="M308.275 138.432H298.006V319.433H308.275V138.432Z" fill="white"/>
<path opacity="0.53" d="M325.433 138.432H315.164V319.433H325.433V138.432Z" fill="white"/>
<path opacity="0.53" d="M342.591 138.432H332.322V319.433H342.591V138.432Z" fill="white"/>
</g>
<path d="M239.644 224.708H229.375V319.433H239.644V224.708Z" fill="url(#paint1_linear)"/>
<path d="M256.803 257.264H246.534V319.433H256.803V257.264Z" fill="url(#paint2_linear)"/>
<path d="M273.961 176.805H263.692V319.433H273.961V176.805Z" fill="url(#paint3_linear)"/>
<path d="M291.119 285.169H280.85V319.435H291.119V285.169Z" fill="url(#paint4_linear)"/>
<path d="M308.275 195.873H298.006V319.433H308.275V195.873Z" fill="url(#paint5_linear)"/>
<path d="M325.433 217.267H315.164V319.433H325.433V217.267Z" fill="url(#paint6_linear)"/>
<path d="M342.591 240.521H332.322V319.433H342.591V240.521Z" fill="url(#paint7_linear)"/>
<path opacity="0.57" d="M60.02 130.161C55.0863 130.161 50.2634 131.623 46.1612 134.362C42.0589 137.102 38.8616 140.995 36.9736 145.55C35.0855 150.106 34.5915 155.118 35.554 159.954C36.5166 164.79 38.8924 169.232 42.381 172.718C45.8697 176.205 50.3145 178.579 55.1535 179.541C59.9924 180.503 65.008 180.009 69.5662 178.123C74.1244 176.236 78.0203 173.04 80.7613 168.941C83.5023 164.841 84.9654 160.021 84.9654 155.091C84.9654 151.817 84.3201 148.575 83.0665 145.55C81.8129 142.526 79.9754 139.778 77.659 137.463C75.3427 135.148 72.5927 133.311 69.5662 132.059C66.5397 130.806 63.2959 130.161 60.02 130.161ZM60.02 169.294C57.2091 169.294 54.4614 168.461 52.1242 166.9C49.787 165.339 47.9654 163.121 46.8897 160.526C45.814 157.931 45.5326 155.075 46.081 152.32C46.6293 149.565 47.9829 147.034 49.9705 145.047C51.9581 143.061 54.4905 141.708 57.2474 141.16C60.0043 140.612 62.8619 140.894 65.4588 141.969C68.0557 143.044 70.2754 144.864 71.837 147.2C73.3987 149.535 74.2322 152.281 74.2322 155.091C74.2322 158.858 72.7349 162.47 70.0696 165.134C67.4043 167.797 63.7893 169.294 60.02 169.294Z" fill="white"/>
<path d="M99.2852 149.607H25.1841V180.947H99.2852V149.607Z" fill="url(#paint8_linear)"/>
<path opacity="0.57" d="M120.83 130.161C115.896 130.161 111.073 131.624 106.971 134.363C102.869 137.103 99.6722 140.996 97.7844 145.552C95.8966 150.107 95.4028 155.119 96.3655 159.955C97.3282 164.791 99.7042 169.233 103.193 172.719C106.682 176.205 111.126 178.579 115.965 179.541C120.804 180.503 125.82 180.009 130.378 178.122C134.936 176.235 138.832 173.04 141.573 168.941C144.314 164.841 145.777 160.021 145.777 155.091C145.777 151.817 145.131 148.575 143.878 145.55C142.624 142.525 140.786 139.777 138.47 137.462C136.153 135.147 133.403 133.311 130.376 132.058C127.35 130.805 124.106 130.161 120.83 130.161ZM120.83 169.294C118.019 169.294 115.271 168.461 112.934 166.9C110.597 165.339 108.775 163.121 107.699 160.526C106.624 157.931 106.342 155.075 106.891 152.32C107.439 149.565 108.793 147.034 110.78 145.047C112.768 143.061 115.3 141.708 118.057 141.16C120.814 140.612 123.672 140.894 126.269 141.969C128.865 143.044 131.085 144.864 132.647 147.2C134.208 149.535 135.042 152.281 135.042 155.091C135.042 158.858 133.545 162.47 130.879 165.134C128.214 167.797 124.599 169.294 120.83 169.294Z" fill="white"/>
<path d="M160.095 137.495H85.9941V180.948H160.095V137.495Z" fill="url(#paint9_linear)"/>
<path opacity="0.57" d="M181.641 130.161C176.707 130.161 171.884 131.623 167.782 134.362C163.68 137.102 160.482 140.995 158.594 145.55C156.706 150.106 156.212 155.118 157.175 159.954C158.137 164.79 160.513 169.232 164.002 172.718C167.49 176.205 171.935 178.579 176.774 179.541C181.613 180.503 186.629 180.009 191.187 178.123C195.745 176.236 199.641 173.04 202.382 168.941C205.123 164.841 206.586 160.021 206.586 155.091C206.586 151.817 205.941 148.575 204.687 145.55C203.434 142.526 201.596 139.778 199.28 137.463C196.963 135.148 194.213 133.311 191.187 132.059C188.16 130.806 184.917 130.161 181.641 130.161ZM181.641 169.294C178.83 169.294 176.082 168.461 173.745 166.9C171.408 165.339 169.586 163.121 168.51 160.526C167.435 157.931 167.153 155.075 167.702 152.32C168.25 149.565 169.604 147.034 171.591 145.047C173.579 143.061 176.111 141.708 178.868 141.16C181.625 140.612 184.483 140.894 187.079 141.969C189.676 143.044 191.896 144.864 193.458 147.2C195.019 149.535 195.853 152.281 195.853 155.091C195.853 158.858 194.356 162.47 191.69 165.134C189.025 167.797 185.41 169.294 181.641 169.294Z" fill="white"/>
<path d="M220.906 165.278H146.805V180.947H220.906V165.278Z" fill="url(#paint10_linear)"/>
<path opacity="0.44" d="M200.797 320.435L40.7775 319.233C39.2609 319.223 37.8102 318.613 36.7419 317.537C35.6736 316.461 35.0742 315.007 35.0747 313.491V231.329C35.0745 230.575 35.223 229.828 35.5116 229.131C35.8003 228.435 36.2235 227.801 36.7571 227.268C37.2907 226.735 37.9242 226.311 38.6215 226.023C39.3187 225.734 40.066 225.585 40.8207 225.585H200.84C201.595 225.585 202.342 225.734 203.039 226.023C203.737 226.311 204.37 226.735 204.904 227.268C205.437 227.801 205.861 228.435 206.149 229.131C206.438 229.828 206.586 230.575 206.586 231.329V314.689C206.587 315.448 206.437 316.198 206.146 316.898C205.854 317.598 205.427 318.233 204.889 318.767C204.351 319.302 203.712 319.724 203.01 320.01C202.307 320.296 201.555 320.441 200.797 320.435Z" fill="white"/>
<path opacity="0.44" d="M175.977 262.681L155.399 240.94L125.895 273.01L105.078 250.559L85.5452 272.617L70.5725 254.438L41.0659 285.14V307.343C41.0655 308.753 41.6229 310.106 42.6165 311.106C43.6102 312.107 44.9595 312.674 46.3701 312.684L195.198 313.804C195.904 313.809 196.603 313.675 197.256 313.409C197.909 313.142 198.503 312.75 199.003 312.253C199.504 311.756 199.901 311.166 200.172 310.515C200.443 309.864 200.583 309.167 200.583 308.462V248.062L175.977 262.681Z" fill="white"/>
<path d="M176.643 262.078H176.102V313.803H176.643V262.078Z" fill="white"/>
<path d="M155.67 240.94H155.129V313.503H155.67V240.94Z" fill="white"/>
<path d="M126.166 272.619H125.625V313.282H126.166V272.619Z" fill="white"/>
<path d="M105.9 251.356H105.359V313.281H105.9V251.356Z" fill="white"/>
<path d="M85.8221 271.96H85.281V313.282H85.8221V271.96Z" fill="white"/>
<path d="M71.1666 252.899H70.6255V312.886H71.1666V252.899Z" fill="white"/>
<path d="M75.0736 254.629C76.0292 252.324 74.9337 249.681 72.6267 248.726C70.3198 247.771 67.675 248.865 66.7195 251.171C65.7639 253.476 66.8594 256.119 69.1663 257.074C71.4733 258.029 74.1181 256.935 75.0736 254.629Z" fill="url(#paint11_linear)"/>
<path d="M88.5364 271.96C88.5367 272.549 88.3622 273.125 88.035 273.614C87.7078 274.104 87.2426 274.486 86.6982 274.712C86.1538 274.937 85.5547 274.997 84.9766 274.882C84.3985 274.767 83.8675 274.484 83.4506 274.067C83.0338 273.651 82.7499 273.12 82.6348 272.543C82.5197 271.965 82.5786 271.366 82.804 270.822C83.0295 270.278 83.4114 269.813 83.9014 269.486C84.3914 269.158 84.9675 268.984 85.5569 268.984C86.3468 268.984 87.1044 269.297 87.6631 269.855C88.2218 270.413 88.5359 271.17 88.5364 271.96Z" fill="url(#paint12_linear)"/>
<path d="M108.608 251.36C108.608 251.948 108.433 252.524 108.106 253.013C107.779 253.503 107.314 253.884 106.77 254.109C106.225 254.335 105.627 254.393 105.049 254.279C104.471 254.164 103.941 253.88 103.524 253.464C103.108 253.048 102.824 252.518 102.709 251.94C102.594 251.363 102.653 250.765 102.879 250.221C103.104 249.677 103.486 249.212 103.976 248.885C104.465 248.558 105.041 248.384 105.63 248.384C106.42 248.384 107.177 248.698 107.735 249.256C108.294 249.814 108.607 250.571 108.608 251.36Z" fill="url(#paint13_linear)"/>
<path d="M128.881 272.619C128.881 273.207 128.706 273.783 128.379 274.272C128.051 274.762 127.586 275.143 127.042 275.368C126.498 275.594 125.899 275.652 125.322 275.538C124.744 275.423 124.213 275.139 123.797 274.723C123.381 274.307 123.097 273.777 122.982 273.199C122.867 272.622 122.926 272.024 123.151 271.48C123.377 270.936 123.759 270.471 124.248 270.144C124.738 269.817 125.314 269.643 125.903 269.643C126.692 269.643 127.45 269.957 128.008 270.515C128.566 271.073 128.88 271.83 128.881 272.619Z" fill="url(#paint14_linear)"/>
<path d="M158.379 240.941C158.379 241.53 158.204 242.105 157.877 242.595C157.55 243.085 157.085 243.467 156.54 243.693C155.996 243.918 155.397 243.977 154.819 243.863C154.241 243.748 153.71 243.465 153.293 243.048C152.876 242.632 152.592 242.101 152.477 241.524C152.362 240.946 152.421 240.347 152.646 239.803C152.872 239.259 153.254 238.794 153.744 238.467C154.234 238.139 154.81 237.965 155.399 237.965C156.189 237.965 156.947 238.278 157.505 238.836C158.064 239.394 158.378 240.151 158.379 240.941Z" fill="url(#paint15_linear)"/>
<path d="M179.352 262.079C179.352 262.668 179.177 263.244 178.85 263.734C178.523 264.223 178.057 264.605 177.513 264.83C176.968 265.056 176.369 265.115 175.791 265C175.213 264.885 174.682 264.601 174.266 264.185C173.849 263.768 173.565 263.238 173.45 262.66C173.335 262.083 173.394 261.484 173.62 260.94C173.845 260.396 174.227 259.931 174.717 259.604C175.207 259.276 175.783 259.102 176.373 259.102C177.163 259.102 177.921 259.416 178.479 259.974C179.038 260.532 179.352 261.29 179.352 262.079Z" fill="url(#paint16_linear)"/>
<g opacity="0.48">
<path opacity="0.48" d="M81.3121 211.907H37.4444C35.6097 211.907 34.1223 212.942 34.1223 214.219C34.1223 215.495 35.6097 216.531 37.4444 216.531H81.3121C83.1468 216.531 84.6342 215.495 84.6342 214.219C84.6342 212.942 83.1468 211.907 81.3121 211.907Z" fill="white"/>
<path opacity="0.48" d="M81.3121 201.667H37.4444C35.6097 201.667 34.1223 202.702 34.1223 203.98C34.1223 205.259 35.6097 206.292 37.4444 206.292H81.3121C83.1468 206.292 84.6342 205.257 84.6342 203.98C84.6342 202.703 83.1468 201.667 81.3121 201.667Z" fill="white"/>
<path opacity="0.48" d="M81.3121 191.428H37.4444C35.6097 191.428 34.1223 192.464 34.1223 193.74C34.1223 195.017 35.6097 196.054 37.4444 196.054H81.3121C83.1468 196.054 84.6342 195.019 84.6342 193.74C84.6342 192.462 83.1468 191.428 81.3121 191.428Z" fill="white"/>
</g>
<g opacity="0.48">
<path opacity="0.48" d="M142.288 211.907H98.4202C96.5855 211.907 95.0981 212.942 95.0981 214.219C95.0981 215.495 96.5855 216.531 98.4202 216.531H142.288C144.123 216.531 145.61 215.495 145.61 214.219C145.61 212.942 144.123 211.907 142.288 211.907Z" fill="white"/>
<path opacity="0.48" d="M142.288 201.667H98.4202C96.5855 201.667 95.0981 202.702 95.0981 203.98C95.0981 205.259 96.5855 206.292 98.4202 206.292H142.288C144.123 206.292 145.61 205.257 145.61 203.98C145.61 202.703 144.123 201.667 142.288 201.667Z" fill="white"/>
<path opacity="0.48" d="M142.288 191.428H98.4202C96.5855 191.428 95.0981 192.464 95.0981 193.74C95.0981 195.017 96.5855 196.054 98.4202 196.054H142.288C144.123 196.054 145.61 195.019 145.61 193.74C145.61 192.462 144.123 191.428 142.288 191.428Z" fill="white"/>
</g>
<g opacity="0.48">
<path opacity="0.48" d="M203.264 211.907H159.397C157.562 211.907 156.075 212.942 156.075 214.219C156.075 215.495 157.562 216.531 159.397 216.531H203.264C205.099 216.531 206.587 215.495 206.587 214.219C206.587 212.942 205.099 211.907 203.264 211.907Z" fill="white"/>
<path opacity="0.48" d="M203.264 201.667H159.397C157.562 201.667 156.075 202.702 156.075 203.98C156.075 205.259 157.562 206.292 159.397 206.292H203.264C205.099 206.292 206.587 205.257 206.587 203.98C206.587 202.703 205.099 201.667 203.264 201.667Z" fill="white"/>
<path opacity="0.48" d="M203.264 191.428H159.397C157.562 191.428 156.075 192.464 156.075 193.74C156.075 195.017 157.562 196.054 159.397 196.054H203.264C205.099 196.054 206.587 195.019 206.587 193.74C206.587 192.462 205.099 191.428 203.264 191.428Z" fill="white"/>
</g>
<path d="M403.208 235.873C411.134 227.951 411.134 215.108 403.208 207.186C395.281 199.264 382.429 199.264 374.503 207.186C366.576 215.108 366.576 227.951 374.503 235.873C382.429 243.795 395.281 243.795 403.208 235.873Z" fill="url(#paint17_linear)"/>
<path d="M400.916 217.241C401.978 219.825 402.181 222.682 401.495 225.39C400.809 228.098 399.27 230.514 397.105 232.281C394.941 234.049 392.265 235.074 389.473 235.206C386.681 235.338 383.92 234.57 381.598 233.014C379.276 231.459 377.516 229.199 376.577 226.568C375.638 223.937 375.57 221.074 376.384 218.401C377.197 215.729 378.848 213.388 381.094 211.725C383.339 210.061 386.06 209.163 388.856 209.163C389.077 209.163 389.296 209.163 389.514 209.181V205.878C389.3 205.869 389.081 205.864 388.856 205.864C385.352 205.866 381.942 206.994 379.129 209.082C376.317 211.17 374.251 214.106 373.236 217.457C372.221 220.808 372.312 224.397 373.494 227.693C374.677 230.989 376.889 233.817 379.803 235.76C382.718 237.703 386.18 238.658 389.68 238.484C393.179 238.309 396.529 237.015 399.236 234.791C401.942 232.568 403.862 229.534 404.71 226.137C405.559 222.74 405.292 219.16 403.948 215.926L400.916 217.241Z" fill="#91B3FA"/>
<path opacity="0.5" d="M405.536 250.4H372.459C371.461 250.4 370.504 250.796 369.798 251.501C369.093 252.207 368.696 253.163 368.696 254.16C368.696 255.157 369.093 256.114 369.798 256.819C370.504 257.524 371.461 257.92 372.459 257.92H405.536C406.533 257.92 407.49 257.524 408.196 256.819C408.902 256.114 409.298 255.157 409.298 254.16C409.298 253.163 408.902 252.207 408.196 251.501C407.49 250.796 406.533 250.4 405.536 250.4Z" fill="white"/>
<path d="M403.122 170.678C411.049 162.756 411.049 149.913 403.122 141.991C395.195 134.069 382.344 134.069 374.417 141.991C366.49 149.913 366.49 162.756 374.417 170.678C382.344 178.6 395.195 178.6 403.122 170.678Z" fill="url(#paint18_linear)"/>
<path d="M395.667 168.02C393.956 169.097 392.019 169.761 390.008 169.961C387.997 170.161 385.966 169.891 384.078 169.172C382.189 168.453 380.493 167.305 379.124 165.818C377.756 164.332 376.752 162.548 376.192 160.607C375.632 158.666 375.531 156.622 375.897 154.635C376.263 152.649 377.087 150.775 378.302 149.161C379.518 147.547 381.092 146.238 382.901 145.336C384.71 144.435 386.703 143.967 388.725 143.968C388.944 143.968 389.163 143.968 389.381 143.985V140.681C389.163 140.681 388.944 140.668 388.725 140.668C386.198 140.668 383.706 141.254 381.444 142.379C379.182 143.504 377.211 145.139 375.688 147.153C374.165 149.168 373.13 151.508 372.664 153.99C372.199 156.472 372.316 159.028 373.006 161.457C373.696 163.886 374.94 166.122 376.641 167.99C378.342 169.857 380.453 171.305 382.808 172.219C385.163 173.134 387.698 173.49 390.215 173.259C392.731 173.029 395.159 172.219 397.309 170.892L395.667 168.02Z" fill="#91B3FA"/>
<path opacity="0.5" d="M405.626 185.209H372.555C371.557 185.209 370.6 185.605 369.895 186.31C369.189 187.016 368.793 187.972 368.793 188.969C368.793 189.966 369.189 190.923 369.895 191.628C370.6 192.333 371.557 192.729 372.555 192.729H405.63C406.628 192.729 407.585 192.333 408.291 191.628C408.996 190.923 409.393 189.966 409.393 188.969C409.393 187.972 408.996 187.016 408.291 186.31C407.585 185.605 406.628 185.209 405.63 185.209H405.626Z" fill="white"/>
<path opacity="0.91" d="M403.281 301.399C411.208 293.477 411.208 280.633 403.281 272.712C395.354 264.79 382.502 264.79 374.576 272.712C366.649 280.633 366.649 293.477 374.576 301.399C382.502 309.32 395.354 309.32 403.281 301.399Z" fill="white"/>
<path d="M399.983 294.382C398.719 296.239 396.995 297.739 394.98 298.735C392.965 299.73 390.726 300.188 388.482 300.064C386.237 299.94 384.063 299.238 382.17 298.026C380.277 296.815 378.73 295.134 377.679 293.148C376.627 291.163 376.108 288.939 376.17 286.693C376.233 284.447 376.875 282.256 378.035 280.332C379.195 278.407 380.834 276.816 382.791 275.711C384.748 274.606 386.958 274.026 389.206 274.027C389.426 274.027 389.645 274.027 389.863 274.043V270.74C389.645 270.732 389.426 270.726 389.206 270.726C386.393 270.724 383.627 271.449 381.176 272.83C378.725 274.21 376.672 276.2 375.216 278.606C373.761 281.012 372.951 283.753 372.866 286.563C372.782 289.373 373.424 292.158 374.732 294.647C376.04 297.137 377.969 299.246 380.333 300.772C382.696 302.298 385.413 303.188 388.222 303.356C391.03 303.524 393.834 302.964 396.363 301.732C398.891 300.499 401.059 298.635 402.655 296.319L399.983 294.382Z" fill="url(#paint19_linear)"/>
<path opacity="0.5" d="M372.395 322.782H405.47C406.468 322.782 407.425 322.386 408.131 321.681C408.836 320.976 409.233 320.019 409.233 319.022C409.233 318.025 408.836 317.068 408.131 316.363C407.425 315.658 406.468 315.262 405.47 315.262H372.395C371.397 315.262 370.44 315.658 369.735 316.363C369.029 317.068 368.633 318.025 368.633 319.022C368.633 320.019 369.029 320.976 369.735 321.681C370.44 322.386 371.397 322.782 372.395 322.782Z" fill="white"/>
<path d="M395.93 433.327C395.93 433.327 396.806 438.287 397.235 443.188C397.273 443.643 397.219 444.101 397.075 444.535C396.932 444.968 396.702 445.368 396.4 445.71C396.097 446.052 395.729 446.33 395.316 446.526C394.903 446.722 394.455 446.832 393.999 446.851C387.462 447.123 373.479 447.651 368.461 447.428C368.287 447.418 368.117 447.367 367.967 447.279C367.816 447.191 367.688 447.068 367.595 446.921C367.501 446.773 367.443 446.606 367.427 446.432C367.411 446.258 367.436 446.083 367.501 445.921C367.735 445.334 368.186 444.859 368.761 444.595L391.858 433.987L395.93 433.327Z" fill="#264796"/>
<path d="M396.646 430.415L395.944 436.343C395.944 436.343 391.896 438.225 389.133 436.105L390.809 429.5L396.646 430.415Z" fill="url(#paint20_linear)"/>
<path d="M396.118 318.969C396.422 320.517 397.749 396.219 389.651 430.144C389.585 430.411 389.618 430.694 389.742 430.94C389.866 431.185 390.074 431.379 390.329 431.485C392.436 432.298 394.665 432.751 396.923 432.824C397.363 432.838 397.794 432.706 398.151 432.448C398.507 432.19 398.767 431.822 398.891 431.4C401.206 423.529 412.296 384.093 413.743 346.421C415.36 304.325 413.743 344.981 413.743 344.981L412.796 318.96L396.118 318.969Z" fill="#5775BB"/>
<path d="M422.506 435.913C422.506 435.913 423.901 438.414 425.25 445.062C425.309 445.345 425.308 445.637 425.246 445.919C425.184 446.202 425.064 446.468 424.893 446.701C424.722 446.934 424.503 447.128 424.252 447.271C424.001 447.415 423.723 447.503 423.435 447.532C421.277 447.743 417.953 448.012 415.29 447.998C415.001 447.997 414.715 447.935 414.451 447.816C414.187 447.696 413.951 447.523 413.759 447.307C413.567 447.09 413.422 446.836 413.335 446.56C413.248 446.284 413.221 445.992 413.254 445.705C413.549 443.278 414.468 439.305 417.306 436.194L422.506 435.913Z" fill="#264796"/>
<path d="M423.725 428.287L422.081 437.247C422.081 437.247 420.454 438.455 417.238 437.58L418.022 427.934L423.725 428.287Z" fill="url(#paint21_linear)"/>
<path d="M428.168 321.293C434.79 361.234 426.727 420.013 424.005 431.515C423.925 431.86 423.744 432.173 423.486 432.415C423.228 432.657 422.904 432.818 422.555 432.877C421.343 433.078 419.353 433.242 417.376 432.67C417.045 432.574 416.752 432.376 416.54 432.104C416.328 431.832 416.206 431.501 416.192 431.157C415.827 421.856 416.484 364.757 410.314 342.197C410.001 341.054 409.302 340.055 408.336 339.368L396.359 330.859L395.44 317.099L428.168 321.293Z" fill="#5775BB"/>
<path d="M385.97 245.611C405.814 245.291 427.713 250.819 427.713 250.819C433.629 285.315 428.747 325.104 428.747 325.104C413.378 329.131 396.051 322.641 396.051 322.641C393.49 308.224 381.583 267.644 381.583 267.644C371.886 266.441 363.898 263.644 357.32 259.95C362.337 254.137 364.704 246.74 365.732 242.369C372.747 244.548 379.848 245.712 385.97 245.611Z" fill="url(#paint22_linear)"/>
<path d="M327.347 216.398C329.297 214.044 331.764 215.158 331.764 215.158C334.684 227.478 349.998 237.482 365.731 242.369C364.703 246.74 362.337 254.137 357.319 259.95C331.21 245.279 327.347 216.398 327.347 216.398Z" fill="url(#paint23_linear)"/>
<path d="M327.821 216.996C327.616 217.636 329.979 218.63 331.37 215.98C331.418 214.71 332.192 209.26 331.431 208.232C327.386 202.72 319.542 195.811 319.542 195.811C318.218 197.118 319.31 198.403 319.31 198.403L323.114 202.363C322.314 203.803 321.353 205.014 320.894 206.752C320.559 208.079 320.75 209.484 321.425 210.675C322.093 211.876 323.004 213.44 323.865 214.664C325.495 216.979 327.821 216.996 327.821 216.996Z" fill="url(#paint24_linear)"/>
<path d="M324.779 204.934L328.246 207.871L329.334 210.796L326.243 214.223C326.243 214.223 325.204 208.42 324.432 207.164C323.66 205.908 324.059 205.3 324.779 204.934Z" fill="url(#paint25_linear)"/>
<path d="M420.105 270.024L427.718 250.824C427.718 250.824 446.254 263.411 449.304 279.371C445.801 279.629 439.428 280.539 433.188 283.691C431.813 276.145 420.105 270.024 420.105 270.024Z" fill="url(#paint26_linear)"/>
<path d="M403.902 288.094C403.902 288.094 424.715 299.849 431.737 289.812C433.195 287.732 433.543 285.652 433.178 283.681C439.422 280.534 445.79 279.623 449.293 279.361C450.212 284.171 449.726 289.281 446.892 294.46C434.591 316.948 401.137 293.217 401.137 293.217L403.902 288.094Z" fill="url(#paint27_linear)"/>
<path d="M406.402 302.966L395.043 263.323C394.981 263.103 394.854 262.906 394.68 262.758C394.506 262.61 394.292 262.517 394.065 262.491C392.007 262.251 386.044 261.577 379.158 260.995C370.865 260.294 361.235 259.726 355.479 260.209C355.29 260.224 355.108 260.285 354.948 260.387C354.788 260.488 354.655 260.628 354.562 260.792C354.468 260.957 354.416 261.142 354.411 261.331C354.405 261.52 354.446 261.708 354.53 261.878C357.802 268.496 371.265 295.412 378.007 304.23C378.116 304.374 378.258 304.491 378.42 304.571C378.583 304.65 378.762 304.691 378.943 304.689L405.297 304.444C405.476 304.443 405.652 304.4 405.812 304.32C405.971 304.239 406.11 304.122 406.217 303.979C406.324 303.836 406.396 303.67 406.428 303.494C406.46 303.319 406.451 303.138 406.402 302.966Z" fill="#264796"/>
<path d="M377.981 257.558L369.746 256.187C369.645 256.17 369.542 256.18 369.447 256.214C369.351 256.249 369.266 256.308 369.2 256.385C369.133 256.462 369.088 256.555 369.068 256.655C369.048 256.755 369.054 256.858 369.086 256.955L369.902 259.424C369.937 259.528 370 259.622 370.085 259.692C370.17 259.763 370.273 259.808 370.383 259.824L378.308 260.881C378.403 260.894 378.499 260.883 378.589 260.85C378.679 260.817 378.759 260.763 378.824 260.692C378.888 260.622 378.934 260.536 378.959 260.444C378.983 260.351 378.984 260.254 378.963 260.161L378.457 258.006C378.43 257.893 378.371 257.79 378.286 257.71C378.202 257.631 378.096 257.578 377.981 257.558Z" fill="url(#paint28_linear)"/>
<path d="M384.146 264.526L383.467 260.993C383.434 260.821 383.346 260.664 383.217 260.545C383.087 260.427 382.923 260.353 382.748 260.335L366.114 258.649C365.984 258.636 365.853 258.654 365.732 258.702C365.611 258.75 365.503 258.826 365.417 258.924C365.331 259.023 365.27 259.14 365.239 259.267C365.208 259.393 365.208 259.525 365.238 259.652L366.295 264.052C366.336 264.224 366.432 264.377 366.568 264.49C366.704 264.602 366.873 264.667 367.049 264.676L383.302 265.494C383.426 265.5 383.549 265.478 383.663 265.43C383.777 265.381 383.879 265.308 383.96 265.215C384.041 265.121 384.1 265.011 384.132 264.892C384.165 264.772 384.169 264.647 384.146 264.526Z" fill="url(#paint29_linear)"/>
<path d="M403.658 293.388C403.658 293.388 405.24 286.886 404.602 284.579C403.965 282.271 402.726 279.299 398.605 279.964C394.484 280.63 389.62 282.364 389.62 282.364C389.62 282.364 389.867 285.369 392.998 284.399L391.056 285.902C391.056 285.902 391.333 288.302 393.98 287.022L392.174 289.014C392.174 289.014 393.309 290.99 395.256 289.723C397.203 288.455 398.136 294.171 403.658 293.388Z" fill="url(#paint30_linear)"/>
<path d="M406.072 229.51L412.386 247.76C412.439 247.907 412.438 248.068 412.383 248.215C412.328 248.362 412.222 248.484 412.085 248.56C410.364 249.51 404.163 252.259 396.69 247.524C396.304 247.283 395.976 246.96 395.73 246.578C395.483 246.196 395.324 245.764 395.263 245.313L393.217 229.518L406.072 229.51Z" fill="url(#paint31_linear)"/>
<path d="M391.936 210.659C391.745 210.923 385.811 231.593 385.811 231.593L397.693 234.728L406.23 215.973C406.23 215.973 395.119 206.24 391.936 210.659Z" fill="url(#paint32_linear)"/>
<path d="M401.512 217.359C401.655 217.588 401.744 217.846 401.772 218.114C401.8 218.383 401.765 218.654 401.672 218.907L398.005 228.987C397.951 229.139 397.875 229.283 397.78 229.414C397.251 230.14 395.378 232.313 393.215 230.267C391.368 228.524 389.646 226.947 388.036 226.471C387.812 226.406 387.577 226.387 387.345 226.413C387.114 226.439 386.889 226.512 386.686 226.625C386.482 226.739 386.303 226.892 386.159 227.076C386.015 227.259 385.909 227.469 385.847 227.694C385.298 229.635 384.269 233.575 383.846 237.204C383.798 237.643 383.916 238.084 384.178 238.44C384.44 238.795 384.826 239.04 385.26 239.124C387.632 239.588 392.295 240.356 396.256 240.14C396.575 240.123 396.883 240.02 397.148 239.841C397.413 239.663 397.624 239.415 397.759 239.126C398.977 236.532 402.424 229.273 403.711 227.374C404.909 225.614 407.756 225.636 409.057 225.751C409.301 225.773 409.547 225.745 409.779 225.667C410.012 225.589 410.225 225.464 410.407 225.3C411.512 224.305 413.332 222.004 410.718 219.22C410.407 218.881 410.241 218.434 410.256 217.974C410.271 217.515 410.465 217.079 410.798 216.761C412.016 215.572 413.199 213.561 411.211 211.041C409.2 208.497 406.539 208.75 404.807 209.311C404.431 209.44 404.024 209.442 403.646 209.319C403.269 209.196 402.942 208.953 402.714 208.628C402.603 208.458 402.45 208.32 402.269 208.227C402.088 208.134 401.886 208.09 401.683 208.099C401.456 208.103 401.23 208.061 401.018 207.977C400.807 207.893 400.615 207.768 400.452 207.609C400.29 207.449 400.161 207.26 400.073 207.05C399.985 206.84 399.94 206.616 399.939 206.388C399.939 204.727 399.299 202.695 396.473 201.787C391.286 200.119 387.988 205.111 387.637 208.857C387.287 212.603 393.009 214.091 396.387 213.87C398.868 213.699 400.71 216.083 401.512 217.359Z" fill="#264796"/>
<path d="M402.325 231.081C402.325 231.081 403.226 224.582 405.938 224.287C408.65 223.993 411.265 226.244 408.538 229.872C405.146 234.384 402.325 231.081 402.325 231.081Z" fill="url(#paint33_linear)"/>
<defs>
<linearGradient id="paint0_linear" x1="482.658" y1="496.664" x2="180.63" y2="174.949" gradientUnits="userSpaceOnUse">
<stop stop-color="#DAE3FE"/>
<stop offset="1" stop-color="#E9EFFD"/>
</linearGradient>
<linearGradient id="paint1_linear" x1="251.895" y1="238.16" x2="297.49" y2="149.112" gradientUnits="userSpaceOnUse">
<stop stop-color="#4F52FF"/>
<stop offset="1" stop-color="#4042E2"/>
</linearGradient>
<linearGradient id="paint2_linear" x1="17698.7" y1="96816.2" x2="30452.6" y2="92704.5" gradientUnits="userSpaceOnUse">
<stop stop-color="#4F52FF"/>
<stop offset="1" stop-color="#4042E2"/>
</linearGradient>
<linearGradient id="paint3_linear" x1="17539.7" y1="220447" x2="31346.6" y2="218507" gradientUnits="userSpaceOnUse">
<stop stop-color="#4F52FF"/>
<stop offset="1" stop-color="#4042E2"/>
</linearGradient>
<linearGradient id="paint4_linear" x1="19840" y1="57106.4" x2="30330.3" y2="50970.2" gradientUnits="userSpaceOnUse">
<stop stop-color="#4F52FF"/>
<stop offset="1" stop-color="#4042E2"/>
</linearGradient>
<linearGradient id="paint5_linear" x1="19565.7" y1="203295" x2="33284.3" y2="201070" gradientUnits="userSpaceOnUse">
<stop stop-color="#4F52FF"/>
<stop offset="1" stop-color="#4042E2"/>
</linearGradient>
<linearGradient id="paint6_linear" x1="20733.2" y1="174015" x2="34290.5" y2="171355" gradientUnits="userSpaceOnUse">
<stop stop-color="#4F52FF"/>
<stop offset="1" stop-color="#4042E2"/>
</linearGradient>
<linearGradient id="paint7_linear" x1="21924.9" y1="139104" x2="35151" y2="135744" gradientUnits="userSpaceOnUse">
<stop stop-color="#4F52FF"/>
<stop offset="1" stop-color="#4042E2"/>
</linearGradient>
<linearGradient id="paint8_linear" x1="167.711" y1="9.05346" x2="29.8085" y2="213.562" gradientUnits="userSpaceOnUse">
<stop stop-color="#FF928E"/>
<stop offset="1" stop-color="#FE7062"/>
</linearGradient>
<linearGradient id="paint9_linear" x1="95749.1" y1="9734.05" x2="68108.9" y2="79592.3" gradientUnits="userSpaceOnUse">
<stop stop-color="#FF928E"/>
<stop offset="1" stop-color="#FE7062"/>
</linearGradient>
<linearGradient id="paint10_linear" x1="118133" y1="6810.74" x2="114059" y2="35363.4" gradientUnits="userSpaceOnUse">
<stop stop-color="#FF928E"/>
<stop offset="1" stop-color="#FE7062"/>
</linearGradient>
<linearGradient id="paint11_linear" x1="74.6785" y1="241.473" x2="55.7298" y2="298.8" gradientUnits="userSpaceOnUse">
<stop stop-color="#FEBBBA"/>
<stop offset="1" stop-color="#FF928E"/>
</linearGradient>
<linearGradient id="paint12_linear" x1="3359.53" y1="10111.3" x2="2894.89" y2="11516.9" gradientUnits="userSpaceOnUse">
<stop stop-color="#FEBBBA"/>
<stop offset="1" stop-color="#FF928E"/>
</linearGradient>
<linearGradient id="paint13_linear" x1="4124.74" y1="9318.87" x2="3660.37" y2="10723.7" gradientUnits="userSpaceOnUse">
<stop stop-color="#FEBBBA"/>
<stop offset="1" stop-color="#FF928E"/>
</linearGradient>
<linearGradient id="paint14_linear" x1="4898.91" y1="10131.1" x2="4434.54" y2="11535.9" gradientUnits="userSpaceOnUse">
<stop stop-color="#FEBBBA"/>
<stop offset="1" stop-color="#FF928E"/>
</linearGradient>
<linearGradient id="paint15_linear" x1="6029.08" y1="8925.4" x2="5564.48" y2="10331" gradientUnits="userSpaceOnUse">
<stop stop-color="#FEBBBA"/>
<stop offset="1" stop-color="#FF928E"/>
</linearGradient>
<linearGradient id="paint16_linear" x1="6830.69" y1="9733.53" x2="6366.07" y2="11139.1" gradientUnits="userSpaceOnUse">
<stop stop-color="#4F52FF"/>
<stop offset="1" stop-color="#4042E2"/>
</linearGradient>
<linearGradient id="paint17_linear" x1="93820.5" y1="56372.2" x2="104113" y2="56372.2" gradientUnits="userSpaceOnUse">
<stop stop-color="#DAE3FE"/>
<stop offset="1" stop-color="#E9EFFD"/>
</linearGradient>
<linearGradient id="paint18_linear" x1="93797.8" y1="39776.2" x2="104091" y2="39776.2" gradientUnits="userSpaceOnUse">
<stop stop-color="#DAE3FE"/>
<stop offset="1" stop-color="#E9EFFD"/>
</linearGradient>
<linearGradient id="paint19_linear" x1="412.407" y1="265.046" x2="349.625" y2="324.664" gradientUnits="userSpaceOnUse">
<stop stop-color="#FDF53F"/>
<stop offset="1" stop-color="#D93C65"/>
</linearGradient>
<linearGradient id="paint20_linear" x1="-71216.3" y1="21046.8" x2="-71568.9" y2="21046.8" gradientUnits="userSpaceOnUse">
<stop stop-color="#FEBBBA"/>
<stop offset="1" stop-color="#FF928E"/>
</linearGradient>
<linearGradient id="paint21_linear" x1="-60207.2" y1="27389.6" x2="-60470.1" y2="27389.6" gradientUnits="userSpaceOnUse">
<stop stop-color="#FEBBBA"/>
<stop offset="1" stop-color="#FF928E"/>
</linearGradient>
<linearGradient id="paint22_linear" x1="-2.58036e+06" y1="-522166" x2="-2.49802e+06" y2="-499722" gradientUnits="userSpaceOnUse">
<stop stop-color="#FF928E"/>
<stop offset="1" stop-color="#FE7062"/>
</linearGradient>
<linearGradient id="paint23_linear" x1="-377574" y1="67071.9" x2="-386777" y2="67071.9" gradientUnits="userSpaceOnUse">
<stop stop-color="#FEBBBA"/>
<stop offset="1" stop-color="#FF928E"/>
</linearGradient>
<linearGradient id="paint24_linear" x1="120301" y1="31829" x2="124891" y2="37966.1" gradientUnits="userSpaceOnUse">
<stop stop-color="#FEBBBA"/>
<stop offset="1" stop-color="#FF928E"/>
</linearGradient>
<linearGradient id="paint25_linear" x1="-52218.2" y1="12484" x2="-52894.9" y2="11888" gradientUnits="userSpaceOnUse">
<stop stop-color="#FEBBBA"/>
<stop offset="1" stop-color="#FF928E"/>
</linearGradient>
<linearGradient id="paint26_linear" x1="-1.0254e+06" y1="-208763" x2="-992694" y2="-199683" gradientUnits="userSpaceOnUse">
<stop stop-color="#FF928E"/>
<stop offset="1" stop-color="#FE7062"/>
</linearGradient>
<linearGradient id="paint27_linear" x1="-452875" y1="45467.9" x2="-467614" y2="45467.9" gradientUnits="userSpaceOnUse">
<stop stop-color="#FEBBBA"/>
<stop offset="1" stop-color="#FF928E"/>
</linearGradient>
<linearGradient id="paint28_linear" x1="-96183.7" y1="7308.85" x2="-96101.2" y2="8072.52" gradientUnits="userSpaceOnUse">
<stop stop-color="#4F52FF"/>
<stop offset="1" stop-color="#4042E2"/>
</linearGradient>
<linearGradient id="paint29_linear" x1="-184749" y1="10969.6" x2="-184706" y2="11684.8" gradientUnits="userSpaceOnUse">
<stop stop-color="#4F52FF"/>
<stop offset="1" stop-color="#4042E2"/>
</linearGradient>
<linearGradient id="paint30_linear" x1="-144256" y1="24633.8" x2="-145686" y2="24633.8" gradientUnits="userSpaceOnUse">
<stop stop-color="#FEBBBA"/>
<stop offset="1" stop-color="#FF928E"/>
</linearGradient>
<linearGradient id="paint31_linear" x1="-182597" y1="31274.8" x2="-184901" y2="31274.8" gradientUnits="userSpaceOnUse">
<stop stop-color="#FEBBBA"/>
<stop offset="1" stop-color="#FF928E"/>
</linearGradient>
<linearGradient id="paint32_linear" x1="-152707" y1="-57640.8" x2="-151944" y2="-51805.5" gradientUnits="userSpaceOnUse">
<stop stop-color="#FEBBBA"/>
<stop offset="1" stop-color="#FF928E"/>
</linearGradient>
<linearGradient id="paint33_linear" x1="-52708.8" y1="-19865.7" x2="-52966.4" y2="-21193.6" gradientUnits="userSpaceOnUse">
<stop stop-color="#FEBBBA"/>
<stop offset="1" stop-color="#FF928E"/>
</linearGradient>
</defs>
</svg>
