<svg width="103" height="172" viewBox="0 0 103 172" fill="none" xmlns="http://www.w3.org/2000/svg">
<g clip-path="url(#clip0)">
<path d="M47.9057 130.833L52.6593 133.484C52.6593 133.484 58.3794 134.489 67.909 123.755C77.4387 113.021 101.617 89.9573 102.42 84.4413C103.224 78.9254 100.01 75.8135 96.099 76.319C92.1883 76.819 42.3262 106.91 42.3262 106.91L47.9057 130.833Z" fill="#D59870"/>
<path d="M86.772 35.8031C86.772 35.8031 95.515 29.3884 98.7121 33.4944C101.522 37.1062 98.9144 40.4147 96.1049 42.7233C93.2955 45.0319 88.5812 47.9359 86.0752 47.436C83.5636 46.9361 82.3611 39.016 86.772 35.8031Z" fill="#E8BB95"/>
<path d="M47.098 107.713H85.1829C88.9419 107.713 91.993 104.663 91.993 100.905V7.22354C91.993 3.23543 88.7565 0 84.7671 0H45.3955C41.097 0 37.6133 3.48258 37.6133 7.77401V98.2312C37.6133 103.472 41.8612 107.713 47.098 107.713Z" fill="#464646"/>
<path d="M89.7855 100.484C89.7855 103.202 87.5829 105.41 84.8577 105.41H44.75C42.0305 105.41 39.8223 103.208 39.8223 100.484V7.72339H89.7855V100.484Z" fill="#FCFCFA"/>
<path d="M76.3569 47.1076C76.3569 46.8032 76.173 46.5288 75.8914 46.4131L65.286 42.0563C65.1032 41.9812 64.8982 41.9812 64.7154 42.0563L54.1101 46.4131C53.8284 46.5288 53.6445 46.8032 53.6445 47.1076V60.8924C53.6445 61.1968 53.8284 61.4712 54.1101 61.5869L64.7154 65.9437C64.8963 66.018 65.0995 66.0196 65.2851 65.9436C65.2942 65.9406 64.8926 66.1053 75.8914 61.5869C76.173 61.4712 76.3569 61.1968 76.3569 60.8924V47.1076ZM65.0007 50.7158L61.0931 49.1105L69.5379 45.4265L73.7069 47.1392L65.0007 50.7158ZM55.1463 48.291L58.5177 49.676V53.5835C58.5177 53.9981 58.8539 54.3343 59.2685 54.3343C59.6832 54.3343 60.0194 53.9981 60.0194 53.5835V50.2929L64.2499 52.0308V64.1289L55.1463 60.3891V48.291ZM65.0007 43.5626L67.6037 44.6319L59.1588 48.3159L56.2945 47.1392L65.0007 43.5626ZM65.7516 52.0308L74.8552 48.291V60.3891L65.7516 64.1289V52.0308Z" fill="#264796"/>
<path d="M44.75 2.40967H84.8633C87.5829 2.40967 89.7911 4.61156 89.7911 7.33583V7.72902H39.8223V7.33583C39.8223 4.61156 42.0305 2.40967 44.75 2.40967Z" fill="#264796"/>
<path d="M84.3852 5.8194H86.1552C86.5541 5.8194 86.8744 5.49923 86.8744 5.10042V4.8308C86.8744 4.43199 86.5541 4.11182 86.1552 4.11182H84.3852C83.9863 4.11182 83.666 4.43199 83.666 4.8308V5.10042C83.666 5.49361 83.9863 5.8194 84.3852 5.8194Z" fill="#FCFCFA"/>
<path d="M80.1723 5.8194H81.9423C82.3412 5.8194 82.6615 5.49923 82.6615 5.10042V4.8308C82.6615 4.43199 82.3412 4.11182 81.9423 4.11182H80.1723C79.7734 4.11182 79.4531 4.43199 79.4531 4.8308V5.10042C79.4531 5.49361 79.7734 5.8194 80.1723 5.8194Z" fill="#FCFCFA"/>
<path d="M44.9575 5.8194H46.7275C47.1264 5.8194 47.4467 5.49923 47.4467 5.10042V4.8308C47.4467 4.43199 47.1264 4.11182 46.7275 4.11182H44.9575C44.5586 4.11182 44.2383 4.43199 44.2383 4.8308V5.10042C44.2383 5.49361 44.5586 5.8194 44.9575 5.8194Z" fill="#FCFCFA"/>
<path d="M57.2802 6.52144H72.5298C74.9123 6.52144 76.8452 4.58917 76.8452 2.20754V1.4043H52.9648V2.20754C52.9648 4.58917 54.8977 6.52144 57.2802 6.52144Z" fill="#464646"/>
<path d="M62.4885 3.51071H72.3384C72.6643 3.51071 72.9284 3.24671 72.9284 2.92092V2.69624C72.9284 2.37045 72.6643 2.10645 72.3384 2.10645H62.4885C62.1626 2.10645 61.8985 2.37045 61.8985 2.69624V2.92092C61.8929 3.24671 62.157 3.51071 62.4885 3.51071Z" fill="#262626"/>
<path d="M57.4824 2.85908C57.4824 3.60615 58.0893 4.21279 58.8366 4.21279C59.5839 4.21279 60.1907 3.60615 60.1907 2.85908C60.1907 2.11201 59.5839 1.50537 58.8366 1.50537C58.0893 1.50537 57.4824 2.11201 57.4824 2.85908Z" fill="#262626"/>
<path d="M58.084 2.85913C58.084 3.27479 58.4211 3.61182 58.8369 3.61182C59.2527 3.61182 59.5898 3.27479 59.5898 2.85913C59.5898 2.44347 59.2527 2.10645 58.8369 2.10645C58.4211 2.10645 58.084 2.44347 58.084 2.85913Z" fill="#313131"/>
<path d="M55.2734 2.85913C55.2734 3.27479 55.6106 3.61182 56.0264 3.61182C56.4422 3.61182 56.7793 3.27479 56.7793 2.85913C56.7793 2.44347 56.4422 2.10645 56.0264 2.10645C55.6106 2.10645 55.2734 2.44347 55.2734 2.85913Z" fill="#313131"/>
<path d="M48.6993 131.231C48.6993 131.231 52.7112 116.689 47.7946 107.46C42.8781 98.2311 37.8604 97.2312 38.3661 88.2046C38.8662 79.178 42.6815 77.3749 42.7826 67.1406C42.8837 56.912 37.7649 51.5982 34.0564 52.1993C32.9495 53.2047 23.8188 86.5026 22.2174 94.9282C20.6104 103.354 22.6164 118.194 22.6164 118.194L48.6993 131.231Z" fill="#E8BB95"/>
<path d="M32.9999 54.8447C32.9999 54.8447 36.7646 56.2153 36.36 59.4226C35.9611 62.63 34.4552 66.6462 34.4552 66.6462L29.7578 65.6576C29.7578 65.652 31.7469 56.9848 32.9999 54.8447Z" fill="#EFCFB8"/>
<path d="M93.2967 89.8617C93.2967 89.8617 97.8087 88.4574 100.523 85.6489C103.231 82.8404 104.136 78.4253 101.124 76.3189C98.1121 74.2126 93.8979 76.4201 91.1896 78.3242C88.4813 80.2284 84.9695 83.5369 86.0708 86.9464C87.1777 90.3616 91.1896 90.8615 93.2967 89.8617Z" fill="#E8BB95"/>
<path d="M92.3925 88.3899L88.375 82.9413C88.375 82.9413 92.0498 80.1328 94.1681 81.7561C96.292 83.3851 96.0167 86.4857 92.3925 88.3899Z" fill="#EFCFB8"/>
<path d="M92.5767 76.7796C92.5767 76.7796 96.9875 74.5834 99.3081 71.2412C101.629 67.8991 101.82 63.2088 98.3754 61.5462C94.9254 59.8779 90.9585 62.8493 88.4918 65.2646C86.0194 67.6744 82.9571 71.6681 84.6653 74.9934C86.3622 78.3131 90.5764 78.1614 92.5767 76.7796Z" fill="#E8BB95"/>
<path d="M91.4015 75.4149L86.3613 70.4775C86.3613 70.4775 89.6709 66.978 92.1263 68.2981C94.5762 69.6181 94.8122 72.8479 91.4015 75.4149Z" fill="#EFCFB8"/>
<path d="M91.5883 61.1753C91.5883 61.1753 94.3977 60.7765 97.0049 57.7657C98.6625 55.8503 99.9155 53.8563 98.6119 51.4465C97.3083 49.0368 93.1953 45.9306 90.5881 47.0315C87.981 48.1325 84.7669 54.2551 85.975 57.6646C87.1775 61.0798 90.2847 61.4786 91.5883 61.1753Z" fill="#E8BB95"/>
<path d="M92.2402 59.7485L87.082 55.1313C87.082 55.1313 90.178 51.5532 92.6391 52.7384C95.1002 53.9236 95.4711 57.086 92.2402 59.7485Z" fill="#EFCFB8"/>
<path d="M60.3864 137L18.4526 115.335L13.2383 124.76L54.2675 146.925L60.3864 137Z" fill="#E8E8E8"/>
<path d="M59.4873 148.33L8.82167 120.75L0 134.995V171.629L46.7436 172L59.4873 148.33Z" fill="#F99746"/>
</g>
<defs>
<clipPath id="clip0">
<rect width="103" height="172" fill="white"/>
</clipPath>
</defs>
</svg>
