<svg width="24" height="24" viewBox="0 0 24 24" fill="none" xmlns="http://www.w3.org/2000/svg">
<path d="M20.4853 3.51469C18.2188 1.24823 15.2053 0 12 0C8.79469 0 5.78123 1.24823 3.51469 3.51469C1.24823 5.78123 0 8.79469 0 12C0 15.2053 1.24823 18.2188 3.51469 20.4853C5.78123 22.7518 8.79469 24 12 24C15.2053 24 18.2188 22.7518 20.4853 20.4853C22.7518 18.2188 24 15.2053 24 12C24 8.79469 22.7518 5.78123 20.4853 3.51469ZM12 22.125C6.41705 22.125 1.875 17.583 1.875 12C1.875 6.41705 6.41705 1.875 12 1.875C17.583 1.875 22.125 6.41705 22.125 12C22.125 17.583 17.583 22.125 12 22.125Z" fill="#BDBDBD"/>
<path d="M17.2965 13.396C17.2931 13.406 16.9544 14.4097 16.1237 15.3831C15.0664 16.622 13.7169 17.2502 12.1124 17.2502C10.4964 17.2502 9.10328 16.6145 7.97182 15.361C7.08494 14.3784 6.69344 13.3669 6.69072 13.3599L4.93408 14.0156C4.95377 14.0682 5.42782 15.3184 6.52844 16.5597C8.01658 18.2381 9.9475 19.1252 12.1124 19.1252C14.288 19.1252 16.186 18.231 17.6014 16.5393C18.6476 15.2889 19.0623 14.0291 19.0795 13.9761L17.2965 13.396Z" fill="#BDBDBD"/>
<path d="M7.875 9.94287C8.70343 9.94287 9.375 9.2713 9.375 8.44287C9.375 7.61444 8.70343 6.94287 7.875 6.94287C7.04657 6.94287 6.375 7.61444 6.375 8.44287C6.375 9.2713 7.04657 9.94287 7.875 9.94287Z" fill="#BDBDBD"/>
<path d="M16.125 9.94287C16.9534 9.94287 17.625 9.2713 17.625 8.44287C17.625 7.61444 16.9534 6.94287 16.125 6.94287C15.2966 6.94287 14.625 7.61444 14.625 8.44287C14.625 9.2713 15.2966 9.94287 16.125 9.94287Z" fill="#BDBDBD"/>
</svg>
