<svg width="16" height="16" viewBox="0 0 16 16" fill="none" xmlns="http://www.w3.org/2000/svg">
<path d="M7.97344 14.6453H1.99334C1.62656 14.6453 1.32891 14.3476 1.32891 13.9809V2.02072C1.32891 1.65394 1.62659 1.35628 1.99334 1.35628H7.97344C8.34087 1.35628 8.63787 1.05928 8.63787 0.691844C8.63787 0.324406 8.34087 0.0273438 7.97344 0.0273438H1.99334C0.894344 0.0273438 0 0.921719 0 2.02072V13.9808C0 15.0798 0.894344 15.9742 1.99334 15.9742H7.97344C8.34087 15.9742 8.63787 15.6772 8.63787 15.3098C8.63787 14.9423 8.34087 14.6453 7.97344 14.6453Z" fill="#797979"/>
<path d="M15.8018 7.52664L11.7619 3.53992C11.5014 3.28211 11.0802 3.28546 10.8224 3.54658C10.5646 3.80771 10.5672 4.2283 10.829 4.48611L13.7161 7.33527H5.97987C5.61243 7.33527 5.31543 7.63227 5.31543 7.99971C5.31543 8.36714 5.61243 8.66417 5.97987 8.66417H13.7161L10.829 11.5133C10.5673 11.7711 10.5653 12.1917 10.8224 12.4529C10.9526 12.5844 11.124 12.6509 11.2955 12.6509C11.4643 12.6509 11.633 12.5871 11.7619 12.4595L15.8018 8.47277C15.928 8.34786 15.9998 8.17774 15.9998 7.99967C15.9998 7.82167 15.9287 7.65224 15.8018 7.52664Z" fill="#797979"/>
</svg>
