<svg width="24" height="24" viewBox="0 0 24 24" fill="none" xmlns="http://www.w3.org/2000/svg">
<path d="M23.3564 5.10763C23.3564 4.80315 23.1725 4.52881 22.8909 4.41308L12.2856 0.0563145C12.1027 -0.0187715 11.8977 -0.0187715 11.7149 0.0563145L1.10958 4.41308C0.827957 4.52876 0.644043 4.80315 0.644043 5.10763V18.8924C0.644043 19.1968 0.82791 19.4712 1.10958 19.5869L11.7149 23.9437C11.8958 24.018 12.0991 24.0196 12.2846 23.9436C12.2937 23.9406 11.8922 24.1053 22.8909 19.5869C23.1725 19.4712 23.3564 19.1968 23.3564 18.8924V5.10763ZM12.0002 8.71579L8.09257 7.1105L16.5374 3.42655L20.7064 5.13921L12.0002 8.71579ZM2.14576 6.29098L5.51717 7.67599V11.5835C5.51717 11.9981 5.85336 12.3343 6.26803 12.3343C6.68269 12.3343 7.01889 11.9981 7.01889 11.5835V8.29291L11.2494 10.0308V22.1289L2.14576 18.3891V6.29098ZM12.0002 1.56259L14.6032 2.6319L6.15831 6.31585L3.29401 5.13916L12.0002 1.56259ZM12.7511 10.0308L21.8547 6.29098V18.3891L12.7511 22.1289V10.0308Z" fill="black"/>
</svg>
