<svg width="18" height="24" viewBox="0 0 18 24" fill="none" xmlns="http://www.w3.org/2000/svg">
<path d="M9 0C4.34756 0 0.5625 3.78506 0.5625 8.4375C0.5625 10.0094 0.997922 11.5434 1.82198 12.8743L8.51972 23.6676C8.64802 23.8744 8.87405 24 9.11714 24C9.11902 24 9.12084 24 9.12272 24C9.36792 23.9981 9.59442 23.8686 9.72038 23.6582L16.2474 12.7603C17.026 11.4576 17.4375 9.96277 17.4375 8.4375C17.4375 3.78506 13.6524 0 9 0ZM15.0406 12.0383L9.1065 21.9462L3.0172 12.1334C2.33128 11.0257 1.95938 9.74766 1.95938 8.4375C1.95938 4.56047 5.12297 1.39687 9 1.39687C12.877 1.39687 16.0359 4.56047 16.0359 8.4375C16.0359 9.7088 15.6885 10.9541 15.0406 12.0383Z" fill="black"/>
</svg>
