<svg width="26" height="26" viewBox="0 0 26 26" fill="none" xmlns="http://www.w3.org/2000/svg">
<path fill-rule="evenodd" clip-rule="evenodd" d="M20.9219 8.21289C20.694 8.69191 20.6798 9.24508 20.8828 9.73516C21.0858 10.2253 21.487 10.6063 21.9869 10.7839L23.2519 11.2339C23.9999 11.4994 24.4997 12.2071 24.4997 13.0009C24.4997 13.7946 23.9999 14.5024 23.2519 14.7679L21.9869 15.2179C21.487 15.3954 21.0858 15.7765 20.8828 16.2666C20.6798 16.7567 20.694 17.3099 20.9219 17.7889L21.4999 18.9999C21.8423 19.7169 21.6956 20.5719 21.1338 21.1338C20.5719 21.6956 19.7169 21.8423 18.9999 21.4999L17.7869 20.9239C17.3079 20.696 16.7547 20.6818 16.2646 20.8848C15.7745 21.0878 15.3934 21.489 15.2159 21.9889L14.7659 23.2539C14.5 24.0012 13.7926 24.5003 12.9994 24.5003C12.2062 24.5003 11.4988 24.0012 11.2329 23.2539L10.7829 21.9889C10.6051 21.489 10.2238 21.0878 9.73358 20.8848C9.24334 20.6818 8.69005 20.696 8.21088 20.9239L6.99988 21.4999C6.28283 21.8437 5.42688 21.6975 4.86458 21.1352C4.30228 20.5729 4.15609 19.7169 4.49988 18.9999L5.07588 17.7869C5.30378 17.3079 5.31798 16.7547 5.11497 16.2646C4.91196 15.7745 4.51075 15.3934 4.01088 15.2159L2.74588 14.7659C1.99785 14.5004 1.49805 13.7926 1.49805 12.9989C1.49805 12.2051 1.99785 11.4974 2.74588 11.2319L4.01088 10.7819C4.51022 10.6043 4.911 10.2235 5.11396 9.73393C5.31692 9.24434 5.30309 8.69171 5.07588 8.21289L4.49988 6.99989C4.15609 6.28284 4.30228 5.42689 4.86458 4.86459C5.42688 4.30229 6.28283 4.1561 6.99988 4.49989L8.21288 5.07589C8.69158 5.3032 9.24412 5.31733 9.73381 5.11479C10.2235 4.91224 10.6046 4.51194 10.7829 4.01289L11.2329 2.74789C11.4988 2.00059 12.2062 1.50146 12.9994 1.50146C13.7926 1.50146 14.5 2.00059 14.7659 2.74789L15.2159 4.01289C15.3934 4.51277 15.7745 4.91397 16.2646 5.11698C16.7547 5.31999 17.3079 5.30579 17.7869 5.07789L18.9999 4.49989C19.7169 4.15745 20.5719 4.30415 21.1338 4.86601C21.6956 5.42787 21.8423 6.28288 21.4999 6.99989L20.9219 8.21289Z" stroke="black" stroke-width="1.5" stroke-linecap="round" stroke-linejoin="round"/>
<path fill-rule="evenodd" clip-rule="evenodd" d="M12.9988 17.501C15.4841 17.501 17.4988 15.4863 17.4988 13.001C17.4988 10.5157 15.4841 8.50098 12.9988 8.50098C10.5135 8.50098 8.49878 10.5157 8.49878 13.001C8.49878 15.4863 10.5135 17.501 12.9988 17.501Z" stroke="black" stroke-width="1.5" stroke-linecap="round" stroke-linejoin="round"/>
</svg>
