<svg width="38" height="40" viewBox="0 0 38 40" fill="none" xmlns="http://www.w3.org/2000/svg">
<path d="M37.9282 8.51271C37.9282 8.00526 37.6217 7.54801 37.1523 7.35514L19.4767 0.0938574C19.172 -0.0312858 18.8304 -0.0312858 18.5257 0.0938574L0.850107 7.35514C0.380742 7.54794 0.0742188 8.00526 0.0742188 8.51271V31.4873C0.0742188 31.9947 0.380663 32.452 0.850107 32.6449L18.5257 39.9061C18.8271 40.03 19.1659 40.0326 19.4752 39.9061C19.4903 39.9011 18.8211 40.1755 37.1523 32.6449C37.6217 32.4521 37.9282 31.9947 37.9282 31.4873V8.51271ZM19.0012 14.5263L12.4884 11.8508L26.5632 5.71091L33.5116 8.56535L19.0012 14.5263ZM2.57708 10.485L8.19609 12.7933V19.3058C8.19609 19.9969 8.75642 20.5572 9.44753 20.5572C10.1386 20.5572 10.699 19.9969 10.699 19.3058V13.8215L17.7498 16.718V36.8815L2.57708 30.6484V10.485ZM19.0012 2.60431L23.3394 4.3865L9.26466 10.5264L4.49084 8.56527L19.0012 2.60431ZM20.2526 16.718L35.4253 10.485V30.6484L20.2526 36.8815V16.718Z" fill="#264796"/>
</svg>
