<svg width="38" height="25" viewBox="0 0 38 25" fill="none" xmlns="http://www.w3.org/2000/svg">
<path d="M37.5 22.9167C37.5 24.0673 36.5673 25 35.4167 25H2.08334C0.932742 25 0 24.0673 0 22.9167C0 21.7661 0.932741 20.8333 2.08333 20.8333H35.4167C36.5673 20.8333 37.5 21.7661 37.5 22.9167ZM37.5 12.5C37.5 13.6506 36.5673 14.5833 35.4167 14.5833H2.08334C0.932742 14.5833 0 13.6506 0 12.5C0 11.3494 0.932741 10.4167 2.08333 10.4167H35.4167C36.5673 10.4167 37.5 11.3494 37.5 12.5ZM37.5 2.08333C37.5 3.23393 36.5673 4.16667 35.4167 4.16667H2.08334C0.932742 4.16667 0 3.23393 0 2.08333C0 0.93274 0.932741 0 2.08333 0H35.4167C36.5673 0 37.5 0.93274 37.5 2.08333Z" fill="#264796"/>
</svg>
