<svg width="40" height="40" viewBox="0 0 40 40" fill="none" xmlns="http://www.w3.org/2000/svg">
<path d="M36.1534 0H3.85104C2.06851 0 0.621094 1.42603 0.621094 3.18574V36.8171C0.621094 38.5711 2.06851 40 3.85104 40H36.1534C37.9359 40 39.3833 38.5711 39.3833 36.8171V3.18574C39.3833 1.42603 37.9359 0 36.1534 0ZM5.78473 2.39572H34.2168C35.7911 2.39572 37.0632 3.64635 37.0632 5.19786V10.6881H2.93981V5.19786C2.93981 3.64635 4.21753 2.39572 5.78473 2.39572ZM2.93981 34.8036V13.7897H24.0122V37.6057H5.78473C4.21753 37.6057 2.93981 36.3494 2.93981 34.8036ZM34.2168 37.6057H27.2264V13.7897H37.0632V34.8036C37.0632 36.3494 35.7911 37.6057 34.2168 37.6057Z" fill="#264796"/>
</svg>
