<svg width="103" height="172" viewBox="0 0 103 172" fill="none" xmlns="http://www.w3.org/2000/svg">
<g clip-path="url(#clip0)">
<path d="M47.9067 130.833L52.6603 133.484C52.6603 133.484 58.3803 134.489 67.91 123.755C77.4396 113.021 101.618 89.9573 102.421 84.4413C103.225 78.9254 100.011 75.8135 96.1 76.319C92.1892 76.819 42.3271 106.91 42.3271 106.91L47.9067 130.833Z" fill="#D59870"/>
<path d="M86.7729 35.8033C86.7729 35.8033 95.5159 29.3886 98.7131 33.4947C101.523 37.1065 98.9154 40.4149 96.1059 42.7235C93.2965 45.0321 88.5822 47.9361 86.0762 47.4362C83.5645 46.9363 82.3621 39.0163 86.7729 35.8033Z" fill="#E8BB95"/>
<path d="M47.098 107.713H85.1829C88.9419 107.713 91.993 104.663 91.993 100.905V7.22354C91.993 3.23543 88.7565 0 84.7671 0H45.3955C41.097 0 37.6133 3.48258 37.6133 7.77401V98.2312C37.6133 103.472 41.8612 107.713 47.098 107.713Z" fill="#464646"/>
<path d="M89.7845 100.484C89.7845 103.202 87.5819 105.41 84.8567 105.41H44.7491C42.0295 105.41 39.8213 103.208 39.8213 100.484V7.72363H89.7845V100.484Z" fill="#FCFCFA"/>
<path d="M44.7491 2.40967H84.8624C87.5819 2.40967 89.7901 4.61156 89.7901 7.33583V7.72902H39.8213V7.33583C39.8213 4.61156 42.0295 2.40967 44.7491 2.40967Z" fill="#264796"/>
<path d="M84.3843 5.8194H86.1542C86.5532 5.8194 86.8734 5.49923 86.8734 5.10042V4.8308C86.8734 4.43199 86.5532 4.11182 86.1542 4.11182H84.3843C83.9853 4.11182 83.665 4.43199 83.665 4.8308V5.10042C83.665 5.49361 83.9853 5.8194 84.3843 5.8194Z" fill="#FCFCFA"/>
<path d="M80.1704 5.8194H81.9404C82.3393 5.8194 82.6596 5.49923 82.6596 5.10042V4.8308C82.6596 4.43199 82.3393 4.11182 81.9404 4.11182H80.1704C79.7714 4.11182 79.4512 4.43199 79.4512 4.8308V5.10042C79.4512 5.49361 79.7714 5.8194 80.1704 5.8194Z" fill="#FCFCFA"/>
<path d="M44.9575 5.8194H46.7275C47.1264 5.8194 47.4467 5.49923 47.4467 5.10042V4.8308C47.4467 4.43199 47.1264 4.11182 46.7275 4.11182H44.9575C44.5586 4.11182 44.2383 4.43199 44.2383 4.8308V5.10042C44.2383 5.49361 44.5586 5.8194 44.9575 5.8194Z" fill="#FCFCFA"/>
<path d="M57.2792 6.52144H72.5289C74.9113 6.52144 76.8442 4.58917 76.8442 2.20754V1.4043H52.9639V2.20754C52.9639 4.58917 54.8968 6.52144 57.2792 6.52144Z" fill="#464646"/>
<path d="M62.4875 3.51071H72.3375C72.6634 3.51071 72.9274 3.24671 72.9274 2.92092V2.69624C72.9274 2.37045 72.6634 2.10645 72.3375 2.10645H62.4875C62.1616 2.10645 61.8975 2.37045 61.8975 2.69624V2.92092C61.8919 3.24671 62.156 3.51071 62.4875 3.51071Z" fill="#262626"/>
<path d="M57.4814 2.85908C57.4814 3.60615 58.0883 4.21279 58.8356 4.21279C59.5829 4.21279 60.1898 3.60615 60.1898 2.85908C60.1898 2.11201 59.5829 1.50537 58.8356 1.50537C58.0883 1.50537 57.4814 2.11201 57.4814 2.85908Z" fill="#262626"/>
<path d="M58.083 2.85913C58.083 3.27479 58.4201 3.61182 58.8359 3.61182C59.2517 3.61182 59.5889 3.27479 59.5889 2.85913C59.5889 2.44347 59.2517 2.10645 58.8359 2.10645C58.4201 2.10645 58.083 2.44347 58.083 2.85913Z" fill="#313131"/>
<path d="M55.2734 2.85913C55.2734 3.27479 55.6106 3.61182 56.0264 3.61182C56.4422 3.61182 56.7793 3.27479 56.7793 2.85913C56.7793 2.44347 56.4422 2.10645 56.0264 2.10645C55.6106 2.10645 55.2734 2.44347 55.2734 2.85913Z" fill="#313131"/>
<path d="M48.6993 131.232C48.6993 131.232 52.7112 116.689 47.7946 107.46C42.8781 98.2315 37.8604 97.2317 38.3661 88.2051C38.8662 79.1785 42.6815 77.3754 42.7826 67.1411C42.8837 56.9125 37.7649 51.5987 34.0564 52.1997C32.9495 53.2052 23.8188 86.5031 22.2174 94.9287C20.6104 103.354 22.6164 118.195 22.6164 118.195L48.6993 131.232Z" fill="#E8BB95"/>
<path d="M32.9999 54.8452C32.9999 54.8452 36.7646 56.2158 36.36 59.4231C35.9611 62.6305 34.4552 66.6467 34.4552 66.6467L29.7578 65.6581C29.7578 65.6524 31.7469 56.9853 32.9999 54.8452Z" fill="#EFCFB8"/>
<path d="M93.2967 89.8619C93.2967 89.8619 97.8087 88.4577 100.523 85.6491C103.231 82.8406 104.136 78.4256 101.124 76.3192C98.1121 74.2128 93.8979 76.4203 91.1896 78.3245C88.4813 80.2287 84.9695 83.5371 86.0708 86.9467C87.1777 90.3618 91.1896 90.8618 93.2967 89.8619Z" fill="#E8BB95"/>
<path d="M92.3915 88.3904L88.374 82.9418C88.374 82.9418 92.0488 80.1333 94.1671 81.7566C96.2911 83.3856 96.0157 86.4862 92.3915 88.3904Z" fill="#EFCFB8"/>
<path d="M92.5777 76.7799C92.5777 76.7799 96.9885 74.5836 99.3091 71.2414C101.63 67.8993 101.821 63.209 98.3764 61.5464C94.9264 59.8781 90.9594 62.8496 88.4927 65.2649C86.0204 67.6746 82.9581 71.6683 84.6663 74.9936C86.3632 78.3133 90.5773 78.1617 92.5777 76.7799Z" fill="#E8BB95"/>
<path d="M91.4034 75.4149L86.3633 70.4775C86.3633 70.4775 89.6728 66.978 92.1283 68.2981C94.5781 69.6181 94.8141 72.8479 91.4034 75.4149Z" fill="#EFCFB8"/>
<path d="M91.5883 61.1755C91.5883 61.1755 94.3977 60.7767 97.0049 57.766C98.6625 55.8506 99.9155 53.8565 98.6119 51.4468C97.3083 49.0371 93.1953 45.9308 90.5881 47.0318C87.981 48.1327 84.7669 54.2553 85.975 57.6649C87.1775 61.08 90.2847 61.4788 91.5883 61.1755Z" fill="#E8BB95"/>
<path d="M92.2402 59.7488L87.082 55.1316C87.082 55.1316 90.178 51.5535 92.6391 52.7387C95.1002 53.9239 95.4711 57.0863 92.2402 59.7488Z" fill="#EFCFB8"/>
<path d="M60.3864 137L18.4526 115.335L13.2383 124.76L54.2675 146.925L60.3864 137Z" fill="#E8E8E8"/>
<path d="M59.4873 148.329L8.82167 120.75L0 134.994V171.629L46.7436 172L59.4873 148.329Z" fill="#F99746"/>
<path d="M51 31.8011V72.514C51 73.3654 51.6913 74.0557 52.5441 74.0557H77.1733C78.0261 74.0557 78.7175 73.3654 78.7175 72.514V31.8011C78.7175 30.9497 78.0261 30.2594 77.1733 30.2594H52.5441C51.6913 30.2594 51 30.9497 51 31.8011Z" fill="#2B478B"/>
<path d="M58.7217 63.7751V69.0777C58.7217 69.4182 58.9982 69.6943 59.3393 69.6943H63.8059C64.1471 69.6943 64.4236 69.4182 64.4236 69.0777V63.7751C64.4236 63.4346 64.1471 63.1585 63.8059 63.1585H59.3393C58.9982 63.1585 58.7217 63.4346 58.7217 63.7751Z" fill="#C47B3F"/>
<g style="mix-blend-mode:multiply">
<path d="M56.8748 71.0548C57.6998 70.2312 57.6998 68.8958 56.8748 68.0721C56.0498 67.2485 54.7123 67.2485 53.8873 68.0721C53.0623 68.8958 53.0623 70.2312 53.8873 71.0548C54.7123 71.8785 56.0498 71.8785 56.8748 71.0548Z" fill="#A3B0C4"/>
</g>
<path d="M59.9551 34.9292C59.9549 34.966 59.9445 35.0021 59.9249 35.0333C59.9053 35.0646 59.8773 35.0897 59.8442 35.1059C59.811 35.1221 59.774 35.1287 59.7373 35.125C59.7005 35.1213 59.6656 35.1074 59.6364 35.0849C58.7611 34.4079 57.159 34.4079 56.1376 35.0929C56.0941 35.122 56.0408 35.1327 55.9894 35.1226C55.938 35.1125 55.8928 35.0825 55.8636 35.039C55.8344 34.9956 55.8237 34.9424 55.8338 34.8911C55.8439 34.8398 55.874 34.7946 55.9175 34.7655C56.4871 34.3839 57.2194 34.1784 57.9794 34.1857C58.7148 34.1931 59.4071 34.4073 59.8786 34.7735C59.9024 34.7919 59.9216 34.8155 59.9349 34.8425C59.9481 34.8695 59.955 34.8991 59.9551 34.9292Z" fill="#739AF0"/>
<path d="M59.5708 35.7605C59.5709 35.7974 59.5606 35.8336 59.5411 35.865C59.5215 35.8964 59.4935 35.9216 59.4603 35.9379C59.427 35.9541 59.3899 35.9607 59.3531 35.9568C59.3163 35.953 59.2813 35.9389 59.2521 35.9162C58.9378 35.67 58.4656 35.5291 57.9576 35.5241C57.4497 35.5116 56.9495 35.6509 56.5214 35.9242C56.4998 35.9386 56.4757 35.9486 56.4502 35.9537C56.4248 35.9588 56.3986 35.9589 56.3732 35.9539C56.3477 35.9489 56.3235 35.9389 56.302 35.9246C56.2804 35.9103 56.2618 35.8918 56.2474 35.8703C56.2329 35.8488 56.2228 35.8247 56.2177 35.7993C56.2126 35.7739 56.2126 35.7478 56.2176 35.7224C56.2226 35.697 56.2326 35.6728 56.2469 35.6513C56.2613 35.6297 56.2798 35.6112 56.3013 35.5968C56.7956 35.2792 57.3737 35.1165 57.9613 35.1296C58.5543 35.1358 59.1134 35.3087 59.4944 35.6048C59.5183 35.6231 59.5376 35.6467 59.5508 35.6737C59.5641 35.7007 59.5709 35.7304 59.5708 35.7605Z" fill="#739AF0"/>
<path d="M59.2331 36.4818C59.233 36.5187 59.2226 36.5549 59.203 36.5862C59.1835 36.6174 59.1555 36.6426 59.1222 36.6588C59.089 36.6749 59.0519 36.6814 59.0152 36.6776C58.9784 36.6737 58.9435 36.6596 58.9144 36.6369C58.6801 36.4523 58.3263 36.3483 57.9447 36.3446C57.5626 36.335 57.1863 36.4396 56.8641 36.6449C56.8207 36.6741 56.7674 36.6848 56.716 36.6747C56.6646 36.6646 56.6193 36.6345 56.5901 36.5911C56.561 36.5477 56.5502 36.4944 56.5604 36.4431C56.5705 36.3918 56.6006 36.3466 56.6441 36.3175C57.0322 36.0672 57.4865 35.9386 57.9484 35.9483C58.4218 35.9532 58.8509 36.0867 59.1572 36.3243C59.1812 36.3429 59.2005 36.3668 59.2137 36.3942C59.2268 36.4215 59.2335 36.4515 59.2331 36.4818Z" fill="#739AF0"/>
<path d="M58.8687 37.1261C58.8692 37.1706 58.8546 37.214 58.8274 37.2492C58.8115 37.2697 58.7917 37.2869 58.7691 37.2997C58.7466 37.3125 58.7217 37.3208 58.6959 37.324C58.6701 37.3272 58.644 37.3253 58.619 37.3183C58.5939 37.3114 58.5705 37.2996 58.55 37.2837C58.2622 37.0603 57.6464 37.0086 57.2235 37.2917C57.18 37.3208 57.1267 37.3315 57.0753 37.3214C57.024 37.3113 56.9787 37.2812 56.9495 37.2378C56.9203 37.1944 56.9096 37.1412 56.9197 37.0899C56.9298 37.0386 56.96 36.9934 57.0035 36.9643C57.5299 36.6116 58.3325 36.6153 58.7911 36.9723C58.8149 36.9903 58.8342 37.0136 58.8477 37.0402C58.8612 37.0669 58.8684 37.0963 58.8687 37.1261Z" fill="#739AF0"/>
<path d="M66.2021 69.1247C66.2083 68.9879 66.2597 68.857 66.3482 68.7524C66.4615 68.6127 66.6107 68.5064 66.7798 68.4447C67.0026 68.363 67.239 68.3242 67.4763 68.3302C67.8376 68.3302 68.1265 68.4096 68.343 68.5684C68.5596 68.7272 68.6679 68.9206 68.6679 69.1487C68.6648 69.2897 68.6188 69.4265 68.536 69.5408C68.4327 69.6827 68.29 69.7912 68.1254 69.8528C67.899 69.9373 67.6582 69.9768 67.4165 69.9691C67.1133 69.9779 66.8143 69.8974 66.5566 69.7377C66.3207 69.5851 66.2026 69.3807 66.2021 69.1247ZM68.5082 69.1555C68.5082 69.0053 68.4115 68.8884 68.2167 68.8053C68.0219 68.7222 67.7451 68.6822 67.3857 68.6822C67.0726 68.6822 66.8241 68.7233 66.6404 68.8053C66.4567 68.8874 66.3651 68.9975 66.3655 69.1358C66.3655 69.2786 66.4771 69.3941 66.7002 69.4823C66.9567 69.576 67.2285 69.6209 67.5016 69.6146C67.7445 69.6205 67.9862 69.5787 68.213 69.4915C68.4102 69.4097 68.5082 69.2983 68.5082 69.1555Z" fill="#739AF0"/>
<path d="M66.2021 67.3858C66.2087 67.25 66.26 67.1201 66.3482 67.0165C66.4614 66.8767 66.6105 66.7703 66.7798 66.7088C67.0026 66.6272 67.239 66.5883 67.4763 66.5944C67.8376 66.5944 68.1265 66.6737 68.343 66.8325C68.5596 66.9913 68.6679 67.1848 68.6679 67.4129C68.6647 67.5539 68.6187 67.6906 68.536 67.8049C68.4327 67.9466 68.2899 68.0549 68.1254 68.1163C67.899 68.2009 67.6582 68.2404 67.4165 68.2326C67.1134 68.2416 66.8143 68.1614 66.5566 68.0018C66.3207 67.8472 66.2026 67.6418 66.2021 67.3858ZM68.5082 67.4172C68.5082 67.2664 68.4115 67.1501 68.2167 67.0664C68.0219 66.9827 67.7451 66.9433 67.3857 66.9433C67.0726 66.9433 66.8241 66.9843 66.6404 67.0664C66.4567 67.1484 66.3651 67.2582 66.3655 67.3956C66.3655 67.5384 66.4771 67.6535 66.7002 67.7421C66.9568 67.8357 67.2286 67.8803 67.5016 67.8738C67.7445 67.8797 67.9862 67.8379 68.213 67.7508C68.4098 67.6707 68.5082 67.5596 68.5082 67.4172Z" fill="#739AF0"/>
<path d="M66.2021 65.6462C66.2087 65.5104 66.26 65.3806 66.3482 65.277C66.4614 65.1371 66.6105 65.0307 66.7798 64.9692C67.0025 64.8871 67.2389 64.848 67.4763 64.8541C67.8376 64.8541 68.1265 64.9335 68.343 65.0923C68.5596 65.2511 68.6679 65.4446 68.6679 65.6727C68.6648 65.8137 68.6188 65.9505 68.536 66.0647C68.4329 66.2068 68.2901 66.3154 68.1254 66.3768C67.899 66.4613 67.6582 66.5008 67.4165 66.4931C67.1133 66.5021 66.8142 66.4216 66.5566 66.2617C66.3207 66.1074 66.2026 65.9023 66.2021 65.6462ZM68.5082 65.677C68.5082 65.5268 68.4115 65.4099 68.2167 65.3268C68.0219 65.2437 67.7451 65.2037 67.3857 65.2037C67.0726 65.2037 66.8241 65.2447 66.6404 65.3268C66.4567 65.4089 66.3651 65.5186 66.3655 65.6561C66.3655 65.7982 66.4771 65.914 66.7002 66.002C66.9567 66.0957 67.2285 66.1406 67.5016 66.1343C67.7445 66.1402 67.9862 66.0983 68.213 66.0112C68.4098 65.9312 68.5082 65.8198 68.5082 65.677Z" fill="#739AF0"/>
<path d="M66.2021 63.9044C66.2087 63.7685 66.26 63.6387 66.3482 63.5351C66.4614 63.3952 66.6105 63.2888 66.7798 63.2274C67.0026 63.1457 67.239 63.1069 67.4763 63.1129C67.8376 63.1129 68.1265 63.1923 68.343 63.3511C68.5596 63.5099 68.6679 63.7033 68.6679 63.9314C68.6647 64.0724 68.6187 64.2091 68.536 64.3235C68.4327 64.4652 68.2899 64.5735 68.1254 64.6349C67.899 64.7194 67.6582 64.7589 67.4165 64.7512C67.114 64.7596 66.8156 64.6792 66.5585 64.5198C66.3213 64.3667 66.2026 64.1616 66.2021 63.9044ZM68.5082 63.9357C68.5082 63.7856 68.4115 63.6686 68.2167 63.5849C68.0219 63.5012 67.7451 63.4619 67.3857 63.4619C67.0726 63.4619 66.8241 63.5029 66.6404 63.5849C66.4567 63.667 66.3651 63.7768 66.3655 63.9142C66.3655 64.057 66.4771 64.1721 66.7002 64.2607C66.9567 64.3544 67.2285 64.3993 67.5016 64.393C67.7445 64.3989 67.9862 64.3571 68.213 64.2699C68.4098 64.1903 68.5082 64.0793 68.5082 63.937V63.9357Z" fill="#739AF0"/>
<path d="M66.2021 59.4978C66.2087 59.3619 66.26 59.2321 66.3482 59.1285C66.4612 58.9885 66.6105 58.8821 66.7798 58.8208C67.0025 58.7386 67.2389 58.6996 67.4763 58.7057C67.8376 58.7057 68.1265 58.7851 68.343 58.9439C68.5596 59.1027 68.6679 59.2961 68.6679 59.5242C68.6648 59.6653 68.6188 59.802 68.536 59.9163C68.4329 60.0584 68.2901 60.1669 68.1254 60.2283C67.899 60.3128 67.6582 60.3524 67.4165 60.3446C67.1133 60.3536 66.8142 60.2732 66.5566 60.1132C66.3207 59.9589 66.2026 59.7538 66.2021 59.4978ZM68.5082 59.5285C68.5082 59.3784 68.4115 59.2614 68.2167 59.1784C68.0219 59.0953 67.7451 59.0553 67.3857 59.0553C67.0726 59.0553 66.8241 59.0963 66.6404 59.1784C66.4567 59.2604 66.3651 59.3702 66.3655 59.5076C66.3655 59.6498 66.4771 59.7655 66.7002 59.8535C66.9567 59.9472 67.2285 59.9921 67.5016 59.9858C67.7445 59.9917 67.9862 59.9499 68.213 59.8627C68.4098 59.7831 68.5082 59.6717 68.5082 59.5285Z" fill="#739AF0"/>
<path d="M66.2021 57.7588C66.2087 57.623 66.26 57.4932 66.3482 57.3896C66.4614 57.2497 66.6105 57.1433 66.7798 57.0819C67.0026 57.0002 67.239 56.9614 67.4763 56.9674C67.8376 56.9674 68.1265 57.0468 68.343 57.2056C68.5596 57.3644 68.6679 57.5578 68.6679 57.7859C68.6647 57.9269 68.6187 58.0636 68.536 58.178C68.4327 58.3197 68.2899 58.428 68.1254 58.4894C67.899 58.5739 67.6582 58.6134 67.4165 58.6057C67.1134 58.6147 66.8143 58.5344 66.5566 58.3749C66.3207 58.2202 66.2026 58.0149 66.2021 57.7588ZM68.5082 57.7902C68.5082 57.6401 68.4115 57.5231 68.2167 57.4394C68.0219 57.3557 67.7451 57.3164 67.3857 57.3164C67.0726 57.3164 66.8241 57.3574 66.6404 57.4394C66.4567 57.5215 66.3651 57.6312 66.3655 57.7687C66.3655 57.9115 66.4771 58.0266 66.7002 58.1152C66.9567 58.2089 67.2285 58.2538 67.5016 58.2475C67.7445 58.2534 67.9862 58.2116 68.213 58.1244C68.4098 58.044 68.5082 57.9326 68.5082 57.7902Z" fill="#739AF0"/>
<path d="M66.2021 56.0193C66.2087 55.8834 66.26 55.7536 66.3482 55.65C66.4614 55.5101 66.6105 55.4037 66.7798 55.3423C67.0025 55.2601 67.2389 55.221 67.4763 55.2272C67.8376 55.2272 68.1265 55.3068 68.343 55.466C68.5596 55.6252 68.6679 55.8184 68.6679 56.0457C68.6648 56.1867 68.6188 56.3235 68.536 56.4377C68.4329 56.5798 68.2901 56.6884 68.1254 56.7498C67.899 56.8343 67.6582 56.8738 67.4165 56.8661C67.1133 56.8751 66.8142 56.7946 66.5566 56.6347C66.3207 56.4804 66.2026 56.2753 66.2021 56.0193ZM68.5082 56.05C68.5082 55.8999 68.4115 55.7829 68.2167 55.6998C68.0219 55.6168 67.7451 55.5768 67.3857 55.5768C67.0726 55.5768 66.8241 55.6178 66.6404 55.6998C66.4555 55.7829 66.3655 55.8931 66.3655 56.0291C66.3655 56.1651 66.4771 56.287 66.7002 56.375C66.9567 56.4687 67.2285 56.5136 67.5016 56.5073C67.7445 56.5132 67.9862 56.4714 68.213 56.3842C68.4098 56.3046 68.5082 56.1932 68.5082 56.05Z" fill="#739AF0"/>
<path d="M66.2021 54.2789C66.2087 54.143 66.26 54.0132 66.3482 53.9096C66.4615 53.7699 66.6107 53.6636 66.7798 53.6019C67.0026 53.5202 67.239 53.4814 67.4763 53.4874C67.8376 53.4874 68.1265 53.5668 68.343 53.7256C68.5596 53.8844 68.6679 54.0778 68.6679 54.3059C68.666 54.4462 68.6218 54.5826 68.5409 54.6974C68.4376 54.8391 68.2948 54.9474 68.1304 55.0088C67.9039 55.0933 67.6631 55.1328 67.4215 55.1251C67.1183 55.1341 66.8193 55.0538 66.5615 54.8943C66.3224 54.7404 66.2026 54.5353 66.2021 54.2789ZM68.5082 54.3103C68.5082 54.1601 68.4115 54.0432 68.2167 53.9601C68.0219 53.877 67.7451 53.837 67.3857 53.837C67.0726 53.837 66.8241 53.878 66.6404 53.9601C66.4567 54.0421 66.3651 54.1517 66.3655 54.2887C66.3655 54.4315 66.4771 54.5466 66.7002 54.6352C66.9567 54.7289 67.2285 54.7738 67.5016 54.7675C67.7445 54.7734 67.9862 54.7316 68.213 54.6444C68.4098 54.564 68.5082 54.4526 68.5082 54.3103Z" fill="#739AF0"/>
<path d="M66.2021 49.8723C66.2087 49.7365 66.26 49.6066 66.3482 49.503C66.4614 49.3632 66.6105 49.2568 66.7798 49.1953C67.0025 49.1131 67.2389 49.0741 67.4763 49.0802C67.8376 49.0802 68.1265 49.1598 68.343 49.319C68.5596 49.4782 68.6679 49.6714 68.6679 49.8987C68.6648 50.0398 68.6188 50.1765 68.536 50.2908C68.4329 50.4329 68.2901 50.5414 68.1254 50.6028C67.899 50.6873 67.6582 50.7269 67.4165 50.7191C67.1139 50.7278 66.8155 50.6473 66.5585 50.4877C66.3213 50.3326 66.2026 50.1275 66.2021 49.8723ZM68.5082 49.903C68.5082 49.7529 68.4115 49.6359 68.2167 49.5529C68.0219 49.4698 67.7451 49.4298 67.3857 49.4298C67.0726 49.4298 66.8241 49.4708 66.6404 49.5529C66.4555 49.6359 66.3655 49.7461 66.3655 49.8821C66.3655 50.0181 66.4771 50.14 66.7002 50.228C66.9567 50.3217 67.2285 50.3666 67.5016 50.3603C67.7445 50.3662 67.9862 50.3244 68.213 50.2372C68.4098 50.158 68.5082 50.0462 68.5082 49.9018V49.903Z" fill="#739AF0"/>
<path d="M66.2021 48.1319C66.2087 47.9961 66.26 47.8662 66.3482 47.7626C66.4614 47.6228 66.6105 47.5164 66.7798 47.4549C67.0026 47.3733 67.239 47.3344 67.4763 47.3405C67.8376 47.3405 68.1265 47.4198 68.343 47.5786C68.5596 47.7374 68.6679 47.9309 68.6679 48.159C68.6647 48.3 68.6187 48.4367 68.536 48.551C68.4327 48.6927 68.2899 48.801 68.1254 48.8624C67.899 48.947 67.6582 48.9865 67.4165 48.9787C67.1134 48.9877 66.8143 48.9075 66.5566 48.7479C66.3207 48.5953 66.2026 48.39 66.2021 48.1319ZM68.5082 48.1633C68.5082 48.0131 68.4115 47.8962 68.2167 47.8131C68.0219 47.73 67.7451 47.69 67.3857 47.69C67.0726 47.69 66.8241 47.731 66.6404 47.8131C66.4567 47.8952 66.3651 48.0047 66.3655 48.1417C66.3655 48.2845 66.4771 48.3996 66.7002 48.4882C66.9567 48.582 67.2285 48.6269 67.5016 48.6206C67.7445 48.6264 67.9862 48.5846 68.213 48.4975C68.4098 48.417 68.5082 48.3057 68.5082 48.1633Z" fill="#739AF0"/>
<path d="M66.2021 46.3923C66.2087 46.2565 66.26 46.1266 66.3482 46.023C66.4614 45.8832 66.6105 45.7768 66.7798 45.7153C67.0025 45.6332 67.2389 45.5941 67.4763 45.6002C67.8376 45.6002 68.1265 45.6798 68.343 45.839C68.5596 45.9982 68.6679 46.1915 68.6679 46.4188C68.6649 46.5598 68.6189 46.6966 68.536 46.8108C68.4329 46.9529 68.2901 47.0614 68.1254 47.1228C67.899 47.2074 67.6582 47.2469 67.4165 47.2391C67.1133 47.2482 66.8142 47.1677 66.5566 47.0077C66.3207 46.8535 66.2026 46.6483 66.2021 46.3923ZM68.5082 46.4231C68.5082 46.2729 68.4115 46.156 68.2167 46.0729C68.0219 45.9898 67.7451 45.9498 67.3857 45.9498C67.0726 45.9498 66.8241 45.9908 66.6404 46.0729C66.4555 46.156 66.3655 46.2661 66.3655 46.4021C66.3655 46.5382 66.4771 46.66 66.7002 46.748C66.9566 46.8421 67.2285 46.887 67.5016 46.8803C67.7445 46.8859 67.9861 46.8441 68.213 46.7573C68.4098 46.6772 68.5082 46.5669 68.5082 46.4261V46.4231Z" fill="#739AF0"/>
<path d="M66.2021 44.6525C66.2083 44.5157 66.2597 44.3848 66.3482 44.2802C66.4615 44.1405 66.6107 44.0342 66.7798 43.9725C67.0026 43.8908 67.239 43.852 67.4763 43.858C67.8376 43.858 68.1265 43.9374 68.343 44.0962C68.5596 44.255 68.6679 44.4484 68.6679 44.6766C68.6669 44.8181 68.6226 44.956 68.5409 45.0717C68.4378 45.2136 68.295 45.3219 68.1304 45.3831C67.9039 45.4676 67.6631 45.5071 67.4215 45.4994C67.1183 45.5084 66.8193 45.4281 66.5615 45.2686C66.3224 45.1139 66.2026 44.9086 66.2021 44.6525ZM68.5082 44.6833C68.5082 44.5332 68.4115 44.4162 68.2167 44.3331C68.0219 44.2501 67.7451 44.2101 67.3857 44.2101C67.0726 44.2101 66.8241 44.2511 66.6404 44.3331C66.4567 44.4152 66.3651 44.5247 66.3655 44.6618C66.3655 44.8046 66.4771 44.9201 66.7002 45.0083C66.9567 45.102 67.2285 45.1469 67.5016 45.1406C67.7445 45.1465 67.9862 45.1047 68.213 45.0175C68.4102 44.9375 68.5082 44.8255 68.5082 44.6833Z" fill="#739AF0"/>
<path d="M66.2021 40.2453C66.2087 40.1095 66.26 39.9797 66.3482 39.8761C66.4614 39.7362 66.6105 39.6298 66.7798 39.5683C67.0025 39.4862 67.2389 39.4471 67.4763 39.4533C67.8376 39.4533 68.1265 39.5329 68.343 39.6921C68.5596 39.8512 68.6679 40.0445 68.6679 40.2718C68.6649 40.4128 68.6189 40.5496 68.536 40.6638C68.4329 40.8059 68.2901 40.9145 68.1254 40.9758C67.899 41.0604 67.6582 41.0999 67.4165 41.0922C67.1133 41.1012 66.8142 41.0207 66.5566 40.8608C66.3207 40.7065 66.2026 40.5013 66.2021 40.2453ZM68.5082 40.2761C68.5082 40.1259 68.4115 40.009 68.2167 39.9259C68.0219 39.8428 67.7451 39.8028 67.3857 39.8028C67.0726 39.8028 66.8241 39.8439 66.6404 39.9259C66.4555 40.009 66.3655 40.1192 66.3655 40.2552C66.3655 40.3912 66.4771 40.513 66.7002 40.601C66.9566 40.6951 67.2285 40.74 67.5016 40.7334C67.7445 40.7389 67.9861 40.6971 68.213 40.6103C68.4098 40.5303 68.5082 40.4189 68.5082 40.2761Z" fill="#739AF0"/>
<path d="M66.2021 38.5056C66.208 38.3687 66.2594 38.2377 66.3482 38.1332C66.4615 37.9936 66.6107 37.8872 66.7798 37.8255C67.0026 37.7439 67.239 37.705 67.4763 37.7111C67.8376 37.7111 68.1265 37.7904 68.343 37.9492C68.5596 38.108 68.6679 38.3015 68.6679 38.5296C68.6647 38.6706 68.6187 38.8073 68.536 38.9216C68.4328 39.0635 68.29 39.1719 68.1254 39.233C67.899 39.3176 67.6582 39.3571 67.4165 39.3494C67.1134 39.3584 66.8143 39.2781 66.5566 39.1186C66.3207 38.9659 66.2026 38.7616 66.2021 38.5056ZM68.5082 38.5364C68.5082 38.3862 68.4115 38.2693 68.2167 38.1862C68.0219 38.1031 67.7451 38.0631 67.3857 38.0631C67.0726 38.0631 66.8241 38.1041 66.6404 38.1862C66.4567 38.2682 66.3651 38.3778 66.3655 38.5148C66.3655 38.6576 66.4771 38.7731 66.7002 38.8613C66.9567 38.9551 67.2285 38.9999 67.5016 38.9936C67.7445 38.9995 67.9862 38.9577 68.213 38.8705C68.4102 38.7905 68.5082 38.6791 68.5082 38.5364Z" fill="#739AF0"/>
<path d="M66.2021 36.7643C66.2087 36.6285 66.26 36.4986 66.3482 36.3951C66.4614 36.2552 66.6105 36.1488 66.7798 36.0873C67.0026 36.0055 67.2389 35.9664 67.4763 35.9723C67.8376 35.9723 68.1265 36.0518 68.343 36.211C68.5596 36.3702 68.6679 36.5635 68.6679 36.7908C68.6648 36.932 68.6188 37.0689 68.536 37.1834C68.4327 37.3252 68.2899 37.4335 68.1254 37.4948C67.899 37.5794 67.6582 37.6189 67.4165 37.6112C67.1139 37.6198 66.8155 37.5394 66.5585 37.3798C66.3213 37.2267 66.2026 37.0216 66.2021 36.7643ZM68.5082 36.7951C68.5082 36.6449 68.4115 36.5286 68.2167 36.4449C68.0219 36.3612 67.7451 36.3218 67.3857 36.3218C67.0726 36.3218 66.8241 36.3628 66.6404 36.4449C66.4567 36.527 66.3651 36.6367 66.3655 36.7742C66.3655 36.9169 66.4771 37.0322 66.7002 37.12C66.9566 37.2141 67.2285 37.259 67.5016 37.2524C67.7445 37.2579 67.9861 37.2161 68.213 37.1293C68.4098 37.0501 68.5082 36.9393 68.5082 36.7969V36.7951Z" fill="#739AF0"/>
<path d="M66.2021 35.0264C66.209 34.8907 66.2603 34.7609 66.3482 34.6572C66.4615 34.5175 66.6107 34.4111 66.7798 34.3495C67.0026 34.2678 67.239 34.229 67.4763 34.235C67.8376 34.235 68.1265 34.3144 68.343 34.4732C68.5596 34.6319 68.6679 34.8254 68.6679 35.0535C68.6648 35.1945 68.6188 35.3313 68.536 35.4455C68.4328 35.5875 68.29 35.6958 68.1254 35.7569C67.8991 35.8418 67.6582 35.8813 67.4165 35.8733C67.1134 35.8823 66.8143 35.802 66.5566 35.6425C66.3207 35.4874 66.2026 35.282 66.2021 35.0264ZM68.5082 35.0572C68.5082 34.907 68.4115 34.7901 68.2167 34.707C68.0219 34.6239 67.7451 34.5839 67.3857 34.5839C67.0726 34.5839 66.8241 34.625 66.6404 34.707C66.4567 34.7891 66.3651 34.8986 66.3655 35.0357C66.3655 35.1784 66.4771 35.2939 66.7002 35.3821C66.9567 35.4759 67.2285 35.5208 67.5016 35.5145C67.7445 35.5204 67.9862 35.4785 68.213 35.3914C68.4102 35.3114 68.5082 35.2 68.5082 35.0572Z" fill="#739AF0"/>
<g style="mix-blend-mode:multiply">
<path d="M57.075 52.1174V64.924C57.075 65.1461 57.0311 65.3661 56.946 65.5714C56.8608 65.7766 56.736 65.9632 56.5786 66.1203C56.4213 66.2774 56.2345 66.402 56.0289 66.487C55.8233 66.572 55.6029 66.6158 55.3804 66.6158C55.1578 66.6159 54.9373 66.5722 54.7316 66.4872C54.5259 66.4022 54.339 66.2776 54.1815 66.1205C54.024 65.9634 53.8991 65.7769 53.8138 65.5716C53.7286 65.3663 53.6847 65.1462 53.6846 64.924V52.1174C53.6851 51.6687 53.864 51.2386 54.182 50.9216C54.4999 50.6046 54.931 50.4266 55.3804 50.4268C55.8296 50.4268 56.2604 50.6048 56.5782 50.9218C56.8959 51.2389 57.0746 51.6689 57.075 52.1174Z" fill="#A3B0C4"/>
</g>
<path d="M75.7058 69.2034C75.7072 69.3045 75.6892 69.405 75.6528 69.4994C75.6176 69.5866 75.563 69.6647 75.4931 69.7277C75.4195 69.7943 75.3325 69.8447 75.2379 69.8754C75.131 69.9088 75.0195 69.925 74.9075 69.9234C74.6634 69.9234 74.469 69.8582 74.3244 69.7277C74.2537 69.6645 74.1985 69.586 74.1629 69.4982C74.1266 69.4042 74.1088 69.3041 74.1105 69.2034C74.1096 69.1241 74.1204 69.0451 74.1425 68.9689C74.1629 68.8981 74.1962 68.8315 74.2405 68.7726C74.2852 68.7108 74.3431 68.6597 74.41 68.6231C74.4773 68.5893 74.5502 68.5684 74.6252 68.5615V68.8225C74.5819 68.826 74.5399 68.8385 74.5019 68.8594C74.4652 68.8788 74.433 68.9059 74.4076 68.9388C74.3801 68.9735 74.3592 69.0129 74.3459 69.0551C74.3314 69.1027 74.3244 69.1523 74.325 69.2021C74.3241 69.2674 74.3373 69.3321 74.3638 69.3917C74.3896 69.4482 74.4282 69.498 74.4766 69.5369C74.5307 69.5789 74.5925 69.61 74.6585 69.6286C74.8201 69.6715 74.99 69.6715 75.1516 69.6286C75.2188 69.6109 75.2818 69.5797 75.3366 69.5369C75.3848 69.4989 75.4232 69.4499 75.4487 69.3941C75.4753 69.335 75.4886 69.2707 75.4876 69.2058C75.4883 69.155 75.4812 69.1044 75.4666 69.0557C75.4539 69.0133 75.4329 68.9738 75.405 68.9394C75.378 68.9062 75.3444 68.8789 75.3063 68.8594C75.264 68.8387 75.2183 68.8259 75.1713 68.8218V68.5634C75.2476 68.5671 75.3222 68.5866 75.3904 68.6208C75.4587 68.6549 75.5191 68.7028 75.5677 68.7615C75.6638 68.8883 75.7126 69.0446 75.7058 69.2034Z" fill="#739AF0"/>
<path d="M75.6799 67.0122V67.2805L75.2526 67.4387V68.0467L75.6799 68.1956V68.459L74.1387 67.8904V67.6085L75.6799 67.0122ZM75.0474 67.9765V67.5058L74.4087 67.7365V67.7581L75.0474 67.9765Z" fill="#739AF0"/>
<path d="M75.6793 65.5415V65.8203L75.2848 65.96C75.2168 65.9813 75.1559 66.0206 75.1085 66.0738C75.0659 66.1293 75.0441 66.1979 75.0469 66.2677V66.5932H75.6769V66.8499H74.1358V66.1655C74.135 66.0897 74.1422 66.014 74.1574 65.9397C74.1692 65.876 74.1938 65.8153 74.2295 65.7612C74.2635 65.7116 74.3098 65.6718 74.3639 65.6455C74.429 65.616 74.5001 65.6019 74.5716 65.6043C74.668 65.5999 74.7626 65.6313 74.8373 65.6923C74.9089 65.7577 74.9559 65.8457 74.9704 65.9415C74.9924 65.8854 75.029 65.8361 75.0765 65.7987C75.1345 65.7552 75.199 65.721 75.2676 65.6972L75.6793 65.5415ZM74.828 66.5932V66.1926C74.8289 66.1434 74.8243 66.0943 74.8145 66.0461C74.8074 66.01 74.7927 65.9758 74.7713 65.9458C74.7515 65.9196 74.7249 65.8994 74.6943 65.8874C74.6577 65.8742 74.6191 65.868 74.5802 65.8689C74.5466 65.8663 74.5128 65.8714 74.4815 65.8839C74.4502 65.8964 74.4222 65.9159 74.3996 65.9409C74.3538 66.0065 74.3321 66.0858 74.338 66.1655V66.5932H74.828Z" fill="#739AF0"/>
<path d="M74.1357 65.2973V64.7958C74.1357 64.5311 74.1986 64.3323 74.3244 64.1994C74.4501 64.0665 74.6414 64 74.8983 64C75.4193 64 75.6799 64.2653 75.6799 64.7958V65.2973H74.1357ZM75.4574 65.0401V64.8001C75.4574 64.5925 75.4093 64.4515 75.3131 64.3773C75.2603 64.3373 75.1999 64.3084 75.1356 64.2923C75.058 64.2728 74.9782 64.2634 74.8983 64.2646C74.8215 64.2635 74.745 64.2728 74.6708 64.2923C74.6085 64.3082 74.5503 64.3372 74.5 64.3773C74.4051 64.4511 74.3577 64.5921 74.3577 64.8001V65.0401H75.4574Z" fill="#739AF0"/>
<path d="M75.6799 62.4932V62.7492H74.9758V63.4742H75.6799V63.7308H74.1387V63.4742H74.7551V62.7492H74.1387V62.4932H75.6799Z" fill="#739AF0"/>
<path d="M74.1104 61.49C74.1092 61.3872 74.1287 61.2853 74.1677 61.1902C74.2047 61.1019 74.2599 61.0224 74.3299 60.957C74.4025 60.8901 74.4881 60.8388 74.5814 60.8062C74.686 60.7689 74.7964 60.7506 74.9075 60.752C75.0182 60.7505 75.1283 60.7682 75.2329 60.8044C75.3264 60.8365 75.4124 60.8871 75.4857 60.9533C75.5563 61.0183 75.6118 61.0979 75.6484 61.1866C75.6877 61.2828 75.7072 61.386 75.7057 61.49C75.7071 61.5937 75.6878 61.6966 75.649 61.7928C75.6125 61.8811 75.5572 61.9605 75.4869 62.0254C75.414 62.092 75.3282 62.1429 75.2348 62.175C75.1296 62.2113 75.0188 62.2292 74.9075 62.2279C74.7964 62.2294 74.686 62.211 74.5814 62.1737C74.4879 62.141 74.4023 62.0892 74.3299 62.0217C74.26 61.9565 74.2047 61.8772 74.1677 61.7891C74.1287 61.6942 74.1092 61.5925 74.1104 61.49ZM75.4881 61.49C75.4891 61.4223 75.4752 61.3553 75.4475 61.2936C75.4202 61.2351 75.3799 61.1835 75.3297 61.1429C75.275 61.0989 75.2121 61.0661 75.1448 61.0462C74.9895 61.0015 74.8248 61.0015 74.6695 61.0462C74.6026 61.0664 74.54 61.0985 74.4846 61.141C74.4344 61.1813 74.3937 61.2321 74.3656 61.2899C74.3372 61.3512 74.3228 61.4181 74.3237 61.4857C74.3227 61.5536 74.3368 61.6208 74.365 61.6826C74.3925 61.7413 74.433 61.7931 74.4834 61.834C74.5379 61.8784 74.6008 61.9114 74.6683 61.9312C74.7453 61.955 74.8256 61.9666 74.9062 61.9657C74.9873 61.9668 75.068 61.9549 75.1454 61.9306C75.2128 61.9105 75.2756 61.8775 75.3303 61.8334C75.3787 61.7941 75.4178 61.7447 75.445 61.6888C75.4739 61.6273 75.4886 61.5603 75.4881 61.4924V61.49Z" fill="#739AF0"/>
<path d="M75.6799 59.5054V60.4901H74.1387V60.2328H75.4585V59.5054H75.6799Z" fill="#739AF0"/>
<path d="M74.1357 59.271V58.7694C74.1357 58.5048 74.1986 58.306 74.3244 58.173C74.4501 58.0401 74.6414 57.9736 74.8983 57.9736C75.4193 57.9736 75.6799 58.2389 75.6799 58.7694V59.271H74.1357ZM75.4574 59.0137V58.7743C75.4574 58.5663 75.4093 58.4252 75.3131 58.3509C75.2601 58.3112 75.1998 58.2824 75.1356 58.266C75.058 58.2464 74.9782 58.2371 74.8983 58.2383C74.8215 58.2371 74.745 58.2465 74.6708 58.266C74.6086 58.2821 74.5504 58.3111 74.5 58.3509C74.4051 58.4247 74.3577 58.5659 74.3577 58.7743V59.0137H75.4574Z" fill="#739AF0"/>
<path d="M75.6799 56.5381V57.7074H74.1387V56.5744H74.3606V57.4477H74.7773V56.6298H75.0017V57.4477H75.4604V56.5381H75.6799Z" fill="#739AF0"/>
<path d="M75.6793 54.9614V55.2396L75.2848 55.3793C75.2169 55.4011 75.156 55.4406 75.1085 55.4938C75.0657 55.5491 75.0439 55.6178 75.0469 55.6876V56.0126H75.6769V56.2698H74.1358V55.5855C74.135 55.5094 74.1422 55.4335 74.1574 55.359C74.1694 55.2955 74.1939 55.2351 74.2295 55.1811C74.2633 55.1314 74.3097 55.0915 74.3639 55.0654C74.429 55.0357 74.5001 55.0214 74.5716 55.0236C74.668 55.0195 74.7625 55.0508 74.8373 55.1116C74.9088 55.1774 74.9558 55.2655 74.9704 55.3615C74.9923 55.3052 75.0289 55.2559 75.0765 55.2187C75.1344 55.1749 75.1989 55.1406 75.2676 55.1171L75.6793 54.9614ZM74.828 56.0126V55.6126C74.8289 55.5634 74.8243 55.5143 74.8145 55.4661C74.8074 55.4298 74.7927 55.3954 74.7713 55.3652C74.7515 55.3391 74.7248 55.3191 74.6943 55.3073C74.6577 55.2942 74.6191 55.2879 74.5802 55.2888C74.5466 55.2862 74.5129 55.2914 74.4815 55.3038C74.4502 55.3163 74.4222 55.3358 74.3996 55.3608C74.3538 55.4264 74.3321 55.5058 74.338 55.5855V56.0126H74.828Z" fill="#739AF0"/>
<path d="M70.1211 51.4655C70.1257 51.3603 70.1652 51.2597 70.2333 51.1793C70.3209 51.0717 70.4365 50.9902 70.5674 50.9436C70.7389 50.8803 70.9209 50.8503 71.1037 50.855C71.3815 50.855 71.604 50.9165 71.7713 51.0396C71.9385 51.1627 72.0219 51.3116 72.0215 51.4864C72.019 51.5951 71.9836 51.7005 71.9198 51.7886C71.8404 51.898 71.7304 51.9815 71.6036 52.0286C71.4291 52.0936 71.2436 52.1239 71.0574 52.1179C70.824 52.125 70.5937 52.0631 70.3954 51.94C70.3116 51.8924 70.2419 51.8233 70.1937 51.7399C70.1455 51.6565 70.1204 51.5618 70.1211 51.4655ZM71.8976 51.4895C71.8976 51.3738 71.8226 51.2839 71.6726 51.2199C71.5226 51.1559 71.3091 51.1237 71.0322 51.1233C70.8362 51.1151 70.6407 51.148 70.4583 51.2199C70.3169 51.2839 70.2462 51.3685 70.2462 51.4735C70.2462 51.5785 70.3323 51.6674 70.5045 51.74C70.7019 51.8119 70.9109 51.8464 71.1209 51.8415C71.308 51.8465 71.4942 51.8148 71.6689 51.748C71.8214 51.6877 71.8976 51.6015 71.8976 51.4895Z" fill="#739AF0"/>
<path d="M70.1211 50.1257C70.1255 50.0204 70.165 49.9197 70.2333 49.8395C70.3209 49.7318 70.4365 49.6503 70.5674 49.6038C70.7389 49.5405 70.9209 49.5104 71.1037 49.5151C71.3815 49.5151 71.604 49.5767 71.7713 49.6998C71.9385 49.8229 72.0219 49.9718 72.0215 50.1466C72.019 50.2553 71.9836 50.3606 71.9198 50.4488C71.8402 50.558 71.7303 50.6414 71.6036 50.6888C71.4291 50.7538 71.2436 50.7841 71.0574 50.778C70.824 50.7852 70.5937 50.7233 70.3954 50.6002C70.3116 50.5526 70.2419 50.4835 70.1937 50.4001C70.1455 50.3167 70.1204 50.222 70.1211 50.1257ZM71.8976 50.1497C71.8976 50.034 71.8226 49.9439 71.6726 49.8795C71.5226 49.8151 71.3091 49.7831 71.0322 49.7835C70.8363 49.7755 70.6409 49.8082 70.4583 49.8795C70.3169 49.9439 70.2462 50.0284 70.2462 50.133C70.2462 50.2432 70.3325 50.3318 70.5045 50.4002C70.7019 50.4721 70.9109 50.5065 71.1209 50.5017C71.308 50.5064 71.4941 50.4746 71.6689 50.4082C71.8214 50.3454 71.8976 50.2592 71.8976 50.1497Z" fill="#739AF0"/>
<path d="M69.9923 47.9756C69.9981 47.9761 70.0037 47.9782 70.0083 47.9817L70.6537 48.3855L72.1948 49.3234C72.2188 49.334 72.2399 49.35 72.2565 49.3702C72.2638 49.3898 72.2667 49.4108 72.2651 49.4317C72.2651 49.4674 72.2595 49.4846 72.2491 49.4846C72.239 49.4833 72.2295 49.4795 72.2213 49.4736L71.6376 49.1191L70.02 48.1245C70.005 48.1168 69.9926 48.1048 69.9843 48.0901C69.9781 48.0714 69.9756 48.0518 69.9769 48.0322C69.9769 47.9947 69.9824 47.9756 69.9923 47.9756Z" fill="#739AF0"/>
<path d="M70.1211 47.3224C70.1255 47.2172 70.165 47.1165 70.2333 47.0362C70.3208 46.9284 70.4364 46.8469 70.5674 46.8005C70.7389 46.7373 70.9209 46.7072 71.1037 46.7119C71.3815 46.7119 71.604 46.7734 71.7713 46.8965C71.9385 47.0196 72.022 47.1688 72.0216 47.344C72.019 47.4524 71.9836 47.5576 71.9198 47.6455C71.8404 47.7549 71.7304 47.8384 71.6036 47.8855C71.4292 47.951 71.2437 47.9816 71.0575 47.9754C70.824 47.9825 70.5937 47.9206 70.3954 47.7975C70.3115 47.7498 70.2419 47.6807 70.1937 47.5971C70.1454 47.5136 70.1204 47.4188 70.1211 47.3224ZM71.8976 47.3464C71.8976 47.2307 71.8226 47.1407 71.6727 47.0762C71.5227 47.0118 71.3092 46.9796 71.0322 46.9796C70.8363 46.9717 70.6409 47.0044 70.4583 47.0756C70.3169 47.14 70.2462 47.2246 70.2462 47.3292C70.2462 47.4338 70.3323 47.5226 70.5045 47.5957C70.7017 47.6681 70.9109 47.7028 71.1209 47.6978C71.308 47.7025 71.4941 47.6708 71.669 47.6043C71.8214 47.5419 71.8976 47.4568 71.8976 47.3489V47.3464Z" fill="#739AF0"/>
<path d="M70.1211 45.9826C70.1256 45.8772 70.1651 45.7763 70.2333 45.6958C70.3211 45.5883 70.4366 45.5068 70.5674 45.4601C70.739 45.3973 70.921 45.3675 71.1037 45.372C71.3815 45.372 71.604 45.4336 71.7713 45.5567C71.9385 45.6798 72.022 45.8287 72.0216 46.0035C72.0192 46.1122 71.9837 46.2176 71.9198 46.3057C71.8404 46.4151 71.7304 46.4986 71.6036 46.5457C71.4292 46.611 71.2436 46.6415 71.0575 46.6356C70.8241 46.6424 70.5939 46.5805 70.3954 46.4577C70.3115 46.41 70.2419 46.3408 70.1937 46.2573C70.1454 46.1738 70.1204 46.079 70.1211 45.9826ZM71.8976 46.006C71.8976 45.8903 71.8226 45.8004 71.6727 45.7364C71.5227 45.6724 71.3092 45.6404 71.0322 45.6404C70.8363 45.6324 70.6409 45.6651 70.4583 45.7364C70.3171 45.7979 70.2462 45.8853 70.2462 45.99C70.2462 46.0946 70.3325 46.1888 70.5045 46.2565C70.7017 46.3289 70.9109 46.3636 71.1209 46.3586C71.308 46.3633 71.4941 46.3315 71.669 46.2651C71.8214 46.2023 71.8976 46.1159 71.8976 46.006Z" fill="#739AF0"/>
</g>
<defs>
<clipPath id="clip0">
<rect width="103" height="172" fill="white"/>
</clipPath>
</defs>
</svg>
