<svg width="40" height="40" viewBox="0 0 40 40" fill="none" xmlns="http://www.w3.org/2000/svg">
<path d="M18.3652 18.3821V37.549L19.9992 39.9999V18.3821H18.3652Z" fill="#4F4F4F"/>
<path d="M20 18.3821V39.9999L21.634 37.549V18.3821H20Z" fill="black"/>
<path d="M29.3961 9.39532C29.3961 14.5873 25.1887 18.7906 20.0008 18.7906C15.6586 18.7906 12.0025 15.8454 10.9282 11.8422C10.7157 11.062 10.6055 10.245 10.6055 9.39532C10.6054 4.20745 14.8128 0 20.0007 0C22.9092 0 25.5072 1.31943 27.227 3.39454C28.5832 5.02036 29.3961 7.11597 29.3961 9.39532Z" fill="#264796"/>
<path d="M27.5497 5.83737C27.5497 11.0252 23.3423 15.2327 18.1544 15.2327C15.246 15.2327 12.6521 13.9133 10.9282 11.8422C10.7157 11.062 10.6055 10.245 10.6055 9.39532C10.6055 4.20745 14.8129 0 20.0008 0C22.9092 0 25.5073 1.31943 27.227 3.39454C27.4395 4.17482 27.5497 4.99183 27.5497 5.83737Z" fill="#264796"/>
<path d="M22.4705 4.39544C22.5469 3.70715 22.024 3.08976 21.3447 2.95532C19.6936 2.6286 15.6675 2.33912 13.8969 6.70161C13.8969 6.70161 13.4652 7.82415 14.7064 7.68381C15.3045 7.61616 15.8392 7.28757 16.2157 6.81786C16.8271 6.055 18.2781 4.81304 20.9753 5.39986C21.6087 5.53763 22.2849 5.18794 22.4413 4.55893C22.4542 4.50665 22.4641 4.45216 22.4705 4.39544Z" fill="white"/>
</svg>
