<svg width="14" height="4" viewBox="0 0 14 4" fill="none" xmlns="http://www.w3.org/2000/svg">
<path d="M3.75 2C3.75 2.9665 2.9665 3.75 2 3.75C1.0335 3.75 0.25 2.9665 0.25 2C0.25 1.0335 1.0335 0.25 2 0.25C2.9665 0.25 3.75 1.0335 3.75 2ZM8.75 2C8.75 2.9665 7.9665 3.75 7 3.75C6.0335 3.75 5.25 2.9665 5.25 2C5.25 1.0335 6.0335 0.25 7 0.25C7.9665 0.25 8.75 1.0335 8.75 2ZM12 3.75C12.9665 3.75 13.75 2.9665 13.75 2C13.75 1.0335 12.9665 0.25 12 0.25C11.0335 0.25 10.25 1.0335 10.25 2C10.25 2.9665 11.0335 3.75 12 3.75Z" fill="#9E9EA7"/>
</svg>
