<svg width="16" height="16" viewBox="0 0 16 16" fill="none" xmlns="http://www.w3.org/2000/svg">
<path d="M7.33203 2.66602H2.66536C2.31174 2.66602 1.9726 2.80649 1.72256 3.05654C1.47251 3.30659 1.33203 3.64573 1.33203 3.99935V13.3327C1.33203 13.6863 1.47251 14.0254 1.72256 14.2755C1.9726 14.5255 2.31174 14.666 2.66536 14.666H11.9987C12.3523 14.666 12.6915 14.5255 12.9415 14.2755C13.1916 14.0254 13.332 13.6863 13.332 13.3327V8.66602" stroke="#10161E" stroke-width="1.5" stroke-linecap="round" stroke-linejoin="round"/>
<path d="M11.668 1.66617C11.9332 1.40095 12.2929 1.25195 12.668 1.25195C13.043 1.25195 13.4028 1.40095 13.668 1.66617C13.9332 1.93138 14.0822 2.29109 14.0822 2.66617C14.0822 3.04124 13.9332 3.40095 13.668 3.66617L7.33464 9.9995L4.66797 10.6662L5.33464 7.9995L11.668 1.66617Z" stroke="#10161E" stroke-width="1.5" stroke-linecap="round" stroke-linejoin="round"/>
</svg>
