<svg width="20" height="20" viewBox="0 0 20 20" fill="none" xmlns="http://www.w3.org/2000/svg">
<path d="M9.16504 3.33252H3.33171C2.88968 3.33252 2.46575 3.50811 2.15319 3.82067C1.84063 4.13324 1.66504 4.55716 1.66504 4.99919V16.6659C1.66504 17.1079 1.84063 17.5318 2.15319 17.8444C2.46575 18.1569 2.88968 18.3325 3.33171 18.3325H14.9984C15.4404 18.3325 15.8643 18.1569 16.1769 17.8444C16.4894 17.5318 16.665 17.1079 16.665 16.6659V10.8325" stroke="#0091FF" stroke-width="1.5" stroke-linecap="round" stroke-linejoin="round"/>
<path d="M14.585 2.08271C14.9165 1.75119 15.3661 1.56494 15.835 1.56494C16.3038 1.56494 16.7534 1.75119 17.085 2.08271C17.4165 2.41423 17.6027 2.86387 17.6027 3.33271C17.6027 3.80155 17.4165 4.25119 17.085 4.58271L9.16829 12.4994L5.83496 13.3327L6.66829 9.99938L14.585 2.08271Z" stroke="#0091FF" stroke-width="1.5" stroke-linecap="round" stroke-linejoin="round"/>
</svg>
