<svg width="24" height="24" viewBox="0 0 24 24" fill="none" xmlns="http://www.w3.org/2000/svg">
<path d="M21.2827 8.58468H20.7064V5.80404C20.7064 5.78671 20.7037 5.76924 20.7017 5.75151C20.7007 5.64121 20.6654 5.53278 20.5898 5.44686L15.9622 0.160951C15.9608 0.159594 15.9594 0.159113 15.9585 0.157668C15.9309 0.126852 15.8988 0.101202 15.8647 0.0790529C15.8547 0.072312 15.8445 0.0666653 15.834 0.0607123C15.8046 0.0447354 15.7733 0.0312972 15.7412 0.0216236C15.7324 0.0193474 15.7246 0.0157581 15.7159 0.0134819C15.6809 0.00516514 15.6446 0 15.6079 0H4.23563C3.71636 0 3.29448 0.42236 3.29448 0.941194V8.58442H2.71826C1.9754 8.58442 1.37305 9.18655 1.37305 9.92968V16.925C1.37305 17.6674 1.9754 18.2702 2.71826 18.2702H3.29448V23.0588C3.29448 23.5777 3.71636 24 4.23563 24H19.765C20.2838 24 20.7062 23.5777 20.7062 23.0588V18.2702H21.2825C22.0251 18.2702 22.6276 17.6678 22.6276 16.9251V9.92994C22.6276 9.1866 22.0256 8.58468 21.2827 8.58468ZM4.23563 0.941194H15.1373V5.75642C15.1373 6.01643 15.3482 6.22701 15.6079 6.22701H19.7651V8.58464H4.23563V0.941194ZM13.7701 13.7735C12.8454 13.4513 12.2421 12.9398 12.2421 12.1301C12.2421 11.1803 13.0348 10.4537 14.3482 10.4537C14.9755 10.4537 15.4383 10.5856 15.7683 10.7344L15.4877 11.75C15.2648 11.6429 14.8685 11.4857 14.3234 11.4857C13.7784 11.4857 13.5141 11.7335 13.5141 12.0226C13.5141 12.3778 13.828 12.5346 14.5463 12.8071C15.5288 13.1706 15.9914 13.6825 15.9914 14.4669C15.9914 15.4003 15.2728 16.1931 13.745 16.1931C13.1093 16.1931 12.4817 16.0281 12.1679 15.8544L12.4236 14.814C12.7624 14.9872 13.2828 15.161 13.8193 15.161C14.3979 15.161 14.703 14.9215 14.703 14.558C14.7032 14.2114 14.439 14.0129 13.7701 13.7735ZM11.6402 15.0533V16.1107H8.16293V10.544H9.42694V15.0533H11.6402ZM4.12532 16.1107H2.68845L4.29875 13.2938L2.74601 10.5438H4.19142L4.67839 11.5597C4.84358 11.8983 4.96755 12.1705 5.09983 12.4848H5.11589C5.24839 12.1296 5.35563 11.8819 5.49562 11.5597L5.96643 10.5438H7.40335L5.8342 13.2605L7.48616 16.1102H6.03283L5.5288 15.1025C5.32267 14.7149 5.19044 14.4256 5.03347 14.1035H5.01705C4.90127 14.4256 4.7612 14.7149 4.5876 15.1025L4.12532 16.1107ZM19.7651 22.804H4.23563V18.2702H19.765V22.804H19.7651ZM19.7736 16.1107L19.2696 15.103C19.0633 14.715 18.9312 14.4261 18.7742 14.1039H18.7582C18.6423 14.4261 18.5017 14.715 18.328 15.103L17.8662 16.1107H16.4289L18.0392 13.2938L16.4865 10.5438H17.9319L18.4195 11.5597C18.5845 11.8983 18.708 12.1705 18.8405 12.4848H18.857C18.9888 12.1296 19.0959 11.8819 19.2365 11.5597L19.7071 10.5438H21.1444L19.5752 13.2605L21.2269 16.1102H19.7736V16.1107Z" fill="#B8C3DE"/>
</svg>
