<svg width="24" height="24" viewBox="0 0 24 24" fill="none" xmlns="http://www.w3.org/2000/svg">
<path d="M3.26307 22.0966C3.26307 22.0966 3.24124 22.6331 3.76599 22.6331C4.41896 22.6331 9.81555 22.6259 9.81555 22.6259L9.82464 17.6685C9.82464 17.6685 9.73916 16.8518 10.5313 16.8518H13.0422C13.9799 16.8518 13.9226 17.6685 13.9226 17.6685L13.9116 22.6104C13.9116 22.6104 19.0299 22.6104 19.8339 22.6104C20.4996 22.6104 20.4696 21.9429 20.4696 21.9429V12.8012L12.1228 5.3775L3.26307 12.8021V22.0966Z" fill="#264796"/>
<path d="M0 12.111C0 12.111 0.751194 13.4969 2.39272 12.111L12.1973 3.816L21.389 12.0591C23.2879 13.4287 24 12.0591 24 12.0591L12.1973 1.3678L0 12.111Z" fill="#264796"/>
<path d="M21.1654 3.79691H18.8018L18.8118 6.66436L21.1654 8.66238V3.79691Z" fill="#264796"/>
</svg>
