<svg width="56" height="71" viewBox="0 0 56 71" fill="none" xmlns="http://www.w3.org/2000/svg">
<path d="M55.401 70.0749L50.9637 8.93668L37.5455 0.898438H0.598877L5.62074 70.0749H55.401Z" fill="white"/>
<path d="M55.3737 70.6738H5.65407C5.49044 70.6743 5.33263 70.6133 5.21211 70.5028C5.0916 70.3924 5.01725 70.2407 5.00389 70.0779L0.00140643 0.688695C-0.00441242 0.59964 0.00786368 0.510337 0.0375071 0.426138C0.0671505 0.34194 0.113536 0.264591 0.173892 0.19874C0.233133 0.135128 0.305065 0.0845965 0.38505 0.0503872C0.465034 0.0161779 0.551308 -0.000943954 0.638321 0.000114658H37.5399C37.6572 -0.0021813 37.7726 0.0300487 37.8716 0.0927996L51.2735 8.14407C51.3645 8.19472 51.4413 8.26732 51.4969 8.35522C51.5525 8.44312 51.5852 8.54353 51.592 8.64728L55.9973 69.9852C56.0056 70.0744 55.9945 70.1644 55.9647 70.249C55.935 70.3335 55.8872 70.4107 55.8248 70.4752C55.7048 70.5956 55.5437 70.6666 55.3737 70.6738V70.6738ZM6.27772 69.3496H54.6704L50.3181 9.03129L37.4205 1.28459H1.32832L6.27772 69.3496Z" fill="black"/>
<path d="M50.6096 8.81792L37.4331 0.898438L42.2732 11.3797L50.6096 8.81792Z" fill="#EBEBEB"/>
<path d="M42.3972 11.9123C42.2732 11.9121 42.152 11.8756 42.0485 11.8073C41.9451 11.739 41.8638 11.642 41.8147 11.528L36.9036 0.92519C36.84 0.8003 36.8193 0.657854 36.8449 0.520017C36.8705 0.38218 36.9408 0.256656 37.045 0.162956C37.1491 0.0692549 37.2813 0.012637 37.4209 0.0018774C37.5605 -0.00888222 37.6997 0.0268214 37.817 0.103459L51.1868 8.16159C51.2947 8.22643 51.3819 8.32072 51.4382 8.43339C51.4944 8.54607 51.5174 8.67245 51.5045 8.79776C51.4846 8.91867 51.4321 9.03189 51.3529 9.12527C51.2736 9.21865 51.1704 9.2887 51.0545 9.32791L42.5825 11.9786L42.3972 11.9123ZM38.9422 2.21076L42.7413 10.481L49.3601 8.45317L38.9422 2.21076Z" fill="black"/>
<path d="M21.5566 31.8876C21.5784 32.2541 21.5257 32.6212 21.4016 32.9663C21.2776 33.3115 21.0848 33.6273 20.8353 33.8944C20.5857 34.1614 20.2846 34.3741 19.9506 34.5192C19.6165 34.6643 19.2566 34.7388 18.8929 34.7382C18.1305 34.7241 17.4005 34.4247 16.8443 33.898C16.2882 33.3713 15.9456 32.6549 15.883 31.8876C15.8485 31.519 15.8925 31.1471 16.0121 30.7971C16.1317 30.4471 16.3242 30.1269 16.5765 29.8582C16.8288 29.5894 17.1351 29.3783 17.475 29.239C17.8148 29.0997 18.1802 29.0354 18.5467 29.0505C19.307 29.0642 20.0353 29.3618 20.5911 29.8857C21.147 30.4096 21.4909 31.1228 21.5566 31.8876Z" fill="#2B2B2B"/>
<path d="M39.8171 31.8865C39.8531 32.2557 39.8068 32.628 39.6814 32.9786C39.556 33.3292 39.3544 33.6501 39.0899 33.9198C38.8254 34.1895 38.5042 34.4019 38.1476 34.5427C37.7911 34.6836 37.4074 34.7496 37.0223 34.7366C36.2208 34.7228 35.4531 34.4239 34.8673 33.8976C34.2815 33.3712 33.9191 32.6548 33.8502 31.8865C33.8163 31.5184 33.8641 31.1476 33.9904 30.7986C34.1168 30.4496 34.3188 30.1304 34.583 29.8622C34.8473 29.594 35.1678 29.3829 35.5232 29.2428C35.8787 29.1028 36.2611 29.0371 36.645 29.0499C37.4461 29.0573 38.2154 29.3523 38.8022 29.8771C39.389 30.4018 39.7509 31.1184 39.8171 31.8865V31.8865Z" fill="#2B2B2B"/>
<path d="M44.9182 49.9897C44.7557 49.99 44.5992 49.9297 44.4806 49.821C44.3621 49.7124 44.2904 49.5636 44.2803 49.405C43.948 44.9876 36.8511 41.3887 28.4651 41.3887C22.8965 41.3887 17.8995 42.9998 15.4275 45.6112C14.9214 46.0885 14.5247 46.6654 14.2635 47.3037C14.0023 47.942 13.8827 48.6272 13.9125 49.3141C13.9186 49.3994 13.9074 49.4851 13.8797 49.5662C13.8519 49.6473 13.8081 49.7222 13.7507 49.7868C13.6348 49.9171 13.4707 49.9971 13.2945 50.0092C13.1182 50.0212 12.9443 49.9644 12.811 49.8511C12.6776 49.7378 12.5958 49.5773 12.5834 49.405C12.5449 48.5458 12.6905 47.6882 13.011 46.8872C13.3314 46.0862 13.8195 45.3595 14.4441 44.7537C17.1021 41.8954 22.5111 40.1284 28.4252 40.1284C37.6352 40.1284 45.1441 44.1691 45.5163 49.3141C45.5235 49.3971 45.5137 49.4806 45.4874 49.5598C45.461 49.639 45.4188 49.7123 45.363 49.7752C45.3073 49.8382 45.2392 49.8896 45.1628 49.9265C45.0864 49.9633 45.0032 49.9848 44.9182 49.9897V49.9897Z" fill="black"/>
<path d="M11.0746 26.3519C10.998 26.3536 10.9218 26.3386 10.8505 26.3078C10.7792 26.2769 10.7141 26.2307 10.6592 26.172C10.6028 26.1103 10.5581 26.037 10.5276 25.9563C10.4971 25.8755 10.4814 25.789 10.4814 25.7015C10.4814 25.6141 10.4971 25.5276 10.5276 25.4468C10.5581 25.3661 10.6028 25.2928 10.6592 25.231L13.3407 22.0622C13.3959 21.9986 13.4624 21.9479 13.5359 21.9133C13.6095 21.8787 13.6887 21.8608 13.7687 21.8608C13.8487 21.8608 13.9279 21.8787 14.0015 21.9133C14.0751 21.9479 14.1415 21.9986 14.1967 22.0622C14.2531 22.1239 14.2978 22.1972 14.3283 22.278C14.3588 22.3587 14.3745 22.4453 14.3745 22.5327C14.3745 22.6201 14.3588 22.7066 14.3283 22.7874C14.2978 22.8681 14.2531 22.9414 14.1967 23.0032L11.5153 26.172C11.4569 26.2335 11.3877 26.2812 11.3119 26.3121C11.2361 26.3431 11.1553 26.3566 11.0746 26.3519V26.3519Z" fill="black"/>
<path d="M43.4188 26.3527C43.2689 26.3505 43.1249 26.2866 43.0139 26.1728L40.0083 23.0172C39.9515 22.9553 39.9064 22.8811 39.8756 22.799C39.8447 22.717 39.8289 22.6288 39.8289 22.5397C39.8289 22.4506 39.8447 22.3624 39.8756 22.2804C39.9064 22.1984 39.9515 22.1242 40.0083 22.0622C40.0621 21.9986 40.1269 21.9479 40.1986 21.9133C40.2703 21.8787 40.3474 21.8608 40.4254 21.8608C40.5034 21.8608 40.5806 21.8787 40.6522 21.9133C40.7239 21.9479 40.7887 21.9986 40.8425 22.0622L43.8482 25.2316C43.9031 25.2934 43.9466 25.3667 43.9764 25.4474C44.0061 25.5282 44.0214 25.6148 44.0214 25.7022C44.0214 25.7896 44.0061 25.8762 43.9764 25.957C43.9466 26.0377 43.9031 26.1111 43.8482 26.1728C43.7303 26.2918 43.5769 26.3561 43.4188 26.3527V26.3527Z" fill="black"/>
</svg>
