<svg width="32" height="26" viewBox="0 0 32 26" fill="none" xmlns="http://www.w3.org/2000/svg">
<path d="M28.1515 4.33292H23.5251V3.85764C23.5251 1.73422 21.8018 0.0108643 19.6784 0.0108643H12.3208C10.1965 0.0108643 8.47401 1.73422 8.47401 3.85764V4.33292H3.84677C1.7225 4.33292 0 6.05542 0 8.1797V22.1426C0 24.266 1.7225 25.9894 3.84677 25.9894H28.1532C30.2775 25.9894 32 24.266 32 22.1426V8.1797C31.9983 6.05457 30.2758 4.33292 28.1515 4.33292ZM15.9983 21.999C11.9908 21.999 8.73217 18.7404 8.73217 14.7329C8.73217 10.7263 11.9908 7.46676 15.9983 7.46676C20.0058 7.46676 23.2644 10.7254 23.2644 14.7329C23.2644 18.7404 20.0049 21.999 15.9983 21.999ZM19.8451 14.7329C19.8451 16.852 18.1183 18.5797 15.9983 18.5797C13.8783 18.5797 12.1515 16.852 12.1515 14.7329C12.1515 12.6129 13.8783 10.8861 15.9983 10.8861C18.1183 10.8861 19.8451 12.6129 19.8451 14.7329Z" fill="#C6C6C6"/>
</svg>
