<svg width="24" height="24" viewBox="0 0 24 24" fill="none" xmlns="http://www.w3.org/2000/svg">
<mask id="path-1-inside-1" fill="white">
<rect width="3" height="3" rx="1" transform="matrix(-1 0 0 1 5.25 4.5)"/>
</mask>
<rect width="3" height="3" rx="1" transform="matrix(-1 0 0 1 5.25 4.5)" fill="white" stroke="white" stroke-width="3" mask="url(#path-1-inside-1)"/>
<mask id="path-2-inside-2" fill="white">
<rect width="15" height="3" rx="1" transform="matrix(-1 0 0 1 21.75 4.5)"/>
</mask>
<rect width="15" height="3" rx="1" transform="matrix(-1 0 0 1 21.75 4.5)" stroke="white" stroke-width="3" mask="url(#path-2-inside-2)"/>
<mask id="path-3-inside-3" fill="white">
<rect width="3" height="3" rx="1" transform="matrix(-1 0 0 1 5.25 10.5)"/>
</mask>
<rect width="3" height="3" rx="1" transform="matrix(-1 0 0 1 5.25 10.5)" fill="white" stroke="white" stroke-width="3" mask="url(#path-3-inside-3)"/>
<mask id="path-4-inside-4" fill="white">
<rect width="15" height="3" rx="1" transform="matrix(-1 0 0 1 21.75 10.5)"/>
</mask>
<rect width="15" height="3" rx="1" transform="matrix(-1 0 0 1 21.75 10.5)" stroke="white" stroke-width="3" mask="url(#path-4-inside-4)"/>
<mask id="path-5-inside-5" fill="white">
<rect width="3" height="3" rx="1" transform="matrix(-1 0 0 1 5.25 16.5)"/>
</mask>
<rect width="3" height="3" rx="1" transform="matrix(-1 0 0 1 5.25 16.5)" fill="white" stroke="white" stroke-width="3" mask="url(#path-5-inside-5)"/>
<mask id="path-6-inside-6" fill="white">
<rect width="15" height="3" rx="1" transform="matrix(-1 0 0 1 21.75 16.5)"/>
</mask>
<rect width="15" height="3" rx="1" transform="matrix(-1 0 0 1 21.75 16.5)" stroke="white" stroke-width="3" mask="url(#path-6-inside-6)"/>
</svg>
