<svg width="24" height="24" viewBox="0 0 24 24" fill="none" xmlns="http://www.w3.org/2000/svg">
<path d="M3 6H5H21" stroke="#B8C3DE" stroke-width="1.5" stroke-linecap="round" stroke-linejoin="round"/>
<path d="M7.99805 6.00098V4.00098C7.99805 3.47054 8.20876 2.96184 8.58383 2.58676C8.95891 2.21169 9.46761 2.00098 9.99805 2.00098H13.998C14.5285 2.00098 15.0372 2.21169 15.4123 2.58676C15.7873 2.96184 15.998 3.47054 15.998 4.00098V6.00098M18.998 6.00098V20.001C18.998 20.5314 18.7873 21.0401 18.4123 21.4152C18.0372 21.7903 17.5285 22.001 16.998 22.001H6.99805C6.46761 22.001 5.95891 21.7903 5.58383 21.4152C5.20876 21.0401 4.99805 20.5314 4.99805 20.001V6.00098H18.998Z" stroke="#B8C3DE" stroke-width="1.5" stroke-linecap="round" stroke-linejoin="round"/>
<path d="M10.002 11.001V17.001" stroke="#B8C3DE" stroke-width="1.5" stroke-linecap="round" stroke-linejoin="round"/>
<path d="M13.998 11.001V17.001" stroke="#B8C3DE" stroke-width="1.5" stroke-linecap="round" stroke-linejoin="round"/>
</svg>
