<svg width="20" height="20" viewBox="0 0 20 20" fill="none" xmlns="http://www.w3.org/2000/svg">
<path d="M2.5 5H4.16667H17.5" stroke="#FF4939" stroke-width="1.5" stroke-linecap="round" stroke-linejoin="round"/>
<path d="M6.66504 5.00081V3.33415C6.66504 2.89212 6.84063 2.4682 7.15319 2.15564C7.46576 1.84308 7.88968 1.66748 8.33171 1.66748H11.665C12.1071 1.66748 12.531 1.84308 12.8435 2.15564C13.1561 2.4682 13.3317 2.89212 13.3317 3.33415V5.00081M15.8317 5.00081V16.6675C15.8317 17.1095 15.6561 17.5334 15.3435 17.846C15.031 18.1586 14.6071 18.3341 14.165 18.3341H5.83171C5.38968 18.3341 4.96575 18.1586 4.65319 17.846C4.34063 17.5334 4.16504 17.1095 4.16504 16.6675V5.00081H15.8317Z" stroke="#FF4939" stroke-width="1.5" stroke-linecap="round" stroke-linejoin="round"/>
<path d="M8.33496 9.16748V14.1675" stroke="#FF4939" stroke-width="1.5" stroke-linecap="round" stroke-linejoin="round"/>
<path d="M11.665 9.16748V14.1675" stroke="#FF4939" stroke-width="1.5" stroke-linecap="round" stroke-linejoin="round"/>
</svg>
